<svg id="eayzxtphmku1" xmlns="http://www.w3.org/2000/svg" xmlns:xlink="http://www.w3.org/1999/xlink" viewBox="0 0 1366 768" shape-rendering="geometricPrecision" text-rendering="geometricPrecision"><g id="eayzxtphmku2"/><g id="eayzxtphmku3"/><g id="eayzxtphmku4"/><g id="eayzxtphmku5"/><g id="eayzxtphmku6"/><g id="eayzxtphmku7"><g id="eayzxtphmku8"/><g id="eayzxtphmku9"/></g><g id="eayzxtphmku10"/><g id="eayzxtphmku11"/><g id="eayzxtphmku12"/><g id="eayzxtphmku13"/><g id="eayzxtphmku14"><g id="eayzxtphmku15"><g id="eayzxtphmku16"><g id="eayzxtphmku17" transform="matrix(1 0 0 1 -123.63107300500002 8.61426372000017)" opacity="0"><path id="eayzxtphmku18" d="M-7.600000,0C-7.600000,-2.650967,-4.197364,-4.800000,0,-4.800000C4.197364,-4.800000,7.600000,-2.650967,7.600000,0C7.600000,2.650967,4.197364,4.800000,0,4.800000C-4.197364,4.800000,-7.600000,2.650967,-7.600000,0Z" transform="matrix(0.00122200000009 -1 1 0.00122200000009 486.70974740004220 753.86114360006559)" fill="rgb(173,173,173)" stroke="none" stroke-width="1"/><path id="eayzxtphmku19" d="M-6.400000,0C-6.400000,-2.650967,-3.534622,-4.800000,0,-4.800000C3.534622,-4.800000,6.400000,-2.650967,6.400000,0C6.400000,2.650967,3.534622,4.800000,0,4.800000C-3.534622,4.800000,-6.400000,2.650967,-6.400000,0Z" transform="matrix(0.00122200000009 -1 1 0.00122200000009 486.77074740004230 753.20041040006549)" fill="rgb(255,255,255)" stroke="none" stroke-width="1"/><path id="eayzxtphmku20" d="M-7.600000,0C-7.600000,-2.650967,-4.197364,-4.800000,0,-4.800000C4.197364,-4.800000,7.600000,-2.650967,7.600000,0C7.600000,2.650967,4.197364,4.800000,0,4.800000C-4.197364,4.800000,-7.600000,2.650967,-7.600000,0Z" transform="matrix(0.00122200000009 -1 1 0.00122200000009 460.39560880004001 753.84114360006538)" fill="rgb(173,173,173)" stroke="none" stroke-width="1"/><path id="eayzxtphmku21" d="M-6.300000,0C-6.300000,-2.650967,-3.479394,-4.800000,0,-4.800000C3.479394,-4.800000,6.300000,-2.650967,6.300000,0C6.300000,2.650967,3.479394,4.800000,0,4.800000C-3.479394,4.800000,-6.300000,2.650967,-6.300000,0Z" transform="matrix(0.00122200000009 -1 1 0.00122200000009 460.44260880004003 753.10028820006528)" fill="rgb(255,255,255)" stroke="none" stroke-width="1"/><path id="eayzxtphmku22" d="M497.800000,609.400000C495.900000,611.500000,493.900000,614,496.900000,616.100000C500.200000,618.500000,503.400000,616.500000,506.200000,614.300000C504.200000,613,502.100000,611.900000,500,610.600000C499.200000,610.200000,498.500000,609.800000,497.800000,609.400000Z" fill="rgb(245,185,140)" stroke="none" stroke-width="1"/><path id="eayzxtphmku23" d="M456.700000,618.700000C452.800000,621.800000,449.300000,618.300000,446.300000,615.600000C448.400000,614.100000,450.500000,612.800000,452.600000,611.400000C453.400000,610.900000,454.100000,610.300000,454.900000,609.900000C457.400000,612.400000,460.300000,615.900000,456.700000,618.700000Z" fill="rgb(245,185,140)" stroke="none" stroke-width="1"/><path id="eayzxtphmku24" d="M499.700000,611.800000C499.400000,614.500000,500.700000,614.700000,502.700000,616.400000L499.800000,602.900000C498.700000,604.500000,497.900000,605.700000,496.700000,607.400000C497.900000,608.300000,499,609.100000,500.200000,610C500,610.500000,499.800000,611.200000,499.700000,611.800000Z" fill="rgb(45,96,170)" stroke="none" stroke-width="1"/><path id="eayzxtphmku25" d="M502.800000,616.400000C502.700000,620.600000,501.900000,626.200000,501.300000,630.300000C492.200000,670.200000,497.500000,711.700000,492.700000,752L492.200000,751.800000C485.600000,749.400000,487.800000,748.800000,482,750.900000L480.800000,751.300000C478.700000,712.400000,474.100000,673.500000,477.200000,634.600000C475.900000,635,474.700000,635.300000,473.400000,635.700000C471.900000,675.500000,471.200000,711,466,750.800000L465.700000,750.700000C461.600000,749.800000,459.300000,749.200000,455.400000,750.800000L455,751C450.400000,716.700000,454.800000,673.100000,450.800000,641.200000C450.100000,632.900000,450.100000,624.600000,450.800000,616.300000L450.800000,616.300000L450.800000,607.400000L450.600000,607.200000C450.600000,607.100000,451.800000,597.700000,451.800000,597.700000L499.400000,596.200000C500,597.900000,500.500000,599.500000,501,601.200000C500.800000,601.500000,500.600000,601.800000,500.400000,602.200000C499.300000,603.800000,498.200000,605.500000,497,607.200000C498.200000,608.100000,499.300000,608.900000,500.500000,609.800000C500.200000,610.400000,500,611,499.900000,611.700000C499.400000,614.500000,500.700000,614.700000,502.800000,616.400000Z" fill="rgb(45,96,170)" stroke="none" stroke-width="1"/><path id="eayzxtphmku26" d="M513.400000,524.800000C510.100000,528.300000,507.200000,531.500000,505.100000,535.900000C517.800000,562.100000,517.100000,579.500000,500.300000,603.600000C499.100000,605.300000,497.600000,606.800000,496.400000,608.500000L497.800000,609.300000L500,610.600000C502.100000,611.800000,504.200000,613,506.200000,614.200000L508.400000,615.500000C525.900000,596.300000,541.900000,541.200000,513.400000,524.800000Z" fill="rgb(255,166,59)" stroke="none" stroke-width="1"/><path id="eayzxtphmku27" d="M456.500000,608.800000L455,609.800000L454.100000,610.400000L453.300000,611L452.700000,611.400000L447.900000,614.500000C447.400000,614.800000,446.800000,615.200000,446.300000,615.500000C445.800000,615.800000,445.600000,616,445.100000,616.300000C423.100000,589.300000,409.900000,560.300000,436.200000,530.600000C439.200000,527.200000,446.900000,521.900000,452.600000,521.900000C452.700000,521.900000,452.900000,521.800000,452.900000,521.800000C452.900000,521.800000,452.900000,521.800000,452.900000,521.800000C453.100000,526.800000,451.100000,531.800000,450.100000,536.700000C444.500000,543.600000,438.700000,551,437,559.600000C434.100000,574.200000,440.300000,585.800000,448,597.700000C449.200000,599.600000,451.300000,602.200000,452.800000,604.200000C452.900000,604.300000,453,604.400000,453.100000,604.500000C454.100000,606.100000,455.300000,607.500000,456.500000,608.800000Z" fill="rgb(255,166,59)" stroke="none" stroke-width="1"/><path id="eayzxtphmku28" d="M500.300000,602.900000C484.900000,603.100000,469.700000,602.200000,454.400000,602.900000C453.300000,602.900000,452.100000,603,451,603.100000C450.500000,600.700000,450,598.400000,449.400000,596.100000C446.100000,583.100000,441.300000,571.200000,438.600000,558.700000C436.700000,549.700000,435.800000,540.500000,437.400000,530.400000C440.600000,527.300000,444,524.500000,447.700000,522.100000C447.800000,522.100000,447.900000,522,447.900000,522C455.900000,518.400000,465.600000,515.700000,465.600000,515.700000L485.900000,516.300000L491.100000,516.900000C495.300000,517.700000,515.700000,524,516.100000,527.400000C519.500000,553.300000,510,578.600000,500.300000,602.900000Z" fill="rgb(255,166,59)" stroke="none" stroke-width="1"/><path id="eayzxtphmku29" d="M-6.800000,0C-6.800000,-1.767311,-3.755536,-3.200000,0,-3.200000C3.755536,-3.200000,6.800000,-1.767311,6.800000,0C6.800000,1.767311,3.755536,3.200000,0,3.200000C-3.755536,3.200000,-6.800000,1.767311,-6.800000,0Z" transform="matrix(0.16130000000000 -0.98690000000000 0.98690000000000 0.16130000000000 503.60180999999977 490.76506999999981)" fill="rgb(245,185,140)" stroke="none" stroke-width="1"/><path id="eayzxtphmku30" d="M-5,0C-5,-1.104569,-2.761424,-2,0,-2C2.761424,-2,5,-1.104569,5,0C5,1.104569,2.761424,2,0,2C-2.761424,2,-5,1.104569,-5,0Z" transform="matrix(0.16130000000000 -0.98690000000000 0.98690000000000 0.16130000000000 503.28308999999979 490.73082999999980)" fill="rgb(226,163,121)" stroke="none" stroke-width="1"/><path id="eayzxtphmku31" d="M-3.200000,0C-3.200000,-3.755536,-1.767311,-6.800000,0,-6.800000C1.767311,-6.800000,3.200000,-3.755536,3.200000,0C3.200000,3.755536,1.767311,6.800000,0,6.800000C-1.767311,6.800000,-3.200000,3.755536,-3.200000,0Z" transform="matrix(0.99850000000000 -0.05495000000000 0.05495000000000 0.99850000000000 452.10521500000010 490.70535500000005)" fill="rgb(245,185,140)" stroke="none" stroke-width="1"/><path id="eayzxtphmku32" d="M-2,0C-2,-2.761424,-1.104569,-5,0,-5C1.104569,-5,2,-2.761424,2,0C2,2.761424,1.104569,5,0,5C-1.104569,5,-2,2.761424,-2,0Z" transform="matrix(0.99850000000000 -0.05495000000000 0.05495000000000 0.99850000000000 452.50641500000006 490.70427500000011)" fill="rgb(226,163,121)" stroke="none" stroke-width="1"/><path id="eayzxtphmku33" d="M486.600000,457.500000L467.500000,457.500000C457.700000,457.500000,449.800000,466.300000,449.800000,477.100000L449.800000,482.600000C449.800000,487.400000,451,492.100000,453.100000,496.400000C457.100000,504.300000,462.900000,514.700000,467,516.800000C468.400000,521.600000,472.200000,525.100000,476.400000,525.400000C480.700000,525.800000,485,522.700000,486.900000,518.100000C487.600000,517.900000,488.400000,517.700000,489.100000,517.500000C496.400000,515.300000,503.600000,494.300000,504.300000,492.200000C504.300000,492.100000,504.400000,492,504.400000,491.900000L504.500000,491.600000C504.600000,491.400000,504.600000,491.200000,504.600000,491C504.700000,489.700000,504.900000,488.800000,504.900000,487.500000L504.900000,478C505,466.700000,496.700000,457.500000,486.600000,457.500000ZM478.600000,500.500000C479,500.500000,479.400000,500.500000,479.700000,500.500000C479.600000,500.500000,479.400000,500.600000,479.400000,500.800000C479.100000,501.200000,478.600000,501.400000,478.100000,501.100000C478,501,477.800000,500.900000,477.800000,500.800000C477.700000,500.700000,477.600000,500.600000,477.500000,500.500000C477.800000,500.500000,478.200000,500.500000,478.600000,500.500000L478.600000,500.500000Z" fill="rgb(245,185,140)" stroke="none" stroke-width="1"/><path id="eayzxtphmku34" d="M502.500000,497.400000C502,506.500000,501.300000,504.200000,496.400000,510.900000C490.200000,519.300000,486.600000,519.700000,477.700000,519.700000C469.900000,519.700000,466.800000,517.600000,460.800000,511.400000C453.800000,504.200000,454.400000,507.300000,453.500000,496.800000C456.900000,504.200000,464.500000,507.400000,469,509.500000C474.800000,512.100000,481,512.900000,487.800000,510.400000C494.500000,508,502.500000,497.400000,502.500000,497.400000Z" fill="rgb(22,9,0)" stroke="none" stroke-width="1"/><path id="eayzxtphmku35" d="M-2.600000,0C-2.600000,-1.380712,-1.435940,-2.500000,0,-2.500000C1.435940,-2.500000,2.600000,-1.380712,2.600000,0C2.600000,1.380712,1.435940,2.500000,0,2.500000C-1.435940,2.500000,-2.600000,1.380712,-2.600000,0Z" transform="matrix(1 0 0 1 466.30000000000001 485.30000000000001)" fill="rgb(0,6,13)" stroke="none" stroke-width="1"/><path id="eayzxtphmku36" d="M-2.600000,0C-2.600000,-1.380712,-1.435940,-2.500000,0,-2.500000C1.435940,-2.500000,2.600000,-1.380712,2.600000,0C2.600000,1.380712,1.435940,2.500000,0,2.500000C-1.435940,2.500000,-2.600000,1.380712,-2.600000,0Z" transform="matrix(1 0 0 1 489.10000000000002 485.30000000000001)" fill="rgb(0,6,13)" stroke="none" stroke-width="1"/><path id="eayzxtphmku37" d="M478,493.300000C476.500000,493.300000,475.300000,491.700000,475.300000,489.700000L475.300000,491.800000C475.300000,493.800000,476.500000,495.400000,478,495.400000C479.500000,495.400000,480.700000,493.800000,480.700000,491.800000L480.700000,489.700000C480.800000,491.700000,479.500000,493.300000,478,493.300000Z" fill="rgb(226,163,121)" stroke="none" stroke-width="1"/><path id="eayzxtphmku38" d="M505.900000,471.600000L504.700000,465.400000C504.500000,464.300000,504.100000,463.200000,503.500000,462.300000L499.500000,455.400000C498.900000,454.400000,498.200000,453.400000,497.400000,452.600000C497,452.100000,496.500000,451.800000,495.900000,451.500000L490.900000,449.200000C485,446.500000,478.500000,445.500000,472,446.300000L470.300000,446.500000C464.500000,447.200000,458.900000,448.800000,453.700000,451.400000C450.400000,453,448.400000,456.300000,448.700000,459.800000L449.600000,470.400000C449.700000,471,449.700000,471.700000,449.600000,472.300000C449.500000,473.200000,449.600000,475.200000,449.700000,477.600000C449.700000,480.700000,449.700000,483.900000,449.800000,485.300000L449.800000,485.300000C450.100000,483.200000,451.400000,479.500000,452.100000,477.600000C452.500000,476.500000,453.100000,475.400000,453.800000,474.400000C455.200000,472.500000,456.500000,470.300000,458.100000,468.900000C459,468.100000,459.800000,467.900000,460.500000,467.700000C461,467.500000,461.500000,467.300000,462,467.100000L466.100000,465.600000C467.100000,465.200000,468.200000,465,469.300000,464.800000L471.500000,464.400000C476.200000,463.600000,481.100000,463.600000,485.800000,464.700000C487.600000,465.100000,489.200000,465.700000,490.800000,466.700000C490.800000,466.700000,490.900000,466.700000,490.900000,466.800000C491.300000,467.100000,491.700000,467.300000,492.100000,467.600000C495.200000,469.700000,497.900000,472.100000,500.300000,475L500.600000,475.300000C500.600000,475.400000,500.700000,475.400000,500.700000,475.500000C502.100000,477.400000,504.100000,482,505,484.400000L505,484.500000C505,484.400000,505,484.300000,505,484.200000L505.400000,479.500000C505.500000,477.700000,505.700000,475.900000,506,474.100000C506,473,506,472.300000,505.900000,471.600000Z" fill="rgb(22,9,0)" stroke="none" stroke-width="1"/><path id="eayzxtphmku39" d="M463.200000,480.200000C462.700000,480.200000,462.300000,480.800000,462.200000,481.500000L469.300000,481.500000C469.800000,481.500000,470.200000,480.900000,470.300000,480.200000L463.200000,480.200000Z" fill="rgb(22,9,0)" stroke="none" stroke-width="1"/><path id="eayzxtphmku40" d="M486.100000,480.200000C485.600000,480.200000,485.200000,480.800000,485.100000,481.500000L492.200000,481.500000C492.700000,481.500000,493.100000,480.900000,493.200000,480.200000L486.100000,480.200000Z" fill="rgb(22,9,0)" stroke="none" stroke-width="1"/><path id="eayzxtphmku41" d="M492.200000,505.100000C492.700000,511.600000,484,513.200000,478.700000,513.200000C473.400000,513.200000,464.400000,511.900000,464.600000,505.300000C464.900000,498.700000,473,497.800000,478.400000,497.800000C483.800000,497.800000,491.700000,498.600000,492.200000,505.100000Z" fill="rgb(22,9,0)" stroke="none" stroke-width="1"/><path id="eayzxtphmku42" d="M486,502L486,502C486,502.200000,485.900000,502.300000,485.800000,502.400000C485.700000,502.400000,485.700000,502.500000,485.600000,502.500000C484.700000,503,482.500000,503.400000,479.800000,503.500000C479.400000,503.500000,479,503.500000,478.700000,503.500000C478.300000,503.500000,477.900000,503.500000,477.600000,503.500000C474.900000,503.400000,472.700000,503,471.800000,502.500000C471.700000,502.500000,471.700000,502.400000,471.600000,502.400000C471.500000,502.300000,471.400000,502.200000,471.300000,502L471.300000,502C471.300000,501.800000,471.400000,501.700000,471.600000,501.600000L471.600000,501.600000L471.700000,501.500000L471.700000,501.500000C472.500000,501,474.700000,500.600000,477.400000,500.500000L477.400000,500.500000C477.400000,500.500000,477.500000,500.500000,477.500000,500.500000C477.900000,500.500000,478.300000,500.500000,478.600000,500.500000C478.900000,500.500000,479.400000,500.500000,479.700000,500.500000C479.800000,500.500000,479.800000,500.500000,479.900000,500.500000C482.600000,500.600000,484.800000,501,485.600000,501.500000C485.600000,501.500000,485.600000,501.500000,485.700000,501.500000C485.900000,501.700000,486,501.800000,486,502Z" fill="rgb(245,185,140)" stroke="none" stroke-width="1"/><path id="eayzxtphmku43" d="M471.200000,501.600000C472.700000,502,475.100000,502.100000,477.300000,502.100000C480.300000,502.100000,484.100000,502.200000,485.900000,501.600000" fill="none" stroke="rgb(83,53,32)" stroke-width="0.500000" stroke-miterlimit="10"/></g></g><g id="eayzxtphmku44"/><g id="eayzxtphmku45"/><g id="eayzxtphmku46"/></g></g><g id="eayzxtphmku47"><g id="eayzxtphmku48"><g id="eayzxtphmku49"><ellipse id="eayzxtphmku50" rx="5.800000" ry="9.900000" transform="matrix(1 0 0 1 677.79999999999995 759.10000000000002)" fill="rgb(51,17,0)" stroke="none" stroke-width="1"/><ellipse id="eayzxtphmku51" rx="5.800000" ry="8.200000" transform="matrix(1 0 0 1 677.79999999999995 758.50000000000000)" fill="rgb(88,34,0)" stroke="none" stroke-width="1"/><ellipse id="eayzxtphmku52" rx="5.800000" ry="9.900000" transform="matrix(1 0 0 1 703.60000000000002 758.70000000000005)" fill="rgb(51,17,0)" stroke="none" stroke-width="1"/><ellipse id="eayzxtphmku53" rx="5.800000" ry="8.200000" transform="matrix(1 0 0 1 703.70000000000005 758.10000000000002)" fill="rgb(88,34,0)" stroke="none" stroke-width="1"/><path id="eayzxtphmku54" d="M691.800000,619.400000C674.800000,619.300000,657.800000,619.300000,640.800000,619.400000C640.900000,626.500000,641.100000,633.600000,641.400000,640.700000L641.400000,640.700000C642.300000,675.900000,645.800000,711.200000,645.600000,746.400000C650,745.400000,653.900000,744.700000,658.300000,745.500000C654.800000,711.600000,663.200000,675.300000,664.300000,641.500000C664.400000,639.800000,663.600000,641.100000,665.100000,641C665.800000,641,666.500000,641,667.200000,641.100000C668.400000,641.100000,667.400000,640.300000,667.400000,641.600000C674.600000,676.300000,671.600000,710.700000,671,744.300000C675.200000,744.800000,680,743.200000,684.100000,743.900000C685.500000,708.800000,689.900000,676.100000,690.300000,640.900000L690.300000,640.900000C690.800000,633.700000,691.300000,626.600000,691.800000,619.400000Z" transform="matrix(1 0 0 1 26 13)" fill="rgb(84,84,84)" stroke="none" stroke-width="1"/></g><g id="eayzxtphmku55"><rect id="eayzxtphmku56" width="21.500000" height="99.700000" rx="0" ry="0" transform="matrix(1 0 0 1 680.29999999999995 532.70000000000005)" fill="rgb(102,167,221)" stroke="none" stroke-width="1"/><rect id="eayzxtphmku57" width="59.300000" height="3" rx="0" ry="0" transform="matrix(1 0 0 1 660.79999999999995 629.39999999999998)" fill="rgb(49,35,34)" stroke="none" stroke-width="1"/><polygon id="eayzxtphmku58" points="668.200000,536.300000 670.700000,531.500000 668.200000,526.700000 663.200000,526.700000 660.600000,531.500000 663.100000,536.300000 661.900000,571.500000 665.500000,586 669.100000,571.500000 668.100000,536.300000" transform="matrix(1 0 0 1 26 13)" fill="rgb(255,136,136)" stroke="none" stroke-width="1"/><polygon id="eayzxtphmku59" points="670.500000,521 669.300000,521 661.800000,521 660.500000,521 651.800000,521 656.200000,526.500000 660.500000,531.900000 664.900000,526.500000 665.500000,525.700000 666.200000,526.500000 670.500000,531.900000 674.900000,526.500000 679.200000,521" transform="matrix(1 0 0 1 26 13)" fill="rgb(151,203,255)" stroke="none" stroke-width="1"/><path id="eayzxtphmku60" d="M654.300000,519.600000L654.300000,657.600000C649.300000,657.600000,644.200000,657.400000,639.400000,657.100000C639.400000,649.200000,637.200000,635.900000,634.500000,620.400000C630,594.900000,623.900000,563.300000,623.300000,539.800000C623,528,625.100000,523.900000,631.500000,522.500000C637.500000,521.100000,643.700000,520.200000,649.800000,519.900000C651.400000,519.600000,652.800000,519.600000,654.300000,519.600000Z" transform="matrix(1 0 0 1 26 13)" fill="rgb(255,255,255)" stroke="none" stroke-width="1"/><path id="eayzxtphmku61" d="M700.900000,539C700.300000,568.200000,697.100000,594.700000,694.400000,620.200000C693.100000,632.600000,692,644.800000,691.400000,656.900000C691.400000,656.900000,691.400000,657.400000,691.200000,657.400000C686.400000,657.400000,681.200000,657.500000,675.800000,657.400000L675.800000,519.400000C677.500000,519.400000,679.200000,519.400000,680.900000,519.500000C685.400000,519.800000,689.900000,520.600000,694.200000,521.900000C699.500000,523.600000,701.200000,526.100000,700.900000,539Z" transform="matrix(1 0 0 1 26 13)" fill="rgb(255,255,255)" stroke="none" stroke-width="1"/></g><path id="eayzxtphmku62" d="M678.600000,515C685.400000,518.900000,685.400000,537.500000,683.800000,541.400000" transform="matrix(1 0 0 1 26 13)" fill="none" stroke="rgb(0,0,0)" stroke-width="2" stroke-miterlimit="10"/><path id="eayzxtphmku63" d="M646.100000,535.800000C646.300000,526.600000,644.700000,519.100000,651.600000,516.200000" transform="matrix(1 0 0 1 26 13)" fill="none" stroke="rgb(0,0,0)" stroke-width="2" stroke-miterlimit="10"/><g id="eayzxtphmku64"><ellipse id="eayzxtphmku65" rx="3.900000" ry="8.200000" transform="matrix(1 0 0 1 662.39999999999998 504.80000000000001)" fill="rgb(245,185,140)" stroke="none" stroke-width="1"/><ellipse id="eayzxtphmku66" rx="2.200000" ry="6" transform="matrix(1 0 0 1 662.39999999999998 504.80000000000001)" fill="rgb(244,166,113)" stroke="none" stroke-width="1"/><ellipse id="eayzxtphmku67" rx="3.500000" ry="8.200000" transform="matrix(1 0 0 1 720 504.80000000000001)" fill="rgb(245,185,140)" stroke="none" stroke-width="1"/><ellipse id="eayzxtphmku68" rx="2.200000" ry="6" transform="matrix(1 0 0 1 720 504.80000000000001)" fill="rgb(244,166,113)" stroke="none" stroke-width="1"/><path id="eayzxtphmku69" d="M654.500000,446.700000L678,446.700000C687.700000,446.700000,695.600000,455.300000,695.600000,465.900000C695.600000,465.900000,695.600000,465.900000,695.600000,465.900000L695.600000,491.600000C695.600000,510.200000,681.700000,525.300000,664.600000,525.300000L664.600000,525.300000L664.600000,525.300000C648.200000,525.300000,635,510.900000,635,493L635,468C634.900000,456.200000,643.700000,446.700000,654.500000,446.700000L654.500000,446.700000Z" transform="matrix(1 0 0 1 26 13)" fill="rgb(245,185,140)" stroke="none" stroke-width="1"/><path id="eayzxtphmku70" d="M696.800000,466.400000L696.300000,483.800000C696.300000,484.300000,696.300000,484.700000,696.300000,485.200000C696.300000,485.600000,696.300000,486,696.300000,486.300000C696.200000,486.600000,690.800000,471.500000,690.800000,471.500000C686.400000,469.200000,682.700000,465.500000,679.600000,460.500000C672.100000,469,659.200000,471.500000,644,471.500000C647,469.300000,648.600000,466.400000,648.800000,463C646.500000,466.900000,643.600000,469.800000,639.900000,471.500000C638.900000,474.500000,637.100000,479.600000,635,485.700000C634,480,633.100000,472.300000,632.600000,463.200000C632.300000,460,633.400000,457.100000,635.800000,454.600000C636.500000,453.900000,637.200000,453.100000,637.800000,452.300000C640.300000,449.100000,644.600000,446.600000,649.900000,444.500000C652.700000,443.200000,656.300000,442.400000,660.400000,441.800000C662.900000,441.500000,665.500000,441.500000,668,441.800000L674.100000,442.600000C675.400000,442.800000,676.500000,443.400000,677.400000,444.400000L677.400000,444.400000C678.800000,443.700000,679.100000,442.500000,678.900000,441C682.200000,442.500000,683.800000,444.600000,684.200000,447.300000L691.100000,447.500000C690.100000,448.600000,689.600000,449.700000,690,451C691.800000,452.500000,693.100000,453.900000,693.700000,455.300000C695.400000,456.500000,696.400000,457.800000,696.700000,459.200000C697.400000,461.800000,697.600000,464.300000,696.800000,466.400000Z" transform="matrix(1 0 0 1 26 13)" fill="rgb(59,36,22)" stroke="none" stroke-width="1"/><line id="eayzxtphmku71" x1="633.200000" y1="474.600000" x2="643.200000" y2="478.500000" transform="matrix(1 0 0 1 26 13)" fill="none" stroke="rgb(0,0,0)" stroke-width="2" stroke-miterlimit="10"/><ellipse id="eayzxtphmku72" rx="2.900000" ry="3" transform="matrix(1 0 0 1 678.40000000000020 497.73319371499997)" fill="rgb(0,6,13)" stroke="none" stroke-width="1"/><ellipse id="eayzxtphmku73" rx="2.900000" ry="3" transform="matrix(1 0 0 1 705.50000000000023 497.32603872000050)" fill="rgb(0,6,13)" stroke="none" stroke-width="1"/><path id="eayzxtphmku74" d="M652.800000,506.500000L679.100000,506.500000C678.900000,506.700000,678.800000,506.900000,678.600000,507.100000C678.200000,507.600000,677.700000,508.100000,677.100000,508.700000C675.300000,510.500000,672.800000,512.500000,669.700000,513.500000C667.700000,511.100000,664.200000,510.800000,662,513C661.900000,513.100000,661.800000,513.200000,661.700000,513.300000C659.800000,512.600000,657.900000,511.600000,656.300000,510.200000C655.200000,509.300000,654.100000,508.200000,653.200000,507.100000C653.100000,506.900000,652.900000,506.700000,652.800000,506.500000Z" transform="matrix(1 0 0 1 26 13)" fill="rgb(68,33,27)" stroke="none" stroke-width="1"/><path id="eayzxtphmku75" d="M679.100000,506.500000C678.900000,506.800000,678.500000,507.200000,678.200000,507.600000L653.800000,507.700000C653.500000,507.300000,653,506.800000,652.800000,506.500000L679.100000,506.500000Z" transform="matrix(1 0 0 1 26 13)" fill="rgb(249,249,249)" stroke="none" stroke-width="1"/><path id="eayzxtphmku76" d="M669.700000,513.500000C669,513.700000,668.200000,513.900000,667.400000,514C666.700000,514.100000,666.100000,514.100000,665.400000,514.100000C664.100000,514,662.900000,513.800000,661.600000,513.400000C663.700000,511,667.100000,510.900000,669.300000,513.200000C669.500000,513.200000,669.600000,513.300000,669.700000,513.500000L669.700000,513.500000Z" transform="matrix(1 0 0 1 26 13)" fill="rgb(238,83,81)" stroke="none" stroke-width="1"/><path id="eayzxtphmku77" d="M665.700000,497C663.500000,497,661.700000,495.100000,661.700000,492.700000L661.700000,495.200000C661.700000,497.600000,663.500000,499.600000,665.700000,499.600000C667.900000,499.600000,669.700000,497.700000,669.700000,495.200000L669.700000,492.600000C669.700000,495,667.900000,497,665.700000,497C665.700000,497,665.700000,497,665.700000,497Z" transform="matrix(1 0 0 1 26 13)" fill="rgb(244,166,113)" stroke="none" stroke-width="1"/><path id="eayzxtphmku78" d="M671.900000,477.600000L688.400000,477.600000C688.600000,477.600000,688.800000,477.800000,688.800000,478L688.800000,486.100000C688.800000,488.400000,687.100000,490.300000,685,490.300000L674,490.300000C672.300000,490.300000,670.900000,488.800000,670.900000,487L670.900000,487L670.900000,478.700000C671,478,671.400000,477.600000,671.900000,477.600000L671.900000,477.600000L671.900000,477.600000Z" transform="matrix(1 0 0 1 26 13)" fill="none" stroke="rgb(0,0,0)" stroke-width="1" stroke-miterlimit="10"/><path id="eayzxtphmku79" d="M671.900000,478L688.400000,478C688.600000,478,688.800000,478.200000,688.800000,478.400000L688.800000,486.100000C688.800000,488.400000,687.100000,490.300000,685,490.300000L674,490.300000C672.300000,490.300000,670.900000,488.800000,670.900000,487L670.900000,487L670.900000,479C671,478.500000,671.400000,478,671.900000,478L671.900000,478L671.900000,478Z" transform="matrix(1 0 0 1 26 13)" fill="none" stroke="rgb(0,0,0)" stroke-width="1" stroke-miterlimit="10"/><path id="eayzxtphmku80" d="M643.600000,477.700000L659.800000,477.700000C660,477.700000,660.200000,477.900000,660.200000,478.100000L660.200000,486.200000C660.200000,488.500000,658.500000,490.400000,656.400000,490.400000L645.800000,490.400000C644.100000,490.400000,642.700000,488.900000,642.700000,487.100000L642.700000,487.100000L642.700000,478.800000C642.700000,478.100000,643.100000,477.700000,643.600000,477.700000L643.600000,477.700000Z" transform="matrix(1 0 0 1 26 13)" fill="none" stroke="rgb(0,0,0)" stroke-width="1" stroke-miterlimit="10"/><path id="eayzxtphmku81" d="M643.800000,478L659.800000,478C660,478,660.200000,478.200000,660.200000,478.400000L660.200000,486.200000C660.200000,488.500000,658.500000,490.400000,656.400000,490.400000L645.900000,490.400000C644.200000,490.400000,642.800000,488.900000,642.800000,487.100000L642.800000,487.100000L642.800000,479.100000C642.800000,478.500000,643.300000,478,643.800000,478Z" transform="matrix(1 0 0 1 26 13)" fill="none" stroke="rgb(0,0,0)" stroke-width="1" stroke-miterlimit="10"/><path id="eayzxtphmku82" d="M660.200000,478.600000C660.600000,478.200000,662.700000,477.300000,665.800000,477.400000C668.300000,477.500000,670.500000,478.100000,671,478.500000" transform="matrix(1 0 0 1 26 13)" fill="none" stroke="rgb(0,0,0)" stroke-width="1" stroke-miterlimit="10"/><path id="eayzxtphmku83" d="M660.200000,479C660.600000,478.600000,662.700000,477.700000,665.800000,477.800000C668.300000,477.900000,670.500000,478.500000,671,478.900000" transform="matrix(1 0 0 1 26 13)" fill="none" stroke="rgb(0,0,0)" stroke-width="1" stroke-miterlimit="10"/><line id="eayzxtphmku84" x1="696.800000" y1="474.500000" x2="688.800000" y2="477.900000" transform="matrix(1 0 0 1 26 13)" fill="none" stroke="rgb(0,0,0)" stroke-width="2" stroke-miterlimit="10"/></g><path id="eayzxtphmku85" d="M623.400000,620.200000C623.700000,623.700000,623.900000,627.700000,619.600000,628.100000C615.300000,628.500000,614.600000,624.800000,614.200000,621.200000C613.900000,617.600000,613.500000,612.900000,618,612.400000C622.700000,611.900000,623.100000,616.700000,623.400000,620.200000Z" transform="matrix(1 0 0 1 26 13)" fill="rgb(245,185,140)" stroke="none" stroke-width="1"/><path id="eayzxtphmku86" d="M625.800000,619.800000C620.700000,620.100000,615.600000,620.100000,610.500000,619.700000C608.700000,585.800000,607.800000,548,626.900000,524.500000C627.300000,524,627.800000,523.700000,628.400000,523.800000C634.100000,524.700000,636.500000,525.400000,638,528.300000C639.600000,531.400000,639.500000,535.300000,637.600000,538.300000C622.500000,562.400000,627.200000,592.500000,625.800000,619.800000Z" transform="matrix(1 0 0 1 26 13)" fill="rgb(255,255,255)" stroke="none" stroke-width="1"/><g id="eayzxtphmku87"><path id="eayzxtphmku88" d="M713,620.200000C712.800000,623.600000,712.300000,628.400000,707.900000,628.100000C703.600000,627.700000,703.700000,622.700000,703.900000,619.400000C704.100000,616.100000,704.600000,611.100000,708.900000,611.500000C713.300000,611.800000,713.100000,616.800000,713,620.200000Z" transform="matrix(1 0 0 1 26 13)" fill="rgb(245,185,140)" stroke="none" stroke-width="1"/><path id="eayzxtphmku89" d="M700.100000,619.300000C705.200000,619.400000,710.300000,619.400000,715.500000,619.400000C716.700000,595.300000,721,538.900000,698.200000,524.100000C688.800000,525.600000,688.400000,526.600000,686.500000,535.600000C703.400000,562.900000,698.500000,589.100000,700.100000,619.300000Z" transform="matrix(1 0 0 1 26 13)" fill="rgb(255,255,255)" stroke="none" stroke-width="1"/></g><g id="eayzxtphmku90"><path id="eayzxtphmku91" d="M679.400000,623.800000L690.200000,623.800000L690.200000,623.800000L690.200000,629.400000C690.200000,632.300000,688.100000,634.600000,685.400000,634.600000L684.200000,634.600000C681.600000,634.600000,679.400000,632.300000,679.400000,629.400000L679.400000,623.800000L679.400000,623.800000Z" transform="matrix(1 0 0 1 26 13)" fill="rgb(204,204,204)" stroke="none" stroke-width="1"/><path id="eayzxtphmku92" d="M639.600000,623.800000L650.400000,623.800000L650.400000,623.800000L650.400000,629.400000C650.400000,632.300000,648.300000,634.600000,645.600000,634.600000L644.400000,634.600000C641.800000,634.600000,639.600000,632.300000,639.600000,629.400000L639.600000,623.800000L639.600000,623.800000Z" transform="matrix(1 0 0 1 26 13)" fill="rgb(204,204,204)" stroke="none" stroke-width="1"/></g><g id="eayzxtphmku93"><path id="eayzxtphmku94" d="M651.400000,538.800000L651.400000,542.600000C651.400000,542.700000,651.300000,542.800000,651.200000,542.800000L651.200000,542.800000C651.100000,542.800000,651,542.700000,651,542.600000L651,539.300000C651,537.900000,649.700000,536.700000,648.200000,536.700000L643.900000,536.700000C642.400000,536.700000,641.100000,537.900000,641.100000,539.300000L641.100000,542.600000C641.100000,542.700000,641,542.800000,640.900000,542.800000L640.900000,542.800000C640.800000,542.800000,640.700000,542.700000,640.700000,542.600000L640.700000,538.800000C640.700000,537.400000,642,536.200000,643.500000,536.200000L648.500000,536.200000C650.100000,536.200000,651.400000,537.300000,651.400000,538.800000Z" transform="matrix(1 0 0 1 26 13)" fill="none" stroke="rgb(0,0,0)" stroke-width="2" stroke-miterlimit="10"/><path id="eayzxtphmku95" d="M651.200000,547.200000C651.200000,542.300000,640.900000,542.300000,640.900000,547.200000" transform="matrix(1 0 0 1 26 13)" fill="none" stroke="rgb(204,204,204)" stroke-width="2" stroke-miterlimit="10"/><path id="eayzxtphmku96" d="M651.100000,543.500000C650.900000,549.200000,651.500000,554.700000,651.200000,560.400000C651.100000,562.600000,649,563.400000,646.900000,563.800000C646.200000,563.900000,643.200000,564.900000,642.300000,565C642.300000,565.100000,642.300000,565.300000,642.400000,565.400000C643.400000,565.200000,646.700000,564.200000,647.500000,564.100000C649.600000,563.700000,651.400000,563,651.500000,560.800000C651.800000,555,651.300000,549.300000,651.500000,543.500000C651.300000,543.500000,651.200000,543.500000,651.100000,543.500000Z" transform="matrix(1 0 0 1 26 13)" fill="none" stroke="rgb(204,204,204)" stroke-width="2" stroke-miterlimit="10"/><path id="eayzxtphmku97" d="M640.700000,543.400000C640.900000,549.100000,640.300000,554.700000,640.700000,560.500000C640.800000,562.700000,642.600000,563.400000,644.700000,563.800000C645.600000,564,648.300000,564.900000,649.400000,565.100000C649.400000,565,649.500000,564.900000,649.500000,564.700000C648.600000,564.600000,646.200000,563.700000,645.400000,563.500000C643.300000,563.100000,641.200000,562.300000,641.100000,560.100000C640.800000,554.500000,641.400000,549,641.200000,543.400000C641,543.400000,640.900000,543.400000,640.700000,543.400000Z" transform="matrix(1 0 0 1 26 13)" fill="none" stroke="rgb(204,204,204)" stroke-width="2" stroke-miterlimit="10"/><ellipse id="eayzxtphmku98" rx="1.400000" ry="1" transform="matrix(0.94320000000000 -0.33230000000000 0.33230000000000 0.94320000000000 666.94553000000008 578.48153000000013)" fill="rgb(255,248,248)" stroke="rgb(204,204,204)" stroke-width="1" stroke-miterlimit="10"/><ellipse id="eayzxtphmku99" rx="1" ry="1.300000" transform="matrix(0.21200000000000 -0.97730000000000 0.97730000000000 0.21200000000000 676.67309999999998 577.98862000000008)" fill="rgb(255,248,248)" stroke="rgb(204,204,204)" stroke-width="1" stroke-miterlimit="10"/></g><ellipse id="eayzxtphmku100" rx="2.900000" ry="3.100000" transform="matrix(1 0 0 1 710.50000000000000 552.29999999999995)" fill="rgb(153,153,153)" stroke="none" stroke-width="1"/><ellipse id="eayzxtphmku101" rx="2.100000" ry="2.300000" transform="matrix(1 0 0 1 710.50000000000000 552.29999999999995)" fill="rgb(255,255,255)" stroke="rgb(153,153,153)" stroke-width="1" stroke-miterlimit="10"/><ellipse id="eayzxtphmku102" rx="1.100000" ry="1.200000" transform="matrix(1 0 0 1 710.39999999999998 552.29999999999995)" fill="rgb(255,255,255)" stroke="rgb(204,204,204)" stroke-width="0.500000" stroke-miterlimit="10"/></g></g><rect id="eayzxtphmku103" width="1366.100000" height="40" rx="0" ry="0" transform="matrix(1 0 0 1.02412369573174 -296.29642699500317 901.02606508917063)" fill="rgb(238,238,238)" stroke="rgb(196,158,124)" stroke-width="0" stroke-opacity="0" stroke-miterlimit="10"/><script><![CDATA[!function(t,n){"object"==typeof exports&&"undefined"!=typeof module?module.exports=n():"function"==typeof define&&define.amd?define(n):(t=t||self).__SVGATOR_PLAYER__=n()}(this,(function(){"use strict";function t(n){return(t="function"==typeof Symbol&&"symbol"==typeof Symbol.iterator?function(t){return typeof t}:function(t){return t&&"function"==typeof Symbol&&t.constructor===Symbol&&t!==Symbol.prototype?"symbol":typeof t})(n)}function n(t,n){if(!(t instanceof n))throw new TypeError("Cannot call a class as a function")}function r(t,n){for(var r=0;r<n.length;r++){var e=n[r];e.enumerable=e.enumerable||!1,e.configurable=!0,"value"in e&&(e.writable=!0),Object.defineProperty(t,e.key,e)}}function e(t,n,e){return n&&r(t.prototype,n),e&&r(t,e),t}var i=1e-5,u=Math.abs;function o(t){return t}function a(t,n,r){var e=1-r;return 3*r*e*(t*e+n*r)+r*r*r}function l(){var t=arguments.length>0&&void 0!==arguments[0]?arguments[0]:0,n=arguments.length>1&&void 0!==arguments[1]?arguments[1]:0,r=arguments.length>2&&void 0!==arguments[2]?arguments[2]:1,e=arguments.length>3&&void 0!==arguments[3]?arguments[3]:1;return t<0||t>1||r<0||r>1?null:u(t-n)<=i&&u(r-e)<=i?o:function(o){if(o<=0)return t>0?o*n/t:0===n&&r>0?o*e/r:0;if(o>=1)return r<1?1+(o-1)*(e-1)/(r-1):1===r&&t<1?1+(o-1)*(n-1)/(t-1):1;for(var l,f=0,s=1;f<s;){var c=a(t,r,l=(f+s)/2);if(u(o-c)<i)break;c<o?f=l:s=l}return a(n,e,l)}}function f(){return 1}function s(t){return 1===t?1:0}function c(){var t=arguments.length>0&&void 0!==arguments[0]?arguments[0]:1,n=arguments.length>1&&void 0!==arguments[1]?arguments[1]:0;if(1===t){if(0===n)return s;if(1===n)return f}var r=1/t;return function(t){return t>=1?1:(t+=n*r)-t%r}}function v(t){var n=arguments.length>1&&void 0!==arguments[1]?arguments[1]:2;if(Number.isInteger(t))return t;var r=Math.pow(10,n);return Math.round(t*r)/r}var h=Math.PI/180;function y(t,n,r){return t>=.5?r:n}function d(t,n,r){return 0===t||n===r?n:t*(r-n)+n}function g(t,n,r){var e=d(t,n,r);return e<=0?0:e}function m(t,n,r){return 0===t?n:1===t?r:{x:d(t,n.x,r.x),y:d(t,n.y,r.y)}}function p(t,n,r){return 0===t?n:1===t?r:{x:g(t,n.x,r.x),y:g(t,n.y,r.y)}}function b(t,n,r){var e=function(t,n,r){return Math.round(d(t,n,r))}(t,n,r);return e<=0?0:e>=255?255:e}function w(t,n,r){return 0===t?n:1===t?r:{r:b(t,n.r,r.r),g:b(t,n.g,r.g),b:b(t,n.b,r.b),a:d(t,null==n.a?1:n.a,null==r.a?1:r.a)}}function A(t,n,r){if(0===t)return n;if(1===t)return r;var e=n.length;if(e!==r.length)return y(t,n,r);for(var i=[],u=0;u<e;u++)i.push(w(t,n[u],r[u]));return i}function x(t,n,r){var e=n.length;if(e!==r.length)return y(t,n,r);for(var i=new Array(e),u=0;u<e;u++)i[u]=d(t,n[u],r[u]);return i}function k(t,n){for(var r=[],e=0;e<t;e++)r.push(n);return r}function S(t,n){if(--n<=0)return t;var r=(t=Object.assign([],t)).length;do{for(var e=0;e<r;e++)t.push(t[e])}while(--n>0);return t}var _=6,M=/\.0+$/g;function I(t){return Number.isInteger(t)?t+"":t.toFixed(_).replace(M,"")}function E(t){var n=arguments.length>1&&void 0!==arguments[1]?arguments[1]:" ";return t&&t.length?t.map(I).join(n):""}function F(t){return I(t.x)+","+I(t.y)}function B(t){return t?null==t.a||t.a>=1?"rgb("+t.r+","+t.g+","+t.b+")":"rgba("+t.r+","+t.g+","+t.b+","+t.a+")":"transparent"}var j={f:null,i:p,u:function(t,n){return function(r){var e=n(r);t.setAttribute("rx",I(e.x)),t.setAttribute("ry",I(e.y))}}},q={f:null,i:function(t,n,r){return 0===t?n:1===t?r:{width:g(t,n.width,r.width),height:g(t,n.height,r.height)}},u:function(t,n){return function(r){var e=n(r);t.setAttribute("width",I(e.width)),t.setAttribute("height",I(e.height))}}},P=Math.sin,O=Math.cos,z=Math.acos,L=Math.asin,C=Math.tan,R=Math.atan2,T=Math.PI/180,V=180/Math.PI,D=Math.sqrt,N=function(){function t(){var r=arguments.length>0&&void 0!==arguments[0]?arguments[0]:1,e=arguments.length>1&&void 0!==arguments[1]?arguments[1]:0,i=arguments.length>2&&void 0!==arguments[2]?arguments[2]:0,u=arguments.length>3&&void 0!==arguments[3]?arguments[3]:1,o=arguments.length>4&&void 0!==arguments[4]?arguments[4]:0,a=arguments.length>5&&void 0!==arguments[5]?arguments[5]:0;n(this,t),this.m=[r,e,i,u,o,a],this.i=null,this.w=null,this.s=null}return e(t,[{key:"point",value:function(t,n){var r=this.m;return{x:r[0]*t+r[2]*n+r[4],y:r[1]*t+r[3]*n+r[5]}}},{key:"translateSelf",value:function(){var t=arguments.length>0&&void 0!==arguments[0]?arguments[0]:0,n=arguments.length>1&&void 0!==arguments[1]?arguments[1]:0;if(!t&&!n)return this;var r=this.m;return r[4]+=r[0]*t+r[2]*n,r[5]+=r[1]*t+r[3]*n,this.w=this.s=this.i=null,this}},{key:"rotateSelf",value:function(){var t=arguments.length>0&&void 0!==arguments[0]?arguments[0]:0;if(t%=360){var n=P(t*=T),r=O(t),e=this.m,i=e[0],u=e[1];e[0]=i*r+e[2]*n,e[1]=u*r+e[3]*n,e[2]=e[2]*r-i*n,e[3]=e[3]*r-u*n,this.w=this.s=this.i=null}return this}},{key:"scaleSelf",value:function(){var t=arguments.length>0&&void 0!==arguments[0]?arguments[0]:1,n=arguments.length>1&&void 0!==arguments[1]?arguments[1]:1;if(1!==t||1!==n){var r=this.m;r[0]*=t,r[1]*=t,r[2]*=n,r[3]*=n,this.w=this.s=this.i=null}return this}},{key:"skewSelf",value:function(t,n){if(n%=360,(t%=360)||n){var r=this.m,e=r[0],i=r[1],u=r[2],o=r[3];t&&(t=C(t*T),r[2]+=e*t,r[3]+=i*t),n&&(n=C(n*T),r[0]+=u*n,r[1]+=o*n),this.w=this.s=this.i=null}return this}},{key:"resetSelf",value:function(){var t=arguments.length>0&&void 0!==arguments[0]?arguments[0]:1,n=arguments.length>1&&void 0!==arguments[1]?arguments[1]:0,r=arguments.length>2&&void 0!==arguments[2]?arguments[2]:0,e=arguments.length>3&&void 0!==arguments[3]?arguments[3]:1,i=arguments.length>4&&void 0!==arguments[4]?arguments[4]:0,u=arguments.length>5&&void 0!==arguments[5]?arguments[5]:0,o=this.m;return o[0]=t,o[1]=n,o[2]=r,o[3]=e,o[4]=i,o[5]=u,this.w=this.s=this.i=null,this}},{key:"recomposeSelf",value:function(){var t=arguments.length>0&&void 0!==arguments[0]?arguments[0]:null,n=arguments.length>1&&void 0!==arguments[1]?arguments[1]:null,r=arguments.length>2&&void 0!==arguments[2]?arguments[2]:null,e=arguments.length>3&&void 0!==arguments[3]?arguments[3]:null,i=arguments.length>4&&void 0!==arguments[4]?arguments[4]:null;return this.isIdentity||this.resetSelf(),t&&(t.x||t.y)&&this.translateSelf(t.x,t.y),n&&this.rotateSelf(n),r&&(r.x&&this.skewSelf(r.x,0),r.y&&this.skewSelf(0,r.y)),!e||1===e.x&&1===e.y||this.scaleSelf(e.x,e.y),i&&(i.x||i.y)&&this.translateSelf(i.x,i.y),this}},{key:"decompose",value:function(){var t=arguments.length>0&&void 0!==arguments[0]?arguments[0]:0,n=arguments.length>1&&void 0!==arguments[1]?arguments[1]:0,r=this.m,e=r[0]*r[0]+r[1]*r[1],i=[[r[0],r[1]],[r[2],r[3]]],u=D(e);if(0===u)return{origin:{x:r[4],y:r[5]},translate:{x:t,y:n},scale:{x:0,y:0},skew:{x:0,y:0},rotate:0};i[0][0]/=u,i[0][1]/=u;var o=r[0]*r[3]-r[1]*r[2]<0;o&&(u=-u);var a=i[0][0]*i[1][0]+i[0][1]*i[1][1];i[1][0]-=i[0][0]*a,i[1][1]-=i[0][1]*a;var l=D(i[1][0]*i[1][0]+i[1][1]*i[1][1]);if(0===l)return{origin:{x:r[4],y:r[5]},translate:{x:t,y:n},scale:{x:u,y:0},skew:{x:0,y:0},rotate:0};i[1][0]/=l,i[1][1]/=l,a/=l;var f=0;return i[1][1]<0?(f=z(i[1][1])*V,i[0][1]<0&&(f=360-f)):f=L(i[0][1])*V,o&&(f=-f),a=R(a,D(i[0][0]*i[0][0]+i[0][1]*i[0][1]))*V,{origin:{x:r[4],y:r[5]},translate:{x:t,y:n},scale:{x:u,y:l},skew:{x:a,y:0},rotate:f}}},{key:"toString",value:function(){return null===this.s&&(this.s="matrix("+this.m.map($).join(" ")+")"),this.s}},{key:"determinant",get:function(){var t=this.m;return t[0]*t[3]-t[1]*t[2]}},{key:"isIdentity",get:function(){if(null===this.i){var t=this.m;this.i=1===t[0]&&0===t[1]&&0===t[2]&&1===t[3]&&0===t[4]&&0===t[5]}return this.i}}]),t}(),G=/\.0+$/;function $(t){return Number.isInteger(t)?t:t.toFixed(14).replace(G,"")}Object.freeze({M:2,L:2,Z:0,H:1,V:1,C:6,Q:4,T:2,S:4,A:7});function H(t,n,r){return t+(n-t)*r}function Q(t,n,r){var e=arguments.length>3&&void 0!==arguments[3]&&arguments[3],i={x:H(t.x,n.x,r),y:H(t.y,n.y,r)};return e&&(i.a=function(t,n){return Math.atan2(n.y-t.y,n.x-t.x)}(t,n)),i}function U(t,n,r,e){var i=1-e;return i*i*t+2*i*e*n+e*e*r}function Y(t,n,r,e){return 2*(1-e)*(n-t)+2*e*(r-n)}function Z(t,n,r,e){var i=arguments.length>4&&void 0!==arguments[4]&&arguments[4],u={x:U(t.x,n.x,r.x,e),y:U(t.y,n.y,r.y,e)};return i&&(u.a=function(t,n,r,e){return Math.atan2(Y(t.y,n.y,r.y,e),Y(t.x,n.x,r.x,e))}(t,n,r,e)),u}function J(t,n,r,e,i){var u=i*i;return i*u*(e-t+3*(n-r))+3*u*(t+r-2*n)+3*i*(n-t)+t}function K(t,n,r,e,i){var u=1-i;return 3*(u*u*(n-t)+2*u*i*(r-n)+i*i*(e-r))}function W(t,n,r,e,i){var u=arguments.length>5&&void 0!==arguments[5]&&arguments[5],o={x:J(t.x,n.x,r.x,e.x,i),y:J(t.y,n.y,r.y,e.y,i)};return u&&(o.a=function(t,n,r,e,i){return Math.atan2(K(t.y,n.y,r.y,e.y,i),K(t.x,n.x,r.x,e.x,i))}(t,n,r,e,i)),o}function X(t,n,r){var e,i=arguments.length>3&&void 0!==arguments[3]&&arguments[3];if(nt(n)){if(null!=(e=r).start&&!nt(e))return Z(n,r.start,r,t,i)}else if(nt(r)){if(n.end)return Z(n,n.end,r,t,i)}else{if(n.end)return r.start?W(n,n.end,r.start,r,t,i):Z(n,n.end,r,t,i);if(r.start)return Z(n,r.start,r,t,i)}return Q(n,r,t,i)}function tt(t,n,r){var e=X(t,n,r,!0);return e.a=function(t){return arguments.length>1&&void 0!==arguments[1]&&arguments[1]?t+Math.PI:t}(e.a)/h,e}function nt(t){return!t.type||"corner"===t.type}var rt=new N;var et={f:function(t){return t?t.join(" "):""},i:function(n,r,e){if(0===n)return r;if(1===n)return e;var i=r.length;if(i!==e.length)return y(n,r,e);for(var u,o=new Array(i),a=0;a<i;a++){if((u=t(r[a]))!==t(e[a]))return y(n,r,e);if("number"===u)o[a]=d(n,r[a],e[a]);else{if(r[a]!==e[a])return y(n,r,e);o[a]=r[a]}}return o}},it={f:null,i:x,u:function(t,n){return function(r){var e=n(r);t.setAttribute("x1",I(e[0])),t.setAttribute("y1",I(e[1])),t.setAttribute("x2",I(e[2])),t.setAttribute("y2",I(e[3]))}}},ut={f:I,i:d},ot={f:I,i:function(t,n,r){var e=d(t,n,r);return e<=0?0:e>=1?1:e}},at={f:E,i:function(t,n,r){var e,i,u,o=n.length,a=r.length;if(o!==a)if(0===o)n=k(o=a,0);else if(0===a)a=o,r=k(o,0);else{var l=(u=(e=o)*(i=a)/function(t,n){for(var r;n;)r=n,n=t%n,t=r;return t||1}(e,i))<0?-u:u;n=S(n,Math.floor(l/o)),r=S(r,Math.floor(l/a)),o=a=l}for(var f=[],s=0;s<o;s++)f.push(v(g(t,n[s],r[s]),6));return f}};function lt(t,n,r,e,i,u,o,a){return n=function(t,n,r){for(var e,i,u,o=t.length-1,a={},l=0;l<=o;l++)(e=t[l]).e&&(e.e=n(e.e)),e.v&&"g"===(i=e.v).t&&i.r&&(u=r.getElementById(i.r))&&(a[i.r]=u.querySelectorAll("stop"));return a}(t,e,a),function(e){var i,u=r(e,t,ft);return u?"c"===u.t?B(u.v):"g"===u.t?(n[u.r]&&function(t,n){for(var r=0,e=t.length;r<e;r++)t[r].setAttribute("stop-color",B(n[r]))}(n[u.r],u.v),(i=u.r)?"url(#"+i+")":"none"):"none":"none"}}function ft(t,n,r){if(0===t)return n;if(1===t)return r;if(n&&r){var e=n.t;if(e===r.t)switch(n.t){case"c":return{t:e,v:w(t,n.v,r.v)};case"g":if(n.r===r.r)return{t:e,v:A(t,n.v,r.v),r:n.r}}}return y(t,n,r)}var st={blur:p,brightness:g,contrast:g,"drop-shadow":function(t,n,r){return 0===t?n:1===t?r:{blur:p(t,n.blur,r.blur),offset:m(t,n.offset,r.offset),color:w(t,n.color,r.color)}},grayscale:g,"hue-rotate":d,invert:g,opacity:g,saturate:g,sepia:g};function ct(t,n,r){if(0===t)return n;if(1===t)return r;var e=n.length;if(e!==r.length)return y(t,n,r);for(var i,u=[],o=0;o<e;o++){if(n[o].type!==r[o].type)return n;if(!(i=st[n[o].type]))return y(t,n,r);u.push({type:n.type,value:i(t,n[o].value,r[o].value)})}return u}var vt={blur:function(t){return t?function(n){t.setAttribute("stdDeviation",F(n))}:null},brightness:function(t,n,r){return(t=yt(r,n))?function(n){n=I(n),t.map((function(t){return t.setAttribute("slope",n)}))}:null},contrast:function(t,n,r){return(t=yt(r,n))?function(n){var r=I((1-n)/2);n=I(n),t.map((function(t){t.setAttribute("slope",n),t.setAttribute("intercept",r)}))}:null},"drop-shadow":function(t,n,r){var e=r.getElementById(n+"-blur");if(!e)return null;var i=r.getElementById(n+"-offset");if(!i)return null;var u=r.getElementById(n+"-flood");return u?function(t){e.setAttribute("stdDeviation",F(t.blur)),i.setAttribute("dx",I(t.offset.x)),i.setAttribute("dy",I(t.offset.y)),u.setAttribute("flood-color",B(t.color))}:null},grayscale:function(t){return t?function(n){t.setAttribute("values",E(function(t){return[.2126+.7874*(t=1-t),.7152-.7152*t,.0722-.0722*t,0,0,.2126-.2126*t,.7152+.2848*t,.0722-.0722*t,0,0,.2126-.2126*t,.7152-.7152*t,.0722+.9278*t,0,0,0,0,0,1,0]}(n)))}:null},"hue-rotate":function(t){return t?function(n){return t.setAttribute("values",I(n))}:null},invert:function(t,n,r){return(t=yt(r,n))?function(n){n=I(n)+" "+I(1-n),t.map((function(t){return t.setAttribute("tableValues",n)}))}:null},opacity:function(t,n,r){return(t=r.getElementById(n+"-A"))?function(n){return t.setAttribute("tableValues","0 "+I(n))}:null},saturate:function(t){return t?function(n){return t.setAttribute("values",I(n))}:null},sepia:function(t){return t?function(n){return t.setAttribute("values",E(function(t){return[.393+.607*(t=1-t),.769-.769*t,.189-.189*t,0,0,.349-.349*t,.686+.314*t,.168-.168*t,0,0,.272-.272*t,.534-.534*t,.131+.869*t,0,0,0,0,0,1,0]}(n)))}:null}};var ht=["R","G","B"];function yt(t,n){var r=ht.map((function(r){return t.getElementById(n+"-"+r)||null}));return-1!==r.indexOf(null)?null:r}var dt={fill:lt,"fill-opacity":ot,stroke:lt,"stroke-opacity":ot,"stroke-width":ut,"stroke-dashoffset":{f:I,i:d},"stroke-dasharray":at,opacity:ot,transform:function(n,r,e,i){if(!(n=function(n,r){if(!n||"object"!==t(n))return null;var e=!1;for(var i in n)n.hasOwnProperty(i)&&(n[i]&&n[i].length?(n[i].forEach((function(t){t.e&&(t.e=r(t.e))})),e=!0):delete n[i]);return e?n:null}(n,i)))return null;var u=function(t,i,u){var o=arguments.length>3&&void 0!==arguments[3]?arguments[3]:null;return n[t]?e(i,n[t],u):r&&r[t]?r[t]:o};return r&&r.a&&n.o?function(t){var r=e(t,n.o,tt);return rt.recomposeSelf(r,u("r",t,d,0)+r.a,u("k",t,m),u("s",t,m),u("t",t,m)).toString()}:function(t){return rt.recomposeSelf(u("o",t,X,null),u("r",t,d,0),u("k",t,m),u("s",t,m),u("t",t,m)).toString()}},"#filter":function(t,n,r,e,i,u,o,a){if(!n.items||!t||!t.length)return null;var l=function(t,n){var r=(t=t.map((function(t){return t&&vt[t[0]]?(n.getElementById(t[1]),vt[t[0]](n.getElementById(t[1]),t[1],n)):null}))).length;return function(n){for(var e=0;e<r;e++)t[e]&&t[e](n[e].value)}}(n.items,a);return l?(t=function(t,n){return t.map((function(t){return t.e=n(t.e),t}))}(t,e),function(n){l(r(n,t,ct))}):null},"#line":it,points:{f:E,i:x},d:et,r:ut,"#size":q,"#radius":j,_:function(t,n){if(Array.isArray(t))for(var r=0;r<t.length;r++)this[t[r]]=n;else this[t]=n}},gt=function(){function t(r){n(this,t),this.list=r,this.length=r.length}return e(t,[{key:"setAttribute",value:function(t,n){for(var r=this.list,e=0;e<this.length;e++)r[e].setAttribute(t,n)}},{key:"removeAttribute",value:function(t){for(var n=this.list,r=0;r<this.length;r++)n[r].removeAttribute(t)}},{key:"style",value:function(t,n){for(var r=this.list,e=0;e<this.length;e++)r[e].style[t]=n}}]),t}(),mt=/-./g,pt=function(t,n){return n.toUpperCase()};function bt(t){return"function"==typeof t?t:y}function wt(t){return t?"function"==typeof t?t:Array.isArray(t)?function(t){var n=arguments.length>1&&void 0!==arguments[1]?arguments[1]:o;if(!Array.isArray(t))return n;switch(t.length){case 1:return c(t[0])||n;case 2:return c(t[0],t[1])||n;case 4:return l(t[0],t[1],t[2],t[3])||n}return n}(t,null):function(t,n){var r=arguments.length>2&&void 0!==arguments[2]?arguments[2]:o;switch(t){case"linear":return o;case"steps":return c(n.steps||1,n.jump||0)||r;case"bezier":case"cubic-bezier":return l(n.x1||0,n.y1||0,n.x2||0,n.y2||0)||r}return r}(t.type,t.value,null):null}function At(t,n,r){var e=arguments.length>3&&void 0!==arguments[3]&&arguments[3],i=n.length-1;if(t<=n[0].t)return e?[0,0,n[0].v]:n[0].v;if(t>=n[i].t)return e?[i,1,n[i].v]:n[i].v;var u,o=n[0],a=null;for(u=1;u<=i;u++){if(!(t>n[u].t)){a=n[u];break}o=n[u]}return null==a?e?[i,1,n[i].v]:n[i].v:o.t===a.t?e?[u,1,a.v]:a.v:(t=(t-o.t)/(a.t-o.t),o.e&&(t=o.e(t)),e?[u,t,r(t,o.v,a.v)]:r(t,o.v,a.v))}function xt(t,n){var r=arguments.length>2&&void 0!==arguments[2]?arguments[2]:null;return t&&t.length?"function"!=typeof n?null:("function"!=typeof r&&(r=null),function(e){var i=At(e,t,n);return null!=i&&r&&(i=r(i)),i}):null}function kt(t,n){return t.t-n.t}function St(n,r,e,i,u){var o,a="@"===e[0],l="#"===e[0],f=dt[e],s=y;switch(a?(o=e.substr(1),e=o.replace(mt,pt)):l&&(e=e.substr(1)),t(f)){case"function":if(s=f(i,u,At,wt,e,a,r,n),l)return s;break;case"string":s=xt(i,bt(f));break;case"object":if((s=xt(i,bt(f.i),f.f))&&"function"==typeof f.u)return f.u(r,s,e,a,n)}return s?function(t,n,r){if(arguments.length>3&&void 0!==arguments[3]&&arguments[3])return t instanceof gt?function(e){return t.style(n,r(e))}:function(e){return t.style[n]=r(e)};if(Array.isArray(n)){var e=n.length;return function(i){var u=r(i);if(null==u)for(var o=0;o<e;o++)t[o].removeAttribute(n);else for(var a=0;a<e;a++)t[a].setAttribute(n,u)}}return function(e){var i=r(e);null==i?t.removeAttribute(n):t.setAttribute(n,i)}}(r,e,s,a):null}function _t(n,r,e,i){if(!i||"object"!==t(i))return null;var u=null,o=null;return Array.isArray(i)?o=function(t){if(!t||!t.length)return null;for(var n=0;n<t.length;n++)t[n].e&&(t[n].e=wt(t[n].e));return t.sort(kt)}(i):(o=i.keys,u=i.data||null),o?St(n,r,e,o,u):null}function Mt(t,n,r){if(!r)return null;var e=[];for(var i in r)if(r.hasOwnProperty(i)){var u=_t(t,n,i,r[i]);u&&e.push(u)}return e.length?e:null}function It(t,n){if(!n.duration||n.duration<0)return null;var r=function(t,n){if(!n)return null;var r=[];if(Array.isArray(n))for(var e=n.length,i=0;i<e;i++){var u=n[i];if(2===u.length){var o=null;if("string"==typeof u[0])o=t.getElementById(u[0]);else if(Array.isArray(u[0])){o=[];for(var a=0;a<u[0].length;a++)if("string"==typeof u[0][a]){var l=t.getElementById(u[0][a]);l&&o.push(l)}o=o.length?1===o.length?o[0]:new gt(o):null}if(o){var f=Mt(t,o,u[1]);f&&(r=r.concat(f))}}}else for(var s in n)if(n.hasOwnProperty(s)){var c=t.getElementById(s);if(c){var v=Mt(t,c,n[s]);v&&(r=r.concat(v))}}return r.length?r:null}(t,n.elements);return r?function(t,n){var r=arguments.length>2&&void 0!==arguments[2]?arguments[2]:1/0,e=arguments.length>3&&void 0!==arguments[3]?arguments[3]:1,i=arguments.length>4&&void 0!==arguments[4]&&arguments[4],u=arguments.length>5&&void 0!==arguments[5]?arguments[5]:1,o=t.length,a=e>0?n:0;i&&r%2==0&&(a=n-a);var l=null;return function(f,s){var c=f%n,v=1+(f-c)/n;s*=e,i&&v%2==0&&(s=-s);var h=!1;if(v>r)c=a,h=!0,-1===u&&(c=e>0?0:n);else if(s<0&&(c=n-c),c===l)return!1;l=c;for(var y=0;y<o;y++)t[y](c);return h}}(r,n.duration,n.iterations||1/0,n.direction||1,!!n.alternate,n.fill||1):null}var Et=function(){function t(r){var e=arguments.length>1&&void 0!==arguments[1]?arguments[1]:{};n(this,t),this._id=0,this._running=!1,this._animations=r,this.direction=e.direction||1,this.speed=e.speed||1,this.fps=e.fps||100,this.offset=e.offset||0}return e(t,[{key:"_start",value:function(){var t=this,n=arguments.length>0&&void 0!==arguments[0]?arguments[0]:0,r=-1/0,e=null,i={},u=function u(o){t._running=!0,null==e&&(e=o);var a=Math.round((o-e+n)*t.speed),l=t.fps?1e3/t.fps:0;if(a>r+l){t.offset=a,r=a;for(var f=t._animations,s=f.length,c=0,v=0;v<s;v++)i[v]?c++:(i[v]=f[v](a,t.direction),i[v]&&c++);if(c===s)return void t._stop()}t._id=window.requestAnimationFrame(u)};this._id=window.requestAnimationFrame(u)}},{key:"_stop",value:function(){this._id&&window.cancelAnimationFrame(this._id),this._running=!1}},{key:"play",value:function(){this._running||this._start(this.offset)}},{key:"stop",value:function(){this._stop(),this.offset=0;var t=this.direction,n=this._animations;requestAnimationFrame((function(){for(var r=0;r<n.length;r++)n[r](0,t)}))}},{key:"restart",value:function(){this._stop(),this.offset=0,this._start()}},{key:"pause",value:function(){this._stop()}},{key:"reverse",value:function(){this.direction=-this.direction}}],[{key:"build",value:function(n){if(!(n=function(t){if(!t||!t.root||!Array.isArray(t.animations))return null;var n=window.document.getElementById(t.root);if(!n)return null;var r=t.animations.map((function(t){return It(n,t)})).filter((function(t){return!!t}));return r.length?{element:n,animations:r,options:t.options||void 0}:null}(n)))return null;var r=n.element,e=n.options||{},i=new t(n.animations,n.options);return function(t,n,r){var e=arguments.length>3&&void 0!==arguments[3]?arguments[3]:null;if("click"===r){return void n.addEventListener("click",(function r(){n.removeEventListener("click",r),t.play()}))}if("hover"===r)return n.addEventListener("mouseenter",(function(){return t.play()})),void n.addEventListener("mouseleave","freeze"===e?function(){return t.pause()}:function(){return t.stop()});t.play()}(i,r,e.start,e.hover),i}}]),t}();return function(){for(var t=0,n=["ms","moz","webkit","o"],r=0;r<n.length&&!window.requestAnimationFrame;++r)window.requestAnimationFrame=window[n[r]+"RequestAnimationFrame"],window.cancelAnimationFrame=window[n[r]+"CancelAnimationFrame"]||window[n[r]+"CancelRequestAnimationFrame"];window.requestAnimationFrame||(window.requestAnimationFrame=function(n){var r=Date.now(),e=Math.max(0,16-(r-t)),i=window.setTimeout((function(){n(r+e)}),e);return t=r+e,i},window.cancelAnimationFrame=window.clearTimeout)}(),Et}));
__SVGATOR_PLAYER__.build({"root":"eayzxtphmku1","animations":[{"duration":12000,"direction":1,"iterations":1,"fill":1,"alternate":false,"elements":{"eayzxtphmku17":{"transform":{"keys":{"o":[{"t":3000,"v":{"x":-123.63107300500002,"y":8.614263720000167,"type":"corner"}},{"t":4700,"v":{"x":40.63,"y":8.614263720000167,"type":"corner"}}]}},"opacity":[{"t":1800,"v":0},{"t":2000,"v":1}]},"eayzxtphmku35":{"transform":{"data":{"t":{"x":466.3,"y":485.3}},"keys":{"o":[{"t":3400,"v":{"x":0,"y":0,"type":"corner"}},{"t":4600,"v":{"x":4,"y":0,"type":"corner"}}]}}},"eayzxtphmku36":{"transform":{"data":{"t":{"x":489.1,"y":485.3}},"keys":{"o":[{"t":3400,"v":{"x":0,"y":0,"type":"corner"}},{"t":4600,"v":{"x":3,"y":0,"type":"corner"}}]}}},"eayzxtphmku39":{"transform":{"keys":{"o":[{"t":3400,"v":{"x":0,"y":0,"type":"corner"}},{"t":4600,"v":{"x":3,"y":0,"type":"corner"}}]}}},"eayzxtphmku40":{"transform":{"keys":{"o":[{"t":3400,"v":{"x":0,"y":0,"type":"corner"}},{"t":4600,"v":{"x":3,"y":0,"type":"corner"}}]}}},"eayzxtphmku72":{"transform":{"data":{"t":{"x":653,"y":484}},"keys":{"o":[{"t":3800,"v":{"x":25.400000000000205,"y":13.73319371499997,"type":"corner"}},{"t":5000,"v":{"x":21.400000000000205,"y":13.73319371499997,"type":"corner"}}]}}},"eayzxtphmku73":{"transform":{"data":{"t":{"x":678.2,"y":483.9}},"keys":{"o":[{"t":3800,"v":{"x":27.300000000000182,"y":13.42603872000052,"type":"corner"}},{"t":5000,"v":{"x":23.300000000000182,"y":13.42603872000052,"type":"corner"}}]}}}}}],"options":{"start":"load","hover":"freeze"}})]]></script></svg>