<?xml version="1.0" encoding="utf-8"?>
<!-- Generator: Adobe Illustrator 24.0.2, SVG Export Plug-In . SVG Version: 6.00 Build 0)  -->
<svg version="1.1" id="Layer_1" xmlns="http://www.w3.org/2000/svg" xmlns:xlink="http://www.w3.org/1999/xlink" x="0px" y="0px"
	 viewBox="0 0 104.5 173.2" enable-background="new 0 0 104.5 173.2" xml:space="preserve">
<title>Asset 2</title>
<g id="Layer_2_1_">
	<g id="Layer_1-2">
		<g id="body">
			<path fill="#1F9B69" d="M102.9,94.1c-1.3-4.5-4.8-8.1-9.3-9.6L64,76.6l-5.3,9.1l-6.9,12l-6.9-12l-5.7-9.8
				c-8.1,1.8-19.6,4.7-27.4,7.7c-4.1,1.6-7.2,5.1-8.1,9.4c-2.2,10.2-3.3,80.1-3.3,80.1l6.9,0l8.7-62.8c0.6-1.2,2-1.8,3.3-1.2
				c0.7,0.3,1.2,0.9,1.4,1.6l1.7,6.2c1.5,5.2,1.9,10.5,1.3,15.9l-4.8,40.4 M19,173.2h68c0,0,0,0,0-0.1l-5.5-37.9
				c-0.9-6.2-0.4-12.4,1.5-18.4l2.3-7.2c0.4-1.3,1.7-2,3-1.6c0.6,0.2,1.2,0.7,1.4,1.2l6.4,63.8h8c0,0,1.6-67.6-1.1-79L19,173.2z"/>
			<path fill="#FFFFFF" d="M51.8,97.7l6.9-12l5.3-9.1l-10.4-2.8c0,0-0.1,0-0.1,0.1h-4.6c0,0,0-0.1-0.1,0s-4,0.8-9.6,2.1l5.7,9.8
				L51.8,97.7z"/>
		</g>
		<g id="head">
			<path fill="#3F2B2B" d="M42.2,35.9l6.3,0.2c0.2,0,0.4,0.2,0.4,0.4l0,0.5c0,0.2-0.2,0.4-0.4,0.4l-6.3-0.2c-0.2,0-0.4-0.2-0.4-0.4
				l0-0.5C41.8,36.1,42,35.9,42.2,35.9z"/>
			<path fill="#3F2B2B" d="M63,36.8l6.3,0.2c0.2,0,0.4,0.2,0.4,0.4l0,0.5c0,0.2-0.2,0.4-0.4,0.4L63,38.1c-0.2,0-0.4-0.2-0.4-0.4
				l0-0.5C62.6,36.9,62.8,36.8,63,36.8z"/>
			<polygon fill="#AF7748" points="14.9,82.6 37.6,70.2 28.4,56.3 22.6,44.8 24.9,39 16.8,40.1 			"/>
			<polygon fill="#AF7748" points="94.7,82.3 71.7,70.4 80.6,56.3 86.2,44.7 84.9,40.1 91.9,39.9 			"/>
			
				<ellipse transform="matrix(9.775661e-02 -0.9952 0.9952 9.775661e-02 28.1856 125.8972)" fill="#DDAE8E" cx="83.5" cy="47.4" rx="7.1" ry="3"/>
			
				<ellipse transform="matrix(2.722373e-02 -0.9996 0.9996 2.722373e-02 25.9381 136.9175)" fill="#5C9EFF" cx="83.3" cy="55.1" rx="1.9" ry="1.8"/>
			
				<ellipse transform="matrix(0.999 -4.361939e-02 4.361939e-02 0.999 -1.9744 1.1522)" fill="#DDAE8E" cx="25.4" cy="45.8" rx="3" ry="7.1"/>
			
				<ellipse transform="matrix(2.722373e-02 -0.9996 0.9996 2.722373e-02 -29.0271 77.286)" fill="#5C9EFF" cx="25.2" cy="53.6" rx="1.9" ry="1.8"/>
			<path fill="#DDAE8E" d="M82.8,17L26,17.2l-2.7,19.7c0.1,6.5,1.6,12.8,4.5,18.7c4,8.1,8,15,14.3,18.2c-0.1,0.5-0.2,1-0.2,1.4
				c0,3.9,4.4,7,9.8,7s9.6-3,9.8-6.8c9.8-0.8,14.6-8.1,19.1-17.8c3-6.5,4.5-13.6,4.4-20.8L82.8,17z"/>
			
				<ellipse transform="matrix(2.722373e-02 -0.9996 0.9996 2.722373e-02 -1.6152 84.9901)" fill="#111111" cx="42.9" cy="43.3" rx="3.2" ry="3"/>
			
				<ellipse transform="matrix(2.722373e-02 -0.9996 0.9996 2.722373e-02 19.016 107.6885)" fill="#111111" cx="64.8" cy="44.1" rx="3.2" ry="3"/>
			<path fill="#C69471" d="M54.4,53.3c-2.1-0.2-3.6-1.9-3.5-4v1.3c-0.2,2,1.2,3.7,3.2,3.9c2,0.2,3.7-1.2,3.9-3.2c0-0.2,0-0.3,0-0.5
				v-1.3C58.1,51.6,56.4,53.3,54.4,53.3z"/>
			<path fill="#AF7748" d="M87,43.4c-1.6-1.5-7.8-13.6-8.6-13.4c-4.3,0.9-8.1,1.3-11.8,0.5c-5.1-1.1-10-4.6-15.7-12.5
				c-0.2-0.3-0.6-0.4-0.9-0.1c0,0-0.1,0-0.1,0.1c-9.1,10-24,22.7-27.3,22.1h-5.8c0.7-4.4,6.3-16.9,8-21.2c1.4-3.7,3.6-7,6.5-9.8
				c3.1-3,6.8-5.4,10.8-7.2c2.7-1.2,5.6-1.9,8.5-2c2.1-0.1,4.1,0.1,6.1,0.5c7,1.4,13.6,4.3,19.4,8.3c5.3,3.6,9.5,8.6,12.4,14.3l0,0
				c1,2,2.7,14.1,3.3,16.7c0,0.1,0,0.3-0.1,0.4L87,43.4z"/>
			<g id="mouth">
				<path fill="#1E1E1E" d="M63.2,62c-0.6,2.1-2.1,3.9-4.1,4.7c-1.9-1.9-4.4-2.9-7.1-2.8c-1.8,0-3.6,0.4-5.2,1.3
					c-1.6-1.3-2.4-3.4-2-5.5L63.2,62z"/>
				<path fill="#FF6464" d="M59.1,66.7c-2,1-4.3,1.4-6.5,1.1c-2.1-0.2-4.2-1.1-5.8-2.5c1.6-0.9,3.4-1.4,5.2-1.3
					C54.7,63.8,57.2,64.8,59.1,66.7z"/>
			</g>
		</g>
	</g>
</g>
</svg>
