<svg xmlns="http://www.w3.org/2000/svg" viewBox="0 0 104.46 173.18"><defs><style>.cls-1{fill:#1f9b69;}.cls-2{fill:#fff;}.cls-3{fill:#3f2b2b;}.cls-4{fill:#af7748;}.cls-5{fill:#ddae8e;}.cls-6{fill:#5c9eff;}.cls-7{fill:#111;}.cls-8{fill:#c69471;}.cls-9{fill:#1e1e1e;}.cls-10{fill:#ff6464;}</style></defs><title>Asset 2</title><g id="Layer_2" data-name="Layer 2"><g id="Layer_1-2" data-name="Layer 1"><g id="body"><path class="cls-1" d="M102.87,94.14a14.42,14.42,0,0,0-9.3-9.57L64,76.64l-5.27,9.13-6.9,12-6.89-12-5.67-9.83c-8.11,1.84-19.63,4.72-27.43,7.72a13,13,0,0,0-8.08,9.41C1.54,103.25,0,169.21,0,169.21H8l8.1-58.87a2.48,2.48,0,0,1,4.64.36l1.73,6.16a40.66,40.66,0,0,1,1.25,15.87l-4.81,40.39a0,0,0,0,0,.05.06H87s0,0,0-.06L81.5,135.18A41,41,0,0,1,83,116.8l2.25-7.15a2.38,2.38,0,0,1,4.42-.31L96,172.21h8S105.58,105.55,102.87,94.14Z"/><path class="cls-2" d="M51.82,97.72l6.9-12L64,76.64,53.62,73.85a.06.06,0,0,0-.06.06H48.94s0-.06-.06,0-4,.79-9.62,2.08l5.67,9.83Z"/></g><g id="head"><rect class="cls-3" x="41.77" y="35.97" width="7.12" height="1.29" rx="0.4" transform="translate(1.01 -1.22) rotate(1.56)"/><rect class="cls-3" x="62.6" y="36.85" width="7.12" height="1.29" rx="0.4" transform="translate(1.04 -1.78) rotate(1.56)"/><polygon class="cls-4" points="14.91 82.55 37.61 70.16 28.37 56.3 22.59 44.75 24.9 38.98 16.76 40.13 14.91 82.55"/><polygon class="cls-4" points="94.69 82.28 71.71 70.42 80.64 56.35 86.15 44.67 84.89 40.08 91.87 39.92 94.69 82.28"/><ellipse class="cls-5" cx="83.52" cy="47.4" rx="7.09" ry="2.97" transform="translate(28.19 125.89) rotate(-84.39)"/><ellipse class="cls-6" cx="83.31" cy="55.13" rx="1.93" ry="1.78" transform="translate(25.94 136.91) rotate(-88.44)"/><ellipse class="cls-5" cx="25.41" cy="45.82" rx="2.97" ry="7.09" transform="translate(-1.97 1.15) rotate(-2.5)"/><ellipse class="cls-6" cx="25.2" cy="53.55" rx="1.93" ry="1.78" transform="translate(-29.02 77.29) rotate(-88.44)"/><path class="cls-5" d="M82.77,17,26,17.23l-2.71,19.7a43.53,43.53,0,0,0,4.46,18.66c4,8.08,8,15,14.33,18.17a5.41,5.41,0,0,0-.21,1.45c0,3.87,4.4,7,9.82,7s9.62-3,9.8-6.76c9.76-.77,14.59-8.1,19.13-17.81A47.52,47.52,0,0,0,85,36.89Z"/><ellipse class="cls-7" cx="42.85" cy="43.31" rx="3.22" ry="2.97" transform="translate(-1.6 84.98) rotate(-88.44)"/><ellipse class="cls-7" cx="64.83" cy="44.07" rx="3.22" ry="2.97" transform="translate(19.02 107.68) rotate(-88.44)"/><path class="cls-8" d="M54.38,53.3a3.75,3.75,0,0,1-3.46-4l0,1.29a3.57,3.57,0,1,0,7.12.2l0-1.29A3.74,3.74,0,0,1,54.38,53.3Z"/><path class="cls-4" d="M87,43.44c-1.62-1.52-7.77-13.58-8.6-13.41-4.3.89-8.11,1.32-11.81.51-5.11-1.11-10-4.6-15.7-12.49a.66.66,0,0,0-1-.07c-9.06,10-24,22.68-27.27,22.15H16.82c.73-4.43,6.33-16.87,8-21.18A27.29,27.29,0,0,1,31.3,9.16,36.13,36.13,0,0,1,42.07,2a23.69,23.69,0,0,1,8.55-2,24.28,24.28,0,0,1,6.14.51A52.23,52.23,0,0,1,76.18,8.86a37.89,37.89,0,0,1,12.4,14.3v0c1,2,2.69,14.06,3.26,16.73a.36.36,0,0,1-.13.36Z"/>
<g id="mouth">
<path class="cls-9" d="M63.21,62a7.14,7.14,0,0,1-4.08,4.74,9.71,9.71,0,0,0-7.08-2.78,10.47,10.47,0,0,0-5.23,1.34,5.8,5.8,0,0,1-2-5.49Z"/>
<path class="cls-10" d="M59.13,66.7a11.63,11.63,0,0,1-6.55,1.06,10,10,0,0,1-5.76-2.5,10.47,10.47,0,0,1,5.23-1.34A9.71,9.71,0,0,1,59.13,66.7Z"/>
</g>
</g>
</g>
</g>
</svg>