<svg xmlns="http://www.w3.org/2000/svg" viewBox="0 0 293.29 734.59">
  <title>Asset 1</title>
  <g id="Layer_2" data-name="Layer 2">
    <g id="Layer_1-2" data-name="Layer 1">
      <g>
        <path d="M135.57,711.85c0,12.57-6.53,22.75-14.53,22.74s-14.49-10.21-14.47-22.77,6.52-22.75,14.53-22.74,14.48,10.21,14.47,22.77" style="fill: #310"/>
        <path d="M135.57,709.61c0,10.49-6.52,19-14.53,19s-14.49-8.53-14.47-19,6.51-19,14.52-19,14.49,8.52,14.48,19" style="fill: #582200"/>
        <path d="M200.57,710.85c0,12.57-6.53,22.75-14.53,22.74s-14.49-10.21-14.47-22.77,6.52-22.75,14.53-22.74,14.48,10.21,14.47,22.77" style="fill: #310"/>
        <path d="M200.57,708.61c0,10.49-6.52,19-14.53,19s-14.49-8.53-14.47-19,6.52-19,14.52-19,14.49,8.52,14.48,19" style="fill: #582200"/>
        <path d="M221.41,418.64c-42.66-.25-85.33-.13-128,0,.34,16.36.76,32.72,1.48,49.07h0c2.25,81.33,9.82,162.47,9.35,243.87,11-2.21,21.2-4,32.4-2.11-8.91-78.15,13.08-161.82,15.74-239.83.14-3.9-1.67-1,2.1-1.17,1.76-.07,3.57.08,5.31.12,3,.08.51-1.76.59,1.05,2.32,77.49,11,159.22,9.35,236.73,10.5,1.25,21,2.42,31.48,4,3.53-81,15.81-161.24,16.68-242.38h0c1.07-16.47,2.29-32.94,3.47-49.4" style="fill: #545454"/>
        <path d="M220.41,425.55c-39,0-84.95.49-127-.86,0,0,0,0,0,0C93.49,388.61,35.55,288,31.76,222.91c-1.19-20.32,6.75-27.36,31.42-29.85,57.14-5.77,114-6.78,171.23-.42,23.74,2.64,31.52,6.81,30.21,29.15-4.4,74.79-34.48,139.2-43.21,202.9a.87.87,0,0,1-1,.86" style="fill: #fff"/>
        <path d="M189.84,194l-19.68,59.22L157,292.79l-6.51,19.62-6-18.16-13.65-41.08-19.53-58.72c-.06-.22,0-.5.18-.5Z" style="fill: #66a7dd"/>
        <polygon points="157.01 219.45 157.01 294.56 150.5 312.4 144.47 295.89 144.47 219.45 157.01 219.45" style="fill: #f88"/>
        <polygon points="157.17 199.36 144.53 199.36 138.21 210.07 144.53 220.77 157.17 220.77 163.49 210.07 157.17 199.36" style="fill: #f88"/>
        <polygon points="134.52 216.72 122.89 205.33 111.27 193.95 134.52 193.95 157.76 193.95 146.14 205.33 134.52 216.72" style="fill: #97cbff"/>
        <polygon points="167.99 216.72 157.06 205.33 146.14 193.95 167.99 193.95 189.84 193.95 178.92 205.33 167.99 216.72" style="fill: #97cbff"/>
        <path d="M156.1,332a3.46,3.46,0,1,1-3.46-3.46A3.46,3.46,0,0,1,156.1,332" style="fill: #9e9e9e"/>
        <path d="M156.1,364.77a3.46,3.46,0,1,1-3.46-3.46,3.45,3.45,0,0,1,3.46,3.46" style="fill: #9e9e9e"/>
        <path d="M156.1,397.53a3.46,3.46,0,1,1-3.46-3.45,3.46,3.46,0,0,1,3.46,3.45" style="fill: #9e9e9e"/>
        <path d="M83.92,124c0,11-4.65,19.87-10.37,19.87S63.17,134.92,63.17,124s4.65-19.87,10.38-19.87S83.92,113,83.92,124" style="fill: #f5b98c"/>
        <path d="M79.51,124c0,8.1-2.67,14.67-6,14.67s-6-6.57-6-14.67,2.67-14.68,6-14.68,6,6.57,6,14.68" style="fill: #f4a671"/>
        <path d="M235.75,124c0,11-4.19,19.87-9.35,19.87s-9.35-8.9-9.35-19.87,4.18-19.87,9.35-19.87,9.35,8.89,9.35,19.87" style="fill: #f5b98c"/>
        <path d="M232.36,124c0,8.1-2.67,14.67-6,14.67s-6-6.57-6-14.67,2.66-14.68,6-14.68,6,6.57,6,14.68" style="fill: #f4a671"/>
        <path d="M148.43,205.64h0A78.67,78.67,0,0,1,69.76,127V65.82A51.83,51.83,0,0,1,121.59,14h62.28a46.77,46.77,0,0,1,46.78,46.77v62.65a82.23,82.23,0,0,1-82.22,82.23" style="fill: #f5b98c"/>
        <path d="M233.87,62l-1.4,42.46a21.57,21.57,0,0,0,0,3.41,10.09,10.09,0,0,1,0,2.77c-.39.62-14.72-36.09-14.72-36.09C206.12,69,196.23,60,188,47.62c-20,20.82-54.25,26.92-94.42,26.92,8.08-5.48,12.14-12.47,12.7-20.77-6.07,9.62-13.88,16.64-23.61,20.77-2.69,7.27-7.42,19.62-13,34.57C67,95.21,64.78,76.36,63.33,54.2c-.89-7.76,2-14.76,8.57-21a73.59,73.59,0,0,0,5.29-5.6c6.66-7.8,18.1-13.9,32.2-19,7.36-3.2,16.93-5.24,27.92-6.54a87.18,87.18,0,0,1,20.23,0l16.23,1.87a14.14,14.14,0,0,1,8.76,4.39c3.59-1.61,4.6-4.52,4-8.22,8.74,3.6,13,8.87,14.17,15.29l18.32.48c-2.65,2.6-4.07,5.36-2.86,8.49,4.87,3.54,8.18,7,9.75,10.37,4.41,2.87,7.09,6,7.92,9.44,1.71,6.68,2.27,12.89,0,17.92" style="fill: #3b2416"/>
        <line x1="63.99" y1="81.81" x2="91.74" y2="91.49" style="fill: none;stroke: #000;stroke-miterlimit: 10"/>
        <path d="M125.43,104.93a7.63,7.63,0,1,1-7.63-7.36,7.5,7.5,0,0,1,7.63,7.36" style="fill: #00060d"/>
        <path d="M192.09,104.71a7.64,7.64,0,1,1-7.63-7.35,7.5,7.5,0,0,1,7.63,7.35" style="fill: #00060d"/>
        <path d="M117.08,159.74h69.85c-.39.44-.8.92-1.26,1.41-1.1,1.2-2.4,2.52-3.88,3.89-4.79,4.42-11.47,9.26-19.67,11.61a15.42,15.42,0,0,0-9.47-4.77c-5.76-.55-10,2.68-11.84,4.45a46.93,46.93,0,0,1-14.25-7.58,62.65,62.65,0,0,1-8.22-7.6c-.45-.49-.88-1-1.26-1.41" style="fill: #44211b"/>
        <path d="M186.93,159.74c-.57.71-1.59,1.8-2.47,2.69l-64.77.18c-.82-.86-2-2.09-2.61-2.87Z" style="fill: #f9f9f9"/>
        <path d="M162.12,176.65a37,37,0,0,1-11.3,1.42,36.57,36.57,0,0,1-5.31-.57,38,38,0,0,1-4.7-1.17c1.86-1.77,6.08-5,11.84-4.45a15.42,15.42,0,0,1,9.47,4.77" style="fill: #ee5351"/>
        <path d="M151.3,136.46a10.63,10.63,0,0,1-10.6-10.6v6.24a10.6,10.6,0,1,0,21.2,0v-6.24a10.63,10.63,0,0,1-10.6,10.6" style="fill: #f4a671"/>
        <path d="M203.08,120.21h-30a7.72,7.72,0,0,1-7.72-7.72V91.57a2.36,2.36,0,0,1,2.36-2.36h44a1,1,0,0,1,1,1.05v20.31A9.65,9.65,0,0,1,203.08,120.21Z" style="fill: none;stroke: #000;stroke-miterlimit: 10"/>
        <path d="M203.08,120.21h-30a7.72,7.72,0,0,1-7.72-7.72V92.6a2.36,2.36,0,0,1,2.36-2.36h44a1,1,0,0,1,1,1.05v19.28A9.65,9.65,0,0,1,203.08,120.21Z" style="fill: none;stroke: #000;stroke-miterlimit: 10"/>
        <path d="M127.26,120.43H98a7.73,7.73,0,0,1-7.72-7.73V91.79a2.36,2.36,0,0,1,2.36-2.36h43.18a1,1,0,0,1,1,1v20.31A9.65,9.65,0,0,1,127.26,120.43Z" style="fill: none;stroke: #000;stroke-miterlimit: 10"/>
        <path d="M127.26,120.43H98.47a7.73,7.73,0,0,1-7.72-7.73V92.6a2.36,2.36,0,0,1,2.36-2.36h42.75a1,1,0,0,1,1,1.05v19.49A9.65,9.65,0,0,1,127.26,120.43Z" style="fill: none;stroke: #000;stroke-miterlimit: 10"/>
        <path d="M136.7,91.69c1.18-.89,6.75-3.1,14.78-2.88,6.64.18,12.38,1.66,13.87,2.6" style="fill: none;stroke: #000;stroke-miterlimit: 10"/>
        <path d="M136.7,92.58c1.18-.9,6.75-3.11,14.78-2.89,6.64.19,12.38,1.66,13.87,2.6" style="fill: none;stroke: #000;stroke-miterlimit: 10"/>
        <line x1="233.83" y1="81.81" x2="212.73" y2="90.06" style="fill: none;stroke: #000;stroke-miterlimit: 10"/>
        <path d="M41.08,423.1c1.49,7.35,3.38,23.83-6.52,26s-14.71-13.53-16.2-20.93S15,403.74,24.87,401.6s14.71,14.15,16.21,21.5" style="fill: #f5b98c"/>
        <path d="M49.45,422.25c-12.65,2.29-25.48,2.9-38.21,4.65C-5.19,347.21-8.66,273.51,36.17,202.58a4.73,4.73,0,0,1,3.61-2.17c18.39-1.55,28.46,3.22,32.4,23-38.81,57.91-25.9,133.71-22.73,198.84" style="fill: #fff"/>
        <path d="M279.64,428.49c-1,8.38-3.29,20.85-13.91,19.32s-9.83-14.46-8.86-22.8,3.38-20.93,13.94-19.27,9.78,14.38,8.83,22.75" style="fill: #f5b98c"/>
        <path d="M247.34,424.53c12.83,1.08,25.68,1.62,38.52,2.53,5.36-49.27,24.28-199.61-31.49-230.37-23.55,2.25-25.15,5.34-30.07,28,45.8,73,22.75,120.93,23,199.8" style="fill: #fff"/>
      </g>
    </g>
  </g>
</svg>
