<?xml version="1.0" encoding="utf-8"?>
<?xml-stylesheet href="../main.css" type="text/svg"?>
<svg xmlns="http://www.w3.org/2000/svg" viewBox="0 0 293.29 734.59">
  <title>doc</title>
  <g id="Layer_2" data-name="Layer 2">
    <g id="Layer_1-2" data-name="Layer 1">
      <g id="legs">
        <ellipse cx="121.07" cy="711.83" rx="22.75" ry="14.5" transform="matrix(0, -1, 1, 0, -590.92, 831.98)" style="fill: #310"/>
        <ellipse cx="121.07" cy="709.59" rx="19" ry="14.5" transform="translate(-588.68 829.74) rotate(-89.93)" style="fill: #582200"/>
        <ellipse cx="186.07" cy="710.83" rx="22.75" ry="14.5" transform="matrix(0, -1, 1, 0, -525.01, 895.98)" style="fill: #310"/>
        <ellipse cx="186.07" cy="708.59" rx="19" ry="14.5" transform="translate(-522.76 893.74) rotate(-89.93)" style="fill: #582200"/>
        <path d="M221.41,418.64c-42.66-.25-85.33-.13-128,0,.34,16.36.76,32.72,1.48,49.07h0c2.25,81.33,9.82,162.47,9.35,243.87,11-2.21,21.2-4,32.4-2.11-8.91-78.15,13.08-161.82,15.74-239.83.14-3.9-1.67-1,2.1-1.17,1.76-.08,3.57.08,5.31.12,3,.08.51-1.76.59,1.05,2.32,77.49,11,159.22,9.35,236.73,10.5,1.25,21,2.42,31.48,4,3.53-81,15.81-161.24,16.68-242.38h0C219,451.57,220.23,435.1,221.41,418.64Z" style="fill: #545454"/>
      </g>
      <g id="body">
        <path d="M220.41,425.55c-39,0-84.95.49-127-.86,0,0,0,0,0,0C93.49,388.61,35.55,288,31.76,222.91c-1.19-20.32,6.75-27.37,31.42-29.85,57.14-5.77,114-6.78,171.23-.42,23.74,2.64,31.52,6.81,30.21,29.15-4.4,74.79-34.48,139.2-43.21,202.9A.87.87,0,0,1,220.41,425.55Z" style="fill: #fff"/>
        <path d="M189.84,194l-19.68,59.21L157,292.79l-6.51,19.62-6-18.16-13.65-41.09-19.53-58.71c-.06-.22,0-.5.18-.5Z" style="fill: #66a7dd"/>
        <polygon points="157.01 219.45 157.01 294.56 150.5 312.4 144.47 295.89 144.47 219.45 157.01 219.45" style="fill: #f88"/>
        <polygon points="157.17 199.36 144.53 199.36 138.21 210.07 144.53 220.77 157.17 220.77 163.49 210.07 157.17 199.36" style="fill: #f88"/>
        <polygon points="134.52 216.72 122.89 205.33 111.27 193.95 134.52 193.95 157.76 193.95 146.14 205.33 134.52 216.72" style="fill: #97cbff"/>
        <polygon points="167.99 216.72 157.07 205.33 146.14 193.95 167.99 193.95 189.84 193.95 178.92 205.33 167.99 216.72" style="fill: #97cbff"/>
        <circle cx="152.64" cy="332" r="3.46" style="fill: #9e9e9e"/>
        <circle cx="152.64" cy="364.77" r="3.46" style="fill: #9e9e9e"/>
        <circle cx="152.64" cy="397.53" r="3.46" style="fill: #9e9e9e"/>
      </g>
      <g id="head">
        <ellipse cx="73.55" cy="123.95" rx="10.37" ry="19.87" style="fill: #f5b98c"/>
        <ellipse cx="73.55" cy="123.95" rx="5.96" ry="14.68" style="fill: #f4a671"/>
        <ellipse cx="226.4" cy="123.95" rx="9.35" ry="19.87" style="fill: #f5b98c"/>
        <ellipse cx="226.4" cy="123.95" rx="5.96" ry="14.68" style="fill: #f4a671"/>
        <path d="M121.59,14h62.28a46.77,46.77,0,0,1,46.77,46.77v62.65a82.22,82.22,0,0,1-82.22,82.22h0A78.66,78.66,0,0,1,69.76,127V65.82A51.83,51.83,0,0,1,121.59,14Z" style="fill: #f5b98c"/>
        <path d="M233.87,62l-1.4,42.46a21.57,21.57,0,0,0,0,3.41,10,10,0,0,1,0,2.76c-.39.63-14.72-36.08-14.72-36.08C206.12,69,196.23,60,188,47.62c-20,20.82-54.25,26.92-94.42,26.92,8.08-5.48,12.14-12.47,12.7-20.77-6.07,9.62-13.88,16.64-23.61,20.77-2.69,7.27-7.42,19.62-13,34.57C67,95.21,64.78,76.36,63.33,54.2c-.89-7.76,2-14.76,8.57-21a73.59,73.59,0,0,0,5.29-5.6c6.66-7.8,18.1-13.9,32.2-19,7.36-3.2,16.93-5.24,27.92-6.54a86.64,86.64,0,0,1,20.23,0l16.23,1.87a14.14,14.14,0,0,1,8.76,4.39h0c3.59-1.61,4.6-4.52,4-8.22,8.74,3.6,13,8.87,14.17,15.29l18.32.47c-2.65,2.61-4.07,5.37-2.85,8.5,4.86,3.54,8.17,7,9.74,10.37,4.41,2.87,7.09,6,7.92,9.44C235.58,50.75,236.14,57,233.87,62Z" style="fill: #3b2416"/>
        <line x1="63.99" y1="81.81" x2="91.74" y2="91.49" style="fill: none;stroke: #000;stroke-miterlimit: 10"/>
        <ellipse cx="117.8" cy="104.93" rx="7.63" ry="7.35" style="fill: #00060d"/>
        <ellipse cx="184.46" cy="104.71" rx="7.63" ry="7.35" style="fill: #00060d"/>
        <g>
          <path d="M117.08,159.74h69.85c-.39.44-.8.92-1.26,1.41-1.1,1.19-2.4,2.52-3.88,3.89-4.79,4.42-11.47,9.26-19.67,11.61a15.42,15.42,0,0,0-9.47-4.77c-5.76-.55-10,2.68-11.84,4.45a46.93,46.93,0,0,1-14.25-7.58,62.65,62.65,0,0,1-8.22-7.6C117.89,160.66,117.47,160.18,117.08,159.74Z" style="fill: #44211b"/>
          <path d="M186.93,159.74c-.57.71-1.59,1.8-2.47,2.69l-64.77.18c-.82-.86-2-2.09-2.61-2.87Z" style="fill: #f9f9f9"/>
          <path d="M162.12,176.65a37,37,0,0,1-11.3,1.42,36.57,36.57,0,0,1-5.31-.57,38,38,0,0,1-4.7-1.17c1.86-1.77,6.08-5,11.84-4.45A15.42,15.42,0,0,1,162.12,176.65Z" style="fill: #ee5351"/>
        </g>
        <path d="M151.3,136.46a10.63,10.63,0,0,1-10.6-10.6v6.24a10.6,10.6,0,1,0,21.2,0v-6.24A10.63,10.63,0,0,1,151.3,136.46Z" style="fill: #f4a671"/>
        <path d="M167.72,89.21h44a1,1,0,0,1,1,1v20.31a9.64,9.64,0,0,1-9.64,9.64h-30a7.72,7.72,0,0,1-7.72-7.72V91.57a2.36,2.36,0,0,1,2.36-2.36Z" style="fill: none;stroke: #000;stroke-miterlimit: 10"/>
        <path d="M167.72,90.24h44a1,1,0,0,1,1,1v19.28a9.64,9.64,0,0,1-9.64,9.64h-30a7.72,7.72,0,0,1-7.72-7.72V92.6a2.36,2.36,0,0,1,2.36-2.36Z" style="fill: none;stroke: #000;stroke-miterlimit: 10"/>
        <path d="M92.68,89.43h43.18a1,1,0,0,1,1,1v20.31a9.64,9.64,0,0,1-9.64,9.64H98a7.72,7.72,0,0,1-7.72-7.72V91.79a2.36,2.36,0,0,1,2.36-2.36Z" style="fill: none;stroke: #000;stroke-miterlimit: 10"/>
        <path d="M93.11,90.24h42.75a1,1,0,0,1,1,1v19.5a9.64,9.64,0,0,1-9.64,9.64H98.47a7.72,7.72,0,0,1-7.72-7.72V92.6A2.36,2.36,0,0,1,93.11,90.24Z" style="fill: none;stroke: #000;stroke-miterlimit: 10"/>
        <g>
          <path d="M136.7,91.69c1.18-.89,6.75-3.11,14.78-2.88,6.64.18,12.38,1.66,13.87,2.6" style="fill: none;stroke: #000;stroke-miterlimit: 10"/>
          <path d="M136.7,92.58c1.18-.9,6.75-3.11,14.78-2.89,6.64.19,12.38,1.66,13.87,2.6" style="fill: none;stroke: #000;stroke-miterlimit: 10"/>
        </g>
        <line x1="233.83" y1="81.81" x2="212.73" y2="90.06" style="fill: none;stroke: #000;stroke-miterlimit: 10"/>
      </g>
      <g id="leftArm">
        <path d="M41.08,423.1c1.49,7.35,3.38,23.83-6.52,26s-14.71-13.53-16.2-20.93S15,403.74,24.87,401.6,39.58,415.75,41.08,423.1Z" style="fill: #f5b98c"/>
        <path d="M49.45,422.25c-12.65,2.29-25.48,2.9-38.21,4.65C-5.19,347.21-8.66,273.51,36.17,202.58a4.73,4.73,0,0,1,3.61-2.17c18.39-1.55,28.46,3.22,32.4,23C33.37,281.32,46.28,357.12,49.45,422.25Z" style="fill: #fff"/>
      </g>
      <g id="rightArm">
        <path d="M279.64,428.49c-1,8.38-3.29,20.85-13.91,19.33s-9.83-14.48-8.86-22.81,3.38-20.93,13.94-19.27S280.59,420.12,279.64,428.49Z" style="fill: #f5b98c"/>
        <path d="M247.34,424.53c12.83,1.08,25.68,1.62,38.52,2.53,5.36-49.28,24.28-199.61-31.49-230.37-23.55,2.25-25.15,5.34-30.07,28C270.1,297.71,247.05,345.66,247.34,424.53Z" style="fill: #fff"/>
      </g>
    </g>
  </g>
</svg>
