<svg xmlns="http://www.w3.org/2000/svg" viewBox="0 0 268.71 727.59">
    <defs>
        <style>
            .cls-1 {
                fill: #310;
            }

            .cls-2 {
                fill: #582200;
            }

            .cls-3 {
                fill: #545454;
            }

            .cls-4 {
                fill: #66a7dd;
            }

            .cls-5 {
                fill: #312322;
            }

            .cls-6 {
                fill: #f88;
            }

            .cls-7 {
                fill: #97cbff;
            }

            .cls-22,
            .cls-23,
            .cls-8 {
                fill: #fff;
            }

            .cls-17,
            .cls-19,
            .cls-9 {
                fill: none;
            }

            .cls-17,
            .cls-9 {
                stroke: #000;
            }

            .cls-17,
            .cls-19,
            .cls-20,
            .cls-22,
            .cls-23,
            .cls-9 {
                stroke-miterlimit: 10;
            }

            .cls-19,
            .cls-9 {
                stroke-width: 2px;
            }

            .cls-10 {
                fill: #f5b98c;
            }

            .cls-11 {
                fill: #f4a671;
            }

            .cls-12 {
                fill: #3b2416;
            }

            .cls-13 {
                fill: #00060d;
            }

            .cls-14 {
                fill: #44211b;
            }

            .cls-15 {
                fill: #f9f9f9;
            }

            .cls-16 {
                fill: #ee5351;
            }

            .cls-18 {
                fill: #ccc;
            }

            .cls-19,
            .cls-20,
            .cls-23 {
                stroke: #ccc;
            }

            .cls-20 {
                fill: #fff8f8;
            }

            .cls-21 {
                fill: #999;
            }

            .cls-22 {
                stroke: #999;
            }

            .cls-23 {
                stroke-width: 0.5px;
            }
        </style>
    </defs>
    <title>doc_1</title>
    <g id="Layer_2" data-name="Layer 2">
        <g id="Layer_1-2" data-name="Layer 1">
            <g id="legs">
                <ellipse class="cls-1" cx="106.15" cy="704.83" rx="22.75" ry="14.5" transform="matrix(0, -1, 1, 0, -598.82, 810.07)" />
                <ellipse class="cls-2" cx="106.15" cy="702.59" rx="19" ry="14.5" transform="translate(-596.58 807.82) rotate(-89.93)" />
                <ellipse class="cls-1" cx="171.15" cy="703.83" rx="22.75" ry="14.5" transform="matrix(0, -1, 1, 0, -532.91, 874.07)" />
                <ellipse class="cls-2" cx="171.15" cy="701.59" rx="19" ry="14.5" transform="translate(-530.66 871.83) rotate(-89.93)" />
                <path class="cls-3" d="M206.49,411.64c-42.66-.25-85.33-.13-128,0,.34,16.36.76,32.72,1.48,49.07h0C82.25,542,91,623.23,90.49,704.64c11-2.22,20.81-3.85,32-2-8.91-78.16,12.34-162,15-240,.14-3.9-1.67-1,2.1-1.17,1.76-.08,3.57.08,5.31.12,3,.08.51-1.76.59,1.05,18,80,10.65,159.49,9,237,10.5,1.25,22.55-2.63,33-1C191,617.67,202.13,542.18,203,461h0C204.09,444.57,205.31,428.1,206.49,411.64Z" />
            </g>
            <g id="body">
                <rect class="cls-4" x="112.49" y="181.64" width="54" height="230" />
                <rect class="cls-5" x="63.49" y="404.64" width="149" height="7" />
                <polygon class="cls-6" points="147.25 219.93 153.57 208.78 147.25 197.64 134.61 197.64 128.29 208.78 134.54 219.8 131.49 301.03 140.49 334.64 149.49 301.03 147.1 219.93 147.25 219.93" />
                <polygon class="cls-7" points="153.07 184.64 149.92 184.64 131.22 184.64 128.07 184.64 106.22 184.64 117.15 197.17 128.07 209.71 139 197.17 140.57 195.37 142.15 197.17 153.07 209.71 164 197.17 174.92 184.64 153.07 184.64" />
                <path class="cls-8" d="M112.49,181.31V499.59c-12.57-.1-25.25-.42-37.43-1.22,0-18.29-5.4-48.95-12.29-84.73C51.43,354.75,36.12,282,34.56,227.73c-.77-27.25,4.44-36.7,20.63-40a304.3,304.3,0,0,1,46-6.05C105,181.45,108.73,181.34,112.49,181.31Z" />
                <path class="cls-8" d="M229.41,226.23c-1.63,67.45-9.66,128.6-16.2,187.41-3.19,28.65-6,56.74-7.6,84.73,0,.06,0,1.15-.55,1.15-12,0-25.22.21-38.57.07V181.31q6.44-.08,12.86.33a167.3,167.3,0,0,1,33.42,5.49C225.85,190.67,230.13,196.27,229.41,226.23Z" />
            </g>
            <path class="cls-9" d="M173.49,170.64c17,9,17,52,13,61" />
            <path class="cls-9" d="M91.69,218.8c.57-21.17-3.53-38.61,13.8-45.16" />
            <g id="head">
                <ellipse class="cls-10" cx="67.3" cy="117.31" rx="9.82" ry="18.81" />
                <ellipse class="cls-11" cx="67.3" cy="117.31" rx="5.64" ry="13.89" />
                <ellipse class="cls-10" cx="211.98" cy="117.31" rx="8.85" ry="18.81" />
                <ellipse class="cls-11" cx="211.98" cy="117.31" rx="5.64" ry="13.89" />
                <path class="cls-10" d="M112.78,13.24h58.95A44.27,44.27,0,0,1,216,57.51v59.3a77.82,77.82,0,0,1-77.82,77.82h0a74.45,74.45,0,0,1-74.45-74.45V62.3a49.06,49.06,0,0,1,49.06-49.06Z" />
                <path class="cls-12" d="M219.05,58.68l-1.33,40.18a21.77,21.77,0,0,0,0,3.23,9.41,9.41,0,0,1,0,2.62c-.36.59-13.92-34.16-13.92-34.16-11-5.26-20.38-13.79-28.16-25.48C156.73,64.78,124.3,70.55,86.28,70.55c7.64-5.19,11.49-11.8,12-19.66C92.55,60,85.16,66.64,76,70.55c-2.55,6.88-7,18.57-12.27,32.73-2.56-13.17-4.67-31-6-52-.84-7.34,1.91-14,8.12-19.89a71.67,71.67,0,0,0,5-5.31c6.31-7.38,17.14-13.15,30.48-18,7-3,16-4.95,26.42-6.19a82.87,82.87,0,0,1,19.15,0l15.36,1.78a13.36,13.36,0,0,1,8.3,4.15h0c3.4-1.52,4.35-4.28,3.82-7.78,8.27,3.41,12.32,8.39,13.41,14.47l17.34.45c-2.51,2.46-3.85,5.08-2.7,8,4.61,3.36,7.74,6.63,9.22,9.82,4.18,2.71,6.72,5.68,7.5,8.93C220.67,48,221.2,53.91,219.05,58.68Z" />
                <line class="cls-9" x1="59.49" y1="77.64" x2="84.53" y2="86.6" />
                <ellipse class="cls-13" cx="109.19" cy="99.31" rx="7.22" ry="6.96" />
                <ellipse class="cls-13" cx="172.29" cy="99.11" rx="7.22" ry="6.96" />
                <g id="mouth">
                <path class="cls-14" id="docLips" d="M108.51,151.19h66.12c-.38.42-.77.87-1.2,1.34-1,1.13-2.27,2.38-3.67,3.68-4.54,4.18-10.86,8.76-18.62,11a13.7,13.7,0,0,0-20.17-.3,44.55,44.55,0,0,1-13.49-7.18,59.73,59.73,0,0,1-7.78-7.19C109.27,152.06,108.87,151.61,108.51,151.19Z" />
                <path class="cls-15" d="M174.63,151.19c-.55.67-1.51,1.71-2.34,2.55l-61.31.17c-.78-.82-1.89-2-2.47-2.72Z" />
                <path class="cls-16" d="M151.14,167.2a34.77,34.77,0,0,1-5.71,1.14,35.64,35.64,0,0,1-5,.21A35.12,35.12,0,0,1,131,166.9a13.7,13.7,0,0,1,20.17.3Z" />
                </g>
                <path class="cls-11" d="M140.9,129.16a10.05,10.05,0,0,1-10-10V125a10,10,0,0,0,20.07,0v-5.9A10.06,10.06,0,0,1,140.9,129.16Z" />
                <path class="cls-17" d="M156.56,84.44H198a1,1,0,0,1,1,1v18.65a9.64,9.64,0,0,1-9.64,9.64H161.93a7.72,7.72,0,0,1-7.72-7.72V86.8a2.36,2.36,0,0,1,2.36-2.36Z" />
                <path class="cls-17" d="M156.56,85.41H198a1,1,0,0,1,1,1v17.68a9.64,9.64,0,0,1-9.64,9.64H161.93a7.72,7.72,0,0,1-7.72-7.72V87.77a2.36,2.36,0,0,1,2.36-2.36Z" />
                <path class="cls-17" d="M85.54,84.64h40.69a1,1,0,0,1,1,1v18.65a9.64,9.64,0,0,1-9.64,9.64H90.9a7.72,7.72,0,0,1-7.72-7.72V87a2.36,2.36,0,0,1,2.36-2.36Z" />
                <path class="cls-17" d="M85.95,85.41h40.28a1,1,0,0,1,1,1v17.88a9.64,9.64,0,0,1-9.64,9.64H91.31a7.72,7.72,0,0,1-7.72-7.72V87.77A2.36,2.36,0,0,1,85.95,85.41Z" />
                <path class="cls-17" d="M127.08,86.79c1.12-.85,6.39-2.94,14-2.73,6.28.17,11.71,1.57,13.13,2.46" />
                <path class="cls-17" d="M127.08,87.63c1.12-.85,6.39-2.95,14-2.74,6.28.18,11.71,1.58,13.13,2.47" />
                <line class="cls-9" x1="219.01" y1="77.43" x2="199.04" y2="85.24" />
            </g>
            <path class="cls-10" d="M34.67,413.46c.7,8.15,1.34,17.19-9.45,18.11S12.57,424,11.72,415.72s-1.88-19.15,9.65-20.24S34,405.31,34.67,413.46Z" />
            <path class="cls-8" d="M40.68,412.47a344.91,344.91,0,0,1-38.45-.19C-2.32,334-4.51,247,43.42,192.66a3.92,3.92,0,0,1,3.81-1.52c14.41,2,20.24,3.62,24.14,10.3a21.49,21.49,0,0,1-1.1,23C32.56,280.2,44.22,349.5,40.68,412.47Z" />
            <g id="rightArm">
                <path class="cls-10" d="M259.68,413.34c-.43,7.74-1.84,19-12.73,18.14s-10.48-12.43-10-20.12,1.72-19.2,12.62-18.28S260.11,405.59,259.68,413.34Z" />
                <path class="cls-8" d="M227.3,411.36c12.86.24,25.73.23,38.59.32,3.06-55.6,13.82-185.74-43.48-219.81-23.63,3.52-24.58,5.67-29.35,26.53C235.67,281.15,223.49,341.78,227.3,411.36Z" />
            </g>
            <g id="pockets">
                <path class="cls-18" d="M175.49,421.64h27a0,0,0,0,1,0,0v13a12,12,0,0,1-12,12h-3.06a12,12,0,0,1-12-12v-13A0,0,0,0,1,175.49,421.64Z" />
                <path class="cls-18" d="M75.49,421.64h27a0,0,0,0,1,0,0v13a12,12,0,0,1-12,12H87.46a12,12,0,0,1-12-12v-13A0,0,0,0,1,75.49,421.64Z" />
            </g>
            <g id="stethoscope2">
                <path class="cls-9" d="M105.09,225.57v8.74a.4.4,0,0,1-.43.36h0a.44.44,0,0,1-.46-.39v-7.6c0-3.26-3.18-5.93-7.07-5.93H86.27c-3.89,0-7.07,2.67-7.07,5.93v7.63a.4.4,0,0,1-.43.36h0a.43.43,0,0,1-.46-.39v-8.71c0-3.27,3.18-5.93,7.07-5.93H98C101.91,219.64,105.09,222.3,105.09,225.57Z" />
                <path class="cls-19" d="M104.65,245.09c0-11.36-25.89-11.36-25.89,0" />
                <path class="cls-19" d="M104.24,236.4c-.49,13.09.92,25.88.15,39.09-.3,5.07-5.59,7-10.84,7.92-1.87.33-9.33,2.46-11.49,2.75a1.85,1.85,0,0,0,.17.85c2.53-.41,10.73-2.67,12.91-3,5.25-.9,9.81-2.6,10.11-7.64.79-13.43-.55-26.58-.12-39.93A3.76,3.76,0,0,1,104.24,236.4Z" />
                <path class="cls-19" d="M78.32,236.29c.42,13.18-.91,26.16-.12,39.4.29,5,4.85,6.65,10.11,7.54,2.17.37,9.16,2.62,11.69,3a1.83,1.83,0,0,0,.17-.84c-2.16-.29-8.41-2.4-10.28-2.73-5.25-.91-10.53-2.81-10.83-7.82-.77-13,.64-25.65.15-38.57A3.77,3.77,0,0,1,78.32,236.29Z" />
                <ellipse class="cls-20" cx="78.81" cy="287.16" rx="3.37" ry="2.4" transform="translate(-70.62 29.59) rotate(-14.77)" />
                <ellipse class="cls-20" cx="103.13" cy="286" rx="2.4" ry="3.38" transform="translate(-195.69 342.04) rotate(-80.79)" />
            </g>
            <circle class="cls-21" cx="188.24" cy="226.89" r="7.25" />
            <circle class="cls-22" cx="188.24" cy="226.89" r="5.32" />
            <circle class="cls-23" cx="188" cy="226.82" r="2.69" />
        </g>
    </g>
</svg>