<svg id="Layer_1" data-name="Layer 1" xmlns="http://www.w3.org/2000/svg" xmlns:xlink="http://www.w3.org/1999/xlink" viewBox="0 0 1366 768">
  <defs>
    <style>
      .cls-1 {
        fill: none;
      }

      .cls-2 {
        fill: #ad0c0c;
      }

      .cls-3 {
        fill: #976947;
      }

      .cls-4 {
        fill: #c7e2fc;
      }

      .cls-5 {
        fill: #ebf7fe;
      }

      .cls-6 {
        fill: #4d5d7a;
      }

      .cls-7 {
        fill: #a8b0bc;
      }

      .cls-8 {
        fill: #1d5cb7;
      }

      .cls-9 {
        fill: #8ac129;
      }

      .cls-10 {
        fill: #ff4c4c;
      }

      .cls-11 {
        fill: #ffbf14;
      }

      .cls-12 {
        fill: #e0a812;
      }

      .cls-13 {
        fill: #45748c;
      }

      .cls-14 {
        fill: #3a6175;
      }

      .cls-15 {
        fill: #48c1e1;
      }

      .cls-16, .cls-18 {
        opacity: 0.1;
      }

      .cls-17 {
        fill: #e6e9ed;
      }

      .cls-18 {
        isolation: isolate;
      }

      .cls-19 {
        fill: #9ea7af;
      }

      .cls-20 {
        fill: #fff;
      }

      .cls-21 {
        fill: #046699;
      }

      .cls-22 {
        fill: #ffb98a;
      }

      .cls-23 {
        fill: #c6a07d;
      }

      .cls-24 {
        fill: #ffd5b3;
      }

      .cls-25 {
        fill: #775436;
      }

      .cls-26 {
        fill: #fb8276;
      }

      .cls-27 {
        fill: #a2dff9;
      }

      .cls-28 {
        fill: #5b9ed6;
      }

      .cls-29 {
        fill: #4c83b3;
      }

      .cls-30 {
        fill: #5a67ad;
      }

      .cls-31 {
        fill: #48538a;
      }

      .cls-32 {
        fill: #ef2d57;
      }

      .cls-33 {
        fill: #d9294f;
      }

      .cls-34 {
        fill: #fcda55;
      }

      .cls-35 {
        fill: #d9bc4a;
      }

      .cls-36 {
        fill: #f084ad;
      }

      .cls-37 {
        fill: #d47499;
      }

      .cls-38 {
        fill: #cc264b;
      }

      .cls-39 {
        fill: #674297;
      }

      .cls-40 {
        fill: #e69326;
      }

      .cls-41 {
        fill: #7fdbd5;
      }

      .cls-42 {
        fill: #76b7eb;
      }

      .cls-43 {
        fill: #d1eff2;
      }

      .cls-44 {
        fill: #368c0e;
      }

      .cls-45 {
        fill: #a7aa0f;
      }

      .cls-46 {
        fill: #c5ccd3;
      }

      .cls-47 {
        fill: #89c947;
      }

      .cls-48 {
        fill: #38648c;
      }

      .cls-49 {
        fill: #f28b74;
      }

      .cls-50 {
        fill: #287d99;
      }

      .cls-51 {
        opacity: 0.25;
        fill: url(#New_Pattern_3);
      }
    </style>
    <pattern id="New_Pattern_3" data-name="New Pattern 3" width="1050" height="943.79" patternUnits="userSpaceOnUse" viewBox="0 0 1050 943.79">
      <rect class="cls-1" width="1050" height="943.79"/>
      <g>
        <path class="cls-2" d="M635.75,870.81v52.12a7.06,7.06,0,0,1-7.06,7.06H576.57a7.06,7.06,0,0,1-7.06-7.06V870.81a7.06,7.06,0,0,1,7.06-7.06h52.12A7.06,7.06,0,0,1,635.75,870.81Zm-12.62,22.31a1.76,1.76,0,0,0-1.76-1.77H608.15V878.13a1.77,1.77,0,0,0-1.77-1.76h-8.3a1.76,1.76,0,0,0-1.76,1.76v13.22H583.1a1.77,1.77,0,0,0-1.77,1.77v8.29a1.77,1.77,0,0,0,1.77,1.77h13.22V916.4a1.76,1.76,0,0,0,1.76,1.76h8.3a1.77,1.77,0,0,0,1.77-1.76V903.18h13.22a1.76,1.76,0,0,0,1.76-1.77Z"/>
        <g>
          <path class="cls-3" d="M940.74,868.81l-11.12-11.12a2.63,2.63,0,0,0-3.72,0l-50.12,50.12a2.64,2.64,0,0,0,0,3.72l39.06,39.06a2.64,2.64,0,0,0,3.73,0l50.12-50.12a2.64,2.64,0,0,0,0-3.72l-11.12-11.12"/>
          <path class="cls-4" d="M937.38,872.17,928.24,863l-46.63,46.63,24,24,11.06-11.06,11,11.06,35.58-35.58L954.2,889"/>
          <path class="cls-5" d="M953.82,888.61,956.2,891a46.3,46.3,0,0,1-9.83,14.37c-14.9,14.91-36.56,17.41-48.38,5.59a25.15,25.15,0,0,1-6.63-12l36.4-36.4,9.31,9.3Z"/>
          <path class="cls-6" d="M935.45,874.1l16.83,16.82,7.21-7.21-16.83-16.82Z"/>
          <path class="cls-7" d="M918.63,879.38l7.21,7.21,7.21-7.21-7.21-7.21Z"/>
          <path class="cls-7" d="M907.57,890.44l7.21,7.21,7.21-7.21-7.21-7.21Z"/>
          <path class="cls-7" d="M896,902l7.21,7.21,7.21-7.21-7.21-7.21Z"/>
          <path class="cls-7" d="M905.65,933.71l11.06-11.06,11,11.06"/>
          <path class="cls-6" d="M924.05,881h13v-2.63h-13Z"/>
          <path class="cls-6" d="M912.89,892.18h13v-2.63h-13Z"/>
          <path class="cls-6" d="M901.72,903.34h13v-2.63h-13Z"/>
          <path class="cls-7" d="M935,883.23l1.93,1.92,1.92-1.92-1.92-1.92Z"/>
          <path class="cls-7" d="M938.82,887.08l14.9,14.9,1.92-1.92-14.9-14.91Z"/>
          <path class="cls-7" d="M948,903.9l1.93,1.92,1.92-1.92L949.88,902Z"/>
          <path class="cls-7" d="M931.13,887.08,946,902l1.92-1.92-14.9-14.91Z"/>
          <path class="cls-7" d="M923.92,894.29l1.92,1.92,1.92-1.92-1.92-1.93Z"/>
          <path class="cls-7" d="M927.76,898.13l14.9,14.9,1.93-1.92-14.9-14.9Z"/>
          <path class="cls-7" d="M936.9,915l1.92,1.92,1.92-1.92L938.82,913Z"/>
          <path class="cls-7" d="M920.07,898.13,935,913l1.93-1.92L922,896.21Z"/>
          <path class="cls-7" d="M912.86,905.34l1.92,1.93,1.93-1.93-1.93-1.92Z"/>
          <path class="cls-7" d="M916.71,909.19l14.9,14.9,1.92-1.92-14.9-14.9Z"/>
          <path class="cls-7" d="M925.84,926l1.92,1.93,1.93-1.93-1.93-1.92Z"/>
          <path class="cls-7" d="M909,909.19l14.91,14.9,1.92-1.92-14.9-14.9Z"/>
        </g>
        <path class="cls-8" d="M739.65,893.4l24.62-24.62a4.85,4.85,0,0,1,6.86-.17l1.77-1.77a2.47,2.47,0,0,1,3.49,0L783.5,874a2.47,2.47,0,0,1,0,3.49l-1.77,1.77a4.85,4.85,0,0,1-.17,6.85l-24.62,24.62a4.92,4.92,0,0,1-7,0l-1.54-1.53-1.6,1.6a2.44,2.44,0,0,1-3.48,0L739,906.43a2.46,2.46,0,0,1,0-3.48l1.61-1.61-1-1A4.94,4.94,0,0,1,739.65,893.4Zm18.89,64.19a3.14,3.14,0,0,1-3.76.28L702.5,905.6a3.18,3.18,0,0,1,.28-3.77,7.38,7.38,0,0,1,10.45,0l29.63,29.63a19.72,19.72,0,1,0,27.88-27.89l7-7A29.52,29.52,0,0,1,758.4,947l.14.14A7.38,7.38,0,0,1,758.54,957.59Zm-36-54.89,1.6-1.6a1.24,1.24,0,0,1,1.75,0l22.79,22.79a1.24,1.24,0,0,1,0,1.75l-1.6,1.6a1.24,1.24,0,0,1-1.75,0l-22.79-22.79A1.24,1.24,0,0,1,722.54,902.7Z"/>
      </g>
      <g>
        <g>
          <path class="cls-9" d="M82.48,829a1.18,1.18,0,0,0,0-1.68l-18.09-18.1A1.2,1.2,0,0,0,62.7,811L80.8,829a1.18,1.18,0,0,0,.84.35A1.2,1.2,0,0,0,82.48,829Z"/>
          <path class="cls-10" d="M90.19,826a1.18,1.18,0,0,0,0-1.68L67.51,801.6a1.2,1.2,0,1,0-1.69,1.69L88.51,826a1.18,1.18,0,0,0,.84.35A1.2,1.2,0,0,0,90.19,826Z"/>
          <path class="cls-9" d="M93.26,818.26a1.18,1.18,0,0,0,0-1.68l-18.09-18.1a1.2,1.2,0,0,0-1.69,1.69l18.1,18.09a1.18,1.18,0,0,0,.84.35A1.2,1.2,0,0,0,93.26,818.26Z"/>
          <path class="cls-10" d="M111.42,799.41a1.18,1.18,0,0,0,0-1.68L94.19,780.5a1.19,1.19,0,1,0-1.68,1.69l17.23,17.22a1.14,1.14,0,0,0,.84.35A1.16,1.16,0,0,0,111.42,799.41Z"/>
          <path class="cls-10" d="M63.64,847.2a1.2,1.2,0,0,0,0-1.68L46.41,828.29A1.19,1.19,0,0,0,44.72,830L62,847.2a1.16,1.16,0,0,0,.84.35A1.18,1.18,0,0,0,63.64,847.2Z"/>
          <path class="cls-11" d="M61.84,830.07c-7.34-1.62-13.71-2.35-18.72,2.66A2.63,2.63,0,0,1,39.4,829c6.18-6.18,13.82-6,21.15-4.57C61,826.29,61.42,828.18,61.84,830.07Z"/>
          <path class="cls-12" d="M61.84,830.07c-1.13-.25-2.24-.48-3.33-.67-.42-1.86-.85-3.66-1.25-5.48,1.1.13,2.2.31,3.29.52C61,826.3,61.42,828.17,61.84,830.07Z"/>
          <path class="cls-11" d="M91.63,827.41c-7,7-15.95,5.77-24.17,3.94-.35-1.88-.79-3.78-1.23-5.67,8.59,2,16,3.69,21.69-2,12-12-9.35-33.86,5.31-48.52A2.63,2.63,0,1,1,97,778.9C85,790.86,106.32,812.72,91.63,827.41Z"/>
          <path class="cls-12" d="M66.23,825.68l3,.69c.43,1.86.85,3.72,1.19,5.6-1-.19-2-.4-3-.62C67.11,829.46,66.67,827.56,66.23,825.68Z"/>
          <path class="cls-13" d="M68.21,804c-12,12,9.43,33.77-5.31,48.51a2.63,2.63,0,0,1-3.72-3.71c11.92-11.92-9.31-33.89,5.31-48.52,7-7,16-5.77,24.17-3.94.35,1.87.8,3.8,1.24,5.68C81.3,800,73.88,798.32,68.21,804Z"/>
          <path class="cls-14" d="M89.9,802c-1.06-.25-2.1-.49-3.12-.71-.43-1.86-.84-3.72-1.16-5.6,1,.19,2,.41,3,.63C89,798.2,89.46,800.13,89.9,802Z"/>
          <path class="cls-13" d="M116.72,798.68c-5.83,5.83-13,6.1-21.15,4.56-.41-1.85-.86-3.71-1.28-5.62C101.63,799.23,108,800,113,795a2.63,2.63,0,1,1,3.71,3.72Z"/>
          <path class="cls-14" d="M98.46,803.72c-1-.13-1.93-.29-2.89-.48-.41-1.85-.86-3.71-1.28-5.62,1,.22,2,.42,2.91.59C97.61,800.06,98.07,801.94,98.46,803.72Z"/>
        </g>
        <g>
          <path class="cls-15" d="M261.22,917,253,925.22a.88.88,0,0,1-1.25,0l-7.07-7.07a2.5,2.5,0,0,0-1.54-.63l-3,0a.9.9,0,0,1-.9-.9l0-3a2.5,2.5,0,0,0-.63-1.54l-7.35-7.34a.89.89,0,0,1,0-1.25l8.23-8.23a.88.88,0,0,1,1.25,0l20.5,20.49a.9.9,0,0,1,0,1.27Z"/>
          <g class="cls-16">
            <path d="M234.1,907.56l-2.84-2.83a.89.89,0,0,1,0-1.25l8.23-8.23a.88.88,0,0,1,1.25,0l2.84,2.83a.94.94,0,0,0-1.32,0l-8.19,8.2A.93.93,0,0,0,234.1,907.56Z"/>
          </g>
          <path class="cls-17" d="M199.32,978.73a.92.92,0,0,0,1.3,0l13.27-13.27a7.94,7.94,0,0,0,0-11.22l-14.4-14.4a7.94,7.94,0,0,0-11.22,0L175,953.08a.92.92,0,0,0,0,1.3Z"/>
          <path class="cls-18" d="M191,942.6l-13.27,13.27a1,1,0,0,0,.05,1.36L175,954.38a.92.92,0,0,1,0-1.3l13.27-13.27c3.09-3.09,8.33-2.87,11.68.49l.59.59-.78.2A7.91,7.91,0,0,0,191,942.6Z"/>
          <path class="cls-19" d="M187.37,957.41a3.55,3.55,0,1,1-1-5.71l8.44-8.45.9,2.45-.86.86-1.79-.57a.54.54,0,0,0-.45,0,.53.53,0,0,0-.24.38l-.52,3.15-3.81,3.81A3.55,3.55,0,0,1,187.37,957.41Zm-1.71-1a1.29,1.29,0,1,0-1.82,0A1.28,1.28,0,0,0,185.66,956.44Z"/>
          <path class="cls-20" d="M205.88,943.36,191.4,957.84a.64.64,0,0,1-.11-.52l1.81-11.08a.74.74,0,0,1,1-.6l2.23.72c.46.14.7-.11.53-.56l-1.27-3.49a.81.81,0,0,1,.53-1.07l6.26-1.88a1.62,1.62,0,0,1,1.46.36l1.05,1.06A13.84,13.84,0,0,0,205.88,943.36Z"/>
          <polygon class="cls-21" points="184.91 963.21 189.93 968.23 209.45 948.71 204.43 943.69 184.91 963.21"/>
          <g>
            <path class="cls-22" d="M210.11,948.05l-2.89,2.89-5-5,3.18-3.18a14.37,14.37,0,0,0,2.59,3.54A14.78,14.78,0,0,0,210.11,948.05Z"/>
            <path class="cls-22" d="M206.33,930,204.39,928a2.32,2.32,0,0,1,0-3.27l3.42-3.42a2.33,2.33,0,0,1,3.28,0l1.7,1.71-4.68,4.69A12.19,12.19,0,0,0,206.33,930Z"/>
            <path class="cls-22" d="M233.47,947l-3.42,3.42a2.33,2.33,0,0,1-3.28,0l-1.93-1.93a13.4,13.4,0,0,0,2.23-1.78l4.68-4.69,1.72,1.71A2.32,2.32,0,0,1,233.47,947Z"/>
          </g>
          <path class="cls-23" d="M244.77,929l-12.46,12.46h0l.73-.72c2.51-2.52,3.43-5.34,2.73-8.41-.61-2.65-2.42-5.5-5.38-8.46s-5.81-4.78-8.46-5.38c-3.07-.7-5.9.22-8.41,2.73l-.73.72h0l7.19-7.18a5.58,5.58,0,0,1,7.9,0l2.85,2.85,5.63,1.17,8.71,8.71S245.63,928.8,244.77,929Z"/>
          <path class="cls-18" d="M214.08,921.78l-.73.72-.56-.56,7.19-7.18a5.91,5.91,0,0,1,8.34.41l2.79,2.79a5.91,5.91,0,0,0-8.34-.41l-1.17,1.17c-2.67-.29-5.2.73-7.52,3.06Z"/>
          <path class="cls-18" d="M226.6,920.41l1.72-1.72a5.72,5.72,0,0,1,8,.06l2.54,2.53a5.22,5.22,0,0,0-7.79.2l-1.4,1.39A26.06,26.06,0,0,0,226.6,920.41Z"/>
          <path class="cls-24" d="M227.34,946.44l5.86-5.86c5.43-5.44,2.8-11.55-2.59-16.94h0c-5.39-5.39-11.5-8-16.93-2.58l-5.86,5.86a13.85,13.85,0,0,0-.08,19.6h0a13.86,13.86,0,0,0,19.6-.08Z"/>
          <g class="cls-16">
            <path d="M210.15,949a16.51,16.51,0,0,1-1.48-1.31c-6-6-6.34-15.23-.86-20.71l5.9-5.9c5.48-5.48,12.06-2.41,18,3.55.47.47.93.95,1.36,1.43-5.57-5-11.55-7.24-16.59-2.19l-5.9,5.9C205.55,934.77,205.48,943,210.15,949Z"/>
          </g>
          <g>
            <path class="cls-25" d="M219.78,938.38l1.87-1.87a1.18,1.18,0,0,0,0-1.67,1.17,1.17,0,0,0-1.67,0l-1.61,1.6-.33-.33a1.18,1.18,0,1,0-1.67,1.67l.59.6A2,2,0,0,0,219.78,938.38Z"/>
            <path class="cls-25" d="M225.51,941.58l1.67-1.68a1.18,1.18,0,0,0,0-1.67,1.17,1.17,0,0,0-1.67,0l-1.68,1.67a1.19,1.19,0,0,0,1.68,1.68Z"/>
            <path class="cls-25" d="M214.91,931l1.68-1.68a1.18,1.18,0,0,0,0-1.67,1.2,1.2,0,0,0-1.68,0l-1.67,1.68a1.18,1.18,0,1,0,1.67,1.67Z"/>
          </g>
          <path class="cls-26" d="M217.39,944.33a.77.77,0,0,0,0-1.07l-5.78-5.77a.75.75,0,0,0-1.06,0,4.84,4.84,0,0,0,6.84,6.84Z"/>
          <g>
            <path class="cls-27" d="M243.17,903.81a1.2,1.2,0,0,0,0-1.68l-1.63-1.62a1.17,1.17,0,0,0-1.67,0,1.18,1.18,0,0,0,0,1.67l1.63,1.63A1.18,1.18,0,0,0,243.17,903.81Z"/>
            <path class="cls-27" d="M255.26,915.89a1.18,1.18,0,0,0,0-1.67l-9-9a1.2,1.2,0,0,0-1.68,0,1.18,1.18,0,0,0,0,1.67l9,9A1.18,1.18,0,0,0,255.26,915.89Z"/>
            <path class="cls-27" d="M248.06,914.27a1.18,1.18,0,0,0,0-1.67l-9-9a1.18,1.18,0,1,0-1.67,1.67l9,9A1.17,1.17,0,0,0,248.06,914.27Z"/>
          </g>
          <path class="cls-20" d="M205.88,943.36,191.4,957.84a.64.64,0,0,1-.11-.52l1.81-11.08a.74.74,0,0,1,1-.6l2.23.72c.46.14.7-.11.53-.56l-1.27-3.49a.81.81,0,0,1,.53-1.07l6.26-1.88a1.62,1.62,0,0,1,1.46.36l1.05,1.06A13.84,13.84,0,0,0,205.88,943.36Z"/>
        </g>
        <g>
          <path class="cls-28" d="M359,821.31a5.08,5.08,0,0,1,0-7.2l30.32-30.32a5.08,5.08,0,0,1,7.21,0l23.82,23.82a5.09,5.09,0,0,1,0,7.22L406.16,829a15.85,15.85,0,0,0-17.11,16.89,5.09,5.09,0,0,1-6.21-.76"/>
          <path class="cls-29" d="M420.86,814.33l-14.34,14.34a16.07,16.07,0,0,0-17.17,14.08c0,.23-.05.47-.07.7v.07c0,.22,0,.44,0,.67v.09c0,.22,0,.44,0,.66V845l0,.69-.19.11-.07,0-.13.07-.08,0-.12.06-.08,0-.13.05-.08,0-.13,0-.08,0-.14,0-.07,0-.15,0-.06,0-.16,0h0l-.19,0h0A5.08,5.08,0,0,1,383,845l-23.83-23.83a5.11,5.11,0,0,1,0-7.22l3.71-3.71a5.12,5.12,0,0,0,0,7.24l19.48,19.48a3.39,3.39,0,0,0,5.43-.88l.05-.09a16.06,16.06,0,0,1,8.82-8.83,19.59,19.59,0,0,1,7-2,3.37,3.37,0,0,0,2.06-1l12.48-12.48a5.13,5.13,0,0,0,0-7.24l2.63,2.63A5.12,5.12,0,0,1,420.86,814.33Z"/>
          <path class="cls-30" d="M400.3,787.54l16.83,16.84,3.16-3.16-16.83-16.83Z"/>
          <path class="cls-31" d="M412.92,800.17l4.21,4.21,3.16-3.16L416.08,797Z"/>
          <path class="cls-28" d="M408.41,772.07a1.91,1.91,0,0,1,2.71,0l21.49,21.48a1.91,1.91,0,0,1,0,2.71L425.85,803a1.91,1.91,0,0,1-2.71,0l-21.49-21.49a1.93,1.93,0,0,1,0-2.71l3.38-3.38Z"/>
          <path class="cls-29" d="M432.61,793.55a1.91,1.91,0,0,1,0,2.71L425.85,803a1.91,1.91,0,0,1-2.71,0l-4.95-4.95,9.46-9.47Z"/>
          <path class="cls-32" d="M399.22,805a13.24,13.24,0,1,0,0,18.72A13.24,13.24,0,0,0,399.22,805Z"/>
          <path class="cls-33" d="M399.22,823.7a13.23,13.23,0,0,1-22.37-11.77,13.23,13.23,0,0,0,26,0A13.23,13.23,0,0,1,399.22,823.7Z"/>
          <path class="cls-34" d="M416.22,833.52a15.81,15.81,0,1,0,0,22.36A15.81,15.81,0,0,0,416.22,833.52Z"/>
          <path class="cls-35" d="M416.22,855.88a15.8,15.8,0,0,1-26.83-13.33,15.81,15.81,0,0,0,31.32,0A15.79,15.79,0,0,1,416.22,855.88Z"/>
          <path class="cls-35" d="M389.69,845h30.86a1.27,1.27,0,0,1,.34,0,15,15,0,0,1-.35,2.39H389.7a17.66,17.66,0,0,1-.35-2.39A1.27,1.27,0,0,1,389.69,845Z"/>
          <path class="cls-36" d="M440.48,829.84a12.28,12.28,0,0,1-1.39,15.71l-15.84,15.84a12.28,12.28,0,0,1-17.36,0c-.18-.18-.35-.36-.51-.55a15.89,15.89,0,0,0,11.07-27.12l-.13-.12,5.41-5.41c4.28-4.28,10.72-4.43,15.71-1.39A16.35,16.35,0,0,1,440.48,829.84Z"/>
          <path class="cls-37" d="M438.4,845.19,422.89,860.7a12,12,0,0,1-17,0l-.5-.54a11.22,11.22,0,0,0,1.15-.06,12,12,0,0,0,13.19-2.56L435.24,842a12,12,0,0,0,1.43-15.27h0a14.35,14.35,0,0,1,3.09,3A12,12,0,0,1,438.4,845.19Z"/>
          <path class="cls-32" d="M430.81,852.78l-7.88,7.88a12.22,12.22,0,0,1-17.28,0l-.51-.55a15.8,15.8,0,0,0,15.56-17.44Z"/>
          <path class="cls-38" d="M427.65,849.62l3.16,3.16-7.88,7.88a12.13,12.13,0,0,1-17.14.14l-.5-.54.53,0h.09l.54,0a12.19,12.19,0,0,0,13.32-2.69Z"/>
          <path class="cls-20" d="M394.52,819.11a1.11,1.11,0,0,1-1.58,0L389.78,816l-3.16,3.16a1.12,1.12,0,0,1-1.58-1.58l3.16-3.16L385,811.21a1.11,1.11,0,0,1,0-1.58,1.13,1.13,0,0,1,1.58,0l3.16,3.17,3.16-3.17a1.12,1.12,0,0,1,1.58,1.58l-3.16,3.16,3.16,3.16A1.13,1.13,0,0,1,394.52,819.11Z"/>
          <g>
            <path class="cls-39" d="M406.86,786.24l8.87-8.86a1.13,1.13,0,0,0,0-1.58,1.11,1.11,0,0,0-1.58,0l-8.87,8.87a1.1,1.1,0,0,0,0,1.57A1.11,1.11,0,0,0,406.86,786.24Z"/>
            <path class="cls-39" d="M413.17,792.56l8.87-8.87a1.12,1.12,0,0,0-1.58-1.58L411.59,791a1.13,1.13,0,0,0,0,1.58A1.11,1.11,0,0,0,413.17,792.56Z"/>
            <path class="cls-39" d="M419.48,798.87l8.87-8.87a1.11,1.11,0,0,0-1.57-1.58l-8.87,8.87a1.11,1.11,0,0,0,0,1.58A1.1,1.1,0,0,0,419.48,798.87Z"/>
          </g>
          <path class="cls-40" d="M389.4,845.91h30.86a1.22,1.22,0,1,0,0-2.43H389.4a1.22,1.22,0,0,0,0,2.43Z"/>
        </g>
        <g>
          <path class="cls-41" d="M83.44,939h0a10.08,10.08,0,0,1-.83,14.23L72,962.64l-13.4-15,10.58-9.42A10.07,10.07,0,0,1,83.44,939Z"/>
          <path class="cls-18" d="M83.44,939a10.08,10.08,0,0,1-.83,14.23L61.45,972.07a10.08,10.08,0,1,1-13.29-15.16l1.8-1.6c-.9,5.34,4.68,12,11.07,9.34,4.18-1.71,12.16-7.34,18.41-12.56a2.17,2.17,0,0,0,.44-2.82l-3.33-5.35a10.07,10.07,0,0,1-1.09-8.29,10.07,10.07,0,0,1,8,3.36Z"/>
          <path class="cls-42" d="M82.34,926.75h0A10.08,10.08,0,0,1,96.23,930l7.5,12-17.1,10.68-7.5-12A10.08,10.08,0,0,1,82.34,926.75Z"/>
          <path class="cls-43" d="M108,967.89h0A10.08,10.08,0,0,0,111.24,954l-7.51-12-17.1,10.68,7.51,12A10.07,10.07,0,0,0,108,967.89Z"/>
          <path class="cls-18" d="M108,967.89a10.07,10.07,0,0,1-13.88-3.21l-15-24a10.08,10.08,0,0,1,3.21-13.89h0l0,0c-.7,9.87,14.92,38.47,26.9,40.23a9.28,9.28,0,0,1-1.27.94Z"/>
        </g>
        <path class="cls-2" d="M110.75,634.86V687a7.07,7.07,0,0,1-7.06,7.06H51.57A7.07,7.07,0,0,1,44.51,687V634.86a7.06,7.06,0,0,1,7.06-7.06h52.12A7.06,7.06,0,0,1,110.75,634.86ZM98.13,657.17a1.77,1.77,0,0,0-1.76-1.77H83.15V642.19a1.77,1.77,0,0,0-1.77-1.77h-8.3a1.76,1.76,0,0,0-1.76,1.77V655.4H58.1a1.78,1.78,0,0,0-1.77,1.77v8.3a1.77,1.77,0,0,0,1.77,1.76H71.32v13.22a1.77,1.77,0,0,0,1.76,1.77h8.3a1.78,1.78,0,0,0,1.77-1.77V667.23H96.37a1.76,1.76,0,0,0,1.76-1.76Z"/>
        <g>
          <path class="cls-3" d="M415.74,632.86l-11.12-11.12a2.64,2.64,0,0,0-3.72,0l-50.12,50.12a2.64,2.64,0,0,0,0,3.72l39.06,39.07a2.66,2.66,0,0,0,3.73,0l50.12-50.12a2.64,2.64,0,0,0,0-3.72l-11.12-11.12"/>
          <path class="cls-4" d="M412.38,636.23l-9.14-9.14-46.63,46.63,24,24,11.06-11.06,11.05,11.06,35.58-35.57-9.14-9.14"/>
          <path class="cls-5" d="M428.82,652.67l2.38,2.38a46.41,46.41,0,0,1-9.83,14.37c-14.9,14.9-36.56,17.4-48.38,5.58a25.12,25.12,0,0,1-6.63-12l36.4-36.41,9.31,9.31Z"/>
          <path class="cls-6" d="M410.45,638.15,427.28,655l7.21-7.21-16.83-16.82Z"/>
          <path class="cls-7" d="M393.63,643.44l7.21,7.21,7.21-7.21-7.21-7.21Z"/>
          <path class="cls-7" d="M382.57,654.49l7.21,7.21,7.21-7.21-7.21-7.21Z"/>
          <path class="cls-7" d="M371,666l7.21,7.21,7.21-7.21-7.21-7.21Z"/>
          <path class="cls-7" d="M380.65,697.76l11.06-11.06,11.05,11.06"/>
          <path class="cls-6" d="M399.05,645.07h13v-2.63h-13Z"/>
          <path class="cls-6" d="M387.89,656.23h13V653.6h-13Z"/>
          <path class="cls-6" d="M376.72,667.4h13v-2.63h-13Z"/>
          <path class="cls-7" d="M410,647.28l1.93,1.93,1.92-1.93-1.92-1.92Z"/>
          <path class="cls-7" d="M413.82,651.13l14.9,14.9,1.92-1.92-14.9-14.9Z"/>
          <path class="cls-7" d="M423,668l1.93,1.93L426.8,668,424.88,666Z"/>
          <path class="cls-7" d="M406.13,651.13,421,666l1.92-1.92-14.9-14.9Z"/>
          <path class="cls-7" d="M398.92,658.34l1.92,1.92,1.92-1.92-1.92-1.92Z"/>
          <path class="cls-7" d="M402.76,662.19l14.9,14.9,1.93-1.93-14.9-14.9Z"/>
          <path class="cls-7" d="M411.9,679l1.92,1.92,1.92-1.92-1.92-1.92Z"/>
          <path class="cls-7" d="M395.07,662.19l14.9,14.9,1.93-1.93L397,660.26Z"/>
          <path class="cls-7" d="M387.86,669.4l1.92,1.92,1.93-1.92-1.93-1.93Z"/>
          <path class="cls-7" d="M391.71,673.24l14.9,14.9,1.92-1.92-14.9-14.9Z"/>
          <path class="cls-7" d="M400.84,690.07l1.92,1.92,1.93-1.92-1.93-1.93Z"/>
          <path class="cls-7" d="M384,673.24l14.91,14.9,1.92-1.92-14.9-14.9Z"/>
        </g>
        <path class="cls-44" d="M227.77,822l-15.61,15.62a2.49,2.49,0,0,1-3.5,0l-3.39-3.4a2.47,2.47,0,0,1,0-3.5L221,815a34.33,34.33,0,0,1,.29-48.55l6.52,6.53A34.64,34.64,0,0,1,227.77,822Zm56.63-7.14a34.66,34.66,0,0,1-46.32,2.41A39.7,39.7,0,0,0,243.4,799a34.63,34.63,0,0,1,34,8.81Z"/>
        <path class="cls-45" d="M427.42,933.94a1.27,1.27,0,0,1,0,1.82l-5.51,5.49a1.29,1.29,0,0,1-1.83,0l-1.81-1.8-39.92,39.82a16.75,16.75,0,0,1-24.51-.94c-5.79-6.72-4.77-17,1.52-23.25l39.28-39.2-1.81-1.8a1.29,1.29,0,0,1,0-1.83l5.51-5.5a1.3,1.3,0,0,1,1.83,0l27.25,27.19Zm-14.61.42-12.72-12.68-24,23.93h25.44Z"/>
        <path class="cls-8" d="M214.65,657.45l24.62-24.62a4.86,4.86,0,0,1,6.86-.17l1.77-1.77a2.47,2.47,0,0,1,3.49,0L258.5,638a2.47,2.47,0,0,1,0,3.49l-1.77,1.77a4.86,4.86,0,0,1-.17,6.86l-24.62,24.62a4.94,4.94,0,0,1-7,0l-1.54-1.54-1.6,1.61a2.46,2.46,0,0,1-3.48,0L214,670.49a2.47,2.47,0,0,1,0-3.49l1.61-1.6-1-1A4.94,4.94,0,0,1,214.65,657.45Zm18.89,64.2a3.17,3.17,0,0,1-3.76.28L177.5,669.65a3.19,3.19,0,0,1,.28-3.77,7.4,7.4,0,0,1,10.45,0l29.63,29.63a19.71,19.71,0,0,0,27.88-27.88l7-7a29.52,29.52,0,0,1-19.31,50.39l.14.14A7.39,7.39,0,0,1,233.54,721.65Zm-36-54.89,1.6-1.61a1.24,1.24,0,0,1,1.75,0L223.68,688a1.23,1.23,0,0,1,0,1.74l-1.6,1.6a1.24,1.24,0,0,1-1.75,0L197.54,668.5A1.23,1.23,0,0,1,197.54,666.76Z"/>
      </g>
      <g>
        <g>
          <path class="cls-9" d="M607.48,593.09a1.18,1.18,0,0,0,0-1.68l-18.09-18.09A1.19,1.19,0,0,0,587.7,575l18.1,18.09a1.14,1.14,0,0,0,.84.35A1.16,1.16,0,0,0,607.48,593.09Z"/>
          <path class="cls-10" d="M615.19,590a1.18,1.18,0,0,0,0-1.68l-22.68-22.69a1.2,1.2,0,1,0-1.69,1.69L613.51,590a1.14,1.14,0,0,0,.84.35A1.16,1.16,0,0,0,615.19,590Z"/>
          <path class="cls-9" d="M618.26,582.31a1.18,1.18,0,0,0,0-1.68l-18.09-18.09a1.19,1.19,0,0,0-1.69,1.68l18.1,18.09a1.14,1.14,0,0,0,.84.35A1.16,1.16,0,0,0,618.26,582.31Z"/>
          <path class="cls-10" d="M636.42,563.47a1.19,1.19,0,0,0,0-1.69l-17.23-17.23a1.19,1.19,0,0,0-1.68,1.69l17.23,17.23a1.18,1.18,0,0,0,.84.35A1.2,1.2,0,0,0,636.42,563.47Z"/>
          <path class="cls-10" d="M588.64,611.26a1.21,1.21,0,0,0,0-1.69l-17.23-17.23a1.2,1.2,0,0,0-1.69,1.69L587,611.26a1.2,1.2,0,0,0,.84.35A1.22,1.22,0,0,0,588.64,611.26Z"/>
          <path class="cls-11" d="M586.84,594.12c-7.34-1.61-13.71-2.35-18.72,2.66a2.63,2.63,0,0,1-3.72-3.72c6.18-6.17,13.82-5.95,21.15-4.57C586,590.34,586.42,592.23,586.84,594.12Z"/>
          <path class="cls-12" d="M586.84,594.12c-1.13-.25-2.24-.48-3.33-.67-.42-1.86-.85-3.66-1.25-5.48,1.1.14,2.2.32,3.29.52C586,590.35,586.42,592.22,586.84,594.12Z"/>
          <path class="cls-11" d="M616.63,591.47c-7,7-16,5.77-24.17,3.94-.35-1.89-.79-3.79-1.23-5.68,8.59,2,16,3.69,21.69-2,12-12-9.35-33.86,5.31-48.51A2.63,2.63,0,1,1,622,543C610,554.91,631.32,576.77,616.63,591.47Z"/>
          <path class="cls-12" d="M591.23,589.73l3,.69c.43,1.86.85,3.72,1.19,5.6-1-.18-2-.4-3-.61C592.11,593.51,591.67,591.62,591.23,589.73Z"/>
          <path class="cls-13" d="M593.21,568c-12,12,9.43,33.77-5.31,48.52a2.63,2.63,0,1,1-3.72-3.72c11.92-11.92-9.31-33.89,5.31-48.51,7-7,16-5.78,24.17-3.94.35,1.86.8,3.79,1.24,5.67C606.3,564.07,598.88,562.37,593.21,568Z"/>
          <path class="cls-14" d="M614.9,566.06c-1.06-.24-2.1-.49-3.12-.71-.43-1.86-.84-3.72-1.16-5.6,1,.2,2,.41,3,.64C614,562.25,614.46,564.18,614.9,566.06Z"/>
          <path class="cls-13" d="M641.72,562.73c-5.83,5.84-13,6.1-21.15,4.57-.41-1.86-.86-3.72-1.28-5.63C626.63,563.29,633,564,638,559a2.63,2.63,0,0,1,3.71,3.72Z"/>
          <path class="cls-14" d="M623.46,567.77c-1-.13-1.93-.29-2.89-.47-.41-1.86-.86-3.72-1.28-5.63,1,.22,2,.42,2.91.6C622.61,564.11,623.07,566,623.46,567.77Z"/>
        </g>
        <g>
          <path class="cls-15" d="M786.22,681.06,778,689.28a.89.89,0,0,1-1.25,0l-7.07-7.08a2.5,2.5,0,0,0-1.54-.63l-3,0a.89.89,0,0,1-.9-.89l0-3.05a2.49,2.49,0,0,0-.63-1.53l-7.35-7.35a.89.89,0,0,1,0-1.25l8.23-8.23a.89.89,0,0,1,1.25,0l20.5,20.49a.9.9,0,0,1,0,1.27Z"/>
          <g class="cls-16">
            <path d="M759.1,671.61l-2.84-2.83a.89.89,0,0,1,0-1.25l8.23-8.23a.89.89,0,0,1,1.25,0l2.84,2.83a.94.94,0,0,0-1.32,0l-8.19,8.2A.93.93,0,0,0,759.1,671.61Z"/>
          </g>
          <path class="cls-46" d="M731.65,736.75l7.6-7.6a7.67,7.67,0,0,0,1-1.26,18.22,18.22,0,0,0-1.18,4.43,13.24,13.24,0,0,0,.62,6.4l-5.59,5.59A19.83,19.83,0,0,1,731.65,736.75Z"/>
          <path class="cls-17" d="M724.32,742.78a.92.92,0,0,0,1.3,0l13.27-13.27a7.94,7.94,0,0,0,0-11.22l-14.4-14.4a8,8,0,0,0-11.22,0L700,717.13a.93.93,0,0,0,0,1.31Z"/>
          <path class="cls-18" d="M716,706.65l-13.27,13.27a1,1,0,0,0,0,1.36L700,718.44a.93.93,0,0,1,0-1.31l13.27-13.27c3.09-3.08,8.33-2.86,11.68.49l.59.59-.78.2A7.93,7.93,0,0,0,716,706.65Z"/>
          <g>
            <path class="cls-19" d="M739,717.25a1.28,1.28,0,0,1,1.33.71,1.31,1.31,0,0,1-.29,1.51l-2.45,2.45Z"/>
            <path class="cls-19" d="M736,722.33l-6.48,6.48a4.37,4.37,0,0,0-1.67-1.67l2.27-2.27,2-.32a.56.56,0,0,0,.38-.25.51.51,0,0,0,0-.44l-.33-1.06,1.33-1.33,2.27.83A.76.76,0,0,0,736,722.33Z"/>
          </g>
          <g>
            <path class="cls-46" d="M724.88,739.06l4.23-4.22c2.69-2.7,1.35-8-4-8.27a2.49,2.49,0,0,0-1.88.74l-5.06,5.06a.66.66,0,0,0,0,.94l1.06,1.06a1.3,1.3,0,0,0,1.58.24,1.28,1.28,0,0,0,.38-1.92l2.88-2.87a2,2,0,0,1,3.1.19,2.1,2.1,0,0,1-.33,2.62L724,735.48a1.28,1.28,0,0,0-1.91.38,1.31,1.31,0,0,0,.23,1.58l1.62,1.62A.66.66,0,0,0,724.88,739.06Z"/>
            <ellipse class="cls-46" cx="709.75" cy="719.58" rx="2.58" ry="2.57" transform="translate(-300.94 712.64) rotate(-45)"/>
          </g>
          <path class="cls-19" d="M712.37,721.47a3.55,3.55,0,1,1-1-5.72l8.44-8.44.9,2.45-.86.85-1.79-.57a.54.54,0,0,0-.45,0,.55.55,0,0,0-.24.38l-.52,3.15-3.81,3.81A3.57,3.57,0,0,1,712.37,721.47Zm-1.71-1a1.29,1.29,0,1,0-1.82,0A1.28,1.28,0,0,0,710.66,720.49Z"/>
          <g>
            <path class="cls-20" d="M737.29,721.83a.81.81,0,0,1-1.07.53l-3.49-1.27c-.45-.17-.7.07-.55.53l.71,2.23a.74.74,0,0,1-.6,1l-11.08,1.81a.64.64,0,0,1-.52-.11l14.21-14.2a13.49,13.49,0,0,0,3.93,1.82,1.62,1.62,0,0,1,.35,1.43Z"/>
            <path class="cls-20" d="M730.88,707.42,716.4,721.89a.61.61,0,0,1-.11-.51l1.81-11.09a.73.73,0,0,1,1-.59l2.23.71c.46.14.7-.11.53-.56l-1.27-3.49a.81.81,0,0,1,.53-1.07l6.26-1.88a1.62,1.62,0,0,1,1.46.36l1.05,1.06A13.94,13.94,0,0,0,730.88,707.42Z"/>
          </g>
          <polygon class="cls-21" points="709.91 727.26 714.93 732.28 734.45 712.76 729.43 707.75 709.91 727.26"/>
          <g>
            <path class="cls-22" d="M735.11,712.1,732.22,715l-5-5,3.18-3.19a14,14,0,0,0,2.59,3.54A14.78,14.78,0,0,0,735.11,712.1Z"/>
            <path class="cls-22" d="M731.33,694l-1.94-1.94a2.31,2.31,0,0,1,0-3.26l3.42-3.43a2.33,2.33,0,0,1,3.28,0l1.7,1.71-4.68,4.69A12.91,12.91,0,0,0,731.33,694Z"/>
            <path class="cls-22" d="M758.47,711.05l-3.42,3.42a2.31,2.31,0,0,1-3.28,0l-1.93-1.93a12.91,12.91,0,0,0,2.23-1.78l4.68-4.69,1.72,1.72A2.31,2.31,0,0,1,758.47,711.05Z"/>
          </g>
          <path class="cls-23" d="M769.77,693.06l-12.46,12.46h0l.73-.73c2.51-2.51,3.43-5.34,2.73-8.41-.61-2.65-2.42-5.5-5.38-8.46s-5.81-4.77-8.46-5.38c-3.07-.7-5.9.22-8.41,2.73l-.73.73h0l7.19-7.18a5.58,5.58,0,0,1,7.9,0l2.85,2.85,5.63,1.17,8.71,8.71S770.63,692.86,769.77,693.06Z"/>
          <path class="cls-18" d="M739.08,685.83l-.73.73-.56-.56,7.19-7.18c2.19-2.2,5.93-2,8.34.4l2.79,2.79a5.91,5.91,0,0,0-8.34-.41l-1.17,1.17c-2.67-.29-5.2.73-7.52,3.06Z"/>
          <path class="cls-18" d="M751.6,684.46l1.72-1.72a5.73,5.73,0,0,1,8,.06l2.54,2.53a5.22,5.22,0,0,0-7.79.2l-1.4,1.4A26.24,26.24,0,0,0,751.6,684.46Z"/>
          <path class="cls-24" d="M752.34,710.49l5.86-5.86c5.43-5.43,2.8-11.54-2.59-16.93h0c-5.39-5.39-11.5-8-16.93-2.59L732.82,691a13.85,13.85,0,0,0-.08,19.6h0a13.85,13.85,0,0,0,19.6-.08Z"/>
          <g class="cls-16">
            <path d="M735.15,713a15.08,15.08,0,0,1-1.48-1.31c-6-6-6.34-15.22-.86-20.7l5.9-5.91c5.48-5.48,12.06-2.4,18,3.55.47.48.93,1,1.36,1.43-5.57-5-11.55-7.24-16.59-2.19l-5.9,5.9C730.55,698.82,730.48,707.07,735.15,713Z"/>
          </g>
          <g>
            <path class="cls-25" d="M744.78,702.43l1.87-1.87a1.18,1.18,0,1,0-1.67-1.67l-1.61,1.61-.33-.33a1.18,1.18,0,1,0-1.67,1.67l.59.59A2,2,0,0,0,744.78,702.43Z"/>
            <path class="cls-25" d="M750.51,705.63l1.67-1.68a1.18,1.18,0,1,0-1.67-1.67L748.83,704a1.18,1.18,0,0,0,0,1.67A1.2,1.2,0,0,0,750.51,705.63Z"/>
            <path class="cls-25" d="M739.91,695l1.68-1.68a1.18,1.18,0,0,0-1.68-1.67l-1.67,1.67a1.2,1.2,0,0,0,0,1.68A1.18,1.18,0,0,0,739.91,695Z"/>
          </g>
          <path class="cls-26" d="M742.39,708.38a.75.75,0,0,0,0-1.06l-5.78-5.77a.75.75,0,0,0-1.06,0,4.84,4.84,0,0,0,6.84,6.84Z"/>
          <path class="cls-27" d="M766.58,758.7,754,771.26a.86.86,0,0,1-1.22,0L730,748.5a.85.85,0,0,1,0-1.21l12.55-12.56a7.44,7.44,0,0,1,10.48,0l2.84,2.84a12.09,12.09,0,0,0,2.62,3.93,12.43,12.43,0,0,0,3.94,2.63l4.11,4.11A7.39,7.39,0,0,1,766.58,758.7Z"/>
          <path class="cls-18" d="M745.9,738.11l-12.51,12.52a.86.86,0,0,0,0,1.23l-3.51-3.5a.67.67,0,0,1,0-.93l14-14a5.64,5.64,0,0,1,7.94,0l4.25,4.26,0,.06A7.52,7.52,0,0,0,745.9,738.11Z"/>
          <g>
            <path class="cls-22" d="M756.69,726.09l-.78-.79a3.55,3.55,0,0,1,.55-5.48,3.64,3.64,0,0,1,4.57.57l.19.18-1.91,1.91A14.64,14.64,0,0,0,756.69,726.09Z"/>
            <path class="cls-22" d="M780.92,744.28a3.54,3.54,0,0,1-5.47.56l-.79-.79a14.53,14.53,0,0,0,3.61-2.61l1.9-1.91.19.19A3.64,3.64,0,0,1,780.92,744.28Z"/>
            <path class="cls-22" d="M755.92,737.58l.18.18a12.06,12.06,0,0,0,6.53,6.53l.17.17-8.52,2.78c-.92.3-1.43-.21-1.13-1.14Z"/>
          </g>
          <path class="cls-47" d="M784.59,708.12a.68.68,0,0,1,1,0l6.71,6.71a.69.69,0,0,1,0,1,6.42,6.42,0,0,1-4.59,1.91,12.83,12.83,0,0,0-2.16-2.85,13.14,13.14,0,0,0-2.85-2.16A6.37,6.37,0,0,1,784.59,708.12Z"/>
          <path class="cls-18" d="M784.59,708.12a.68.68,0,0,1,1,0l2.56,2.57a.67.67,0,0,0-1,0,6.45,6.45,0,0,0-1.9,3.93,12.92,12.92,0,0,0-2.59-1.91A6.37,6.37,0,0,1,784.59,708.12Z"/>
          <path class="cls-24" d="M781.29,738.42l-2.51,2.51c-5.37,5.37-14.45,6-19.69.72s-4.64-14.31.73-19.68l2.51-2.51Z"/>
          <g class="cls-16">
            <path d="M761,743.32a13.91,13.91,0,0,1-1.49-1.29,14.83,14.83,0,0,1-.21-20.62l2.51-2.51,2.79,2.79-2.51,2.51A14.82,14.82,0,0,0,761,743.32Z"/>
          </g>
          <g>
            <path class="cls-25" d="M766.45,736.4a1.18,1.18,0,0,0,0-1.67l-.22-.22,1.38-1.37a1.18,1.18,0,0,0-1.68-1.67l-1.63,1.63a2,2,0,0,0,0,2.78l.53.52A1.18,1.18,0,0,0,766.45,736.4Z"/>
            <path class="cls-25" d="M762.94,728.89l1.25-1.25a1.18,1.18,0,0,0-1.68-1.67l-1.25,1.24a1.19,1.19,0,0,0,1.68,1.68Z"/>
            <path class="cls-25" d="M772.42,738.37l1.25-1.25a1.18,1.18,0,0,0-1.68-1.67l-1.25,1.24a1.19,1.19,0,0,0,1.68,1.68Z"/>
            <path class="cls-25" d="M765.38,741.28a1.29,1.29,0,1,0,0-2.57,4.28,4.28,0,0,1-4.27-4.28,1.29,1.29,0,0,0-2.58,0,6.86,6.86,0,0,0,6.85,6.85Z"/>
          </g>
          <path class="cls-44" d="M765.16,714.59c6.47-5.27,15.42-5.44,20.74-.11s5.16,14.27-.11,20.74a2.72,2.72,0,0,0-.4-.51L765.67,715A2.72,2.72,0,0,0,765.16,714.59Z"/>
          <path class="cls-18" d="M765.16,714.59c6.47-5.27,15.42-5.44,20.74-.11a12.36,12.36,0,0,1,1.22,1.4c-5.38-4-13.35-3.51-19.28,1.28L765.67,715A2.72,2.72,0,0,0,765.16,714.59Z"/>
          <path class="cls-47" d="M784.84,739.33l.71-.71a2.67,2.67,0,0,0,0-3.76L765.88,715.2a2.66,2.66,0,0,0-3.75,0l-.71.71a2.66,2.66,0,0,0,0,3.75l19.67,19.67A2.66,2.66,0,0,0,784.84,739.33Z"/>
          <g class="cls-16">
            <path d="M763.8,722.05l-2.94-2.95a2.66,2.66,0,0,1,0-3.75l.71-.71a2.66,2.66,0,0,1,3.75,0l2.95,2.94a2.84,2.84,0,0,0-4-.08l-.56.56A2.84,2.84,0,0,0,763.8,722.05Z"/>
          </g>
          <path class="cls-26" d="M751.89,762.55a3.1,3.1,0,0,0,1-.23l2.15-2.16,2.14,2.14s.53.17,1,.28l1.84-1.84a4.45,4.45,0,0,1-.08-1.23l-2.13-2.14,2-2s.15-.56-.13-.67l-1.84-1.85c-.12-.27-.44-.27-.82-.27l-2.52,2.51-2-2s-.18-.54-.26-.23l-1.84,1.84c-.31.08-.31.4-.13.62l2.54,2.54-2.15,2.16s-.57.14-.65.62Z"/>
          <g>
            <path class="cls-27" d="M768.17,667.86a1.18,1.18,0,0,0,0-1.67l-1.63-1.63a1.18,1.18,0,1,0-1.67,1.67l1.63,1.63A1.18,1.18,0,0,0,768.17,667.86Z"/>
            <path class="cls-27" d="M780.26,680a1.2,1.2,0,0,0,0-1.68l-9-9A1.19,1.19,0,0,0,769.6,671l9,9A1.2,1.2,0,0,0,780.26,680Z"/>
            <path class="cls-27" d="M773.06,678.33a1.2,1.2,0,0,0,0-1.68l-9-9a1.18,1.18,0,0,0-1.67,0,1.2,1.2,0,0,0,0,1.68l9,9A1.18,1.18,0,0,0,773.06,678.33Z"/>
          </g>
          <path class="cls-20" d="M730.88,707.42,716.4,721.89a.61.61,0,0,1-.11-.51l1.81-11.09a.73.73,0,0,1,1-.59l2.23.71c.46.14.7-.11.53-.56l-1.27-3.49a.81.81,0,0,1,.53-1.07l6.26-1.88a1.62,1.62,0,0,1,1.46.36l1.05,1.06A13.94,13.94,0,0,0,730.88,707.42Z"/>
        </g>
        <g>
          <path class="cls-28" d="M884,585.37a5.09,5.09,0,0,1,0-7.21l30.32-30.32a5.1,5.1,0,0,1,7.21,0l23.82,23.82a5.09,5.09,0,0,1,0,7.22l-14.2,14.2A15.85,15.85,0,0,0,914.05,610a5.08,5.08,0,0,1-6.21-.76"/>
          <path class="cls-29" d="M945.86,578.39l-14.34,14.33a16.07,16.07,0,0,0-17.17,14.08c0,.24-.05.47-.07.7v.07c0,.22,0,.45,0,.67v.09c0,.22,0,.44,0,.66v.09l0,.68-.19.11-.07,0-.13.07-.08,0-.12.06-.08,0-.13,0-.08,0-.13.05-.08,0-.14,0-.07,0-.15,0h-.06l-.16,0h-.05l-.19,0h0A5,5,0,0,1,908,609l-23.83-23.83a5.11,5.11,0,0,1,0-7.22l3.71-3.7a5.11,5.11,0,0,0,0,7.23L907.35,601a3.39,3.39,0,0,0,5.43-.88l.05-.08a15.88,15.88,0,0,1,3.52-5.32,16.05,16.05,0,0,1,5.3-3.52,19.59,19.59,0,0,1,7-2,3.31,3.31,0,0,0,2.06-1l12.48-12.49a5.13,5.13,0,0,0,0-7.24l2.63,2.64A5.12,5.12,0,0,1,945.86,578.39Z"/>
          <path class="cls-30" d="M925.3,551.6l16.83,16.83,3.16-3.16-16.83-16.83Z"/>
          <path class="cls-31" d="M937.92,564.22l4.21,4.21,3.16-3.16-4.21-4.2Z"/>
          <path class="cls-28" d="M933.41,536.12a1.91,1.91,0,0,1,2.71,0l21.49,21.49a1.91,1.91,0,0,1,0,2.71l-6.76,6.76a1.93,1.93,0,0,1-2.71,0l-21.49-21.49a1.93,1.93,0,0,1,0-2.71L930,539.5Z"/>
          <path class="cls-29" d="M957.61,557.61a1.91,1.91,0,0,1,0,2.71l-6.76,6.76a1.93,1.93,0,0,1-2.71,0l-4.95-5,9.46-9.47Z"/>
          <path class="cls-32" d="M924.22,569a13.24,13.24,0,1,0,0,18.72A13.24,13.24,0,0,0,924.22,569Z"/>
          <path class="cls-33" d="M924.22,587.75A13.23,13.23,0,0,1,901.85,576a13.24,13.24,0,0,0,26,0A13.22,13.22,0,0,1,924.22,587.75Z"/>
          <path class="cls-34" d="M941.22,597.58a15.8,15.8,0,1,0,0,22.35A15.79,15.79,0,0,0,941.22,597.58Z"/>
          <path class="cls-35" d="M941.22,619.93a15.8,15.8,0,0,1-26.83-13.32,15.81,15.81,0,0,0,31.32,0A15.78,15.78,0,0,1,941.22,619.93Z"/>
          <path class="cls-35" d="M914.69,609.05h30.86a1.27,1.27,0,0,1,.34.05,14.85,14.85,0,0,1-.35,2.38H914.7a17.51,17.51,0,0,1-.35-2.38A1.27,1.27,0,0,1,914.69,609.05Z"/>
          <path class="cls-36" d="M965.48,593.9a12.26,12.26,0,0,1-1.39,15.7l-15.84,15.84a12.26,12.26,0,0,1-17.36,0c-.18-.18-.35-.36-.51-.55a15.88,15.88,0,0,0,11.07-27.11l-.13-.13,5.41-5.41c4.28-4.27,10.72-4.43,15.71-1.38A16.35,16.35,0,0,1,965.48,593.9Z"/>
          <path class="cls-37" d="M963.4,609.24l-15.51,15.51a12,12,0,0,1-17,0c-.17-.17-.34-.35-.5-.54.38,0,.76,0,1.15-.05a12,12,0,0,0,13.19-2.57l15.51-15.51a12,12,0,0,0,1.43-15.26s0,0,0,0a14.35,14.35,0,0,1,3.09,3.05A12,12,0,0,1,963.4,609.24Z"/>
          <path class="cls-32" d="M955.81,616.83l-7.88,7.88a12.22,12.22,0,0,1-17.28,0l-.51-.55a15.79,15.79,0,0,0,15.56-17.44Z"/>
          <path class="cls-38" d="M952.65,613.67l3.16,3.16-7.88,7.88a12.13,12.13,0,0,1-17.14.14c-.17-.17-.34-.35-.5-.54l.53,0h.09l.54,0a12.23,12.23,0,0,0,13.32-2.69Z"/>
          <path class="cls-20" d="M919.52,583.17a1.13,1.13,0,0,1-1.58,0L914.78,580l-3.16,3.17a1.13,1.13,0,0,1-1.58,0,1.11,1.11,0,0,1,0-1.58l3.16-3.16L910,575.27a1.12,1.12,0,1,1,1.58-1.58l3.16,3.16,3.16-3.16a1.11,1.11,0,0,1,1.58,0,1.13,1.13,0,0,1,0,1.58l-3.16,3.16,3.16,3.16A1.13,1.13,0,0,1,919.52,583.17Z"/>
          <g>
            <path class="cls-39" d="M931.86,550.3l8.87-8.87a1.12,1.12,0,1,0-1.58-1.58l-8.87,8.87a1.11,1.11,0,0,0,0,1.58A1.13,1.13,0,0,0,931.86,550.3Z"/>
            <path class="cls-39" d="M938.17,556.61l8.87-8.87a1.11,1.11,0,0,0,0-1.58,1.13,1.13,0,0,0-1.58,0L936.59,555a1.13,1.13,0,0,0,0,1.58A1.11,1.11,0,0,0,938.17,556.61Z"/>
            <path class="cls-39" d="M944.48,562.92l8.87-8.87a1.11,1.11,0,1,0-1.57-1.57l-8.87,8.87a1.11,1.11,0,1,0,1.57,1.57Z"/>
          </g>
          <path class="cls-40" d="M914.4,610h30.86a1.22,1.22,0,1,0,0-2.43H914.4a1.22,1.22,0,0,0-.86,2.08A1.2,1.2,0,0,0,914.4,610Z"/>
        </g>
        <g>
          <circle class="cls-41" cx="604.06" cy="755.08" r="2.43"/>
          <g>
            <circle class="cls-48" cx="614.25" cy="757.87" r="2.31"/>
            <circle class="cls-48" cx="607.07" cy="744.47" r="2.31"/>
          </g>
          <circle class="cls-41" cx="616" cy="748.79" r="2.92"/>
          <circle class="cls-49" cx="607.07" cy="765.01" r="3.12"/>
          <path class="cls-41" d="M608.44,703h0a10.08,10.08,0,0,1-.83,14.23L597,726.7l-13.4-15.06,10.58-9.42A10.09,10.09,0,0,1,608.44,703Z"/>
          <path class="cls-50" d="M572.22,735.3h0a10.09,10.09,0,0,0,14.23.82L597,726.7l-13.4-15.06L573,721.07A10.09,10.09,0,0,0,572.22,735.3Z"/>
          <path class="cls-18" d="M608.44,703a10.08,10.08,0,0,1-.83,14.23l-21.16,18.85A10.08,10.08,0,1,1,573.16,721l1.8-1.61c-.9,5.34,4.68,12,11.07,9.34,4.18-1.71,12.16-7.34,18.41-12.55a2.18,2.18,0,0,0,.44-2.83L601.55,708a10.09,10.09,0,0,1-1.09-8.3,10.07,10.07,0,0,1,8,3.36Z"/>
          <path class="cls-42" d="M607.34,690.8h0A10.08,10.08,0,0,1,621.23,694l7.5,12-17.1,10.67-7.5-12A10.08,10.08,0,0,1,607.34,690.8Z"/>
          <path class="cls-43" d="M633,731.94h0a10.07,10.07,0,0,0,3.22-13.88l-7.51-12-17.1,10.67,7.51,12A10.07,10.07,0,0,0,633,731.94Z"/>
          <path class="cls-18" d="M633,731.94a10.07,10.07,0,0,1-13.88-3.21l-15-24a10.08,10.08,0,0,1,3.21-13.89h0l0,0c-.7,9.87,14.92,38.47,26.9,40.24a9.22,9.22,0,0,1-1.27.93Z"/>
          <path class="cls-49" d="M584.72,731h0a10.08,10.08,0,0,1,13.17-5.45l12.27,5.08a.88.88,0,0,1,.48,1.16l-7,17a.88.88,0,0,1-1.16.48l-12.27-5.08A10.08,10.08,0,0,1,584.72,731Z"/>
          <path class="cls-18" d="M602.45,749.22l-12.27-5.08A10.08,10.08,0,0,1,584.72,731h0a10.29,10.29,0,0,1,2.39-3.47c-1.13,5.74,3.74,14.3,18.23,17.06l-1.73,4.18A.88.88,0,0,1,602.45,749.22Z"/>
          <path class="cls-42" d="M636.72,731h0a10.08,10.08,0,0,0-13.17-5.45l-12.27,5.08a.88.88,0,0,0-.48,1.16l7,17a.88.88,0,0,0,1.16.48l12.27-5.08A10.08,10.08,0,0,0,636.72,731Z"/>
        </g>
        <path class="cls-2" d="M635.75,398.92V451a7.06,7.06,0,0,1-7.06,7.06H576.57a7.06,7.06,0,0,1-7.06-7.06V398.92a7.06,7.06,0,0,1,7.06-7.06h52.12A7.06,7.06,0,0,1,635.75,398.92Zm-12.62,22.3a1.76,1.76,0,0,0-1.76-1.76H608.15V406.24a1.78,1.78,0,0,0-1.77-1.77h-8.3a1.77,1.77,0,0,0-1.76,1.77v13.22H583.1a1.77,1.77,0,0,0-1.77,1.76v8.3a1.78,1.78,0,0,0,1.77,1.77h13.22V444.5a1.76,1.76,0,0,0,1.76,1.77h8.3a1.77,1.77,0,0,0,1.77-1.77V431.29h13.22a1.77,1.77,0,0,0,1.76-1.77Z"/>
        <g>
          <path class="cls-3" d="M940.74,396.91,929.62,385.8a2.63,2.63,0,0,0-3.72,0l-50.12,50.11a2.66,2.66,0,0,0,0,3.73l39.06,39.06a2.64,2.64,0,0,0,3.73,0l50.12-50.12a2.64,2.64,0,0,0,0-3.72l-11.12-11.12"/>
          <path class="cls-4" d="M937.38,400.28l-9.14-9.13-46.63,46.63,24,24,11.06-11.05,11,11.05,35.58-35.57-9.14-9.14"/>
          <path class="cls-5" d="M953.82,416.72l2.38,2.38a46.3,46.3,0,0,1-9.83,14.37c-14.9,14.9-36.56,17.4-48.38,5.58a25.07,25.07,0,0,1-6.63-12l36.4-36.4,9.31,9.3Z"/>
          <path class="cls-6" d="M935.45,402.2,952.28,419l7.21-7.21L942.66,395Z"/>
          <path class="cls-7" d="M918.63,407.49l7.21,7.21,7.21-7.21-7.21-7.21Z"/>
          <path class="cls-7" d="M907.57,418.55l7.21,7.21,7.21-7.21-7.21-7.21Z"/>
          <path class="cls-7" d="M896,430.08l7.21,7.22,7.21-7.22-7.21-7.21Z"/>
          <path class="cls-7" d="M905.65,461.81l11.06-11.05,11,11.05"/>
          <path class="cls-6" d="M924.05,409.12h13v-2.63h-13Z"/>
          <path class="cls-6" d="M912.89,420.29h13v-2.63h-13Z"/>
          <path class="cls-6" d="M901.72,431.45h13v-2.63h-13Z"/>
          <path class="cls-7" d="M935,411.34l1.93,1.92,1.92-1.92-1.92-1.93Z"/>
          <path class="cls-7" d="M938.82,415.18l14.9,14.9,1.92-1.92-14.9-14.9Z"/>
          <path class="cls-7" d="M948,432l1.93,1.92L951.8,432l-1.92-1.93Z"/>
          <path class="cls-7" d="M931.13,415.18l14.9,14.9,1.92-1.92-14.9-14.9Z"/>
          <path class="cls-7" d="M923.92,422.39l1.92,1.93,1.92-1.93-1.92-1.92Z"/>
          <path class="cls-7" d="M927.76,426.24l14.9,14.9,1.93-1.92-14.9-14.9Z"/>
          <path class="cls-7" d="M936.9,443.06l1.92,1.93,1.92-1.93-1.92-1.92Z"/>
          <path class="cls-7" d="M920.07,426.24l14.9,14.9,1.93-1.92L922,424.32Z"/>
          <path class="cls-7" d="M912.86,433.45l1.92,1.92,1.93-1.92-1.93-1.92Z"/>
          <path class="cls-7" d="M916.71,437.3l14.9,14.9,1.92-1.93-14.9-14.9Z"/>
          <path class="cls-7" d="M925.84,454.12l1.92,1.92,1.93-1.92-1.93-1.92Z"/>
          <path class="cls-7" d="M909,437.3l14.91,14.9,1.92-1.93-14.9-14.9Z"/>
        </g>
        <path class="cls-44" d="M752.77,586l-15.61,15.61a2.49,2.49,0,0,1-3.5,0l-3.39-3.4a2.47,2.47,0,0,1,0-3.5L746,579a34.33,34.33,0,0,1,.29-48.55l6.52,6.53A34.65,34.65,0,0,1,752.77,586Zm56.63-7.15a34.67,34.67,0,0,1-46.32,2.42,39.77,39.77,0,0,0,5.32-18.22,34.6,34.6,0,0,1,34,8.8Z"/>
        <path class="cls-45" d="M952.42,698a1.26,1.26,0,0,1,0,1.81l-5.51,5.5a1.3,1.3,0,0,1-1.83,0l-1.81-1.8-39.92,39.81a16.75,16.75,0,0,1-24.51-.94c-5.79-6.72-4.77-17,1.52-23.25l39.28-39.2-1.81-1.8a1.29,1.29,0,0,1,0-1.83l5.51-5.49a1.29,1.29,0,0,1,1.83,0L952.42,698Zm-14.61.42-12.72-12.69-24,23.93h25.44Z"/>
        <path class="cls-8" d="M739.65,421.5l24.62-24.62a4.85,4.85,0,0,1,6.86-.16L772.9,395a2.46,2.46,0,0,1,3.49,0l7.11,7.11a2.46,2.46,0,0,1,0,3.48l-1.77,1.77a4.86,4.86,0,0,1-.17,6.86l-24.62,24.62a4.94,4.94,0,0,1-7,0l-1.54-1.53-1.6,1.6a2.46,2.46,0,0,1-3.48,0L739,434.54a2.47,2.47,0,0,1,0-3.49l1.61-1.6-1-1A4.94,4.94,0,0,1,739.65,421.5Zm18.89,64.2a3.17,3.17,0,0,1-3.76.28L702.5,433.7a3.17,3.17,0,0,1,.28-3.76,7.38,7.38,0,0,1,10.45,0l29.63,29.62a19.71,19.71,0,0,0,27.88-27.88l7-7A29.52,29.52,0,0,1,758.4,475.1l.14.15A7.38,7.38,0,0,1,758.54,485.7Zm-36-54.89,1.6-1.6a1.23,1.23,0,0,1,1.75,0L748.68,452a1.23,1.23,0,0,1,0,1.74l-1.6,1.6a1.23,1.23,0,0,1-1.75,0l-22.79-22.79A1.23,1.23,0,0,1,722.54,430.81Z"/>
      </g>
      <g>
        <g>
          <path class="cls-9" d="M82.48,357.15a1.19,1.19,0,0,0,0-1.69L64.39,337.37a1.2,1.2,0,0,0-1.69,1.69l18.1,18.09a1.18,1.18,0,0,0,.84.35A1.2,1.2,0,0,0,82.48,357.15Z"/>
          <path class="cls-10" d="M90.19,354.08a1.19,1.19,0,0,0,0-1.69L67.51,329.71a1.19,1.19,0,1,0-1.69,1.68l22.69,22.69a1.18,1.18,0,0,0,.84.35A1.2,1.2,0,0,0,90.19,354.08Z"/>
          <path class="cls-9" d="M93.26,346.37a1.19,1.19,0,0,0,0-1.69L75.17,326.59a1.19,1.19,0,1,0-1.69,1.68l18.1,18.1a1.18,1.18,0,0,0,.84.35A1.2,1.2,0,0,0,93.26,346.37Z"/>
          <path class="cls-10" d="M111.42,327.52a1.18,1.18,0,0,0,0-1.68L94.19,308.61a1.19,1.19,0,0,0-1.68,1.68l17.23,17.23a1.18,1.18,0,0,0,.84.35A1.2,1.2,0,0,0,111.42,327.52Z"/>
          <path class="cls-10" d="M63.64,375.31a1.21,1.21,0,0,0,0-1.69L46.41,356.39a1.2,1.2,0,0,0-1.69,1.69L62,375.31a1.2,1.2,0,0,0,.84.35A1.22,1.22,0,0,0,63.64,375.31Z"/>
          <path class="cls-11" d="M61.84,358.17c-7.34-1.61-13.71-2.35-18.72,2.66a2.63,2.63,0,1,1-3.72-3.71c6.18-6.18,13.82-6,21.15-4.57C61,354.4,61.42,356.28,61.84,358.17Z"/>
          <path class="cls-12" d="M61.84,358.17q-1.7-.37-3.33-.66c-.42-1.87-.85-3.67-1.25-5.49,1.1.14,2.2.32,3.29.53C61,354.4,61.42,356.27,61.84,358.17Z"/>
          <path class="cls-11" d="M91.63,355.52c-7,7-15.95,5.77-24.17,3.94-.35-1.89-.79-3.79-1.23-5.68,8.59,2,16,3.69,21.69-2,12-12-9.35-33.86,5.31-48.51A2.63,2.63,0,1,1,97,307C85,319,106.32,340.83,91.63,355.52Z"/>
          <path class="cls-12" d="M66.23,353.78c1,.24,2,.48,3,.69.43,1.87.85,3.73,1.19,5.61-1-.19-2-.4-3-.62C67.11,357.56,66.67,355.67,66.23,353.78Z"/>
          <path class="cls-13" d="M68.21,332.1c-12,12,9.43,33.76-5.31,48.51a2.63,2.63,0,0,1-3.72-3.72C71.1,365,49.87,343,64.49,328.38c7-7,16-5.77,24.17-3.94.35,1.87.8,3.79,1.24,5.67C81.3,328.12,73.88,326.43,68.21,332.1Z"/>
          <path class="cls-14" d="M89.9,330.11l-3.12-.71c-.43-1.86-.84-3.72-1.16-5.59,1,.19,2,.41,3,.63C89,326.31,89.46,328.23,89.9,330.11Z"/>
          <path class="cls-13" d="M116.72,326.78c-5.83,5.84-13,6.11-21.15,4.57-.41-1.86-.86-3.72-1.28-5.62,7.34,1.61,13.71,2.35,18.72-2.66a2.62,2.62,0,1,1,3.71,3.71Z"/>
          <path class="cls-14" d="M98.46,331.82c-1-.13-1.93-.29-2.89-.47-.41-1.86-.86-3.72-1.28-5.62,1,.21,2,.42,2.91.59C97.61,328.16,98.07,330,98.46,331.82Z"/>
        </g>
        <g>
          <path class="cls-15" d="M261.22,445.12,253,453.33a.89.89,0,0,1-1.25,0l-7.07-7.08a2.48,2.48,0,0,0-1.54-.62l-3,0a.9.9,0,0,1-.9-.9l0-3a2.5,2.5,0,0,0-.63-1.54l-7.35-7.35a.89.89,0,0,1,0-1.25l8.23-8.23a.89.89,0,0,1,1.25,0l20.5,20.5a.9.9,0,0,1,0,1.27Z"/>
          <g class="cls-16">
            <path d="M234.1,435.66l-2.84-2.83a.89.89,0,0,1,0-1.25l8.23-8.23a.89.89,0,0,1,1.25,0l2.84,2.83a.94.94,0,0,0-1.32,0l-8.19,8.19A.93.93,0,0,0,234.1,435.66Z"/>
          </g>
          <path class="cls-46" d="M206.65,500.8l7.6-7.59a8.18,8.18,0,0,0,1-1.27,18.35,18.35,0,0,0-1.18,4.43,13.24,13.24,0,0,0,.62,6.4l-5.59,5.6A19.93,19.93,0,0,1,206.65,500.8Z"/>
          <path class="cls-17" d="M199.32,506.83a.9.9,0,0,0,1.3,0l13.27-13.26a8,8,0,0,0,0-11.23L199.46,468a7.94,7.94,0,0,0-11.22,0L175,481.18a.93.93,0,0,0,0,1.31Z"/>
          <path class="cls-18" d="M191,470.7,177.76,484a1,1,0,0,0,.05,1.36L175,482.49a.93.93,0,0,1,0-1.31l13.27-13.27c3.09-3.08,8.33-2.86,11.68.5l.59.58-.78.21A7.91,7.91,0,0,0,191,470.7Z"/>
          <g>
            <path class="cls-19" d="M214,481.3a1.28,1.28,0,0,1,1,2.22L212.56,486Z"/>
            <path class="cls-19" d="M211,486.39l-6.48,6.48a4.16,4.16,0,0,0-.72-1,4.33,4.33,0,0,0-1-.72l2.27-2.27,2-.32a.55.55,0,0,0,.38-.24.54.54,0,0,0,0-.45l-.33-1.05,1.33-1.34,2.27.83A.52.52,0,0,0,211,486.39Z"/>
          </g>
          <g>
            <path class="cls-46" d="M199.88,503.11l4.23-4.22c2.69-2.7,1.35-7.94-4-8.26a2.42,2.42,0,0,0-1.88.74l-5.06,5.05a.66.66,0,0,0,0,.94l1.06,1.06a1.3,1.3,0,0,0,1.58.24,1.27,1.27,0,0,0,.38-1.91l2.88-2.88a2,2,0,0,1,3.1.19,2.1,2.1,0,0,1-.33,2.62L199,499.53a1.28,1.28,0,0,0-1.91.38,1.32,1.32,0,0,0,.23,1.59l1.62,1.61A.66.66,0,0,0,199.88,503.11Z"/>
            <ellipse class="cls-46" cx="184.75" cy="483.63" rx="2.58" ry="2.57" transform="translate(-287.87 272.3) rotate(-45)"/>
          </g>
          <path class="cls-19" d="M187.37,485.52a3.55,3.55,0,1,1-1-5.72l8.44-8.44.9,2.45-.86.85-1.79-.57a.54.54,0,0,0-.45.05.53.53,0,0,0-.24.37l-.52,3.15-3.81,3.82A3.55,3.55,0,0,1,187.37,485.52Zm-1.71-1a1.3,1.3,0,1,0-1.82,0A1.29,1.29,0,0,0,185.66,484.55Z"/>
          <g>
            <path class="cls-20" d="M212.29,485.88a.82.82,0,0,1-1.07.54l-3.49-1.28c-.45-.17-.7.07-.55.53l.71,2.23a.73.73,0,0,1-.6,1l-11.08,1.82a.68.68,0,0,1-.52-.11l14.21-14.21a13.24,13.24,0,0,0,3.93,1.82,1.62,1.62,0,0,1,.35,1.43Z"/>
            <path class="cls-20" d="M205.88,471.47,191.4,486a.64.64,0,0,1-.11-.52l1.81-11.08a.73.73,0,0,1,1-.6l2.23.71c.46.15.7-.1.53-.55l-1.27-3.49a.82.82,0,0,1,.53-1.08l6.26-1.88a1.62,1.62,0,0,1,1.46.37l1.05,1.05A13.67,13.67,0,0,0,205.88,471.47Z"/>
          </g>
          <polygon class="cls-21" points="184.91 491.32 189.93 496.33 209.45 476.82 204.43 471.8 184.91 491.32"/>
          <g>
            <path class="cls-22" d="M210.11,476.15l-2.89,2.9-5-5,3.18-3.18a14.37,14.37,0,0,0,2.59,3.54A14.71,14.71,0,0,0,210.11,476.15Z"/>
            <path class="cls-22" d="M206.33,458.08l-1.94-1.94a2.31,2.31,0,0,1,0-3.26l3.42-3.42a2.31,2.31,0,0,1,3.28,0l1.7,1.71-4.68,4.68A12.91,12.91,0,0,0,206.33,458.08Z"/>
            <path class="cls-22" d="M233.47,475.1l-3.42,3.43a2.33,2.33,0,0,1-3.28,0l-1.93-1.94a12.91,12.91,0,0,0,2.23-1.78l4.68-4.68,1.72,1.71A2.31,2.31,0,0,1,233.47,475.1Z"/>
          </g>
          <path class="cls-23" d="M244.77,457.11l-12.46,12.46h0l.73-.73c2.51-2.51,3.43-5.34,2.73-8.4-.61-2.66-2.42-5.51-5.38-8.47s-5.81-4.77-8.46-5.38c-3.07-.7-5.9.22-8.41,2.73l-.73.73h0l7.19-7.18a5.59,5.59,0,0,1,7.9,0l2.85,2.86,5.63,1.16,8.71,8.71S245.63,456.91,244.77,457.11Z"/>
          <path class="cls-18" d="M214.08,449.88l-.73.73-.56-.56,7.19-7.18a5.92,5.92,0,0,1,8.34.4l2.79,2.79c-2.41-2.41-6.15-2.6-8.34-.4l-1.17,1.16c-2.67-.29-5.2.74-7.52,3.06Z"/>
          <path class="cls-18" d="M226.6,448.52l1.72-1.73a5.73,5.73,0,0,1,8,.06l2.54,2.54a5.22,5.22,0,0,0-7.79.19l-1.4,1.4A25.08,25.08,0,0,0,226.6,448.52Z"/>
          <path class="cls-24" d="M227.34,474.54l5.86-5.85c5.43-5.44,2.8-11.55-2.59-16.94h0c-5.39-5.39-11.5-8-16.93-2.58L207.82,455a13.85,13.85,0,0,0-.08,19.6h0a13.86,13.86,0,0,0,19.6-.09Z"/>
          <g class="cls-16">
            <path d="M210.15,477.05a16.39,16.39,0,0,1-1.48-1.3c-6-6-6.34-15.23-.86-20.71l5.9-5.91c5.48-5.47,12.06-2.4,18,3.56.47.47.93.95,1.36,1.43-5.57-5-11.55-7.24-16.59-2.2l-5.9,5.91C205.55,462.87,205.48,471.13,210.15,477.05Z"/>
          </g>
          <g>
            <path class="cls-25" d="M219.78,466.48l1.87-1.86a1.2,1.2,0,0,0,0-1.68,1.18,1.18,0,0,0-1.67,0l-1.61,1.61-.33-.33a1.18,1.18,0,1,0-1.67,1.67l.59.59A2,2,0,0,0,219.78,466.48Z"/>
            <path class="cls-25" d="M225.51,469.68l1.67-1.67a1.2,1.2,0,0,0,0-1.68,1.18,1.18,0,0,0-1.67,0L223.83,468a1.18,1.18,0,1,0,1.68,1.67Z"/>
            <path class="cls-25" d="M214.91,459.09l1.68-1.68a1.18,1.18,0,0,0,0-1.67,1.2,1.2,0,0,0-1.68,0l-1.67,1.68a1.18,1.18,0,1,0,1.67,1.67Z"/>
          </g>
          <path class="cls-26" d="M217.39,472.43a.75.75,0,0,0,0-1.06l-5.78-5.77a.75.75,0,0,0-1.06,0,4.84,4.84,0,0,0,6.84,6.84Z"/>
          <path class="cls-27" d="M241.58,522.76,229,535.32a.88.88,0,0,1-1.22,0L205,512.56a.86.86,0,0,1,0-1.22l12.55-12.55a7.42,7.42,0,0,1,10.48,0l2.84,2.83a12,12,0,0,0,6.56,6.56l4.11,4.11A7.41,7.41,0,0,1,241.58,522.76Z"/>
          <path class="cls-18" d="M220.9,502.17l-12.51,12.51a.87.87,0,0,0,0,1.24l-3.51-3.51a.66.66,0,0,1,0-.92l14-14a5.64,5.64,0,0,1,7.94,0l4.25,4.26,0,.06A7.51,7.51,0,0,0,220.9,502.17Z"/>
          <g>
            <path class="cls-22" d="M231.69,490.14l-.78-.79a3.55,3.55,0,0,1,.55-5.48,3.67,3.67,0,0,1,4.57.57l.19.18-1.91,1.91A14.64,14.64,0,0,0,231.69,490.14Z"/>
            <path class="cls-22" d="M255.92,508.34a3.54,3.54,0,0,1-5.47.55l-.79-.79a14.53,14.53,0,0,0,3.61-2.61l1.9-1.91.19.19A3.65,3.65,0,0,1,255.92,508.34Z"/>
            <path class="cls-22" d="M230.92,501.63l.18.18a12.06,12.06,0,0,0,6.53,6.53l.17.18-8.52,2.77c-.92.3-1.43-.21-1.13-1.14Z"/>
          </g>
          <path class="cls-47" d="M259.59,472.17a.68.68,0,0,1,1,0l6.71,6.71a.68.68,0,0,1,0,1,6.38,6.38,0,0,1-4.59,1.91,13.31,13.31,0,0,0-2.16-2.85,12.79,12.79,0,0,0-2.85-2.15A6.37,6.37,0,0,1,259.59,472.17Z"/>
          <path class="cls-18" d="M259.59,472.17a.68.68,0,0,1,1,0l2.56,2.56a.67.67,0,0,0-1,0,6.45,6.45,0,0,0-1.9,3.93,12.87,12.87,0,0,0-2.59-1.9A6.37,6.37,0,0,1,259.59,472.17Z"/>
          <path class="cls-24" d="M256.29,502.47,253.78,505c-5.37,5.37-14.45,6-19.69.73s-4.64-14.32.73-19.69l2.51-2.51Z"/>
          <g class="cls-16">
            <path d="M236,507.38a15.24,15.24,0,0,1-1.49-1.3,14.83,14.83,0,0,1-.21-20.62l2.51-2.51,2.79,2.79-2.51,2.51A14.83,14.83,0,0,0,236,507.38Z"/>
          </g>
          <g>
            <path class="cls-25" d="M241.45,500.46a1.2,1.2,0,0,0,0-1.68l-.22-.21,1.38-1.38a1.18,1.18,0,0,0,0-1.67,1.2,1.2,0,0,0-1.68,0l-1.63,1.63a2,2,0,0,0-.05,2.78l.53.53A1.18,1.18,0,0,0,241.45,500.46Z"/>
            <path class="cls-25" d="M237.94,492.94l1.25-1.25a1.18,1.18,0,0,0,0-1.67,1.2,1.2,0,0,0-1.68,0l-1.25,1.25a1.18,1.18,0,0,0,0,1.67A1.2,1.2,0,0,0,237.94,492.94Z"/>
            <path class="cls-25" d="M247.42,502.42l1.25-1.25a1.18,1.18,0,0,0,0-1.67,1.2,1.2,0,0,0-1.68,0l-1.25,1.25a1.18,1.18,0,0,0,0,1.67A1.2,1.2,0,0,0,247.42,502.42Z"/>
            <path class="cls-25" d="M240.38,505.34a1.29,1.29,0,0,0,0-2.58,4.28,4.28,0,0,1-4.27-4.27,1.29,1.29,0,0,0-2.58,0,6.86,6.86,0,0,0,6.85,6.85Z"/>
          </g>
          <path class="cls-44" d="M240.16,478.65c6.47-5.27,15.42-5.44,20.74-.12s5.16,14.27-.11,20.75a2.2,2.2,0,0,0-.4-.51L240.67,479A3.14,3.14,0,0,0,240.16,478.65Z"/>
          <path class="cls-18" d="M240.16,478.65c6.47-5.27,15.42-5.44,20.74-.12a12.36,12.36,0,0,1,1.22,1.4c-5.38-4-13.35-3.51-19.28,1.28L240.67,479A3.14,3.14,0,0,0,240.16,478.65Z"/>
          <path class="cls-47" d="M259.84,503.38l.71-.71a2.66,2.66,0,0,0,0-3.75l-19.67-19.67a2.66,2.66,0,0,0-3.75,0l-.71.71a2.66,2.66,0,0,0,0,3.75l19.67,19.67A2.66,2.66,0,0,0,259.84,503.38Z"/>
          <g class="cls-16">
            <path d="M238.8,486.1l-2.94-2.94a2.67,2.67,0,0,1,0-3.76l.71-.7a2.64,2.64,0,0,1,3.75,0l3,2.94a2.83,2.83,0,0,0-4-.08l-.56.55A2.84,2.84,0,0,0,238.8,486.1Z"/>
          </g>
          <path class="cls-26" d="M226.89,526.61a3.32,3.32,0,0,0,1-.24l2.15-2.15,2.14,2.13a9.81,9.81,0,0,0,1,.28l1.84-1.84a4.41,4.41,0,0,1-.08-1.23l-2.13-2.13,2-2s.15-.55-.13-.67L232.86,517c-.12-.28-.44-.28-.82-.28l-2.52,2.52-2-2s-.18-.54-.26-.23l-1.84,1.84c-.31.09-.31.41-.13.62l2.54,2.55-2.15,2.15s-.57.15-.65.62Z"/>
          <g>
            <path class="cls-27" d="M243.17,431.91a1.18,1.18,0,0,0,0-1.67l-1.63-1.63a1.18,1.18,0,1,0-1.67,1.67l1.63,1.63A1.17,1.17,0,0,0,243.17,431.91Z"/>
            <path class="cls-27" d="M255.26,444a1.18,1.18,0,0,0,0-1.67l-9-9A1.18,1.18,0,0,0,244.6,435l9,9A1.2,1.2,0,0,0,255.26,444Z"/>
            <path class="cls-27" d="M248.06,442.38a1.18,1.18,0,0,0,0-1.67l-9-9a1.18,1.18,0,0,0-1.67,1.67l9,9A1.18,1.18,0,0,0,248.06,442.38Z"/>
          </g>
          <path class="cls-20" d="M205.88,471.47,191.4,486a.64.64,0,0,1-.11-.52l1.81-11.08a.73.73,0,0,1,1-.6l2.23.71c.46.15.7-.1.53-.55l-1.27-3.49a.82.82,0,0,1,.53-1.08l6.26-1.88a1.62,1.62,0,0,1,1.46.37l1.05,1.05A13.67,13.67,0,0,0,205.88,471.47Z"/>
        </g>
        <g>
          <path class="cls-28" d="M359,349.42a5.09,5.09,0,0,1,0-7.21l30.32-30.32a5.1,5.1,0,0,1,7.21,0l23.82,23.82a5.09,5.09,0,0,1,0,7.22l-14.2,14.21A15.83,15.83,0,0,0,389.05,374a5.07,5.07,0,0,1-6.21-.76"/>
          <path class="cls-29" d="M420.86,342.44l-14.34,14.33a16.09,16.09,0,0,0-17.17,14.09c0,.23-.05.46-.07.7v.06c0,.23,0,.45,0,.67v.09c0,.23,0,.45,0,.67v.08l0,.68-.19.12-.07,0-.13.07-.08,0-.12.06-.08,0-.13,0-.08,0-.13,0-.08,0-.14,0-.07,0-.15,0h-.06l-.16,0h0l-.19,0h0a5.07,5.07,0,0,1-4.3-1.42l-23.83-23.84a5.1,5.1,0,0,1,0-7.21l3.71-3.71a5.12,5.12,0,0,0,0,7.24L382.35,365a3.39,3.39,0,0,0,5.43-.87l.05-.09a16,16,0,0,1,3.52-5.32,16.21,16.21,0,0,1,5.3-3.52,19.38,19.38,0,0,1,7-2,3.37,3.37,0,0,0,2.06-1l12.48-12.49a5.13,5.13,0,0,0,0-7.24l2.63,2.64A5.12,5.12,0,0,1,420.86,342.44Z"/>
          <path class="cls-30" d="M400.3,315.65l16.83,16.83,3.16-3.15-16.83-16.84Z"/>
          <path class="cls-31" d="M412.92,328.28l4.21,4.2,3.16-3.15-4.21-4.21Z"/>
          <path class="cls-28" d="M408.41,300.17a1.91,1.91,0,0,1,2.71,0l21.49,21.49a1.91,1.91,0,0,1,0,2.71l-6.76,6.76a1.91,1.91,0,0,1-2.71,0l-21.49-21.49a1.93,1.93,0,0,1,0-2.71l3.38-3.38Z"/>
          <path class="cls-29" d="M432.61,321.66a1.91,1.91,0,0,1,0,2.71l-6.76,6.76a1.91,1.91,0,0,1-2.71,0l-4.95-5,9.46-9.47Z"/>
          <path class="cls-32" d="M399.22,333.08a13.24,13.24,0,1,0,0,18.73A13.24,13.24,0,0,0,399.22,333.08Z"/>
          <path class="cls-33" d="M399.22,351.81A13.23,13.23,0,0,1,376.85,340a13.24,13.24,0,0,0,26,0A13.23,13.23,0,0,1,399.22,351.81Z"/>
          <path class="cls-34" d="M416.22,361.63a15.81,15.81,0,1,0,0,22.36A15.81,15.81,0,0,0,416.22,361.63Z"/>
          <path class="cls-35" d="M416.22,384a15.8,15.8,0,0,1-26.83-13.33,15.81,15.81,0,0,0,31.32,0A15.8,15.8,0,0,1,416.22,384Z"/>
          <path class="cls-35" d="M389.69,373.1h30.86a1.27,1.27,0,0,1,.34,0,14.69,14.69,0,0,1-.35,2.38H389.7a17.28,17.28,0,0,1-.35-2.38A1.27,1.27,0,0,1,389.69,373.1Z"/>
          <path class="cls-36" d="M440.48,358a12.26,12.26,0,0,1-1.39,15.7L423.25,389.5a12.28,12.28,0,0,1-17.36,0c-.18-.18-.35-.37-.51-.55a15.89,15.89,0,0,0,11.07-27.12l-.13-.12,5.41-5.42c4.28-4.27,10.72-4.42,15.71-1.38A16.35,16.35,0,0,1,440.48,358Z"/>
          <path class="cls-37" d="M438.4,373.29,422.89,388.8a12,12,0,0,1-17,0c-.17-.17-.34-.35-.5-.53l1.15-.06a12,12,0,0,0,13.19-2.56l15.51-15.51a12,12,0,0,0,1.43-15.27h0a14.12,14.12,0,0,1,3.09,3.05A12,12,0,0,1,438.4,373.29Z"/>
          <path class="cls-32" d="M430.81,380.88l-7.88,7.88a12.2,12.2,0,0,1-17.28,0l-.51-.54a15.8,15.8,0,0,0,15.56-17.44Z"/>
          <path class="cls-38" d="M427.65,377.73l3.16,3.15-7.88,7.88a12.11,12.11,0,0,1-17.14.14c-.17-.17-.34-.35-.5-.53l.53,0h.09l.54,0a12.21,12.21,0,0,0,13.32-2.69Z"/>
          <path class="cls-20" d="M394.52,347.22a1.13,1.13,0,0,1-1.58,0l-3.16-3.16-3.16,3.16a1.13,1.13,0,0,1-1.58,0,1.11,1.11,0,0,1,0-1.58l3.16-3.16L385,339.32a1.12,1.12,0,0,1,1.58-1.58l3.16,3.16,3.16-3.16a1.11,1.11,0,0,1,1.58,0,1.13,1.13,0,0,1,0,1.58l-3.16,3.16,3.16,3.16A1.13,1.13,0,0,1,394.52,347.22Z"/>
          <g>
            <path class="cls-39" d="M406.86,314.35l8.87-8.87a1.12,1.12,0,0,0-1.58-1.58l-8.87,8.87a1.12,1.12,0,0,0,1.58,1.58Z"/>
            <path class="cls-39" d="M413.17,320.67l8.87-8.88a1.1,1.1,0,0,0,0-1.57,1.11,1.11,0,0,0-1.58,0l-8.87,8.87a1.12,1.12,0,0,0,1.58,1.58Z"/>
            <path class="cls-39" d="M419.48,327l8.87-8.87a1.11,1.11,0,0,0,0-1.58,1.1,1.1,0,0,0-1.57,0l-8.87,8.87a1.11,1.11,0,0,0,1.57,1.58Z"/>
          </g>
          <path class="cls-40" d="M389.4,374h30.86a1.22,1.22,0,1,0,0-2.43H389.4a1.22,1.22,0,0,0-.86,2.08A1.2,1.2,0,0,0,389.4,374Z"/>
        </g>
        <g>
          <circle class="cls-41" cx="79.06" cy="519.13" r="2.43"/>
          <g>
            <circle class="cls-48" cx="89.25" cy="521.92" r="2.31"/>
            <circle class="cls-48" cx="82.07" cy="508.53" r="2.31"/>
          </g>
          <circle class="cls-41" cx="91" cy="512.84" r="2.92"/>
          <circle class="cls-49" cx="82.07" cy="529.06" r="3.12"/>
          <path class="cls-41" d="M83.44,467.1h0a10.08,10.08,0,0,1-.83,14.23L72,490.75,58.63,475.7l10.58-9.43A10.08,10.08,0,0,1,83.44,467.1Z"/>
          <path class="cls-50" d="M47.22,499.35h0a10.07,10.07,0,0,0,14.23.82L72,490.75,58.63,475.7,48,485.12A10.09,10.09,0,0,0,47.22,499.35Z"/>
          <path class="cls-18" d="M83.44,467.1a10.08,10.08,0,0,1-.83,14.23L61.45,500.17A10.08,10.08,0,1,1,48.16,485l1.8-1.61c-.9,5.34,4.68,12,11.07,9.35,4.18-1.71,12.16-7.34,18.41-12.56a2.18,2.18,0,0,0,.44-2.83L76.55,472a10.08,10.08,0,0,1-1.09-8.3,10,10,0,0,1,8,3.37Z"/>
          <path class="cls-42" d="M82.34,454.86h0a10.08,10.08,0,0,1,13.89,3.21l7.5,12-17.1,10.67-7.5-12A10.07,10.07,0,0,1,82.34,454.86Z"/>
          <path class="cls-43" d="M108,496h0a10.08,10.08,0,0,0,3.22-13.89l-7.51-12-17.1,10.67,7.51,12A10.07,10.07,0,0,0,108,496Z"/>
          <path class="cls-18" d="M108,496a10.07,10.07,0,0,1-13.88-3.22l-15-24a10.07,10.07,0,0,1,3.21-13.88h0l0,0c-.7,9.87,14.92,38.47,26.9,40.23A10.18,10.18,0,0,1,108,496Z"/>
          <path class="cls-49" d="M59.72,495h0a10.08,10.08,0,0,1,13.17-5.46l12.27,5.08a.88.88,0,0,1,.48,1.16l-7,17a.89.89,0,0,1-1.16.48l-12.27-5.09A10.07,10.07,0,0,1,59.72,495Z"/>
          <path class="cls-18" d="M77.45,513.28l-12.27-5.09A10.07,10.07,0,0,1,59.72,495h0a10.1,10.1,0,0,1,2.39-3.47c-1.13,5.73,3.74,14.3,18.23,17.05l-1.73,4.19A.89.89,0,0,1,77.45,513.28Z"/>
          <path class="cls-42" d="M111.72,495h0a10.08,10.08,0,0,0-13.17-5.46l-12.27,5.08a.88.88,0,0,0-.48,1.16l7,17a.89.89,0,0,0,1.16.48l12.27-5.09A10.07,10.07,0,0,0,111.72,495Z"/>
        </g>
        <path class="cls-2" d="M110.75,163v52.12a7.06,7.06,0,0,1-7.06,7.06H51.57a7.06,7.06,0,0,1-7.06-7.06V163a7.06,7.06,0,0,1,7.06-7.06h52.12A7.06,7.06,0,0,1,110.75,163ZM98.13,185.28a1.76,1.76,0,0,0-1.76-1.77H83.15V170.29a1.77,1.77,0,0,0-1.77-1.76h-8.3a1.76,1.76,0,0,0-1.76,1.76v13.22H58.1a1.77,1.77,0,0,0-1.77,1.77v8.29a1.77,1.77,0,0,0,1.77,1.77H71.32v13.22a1.76,1.76,0,0,0,1.76,1.76h8.3a1.77,1.77,0,0,0,1.77-1.76V195.34H96.37a1.76,1.76,0,0,0,1.76-1.77Z"/>
        <g>
          <path class="cls-3" d="M415.74,161l-11.12-11.12a2.63,2.63,0,0,0-3.72,0L350.78,200a2.64,2.64,0,0,0,0,3.72l39.06,39.06a2.64,2.64,0,0,0,3.73,0l50.12-50.12a2.64,2.64,0,0,0,0-3.72l-11.12-11.12"/>
          <path class="cls-4" d="M412.38,164.33l-9.14-9.13-46.63,46.63,24,24,11.06-11.05,11.05,11.05,35.58-35.57-9.14-9.13"/>
          <path class="cls-5" d="M428.82,180.77l2.38,2.38a46.3,46.3,0,0,1-9.83,14.37c-14.9,14.91-36.56,17.41-48.38,5.59a25.15,25.15,0,0,1-6.63-12l36.4-36.4,9.31,9.3Z"/>
          <path class="cls-6" d="M410.45,166.26l16.83,16.82,7.21-7.21-16.83-16.82Z"/>
          <path class="cls-7" d="M393.63,171.54l7.21,7.21,7.21-7.21-7.21-7.21Z"/>
          <path class="cls-7" d="M382.57,182.6l7.21,7.21L397,182.6l-7.21-7.21Z"/>
          <path class="cls-7" d="M371,194.14l7.21,7.21,7.21-7.21-7.21-7.21Z"/>
          <path class="cls-7" d="M380.65,225.86l11.06-11.05,11.05,11.05"/>
          <path class="cls-6" d="M399.05,173.18h13v-2.64h-13Z"/>
          <path class="cls-6" d="M387.89,184.34h13v-2.63h-13Z"/>
          <path class="cls-6" d="M376.72,195.5h13v-2.63h-13Z"/>
          <path class="cls-7" d="M410,175.39l1.93,1.92,1.92-1.92-1.92-1.92Z"/>
          <path class="cls-7" d="M413.82,179.24l14.9,14.9,1.92-1.93-14.9-14.9Z"/>
          <path class="cls-7" d="M423,196.06l1.93,1.92,1.92-1.92-1.92-1.92Z"/>
          <path class="cls-7" d="M406.13,179.24l14.9,14.9,1.92-1.93-14.9-14.9Z"/>
          <path class="cls-7" d="M398.92,186.45l1.92,1.92,1.92-1.92-1.92-1.93Z"/>
          <path class="cls-7" d="M402.76,190.29l14.9,14.9,1.93-1.92-14.9-14.9Z"/>
          <path class="cls-7" d="M411.9,207.12l1.92,1.92,1.92-1.92-1.92-1.93Z"/>
          <path class="cls-7" d="M395.07,190.29l14.9,14.9,1.93-1.92L397,188.37Z"/>
          <path class="cls-7" d="M387.86,197.5l1.92,1.93,1.93-1.93-1.93-1.92Z"/>
          <path class="cls-7" d="M391.71,201.35l14.9,14.9,1.92-1.92-14.9-14.9Z"/>
          <path class="cls-7" d="M400.84,218.17l1.92,1.93,1.93-1.93-1.93-1.92Z"/>
          <path class="cls-7" d="M384,201.35l14.91,14.9,1.92-1.92-14.9-14.9Z"/>
        </g>
        <path class="cls-44" d="M227.77,350.06l-15.61,15.61a2.49,2.49,0,0,1-3.5,0l-3.39-3.39a2.47,2.47,0,0,1,0-3.5L221,343.09a34.33,34.33,0,0,1,.29-48.55l6.52,6.53A34.64,34.64,0,0,1,227.77,350.06Zm56.63-7.15a34.65,34.65,0,0,1-46.32,2.42,39.74,39.74,0,0,0,5.32-18.22,34.64,34.64,0,0,1,34,8.8Z"/>
        <path class="cls-45" d="M427.42,462.05a1.27,1.27,0,0,1,0,1.82l-5.51,5.49a1.3,1.3,0,0,1-1.83,0l-1.81-1.8-39.92,39.82a16.77,16.77,0,0,1-24.51-.94c-5.79-6.73-4.77-17,1.52-23.26L394.64,444l-1.81-1.8a1.29,1.29,0,0,1,0-1.83l5.51-5.49a1.3,1.3,0,0,1,1.83,0l27.25,27.19Zm-14.61.42-12.72-12.69-24,23.94h25.44Z"/>
        <path class="cls-8" d="M214.65,185.56l24.62-24.62a4.85,4.85,0,0,1,6.86-.17L247.9,159a2.47,2.47,0,0,1,3.49,0l7.11,7.11a2.46,2.46,0,0,1,0,3.48l-1.77,1.78a4.85,4.85,0,0,1-.17,6.85l-24.62,24.62a4.92,4.92,0,0,1-7,0l-1.54-1.53-1.6,1.6a2.44,2.44,0,0,1-3.48,0L214,198.59a2.46,2.46,0,0,1,0-3.48l1.61-1.61-1-1A4.94,4.94,0,0,1,214.65,185.56Zm18.89,64.19a3.14,3.14,0,0,1-3.76.28L177.5,197.76a3.18,3.18,0,0,1,.28-3.77,7.38,7.38,0,0,1,10.45,0l29.63,29.63a19.72,19.72,0,1,0,27.88-27.89l7-7a29.52,29.52,0,0,1-19.31,50.4l.14.14A7.38,7.38,0,0,1,233.54,249.75Zm-36-54.89,1.6-1.6a1.24,1.24,0,0,1,1.75,0l22.79,22.79a1.23,1.23,0,0,1,0,1.74l-1.6,1.61a1.24,1.24,0,0,1-1.75,0l-22.79-22.8A1.23,1.23,0,0,1,197.54,194.86Z"/>
      </g>
      <g>
        <g>
          <path class="cls-9" d="M607.48,121.2a1.18,1.18,0,0,0,0-1.68l-18.09-18.1a1.2,1.2,0,0,0-1.69,1.69l18.1,18.09a1.18,1.18,0,0,0,.84.35A1.2,1.2,0,0,0,607.48,121.2Z"/>
          <path class="cls-10" d="M615.19,118.13a1.18,1.18,0,0,0,0-1.68L592.51,93.76a1.2,1.2,0,1,0-1.69,1.69l22.69,22.68a1.18,1.18,0,0,0,.84.35A1.2,1.2,0,0,0,615.19,118.13Z"/>
          <path class="cls-9" d="M618.26,110.42a1.19,1.19,0,0,0,0-1.69L600.17,90.64a1.2,1.2,0,0,0-1.69,1.69l18.1,18.09a1.18,1.18,0,0,0,.84.35A1.2,1.2,0,0,0,618.26,110.42Z"/>
          <path class="cls-10" d="M636.42,91.57a1.18,1.18,0,0,0,0-1.68L619.19,72.66a1.18,1.18,0,0,0-1.68,0,1.19,1.19,0,0,0,0,1.69l17.23,17.22a1.14,1.14,0,0,0,.84.35A1.16,1.16,0,0,0,636.42,91.57Z"/>
          <path class="cls-10" d="M588.64,139.36a1.2,1.2,0,0,0,0-1.68l-17.23-17.23a1.19,1.19,0,0,0-1.69,1.68L587,139.36a1.16,1.16,0,0,0,.84.35A1.18,1.18,0,0,0,588.64,139.36Z"/>
          <path class="cls-11" d="M586.84,122.23c-7.34-1.62-13.71-2.35-18.72,2.65a2.63,2.63,0,1,1-3.72-3.71c6.18-6.18,13.82-6,21.15-4.57C586,118.45,586.42,120.33,586.84,122.23Z"/>
          <path class="cls-12" d="M586.84,122.23c-1.13-.25-2.24-.48-3.33-.67-.42-1.87-.85-3.66-1.25-5.48,1.1.13,2.2.31,3.29.52C586,118.46,586.42,120.32,586.84,122.23Z"/>
          <path class="cls-11" d="M616.63,119.57c-7,7-16,5.77-24.17,3.94-.35-1.88-.79-3.78-1.23-5.67,8.59,2,16,3.69,21.69-2,12-12-9.35-33.86,5.31-48.52A2.63,2.63,0,0,1,622,71.06C610,83,631.32,104.88,616.63,119.57Z"/>
          <path class="cls-12" d="M591.23,117.84l3,.69c.43,1.86.85,3.72,1.19,5.6-1-.19-2-.4-3-.62C592.11,121.61,591.67,119.72,591.23,117.84Z"/>
          <path class="cls-13" d="M593.21,96.15c-12,12,9.43,33.77-5.31,48.51a2.63,2.63,0,1,1-3.72-3.71c11.92-11.92-9.31-33.89,5.31-48.52,7-7,16-5.77,24.17-3.94.35,1.87.8,3.8,1.24,5.68C606.3,92.17,598.88,90.48,593.21,96.15Z"/>
          <path class="cls-14" d="M614.9,94.17c-1.06-.25-2.1-.49-3.12-.71-.43-1.86-.84-3.72-1.16-5.6,1,.19,2,.41,3,.63C614,90.36,614.46,92.29,614.9,94.17Z"/>
          <path class="cls-13" d="M641.72,90.84c-5.83,5.83-13,6.1-21.15,4.56-.41-1.85-.86-3.71-1.28-5.62,7.34,1.61,13.71,2.35,18.72-2.66a2.63,2.63,0,0,1,3.71,3.72Z"/>
          <path class="cls-14" d="M623.46,95.88c-1-.13-1.93-.29-2.89-.48-.41-1.85-.86-3.71-1.28-5.62,1,.22,2,.42,2.91.59C622.61,92.22,623.07,94.1,623.46,95.88Z"/>
        </g>
        <g>
          <path class="cls-15" d="M786.22,209.17,778,217.38a.88.88,0,0,1-1.25,0l-7.07-7.07a2.5,2.5,0,0,0-1.54-.63l-3,0a.9.9,0,0,1-.9-.9l0-3a2.5,2.5,0,0,0-.63-1.54l-7.35-7.34a.91.91,0,0,1,0-1.26l8.23-8.22a.88.88,0,0,1,1.25,0l20.5,20.49a.9.9,0,0,1,0,1.27Z"/>
          <g class="cls-16">
            <path d="M759.1,199.72l-2.84-2.83a.91.91,0,0,1,0-1.26l8.23-8.22a.88.88,0,0,1,1.25,0l2.84,2.83a.94.94,0,0,0-1.32,0l-8.19,8.2A.93.93,0,0,0,759.1,199.72Z"/>
          </g>
          <path class="cls-46" d="M731.65,264.86l7.6-7.6a8.11,8.11,0,0,0,1-1.26,18.13,18.13,0,0,0-1.18,4.42,13.29,13.29,0,0,0,.62,6.41l-5.59,5.59A19.88,19.88,0,0,1,731.65,264.86Z"/>
          <path class="cls-17" d="M724.32,270.89a.92.92,0,0,0,1.3,0l13.27-13.27a7.94,7.94,0,0,0,0-11.22L724.46,232a7.94,7.94,0,0,0-11.22,0L700,245.24a.92.92,0,0,0,0,1.3Z"/>
          <path class="cls-18" d="M716,234.76,702.76,248a1,1,0,0,0,0,1.36L700,246.54a.92.92,0,0,1,0-1.3L713.24,232c3.09-3.09,8.33-2.87,11.68.49l.59.59-.78.2A7.91,7.91,0,0,0,716,234.76Z"/>
          <g>
            <path class="cls-19" d="M739,245.35a1.29,1.29,0,0,1,1,2.22L737.56,250Z"/>
            <path class="cls-19" d="M736,250.44l-6.48,6.48a4.37,4.37,0,0,0-1.67-1.67l2.27-2.27,2-.33a.52.52,0,0,0,.38-.24.54.54,0,0,0,0-.45l-.33-1.05,1.33-1.33,2.27.82A.52.52,0,0,0,736,250.44Z"/>
          </g>
          <g>
            <path class="cls-46" d="M724.88,267.17l4.23-4.23c2.69-2.69,1.35-7.94-4-8.26a2.46,2.46,0,0,0-1.88.74l-5.06,5.05a.68.68,0,0,0,0,.95l1.06,1.06a1.31,1.31,0,0,0,1.58.23,1.27,1.27,0,0,0,.38-1.91l2.88-2.88a2,2,0,0,1,3.1.2,2.09,2.09,0,0,1-.33,2.61L724,263.59a1.27,1.27,0,0,0-1.91.38,1.31,1.31,0,0,0,.23,1.58l1.62,1.62A.66.66,0,0,0,724.88,267.17Z"/>
            <ellipse class="cls-46" cx="709.75" cy="247.68" rx="2.58" ry="2.57" transform="translate(32.75 574.42) rotate(-45)"/>
          </g>
          <path class="cls-19" d="M712.37,249.57a3.55,3.55,0,1,1-1-5.71l8.44-8.45.9,2.45-.86.86-1.79-.57a.51.51,0,0,0-.45,0,.53.53,0,0,0-.24.38l-.52,3.15-3.81,3.81A3.55,3.55,0,0,1,712.37,249.57Zm-1.71-1a1.29,1.29,0,1,0-1.82,0A1.29,1.29,0,0,0,710.66,248.6Z"/>
          <g>
            <path class="cls-20" d="M737.29,249.93a.82.82,0,0,1-1.07.54l-3.49-1.28c-.45-.16-.7.08-.55.54l.71,2.22a.74.74,0,0,1-.6,1l-11.08,1.81a.68.68,0,0,1-.52-.11l14.21-14.21a13.52,13.52,0,0,0,3.93,1.83,1.6,1.6,0,0,1,.35,1.42Z"/>
            <path class="cls-20" d="M730.88,235.52,716.4,250a.64.64,0,0,1-.11-.52l1.81-11.08a.74.74,0,0,1,1-.6l2.23.71c.46.15.7-.1.53-.55l-1.27-3.49a.81.81,0,0,1,.53-1.07l6.26-1.89a1.65,1.65,0,0,1,1.46.37l1.05,1.06A13.84,13.84,0,0,0,730.88,235.52Z"/>
          </g>
          <polygon class="cls-21" points="709.91 255.37 714.93 260.39 734.45 240.87 729.43 235.85 709.91 255.37"/>
          <g>
            <path class="cls-22" d="M735.11,240.21l-2.89,2.89-5-5,3.18-3.18a14.37,14.37,0,0,0,2.59,3.54A14.78,14.78,0,0,0,735.11,240.21Z"/>
            <path class="cls-22" d="M731.33,222.14l-1.94-1.94a2.32,2.32,0,0,1,0-3.27l3.42-3.42a2.33,2.33,0,0,1,3.28,0l1.7,1.71-4.68,4.69A12.19,12.19,0,0,0,731.33,222.14Z"/>
            <path class="cls-22" d="M758.47,239.16l-3.42,3.42a2.33,2.33,0,0,1-3.28,0l-1.93-1.93a13.4,13.4,0,0,0,2.23-1.78l4.68-4.69,1.72,1.71A2.32,2.32,0,0,1,758.47,239.16Z"/>
          </g>
          <path class="cls-23" d="M769.77,221.16l-12.46,12.46h0l.73-.72c2.51-2.52,3.43-5.35,2.73-8.41-.61-2.65-2.42-5.5-5.38-8.47s-5.81-4.77-8.46-5.37c-3.07-.7-5.9.22-8.41,2.73l-.73.72h0l7.19-7.18a5.58,5.58,0,0,1,7.9,0l2.85,2.85,5.63,1.17,8.71,8.71S770.63,221,769.77,221.16Z"/>
          <path class="cls-18" d="M739.08,213.94l-.73.72-.56-.56,7.19-7.18a5.91,5.91,0,0,1,8.34.41l2.79,2.79a5.91,5.91,0,0,0-8.34-.41l-1.17,1.17c-2.67-.29-5.2.73-7.52,3.06Z"/>
          <path class="cls-18" d="M751.6,212.57l1.72-1.72a5.72,5.72,0,0,1,8,.06l2.54,2.53a5.22,5.22,0,0,0-7.79.2l-1.4,1.39A26.06,26.06,0,0,0,751.6,212.57Z"/>
          <path class="cls-24" d="M752.34,238.6l5.86-5.86c5.43-5.44,2.8-11.55-2.59-16.94h0c-5.39-5.39-11.5-8-16.93-2.58l-5.86,5.86a13.85,13.85,0,0,0-.08,19.6h0a13.86,13.86,0,0,0,19.6-.08Z"/>
          <g class="cls-16">
            <path d="M735.15,241.11a16.51,16.51,0,0,1-1.48-1.31c-6-6-6.34-15.23-.86-20.71l5.9-5.9c5.48-5.48,12.06-2.41,18,3.55.47.47.93.95,1.36,1.43-5.57-5-11.55-7.24-16.59-2.19l-5.9,5.9C730.55,226.93,730.48,235.18,735.15,241.11Z"/>
          </g>
          <g>
            <path class="cls-25" d="M744.78,230.54l1.87-1.87a1.18,1.18,0,0,0,0-1.67,1.17,1.17,0,0,0-1.67,0l-1.61,1.6-.33-.33a1.18,1.18,0,1,0-1.67,1.67l.59.6A2,2,0,0,0,744.78,230.54Z"/>
            <path class="cls-25" d="M750.51,233.74l1.67-1.68a1.18,1.18,0,0,0,0-1.67,1.17,1.17,0,0,0-1.67,0l-1.68,1.67a1.19,1.19,0,0,0,1.68,1.68Z"/>
            <path class="cls-25" d="M739.91,223.14l1.68-1.68a1.18,1.18,0,0,0,0-1.67,1.2,1.2,0,0,0-1.68,0l-1.67,1.68a1.18,1.18,0,0,0,1.67,1.67Z"/>
          </g>
          <path class="cls-26" d="M742.39,236.49a.77.77,0,0,0,0-1.07l-5.78-5.77a.75.75,0,0,0-1.06,0,4.84,4.84,0,0,0,6.84,6.84Z"/>
          <path class="cls-27" d="M766.58,286.81,754,299.37a.86.86,0,0,1-1.22,0L730,276.61a.86.86,0,0,1,0-1.22l12.55-12.55a7.44,7.44,0,0,1,10.48,0l2.84,2.84a12.09,12.09,0,0,0,2.62,3.93,12.24,12.24,0,0,0,3.94,2.62l4.11,4.11A7.41,7.41,0,0,1,766.58,286.81Z"/>
          <path class="cls-18" d="M745.9,266.22l-12.51,12.51a.87.87,0,0,0,0,1.24l-3.51-3.51a.66.66,0,0,1,0-.92l14-14a5.64,5.64,0,0,1,7.94,0l4.25,4.25,0,.07A7.51,7.51,0,0,0,745.9,266.22Z"/>
          <g>
            <path class="cls-22" d="M756.69,254.19l-.78-.78a3.55,3.55,0,0,1,.55-5.48,3.65,3.65,0,0,1,4.57.56l.19.19-1.91,1.91A14.58,14.58,0,0,0,756.69,254.19Z"/>
            <path class="cls-22" d="M780.92,272.39a3.54,3.54,0,0,1-5.47.55l-.79-.78a14.53,14.53,0,0,0,3.61-2.61l1.9-1.91.19.18A3.65,3.65,0,0,1,780.92,272.39Z"/>
            <path class="cls-22" d="M755.92,265.69l.18.17a12,12,0,0,0,6.53,6.53l.17.18-8.52,2.77c-.92.3-1.43-.21-1.13-1.13Z"/>
          </g>
          <path class="cls-47" d="M784.59,236.22a.68.68,0,0,1,1,0l6.71,6.71a.68.68,0,0,1,0,1,6.39,6.39,0,0,1-4.59,1.92,13.11,13.11,0,0,0-5-5A6.39,6.39,0,0,1,784.59,236.22Z"/>
          <path class="cls-18" d="M784.59,236.22a.68.68,0,0,1,1,0l2.56,2.56a.67.67,0,0,0-1,0,6.5,6.5,0,0,0-1.9,3.94,12.55,12.55,0,0,0-2.59-1.91A6.39,6.39,0,0,1,784.59,236.22Z"/>
          <path class="cls-24" d="M781.29,266.52,778.78,269c-5.37,5.38-14.45,6-19.69.73s-4.64-14.31.73-19.69l2.51-2.51Z"/>
          <g class="cls-16">
            <path d="M761,271.43a13,13,0,0,1-1.49-1.3,14.82,14.82,0,0,1-.21-20.61l2.51-2.52,2.79,2.79-2.51,2.52A14.82,14.82,0,0,0,761,271.43Z"/>
          </g>
          <g>
            <path class="cls-25" d="M766.45,264.51a1.18,1.18,0,0,0,0-1.67l-.22-.22,1.38-1.38a1.18,1.18,0,0,0,0-1.67,1.2,1.2,0,0,0-1.68,0l-1.63,1.64a2,2,0,0,0,0,2.77l.53.53A1.18,1.18,0,0,0,766.45,264.51Z"/>
            <path class="cls-25" d="M762.94,257l1.25-1.25a1.18,1.18,0,0,0,0-1.67,1.2,1.2,0,0,0-1.68,0l-1.25,1.25a1.18,1.18,0,0,0,0,1.67A1.2,1.2,0,0,0,762.94,257Z"/>
            <path class="cls-25" d="M772.42,266.47l1.25-1.25a1.18,1.18,0,0,0,0-1.67,1.2,1.2,0,0,0-1.68,0l-1.25,1.25a1.18,1.18,0,0,0,0,1.67A1.2,1.2,0,0,0,772.42,266.47Z"/>
            <path class="cls-25" d="M765.38,269.39a1.29,1.29,0,0,0,0-2.58,4.28,4.28,0,0,1-4.27-4.27,1.29,1.29,0,1,0-2.58,0,6.86,6.86,0,0,0,6.85,6.85Z"/>
          </g>
          <path class="cls-44" d="M765.16,242.7c6.47-5.27,15.42-5.44,20.74-.11s5.16,14.27-.11,20.74a2.72,2.72,0,0,0-.4-.51l-19.72-19.73A3.14,3.14,0,0,0,765.16,242.7Z"/>
          <path class="cls-18" d="M765.16,242.7c6.47-5.27,15.42-5.44,20.74-.11a12.26,12.26,0,0,1,1.22,1.39c-5.38-4-13.35-3.5-19.28,1.28l-2.17-2.17A3.14,3.14,0,0,0,765.16,242.7Z"/>
          <path class="cls-47" d="M784.84,267.43l.71-.7a2.67,2.67,0,0,0,0-3.76l-19.67-19.66a2.64,2.64,0,0,0-3.75,0l-.71.7a2.67,2.67,0,0,0,0,3.76l19.67,19.66A2.64,2.64,0,0,0,784.84,267.43Z"/>
          <g class="cls-16">
            <path d="M763.8,250.15l-2.94-2.94a2.66,2.66,0,0,1,0-3.75l.71-.71a2.66,2.66,0,0,1,3.75,0l2.95,2.94a2.84,2.84,0,0,0-4-.08l-.56.56A2.83,2.83,0,0,0,763.8,250.15Z"/>
          </g>
          <path class="cls-26" d="M751.89,290.66a2.84,2.84,0,0,0,1-.24l2.15-2.15,2.14,2.13a9.81,9.81,0,0,0,1,.28l1.84-1.84a4.36,4.36,0,0,1-.08-1.22l-2.13-2.14,2-2s.15-.56-.13-.68L757.86,281c-.12-.28-.44-.28-.82-.27l-2.52,2.51-2-2s-.18-.53-.26-.22l-1.84,1.84c-.31.08-.31.4-.13.61l2.54,2.55-2.15,2.15s-.57.15-.65.63Z"/>
          <g>
            <path class="cls-27" d="M768.17,196a1.2,1.2,0,0,0,0-1.68l-1.63-1.62a1.17,1.17,0,0,0-1.67,0,1.18,1.18,0,0,0,0,1.67L766.5,196A1.18,1.18,0,0,0,768.17,196Z"/>
            <path class="cls-27" d="M780.26,208.05a1.18,1.18,0,0,0,0-1.67l-9-9a1.2,1.2,0,0,0-1.68,0,1.18,1.18,0,0,0,0,1.67l9,9A1.19,1.19,0,0,0,780.26,208.05Z"/>
            <path class="cls-27" d="M773.06,206.43a1.18,1.18,0,0,0,0-1.67l-9-9a1.18,1.18,0,0,0-1.67,1.67l9,9A1.17,1.17,0,0,0,773.06,206.43Z"/>
          </g>
          <path class="cls-20" d="M730.88,235.52,716.4,250a.64.64,0,0,1-.11-.52l1.81-11.08a.74.74,0,0,1,1-.6l2.23.71c.46.15.7-.1.53-.55l-1.27-3.49a.81.81,0,0,1,.53-1.07l6.26-1.89a1.65,1.65,0,0,1,1.46.37l1.05,1.06A13.84,13.84,0,0,0,730.88,235.52Z"/>
        </g>
        <g>
          <path class="cls-28" d="M884,113.47a5.08,5.08,0,0,1,0-7.2L914.33,76a5.08,5.08,0,0,1,7.21,0l23.82,23.82a5.09,5.09,0,0,1,0,7.22l-14.2,14.2a15.85,15.85,0,0,0-17.11,16.89,5.08,5.08,0,0,1-6.21-.77"/>
          <path class="cls-29" d="M945.86,106.49l-14.34,14.34a16.07,16.07,0,0,0-17.17,14.08c0,.23-.05.47-.07.7v.07c0,.22,0,.44,0,.67v.09c0,.22,0,.44,0,.66v.08l0,.69-.19.11-.07,0-.13.07-.08,0-.12.06-.08,0-.13,0-.08,0-.13.05-.08,0-.14,0-.07,0-.15,0-.06,0-.16,0h-.05l-.19,0h0a5.08,5.08,0,0,1-4.3-1.43L884.19,113.3a5.11,5.11,0,0,1,0-7.22l3.71-3.71a5.12,5.12,0,0,0,0,7.24l19.48,19.48a3.39,3.39,0,0,0,5.43-.88l.05-.09a16,16,0,0,1,8.82-8.83,19.59,19.59,0,0,1,7-2,3.37,3.37,0,0,0,2.06-1l12.48-12.49a5.12,5.12,0,0,0,0-7.23l2.63,2.63A5.12,5.12,0,0,1,945.86,106.49Z"/>
          <path class="cls-30" d="M925.3,79.7l16.83,16.84,3.16-3.16L928.46,76.55Z"/>
          <path class="cls-31" d="M937.92,92.33l4.21,4.21,3.16-3.16-4.21-4.21Z"/>
          <path class="cls-28" d="M933.41,64.22a1.93,1.93,0,0,1,2.71,0l21.49,21.49a1.91,1.91,0,0,1,0,2.71l-6.76,6.76a1.91,1.91,0,0,1-2.71,0L926.65,73.69a1.93,1.93,0,0,1,0-2.71L930,67.6Z"/>
          <path class="cls-29" d="M957.61,85.71a1.91,1.91,0,0,1,0,2.71l-6.76,6.76a1.91,1.91,0,0,1-2.71,0l-4.95-5,9.46-9.46Z"/>
          <path class="cls-32" d="M924.22,97.14a13.24,13.24,0,1,0,0,18.72A13.24,13.24,0,0,0,924.22,97.14Z"/>
          <path class="cls-33" d="M924.22,115.86a13.23,13.23,0,0,1-22.37-11.77,13.23,13.23,0,0,0,26,0A13.23,13.23,0,0,1,924.22,115.86Z"/>
          <path class="cls-34" d="M941.22,125.68a15.81,15.81,0,1,0,0,22.36A15.81,15.81,0,0,0,941.22,125.68Z"/>
          <path class="cls-35" d="M941.22,148a15.8,15.8,0,0,1-26.83-13.33,15.81,15.81,0,0,0,31.32,0A15.8,15.8,0,0,1,941.22,148Z"/>
          <path class="cls-35" d="M914.69,137.16h30.86a1.27,1.27,0,0,1,.34,0,15,15,0,0,1-.35,2.39H914.7a17.66,17.66,0,0,1-.35-2.39A1.27,1.27,0,0,1,914.69,137.16Z"/>
          <path class="cls-36" d="M965.48,122a12.28,12.28,0,0,1-1.39,15.71l-15.84,15.84a12.28,12.28,0,0,1-17.36,0c-.18-.18-.35-.36-.51-.55a15.89,15.89,0,0,0,11.07-27.12l-.13-.12,5.41-5.41c4.28-4.28,10.72-4.43,15.71-1.39A16.35,16.35,0,0,1,965.48,122Z"/>
          <path class="cls-37" d="M963.4,137.35l-15.51,15.51a12,12,0,0,1-17,0l-.5-.54c.38,0,.76,0,1.15-.06a12,12,0,0,0,13.19-2.56l15.51-15.51a12,12,0,0,0,1.43-15.27h0a14.35,14.35,0,0,1,3.09,3A12,12,0,0,1,963.4,137.35Z"/>
          <path class="cls-32" d="M955.81,144.94l-7.88,7.88a12.22,12.22,0,0,1-17.28,0l-.51-.55a15.8,15.8,0,0,0,15.56-17.44Z"/>
          <path class="cls-38" d="M952.65,141.78l3.16,3.16-7.88,7.88a12.13,12.13,0,0,1-17.14.14l-.5-.54.53,0h.09l.54,0a12.19,12.19,0,0,0,13.32-2.69Z"/>
          <path class="cls-20" d="M919.52,111.27a1.11,1.11,0,0,1-1.58,0l-3.16-3.16-3.16,3.16a1.12,1.12,0,1,1-1.58-1.58l3.16-3.16L910,103.37a1.11,1.11,0,0,1,0-1.58,1.13,1.13,0,0,1,1.58,0l3.16,3.16,3.16-3.16a1.12,1.12,0,0,1,1.58,1.58l-3.16,3.16,3.16,3.16A1.13,1.13,0,0,1,919.52,111.27Z"/>
          <g>
            <path class="cls-39" d="M931.86,78.4l8.87-8.86a1.13,1.13,0,0,0,0-1.58,1.11,1.11,0,0,0-1.58,0l-8.87,8.87a1.1,1.1,0,0,0,0,1.57A1.11,1.11,0,0,0,931.86,78.4Z"/>
            <path class="cls-39" d="M938.17,84.72,947,75.85a1.12,1.12,0,0,0-1.58-1.58l-8.87,8.87a1.12,1.12,0,1,0,1.58,1.58Z"/>
            <path class="cls-39" d="M944.48,91l8.87-8.87a1.11,1.11,0,1,0-1.57-1.58l-8.87,8.87a1.11,1.11,0,0,0,0,1.58A1.1,1.1,0,0,0,944.48,91Z"/>
          </g>
          <path class="cls-40" d="M914.4,138.07h30.86a1.22,1.22,0,1,0,0-2.43H914.4a1.22,1.22,0,0,0,0,2.43Z"/>
        </g>
        <g>
          <circle class="cls-41" cx="604.06" cy="283.18" r="2.43"/>
          <g>
            <circle class="cls-48" cx="614.25" cy="285.97" r="2.31"/>
            <circle class="cls-48" cx="607.07" cy="272.58" r="2.31"/>
          </g>
          <circle class="cls-41" cx="616" cy="276.9" r="2.92"/>
          <circle class="cls-49" cx="607.07" cy="293.12" r="3.12"/>
          <path class="cls-41" d="M608.44,231.15h0a10.08,10.08,0,0,1-.83,14.23L597,254.8l-13.4-15.05,10.58-9.42A10.07,10.07,0,0,1,608.44,231.15Z"/>
          <path class="cls-50" d="M572.22,263.4h0a10.08,10.08,0,0,0,14.23.83L597,254.8l-13.4-15.05L573,249.17A10.09,10.09,0,0,0,572.22,263.4Z"/>
          <path class="cls-18" d="M608.44,231.15a10.08,10.08,0,0,1-.83,14.23l-21.16,18.85a10.08,10.08,0,1,1-13.29-15.16l1.8-1.6c-.9,5.34,4.68,12,11.07,9.34,4.18-1.71,12.16-7.34,18.41-12.56a2.17,2.17,0,0,0,.44-2.82l-3.33-5.35a10.08,10.08,0,0,1-1.09-8.3,10.08,10.08,0,0,1,8,3.37Z"/>
          <path class="cls-42" d="M607.34,218.91h0a10.08,10.08,0,0,1,13.89,3.21l7.5,12-17.1,10.68-7.5-12A10.08,10.08,0,0,1,607.34,218.91Z"/>
          <path class="cls-43" d="M633,260.05h0a10.08,10.08,0,0,0,3.22-13.89l-7.51-12-17.1,10.68,7.51,12A10.07,10.07,0,0,0,633,260.05Z"/>
          <path class="cls-18" d="M633,260.05a10.07,10.07,0,0,1-13.88-3.21l-15-24a10.08,10.08,0,0,1,3.21-13.89h0l0,0c-.7,9.87,14.92,38.47,26.9,40.23a9.28,9.28,0,0,1-1.27.94Z"/>
          <path class="cls-49" d="M584.72,259.08h0a10.09,10.09,0,0,1,13.17-5.46l12.27,5.09a.88.88,0,0,1,.48,1.16l-7,17a.89.89,0,0,1-1.16.48l-12.27-5.08A10.09,10.09,0,0,1,584.72,259.08Z"/>
          <path class="cls-18" d="M602.45,277.33l-12.27-5.08a10.09,10.09,0,0,1-5.46-13.17h0a10.19,10.19,0,0,1,2.39-3.47c-1.13,5.73,3.74,14.3,18.23,17.06l-1.73,4.18A.89.89,0,0,1,602.45,277.33Z"/>
          <path class="cls-42" d="M636.72,259.08h0a10.09,10.09,0,0,0-13.17-5.46l-12.27,5.09a.88.88,0,0,0-.48,1.16l7,17a.89.89,0,0,0,1.16.48l12.27-5.08A10.09,10.09,0,0,0,636.72,259.08Z"/>
        </g>
        <path class="cls-3" d="M940.74-75,929.62-86.1a2.64,2.64,0,0,0-3.72,0L875.78-36a2.64,2.64,0,0,0,0,3.72L914.84,6.8a2.64,2.64,0,0,0,3.73,0l50.12-50.11a2.66,2.66,0,0,0,0-3.73L957.57-58.15"/>
        <path class="cls-44" d="M752.77,114.11l-15.61,15.61a2.47,2.47,0,0,1-3.5,0l-3.39-3.39a2.47,2.47,0,0,1,0-3.5L746,107.14a34.33,34.33,0,0,1,.29-48.55l6.52,6.53A34.64,34.64,0,0,1,752.77,114.11ZM809.4,107a34.66,34.66,0,0,1-46.32,2.41,39.7,39.7,0,0,0,5.32-18.22,34.63,34.63,0,0,1,34,8.81Z"/>
        <path class="cls-45" d="M952.42,226.1a1.27,1.27,0,0,1,0,1.82l-5.51,5.49a1.29,1.29,0,0,1-1.83,0l-1.81-1.8-39.92,39.82a16.75,16.75,0,0,1-24.51-.94c-5.79-6.72-4.77-17,1.52-23.25L919.64,208l-1.81-1.8a1.29,1.29,0,0,1,0-1.83l5.51-5.5a1.3,1.3,0,0,1,1.83,0l27.25,27.19Zm-14.61.42-12.72-12.68-24,23.93h25.44Z"/>
        <path class="cls-8" d="M739.65-50.39,764.27-75a4.86,4.86,0,0,1,6.86-.17l1.77-1.77a2.47,2.47,0,0,1,3.49,0l7.11,7.11a2.47,2.47,0,0,1,0,3.49l-1.77,1.77a4.86,4.86,0,0,1-.17,6.86L756.94-33.1a4.94,4.94,0,0,1-7,0l-1.54-1.54L746.83-33a2.46,2.46,0,0,1-3.48,0L739-37.36a2.46,2.46,0,0,1,0-3.48l1.61-1.6-1-1A4.94,4.94,0,0,1,739.65-50.39Zm18.89,64.2a3.17,3.17,0,0,1-3.76.28L702.5-38.19a3.19,3.19,0,0,1,.28-3.77,7.4,7.4,0,0,1,10.45,0l29.63,29.63a19.73,19.73,0,0,0,27.88,0,19.73,19.73,0,0,0,0-27.88l7-7a29.6,29.6,0,0,1,0,41.82A29.42,29.42,0,0,1,758.4,3.21l.14.14A7.39,7.39,0,0,1,758.54,13.81Zm-36-54.89,1.6-1.61a1.24,1.24,0,0,1,1.75,0l22.79,22.8a1.23,1.23,0,0,1,0,1.74l-1.6,1.6a1.24,1.24,0,0,1-1.75,0L722.54-39.34A1.23,1.23,0,0,1,722.54-41.08Z"/>
      </g>
      <g>
        <g>
          <path class="cls-46" d="M206.65,28.91l7.6-7.6a7.67,7.67,0,0,0,1-1.26,18.26,18.26,0,0,0-1.18,4.42,13.27,13.27,0,0,0,.62,6.41l-5.59,5.59A19.88,19.88,0,0,1,206.65,28.91Z"/>
          <path class="cls-17" d="M199.32,34.94a.92.92,0,0,0,1.3,0l13.27-13.27a7.94,7.94,0,0,0,0-11.22l-14.4-14.4a8,8,0,0,0-11.22,0L175,9.29a.93.93,0,0,0,0,1.31Z"/>
          <path class="cls-18" d="M191-1.19,177.76,12.08a1,1,0,0,0,.05,1.36L175,10.6a.93.93,0,0,1,0-1.31L188.24-4c3.09-3.08,8.33-2.86,11.68.49l.59.59-.78.2A7.93,7.93,0,0,0,191-1.19Z"/>
          <g>
            <path class="cls-19" d="M214,9.4a1.29,1.29,0,0,1,1,2.23l-2.45,2.45Z"/>
            <path class="cls-19" d="M211,14.49,204.55,21a4.37,4.37,0,0,0-1.67-1.67L205.15,17l2-.32a.56.56,0,0,0,.38-.25.52.52,0,0,0,0-.44L207.22,15l1.33-1.33,2.27.83A.76.76,0,0,0,211,14.49Z"/>
          </g>
          <g>
            <path class="cls-46" d="M199.88,31.22,204.11,27c2.69-2.7,1.35-7.95-4-8.27a2.49,2.49,0,0,0-1.88.74l-5.06,5.06a.66.66,0,0,0,0,.94l1.06,1.06a1.3,1.3,0,0,0,1.58.24,1.28,1.28,0,0,0,.38-1.92L199.09,22a2,2,0,0,1,3.1.19,2.09,2.09,0,0,1-.33,2.61L199,27.64a1.28,1.28,0,0,0-1.91.38,1.31,1.31,0,0,0,.23,1.58l1.62,1.62A.66.66,0,0,0,199.88,31.22Z"/>
            <ellipse class="cls-46" cx="184.75" cy="11.74" rx="2.58" ry="2.57" transform="translate(45.81 134.08) rotate(-45)"/>
          </g>
          <path class="cls-19" d="M187.37,13.63a3.55,3.55,0,1,1-1-5.72l8.44-8.44.9,2.45-.86.85-1.79-.57a.54.54,0,0,0-.45,0,.55.55,0,0,0-.24.38l-.52,3.15-3.81,3.81A3.57,3.57,0,0,1,187.37,13.63Zm-1.71-1a1.29,1.29,0,1,0-1.82,0A1.28,1.28,0,0,0,185.66,12.65Z"/>
          <g>
            <path class="cls-20" d="M212.29,14a.81.81,0,0,1-1.07.53l-3.49-1.27c-.45-.17-.7.07-.55.53l.71,2.23a.74.74,0,0,1-.6,1l-11.08,1.81a.64.64,0,0,1-.52-.11L209.9,4.48a13.49,13.49,0,0,0,3.93,1.82,1.62,1.62,0,0,1,.35,1.43Z"/>
            <path class="cls-20" d="M205.88-.42,191.4,14.05a.61.61,0,0,1-.11-.51L193.1,2.45a.73.73,0,0,1,1-.59l2.23.71c.46.14.7-.11.53-.56l-1.27-3.49a.81.81,0,0,1,.53-1.07l6.26-1.88a1.62,1.62,0,0,1,1.46.36L204.86-3A13.94,13.94,0,0,0,205.88-.42Z"/>
          </g>
          <polygon class="cls-21" points="184.91 19.42 189.93 24.44 209.45 4.92 204.43 -0.1 184.91 19.42"/>
          <g>
            <path class="cls-22" d="M210.11,4.26l-2.89,2.89-5-5L205.38-1A14,14,0,0,0,208,2.49,14.78,14.78,0,0,0,210.11,4.26Z"/>
            <path class="cls-22" d="M233.47,3.21l-3.42,3.42a2.31,2.31,0,0,1-3.28,0L224.84,4.7a12.91,12.91,0,0,0,2.23-1.78l4.68-4.69L233.47,0A2.31,2.31,0,0,1,233.47,3.21Z"/>
          </g>
          <path class="cls-24" d="M227.34,2.65l5.86-5.86c5.43-5.43,2.8-11.54-2.59-16.93h0c-5.39-5.39-11.5-8-16.93-2.59l-5.86,5.86a13.85,13.85,0,0,0-.08,19.6h0a13.85,13.85,0,0,0,19.6-.08Z"/>
          <g class="cls-16">
            <path d="M210.15,5.16a15.08,15.08,0,0,1-1.48-1.31c-6-5.95-6.34-15.22-.86-20.7l5.9-5.91c5.48-5.48,12.06-2.4,18,3.55.47.48.93.95,1.36,1.43-5.57-5-11.55-7.24-16.59-2.19l-5.9,5.9C205.55-9,205.48-.77,210.15,5.16Z"/>
          </g>
          <path class="cls-26" d="M217.39.54a.75.75,0,0,0,0-1.06l-5.78-5.77a.75.75,0,0,0-1.06,0,4.83,4.83,0,0,0,0,6.83A4.83,4.83,0,0,0,217.39.54Z"/>
          <path class="cls-27" d="M241.58,50.86,229,63.42a.86.86,0,0,1-1.22,0L205,40.66a.85.85,0,0,1,0-1.21l12.55-12.56a7.44,7.44,0,0,1,10.48,0l2.84,2.84a12.09,12.09,0,0,0,2.62,3.93,12.43,12.43,0,0,0,3.94,2.63l4.11,4.11A7.39,7.39,0,0,1,241.58,50.86Z"/>
          <path class="cls-18" d="M220.9,30.27,208.39,42.79a.86.86,0,0,0,0,1.23l-3.51-3.5a.67.67,0,0,1,0-.93l14-14a5.64,5.64,0,0,1,7.94,0l4.25,4.26,0,.06A7.52,7.52,0,0,0,220.9,30.27Z"/>
          <g>
            <path class="cls-22" d="M231.69,18.25l-.78-.79a3.55,3.55,0,0,1,.55-5.48,3.65,3.65,0,0,1,4.57.56l.19.19-1.91,1.91A14.64,14.64,0,0,0,231.69,18.25Z"/>
            <path class="cls-22" d="M255.92,36.44a3.54,3.54,0,0,1-5.47.56l-.79-.79a14.53,14.53,0,0,0,3.61-2.61l1.9-1.91.19.19A3.64,3.64,0,0,1,255.92,36.44Z"/>
            <path class="cls-22" d="M230.92,29.74l.18.18a12.06,12.06,0,0,0,6.53,6.53l.17.17-8.52,2.77c-.92.31-1.43-.2-1.13-1.13Z"/>
          </g>
          <path class="cls-47" d="M259.59.28a.68.68,0,0,1,1,0L267.27,7a.69.69,0,0,1,0,1,6.42,6.42,0,0,1-4.59,1.91A12.83,12.83,0,0,0,260.52,7a13.14,13.14,0,0,0-2.85-2.16A6.37,6.37,0,0,1,259.59.28Z"/>
          <path class="cls-18" d="M259.59.28a.68.68,0,0,1,1,0l2.56,2.57a.67.67,0,0,0-1,0,6.45,6.45,0,0,0-1.9,3.93,12.92,12.92,0,0,0-2.59-1.91A6.37,6.37,0,0,1,259.59.28Z"/>
          <path class="cls-24" d="M256.29,30.57l-2.51,2.52c-5.37,5.37-14.45,6-19.69.72s-4.64-14.31.73-19.68l2.51-2.51Z"/>
          <g class="cls-16">
            <path d="M236,35.48a13.91,13.91,0,0,1-1.49-1.29,14.83,14.83,0,0,1-.21-20.62l2.51-2.51,2.79,2.79-2.51,2.51A14.82,14.82,0,0,0,236,35.48Z"/>
          </g>
          <g>
            <path class="cls-25" d="M241.45,28.56a1.18,1.18,0,0,0,0-1.67l-.22-.22,1.38-1.37a1.18,1.18,0,0,0-1.68-1.67l-1.63,1.63a2,2,0,0,0-.05,2.77l.53.53A1.18,1.18,0,0,0,241.45,28.56Z"/>
            <path class="cls-25" d="M237.94,21.05l1.25-1.25a1.18,1.18,0,0,0-1.68-1.67l-1.25,1.24a1.19,1.19,0,0,0,1.68,1.68Z"/>
            <path class="cls-25" d="M247.42,30.53l1.25-1.25A1.19,1.19,0,0,0,247,27.6l-1.25,1.25a1.19,1.19,0,1,0,1.68,1.68Z"/>
            <path class="cls-25" d="M240.38,33.44a1.29,1.29,0,1,0,0-2.57,4.28,4.28,0,0,1-4.27-4.28,1.29,1.29,0,0,0-2.58,0,6.86,6.86,0,0,0,6.85,6.85Z"/>
          </g>
          <path class="cls-44" d="M240.16,6.75c6.47-5.27,15.42-5.44,20.74-.11s5.16,14.27-.11,20.74a2.72,2.72,0,0,0-.4-.51L240.67,7.15A2.72,2.72,0,0,0,240.16,6.75Z"/>
          <path class="cls-18" d="M240.16,6.75c6.47-5.27,15.42-5.44,20.74-.11A12.36,12.36,0,0,1,262.12,8c-5.38-4-13.35-3.51-19.28,1.28l-2.17-2.17A2.72,2.72,0,0,0,240.16,6.75Z"/>
          <path class="cls-47" d="M259.84,31.49l.71-.71a2.67,2.67,0,0,0,0-3.76L240.88,7.36a2.66,2.66,0,0,0-3.75,0l-.71.7a2.67,2.67,0,0,0,0,3.76l19.67,19.67A2.66,2.66,0,0,0,259.84,31.49Z"/>
          <g class="cls-16">
            <path d="M238.8,14.2l-2.94-2.94a2.66,2.66,0,0,1,0-3.75l.71-.71a2.66,2.66,0,0,1,3.75,0l3,2.94a2.84,2.84,0,0,0-4-.08l-.56.56A2.83,2.83,0,0,0,238.8,14.2Z"/>
          </g>
          <path class="cls-26" d="M226.89,54.71a3.1,3.1,0,0,0,1-.23l2.15-2.16,2.14,2.14s.53.17,1,.28l1.84-1.84a4.45,4.45,0,0,1-.08-1.23l-2.13-2.14,2-2s.15-.56-.13-.67l-1.84-1.85c-.12-.27-.44-.27-.82-.27l-2.52,2.51-2-2s-.18-.54-.26-.23l-1.84,1.84c-.31.08-.31.4-.13.62l2.54,2.54-2.15,2.16s-.57.14-.65.62Z"/>
          <path class="cls-20" d="M205.88-.42,191.4,14.05a.61.61,0,0,1-.11-.51L193.1,2.45a.73.73,0,0,1,1-.59l2.23.71c.46.14.7-.11.53-.56l-1.27-3.49a.81.81,0,0,1,.53-1.07l6.26-1.88a1.62,1.62,0,0,1,1.46.36L204.86-3A13.94,13.94,0,0,0,205.88-.42Z"/>
        </g>
        <g>
          <circle class="cls-41" cx="79.06" cy="47.24" r="2.43"/>
          <g>
            <circle class="cls-48" cx="89.25" cy="50.03" r="2.31"/>
            <circle class="cls-48" cx="82.07" cy="36.63" r="2.31"/>
          </g>
          <circle class="cls-41" cx="91" cy="40.95" r="2.92"/>
          <circle class="cls-49" cx="82.07" cy="57.17" r="3.12"/>
          <path class="cls-41" d="M83.44-4.8h0a10.08,10.08,0,0,1-.83,14.23L72,18.86,58.63,3.8,69.21-5.62A10.09,10.09,0,0,1,83.44-4.8Z"/>
          <path class="cls-50" d="M47.22,27.46h0a10.09,10.09,0,0,0,14.23.82L72,18.86,58.63,3.8,48,13.23A10.09,10.09,0,0,0,47.22,27.46Z"/>
          <path class="cls-18" d="M83.44-4.8a10.08,10.08,0,0,1-.83,14.23L61.45,28.28A10.08,10.08,0,1,1,48.16,13.13L50,11.52c-.9,5.34,4.68,12,11.07,9.34,4.18-1.71,12.16-7.34,18.41-12.56a2.17,2.17,0,0,0,.44-2.82L76.55.14a10.09,10.09,0,0,1-1.09-8.3,10.07,10.07,0,0,1,8,3.36Z"/>
          <path class="cls-42" d="M82.34-17h0a10.08,10.08,0,0,1,13.89,3.22l7.5,12L86.63,8.87l-7.5-12A10.08,10.08,0,0,1,82.34-17Z"/>
          <path class="cls-43" d="M108,24.1h0a10.07,10.07,0,0,0,3.22-13.88l-7.51-12L86.63,8.87l7.51,12A10.07,10.07,0,0,0,108,24.1Z"/>
          <path class="cls-18" d="M108,24.1a10.07,10.07,0,0,1-13.88-3.21l-15-24A10.08,10.08,0,0,1,82.34-17h0l0,0c-.7,9.87,14.92,38.47,26.9,40.24a10.12,10.12,0,0,1-1.27.93Z"/>
          <path class="cls-49" d="M59.72,23.13h0a10.08,10.08,0,0,1,13.17-5.45l12.27,5.08a.88.88,0,0,1,.48,1.16l-7,17a.88.88,0,0,1-1.16.48L65.18,36.3A10.08,10.08,0,0,1,59.72,23.13Z"/>
          <path class="cls-18" d="M77.45,41.38,65.18,36.3a10.08,10.08,0,0,1-5.46-13.17h0a10.29,10.29,0,0,1,2.39-3.47C61,25.4,65.85,34,80.34,36.72L78.61,40.9A.88.88,0,0,1,77.45,41.38Z"/>
          <path class="cls-42" d="M111.72,23.13h0a10.08,10.08,0,0,0-13.17-5.45L86.28,22.76a.88.88,0,0,0-.48,1.16l7,17a.88.88,0,0,0,1.16.48l12.27-5.08A10.08,10.08,0,0,0,111.72,23.13Z"/>
        </g>
        <path class="cls-45" d="M427.42-9.84a1.26,1.26,0,0,1,0,1.81l-5.51,5.5a1.3,1.3,0,0,1-1.83,0l-1.81-1.8L378.35,35.48a16.75,16.75,0,0,1-24.51-.94c-5.79-6.72-4.77-17,1.52-23.25l39.28-39.2-1.81-1.8a1.29,1.29,0,0,1,0-1.83L398.34-37a1.29,1.29,0,0,1,1.83,0L427.42-9.84Zm-14.61.42L400.09-22.11l-24,23.93h25.44Z"/>
      </g>
    </pattern>
  </defs>
  <title>featureImage</title>
  <rect class="cls-51" width="1366" height="768"/>
</svg>
