<svg xmlns="http://www.w3.org/2000/svg" viewBox="0 0 866.62 368.03"><defs><style>.cls-1{fill:#c6c6c6;}.cls-2,.cls-8{fill:#fff;}.cls-3{fill:#f99569;}.cls-12,.cls-13,.cls-15,.cls-17,.cls-18,.cls-19,.cls-20,.cls-3,.cls-4,.cls-6,.cls-8{stroke:#000;stroke-miterlimit:10;}.cls-4{fill:#3dc4b4;}.cls-5{fill:#57d3c1;}.cls-6{fill:#e07b20;}.cls-7{fill:#f48b34;}.cls-20,.cls-9{fill:none;}.cls-9{stroke:#34aac2;stroke-linecap:round;stroke-linejoin:round;stroke-width:0;}.cls-10{fill:#34aac2;}.cls-11{fill:#ff7a7b;}.cls-12{fill:#f28920;}.cls-13{fill:#16b525;}.cls-14{fill:#3ac945;}.cls-15{fill:#1f87c1;}.cls-16,.cls-17{fill:#2292dd;}.cls-18{fill:#e0e0e0;}.cls-19{fill:#fbc8a2;}</style></defs><title>handMedicine_1</title><g id="Layer_2" data-name="Layer 2"><g id="Layer_1-2" data-name="Layer 1"><g id="handMedicine"><rect class="cls-1" x="0.5" y="193" width="238" height="123"/><path d="M238,193.5v122H1v-122H238m1-1H0v124H239v-124Z"/><rect class="cls-2" x="0.5" y="69" width="238" height="123"/><path d="M238,69.5v122H1V69.5H238m1-1H0v124H239V68.5Z"/><ellipse class="cls-3" cx="784.99" cy="160.83" rx="28.32" ry="12.09" transform="translate(-9.49 56.55) rotate(-4.1)"/><path class="cls-4" d="M650.41,7.8c4.34-9.73,15.18-9.73,19.51,0l7.75,17.4,17.5,39.3h-70l17.5-39.3Z"/><path class="cls-5" d="M652.32,9.35c3.49-9.13,12.21-9.13,15.7,0l6.23,16.3L688.33,62.5H632l14.08-36.85Z"/><path class="cls-6" d="M588.08,150.28V263.81a26.77,26.77,0,0,0,26.69,26.69h87.39a29.52,29.52,0,0,0,29.43-29.44V151.64a21.86,21.86,0,0,0-15.26-20.84l-11.2-3.54a14.75,14.75,0,0,1-10.3-14.06V98.8a1.38,1.38,0,0,0-1.38-1.38H626.62a1.37,1.37,0,0,0-1.37,1.38v16.46a11.85,11.85,0,0,1-8.36,11.32l-14.65,4.52A20.06,20.06,0,0,0,588.08,150.28Z"/><path class="cls-7" d="M608,150.28V263.81c0,14.68,8.93,26.69,19.84,26.69h64.95c12,0,21.88-13.25,21.88-29.44V151.64c0-9.53-4.59-18-11.35-20.84L695,127.26c-4.56-1.94-7.65-7.63-7.65-14.06V98.8c0-.76-.46-1.38-1-1.38H636.65c-.56,0-1,.62-1,1.38v16.46c0,5.2-2.52,9.78-6.21,11.32l-10.9,4.52C612.27,133.69,608,141.47,608,150.28Z"/><rect class="cls-4" x="612.67" y="62" width="95" height="35.42"/><rect class="cls-5" x="616.5" y="65.42" width="87.33" height="28.58"/><ellipse class="cls-3" cx="812.73" cy="186.69" rx="53.5" ry="24.2" transform="translate(-11.27 58.6) rotate(-4.1)"/><path class="cls-8" d="M696.57,220.12a13.77,13.77,0,0,1,12.22-1.32,425.75,425.75,0,0,1,74.61-24.27l.28-36.92a16.21,16.21,0,0,0-16-16.19l-82.1-.56a16.2,16.2,0,0,0-16.18,16L668.88,221a160.52,160.52,0,0,1,23.85,2.75A13.47,13.47,0,0,1,696.57,220.12Zm37.57-34.7a.51.51,0,0,1,.24.35A.51.51,0,0,0,734.14,185.42Zm23.37-14.62c-.1-.09-.13-.27-.24-.35C757.38,170.53,757.41,170.71,757.51,170.8Zm-19-4.1A13.68,13.68,0,0,1,757,170.1h0c.11.08.14.26.24.35s.14.26.24.35a13.74,13.74,0,0,1-23,14.87c-.11-.08-.13-.27-.24-.35h0A.53.53,0,0,1,734,185h0A13.77,13.77,0,0,1,738.55,166.7Zm-48.72,21.19a.54.54,0,0,1,.24.35A.54.54,0,0,0,689.83,187.89Zm.08-.1c-.11-.08-.14-.27-.24-.35h0a13.74,13.74,0,0,1,23.05-14.87c.11.08.13.27.24.35s.13.27.24.35a13.74,13.74,0,0,1-23.05,14.87C690,188.06,690,187.87,689.91,187.79Z"/><path class="cls-9" d="M734.38,185.77a.51.51,0,0,0-.24-.35"/><path class="cls-9" d="M757.27,170.45c.11.08.14.26.24.35"/><path class="cls-10" d="M757,170.1h0A13.74,13.74,0,0,0,734,185Z"/><path class="cls-11" d="M752.94,189.06a13.76,13.76,0,0,0,4.57-18.26l-23,14.87A13.67,13.67,0,0,0,752.94,189.06Z"/><path class="cls-11" d="M734.22,185.32c-.11-.09-.13-.27-.24-.35A.53.53,0,0,0,734.22,185.32Z"/><path class="cls-11" d="M734,185h0c.11.08.13.26.24.35h0c.11.08.13.27.24.35l23-14.87c-.1-.09-.13-.27-.24-.35s-.13-.27-.24-.35h0Z"/><path class="cls-9" d="M690.07,188.24a.54.54,0,0,0-.24-.35"/><path class="cls-12" d="M637,249.91a32.69,32.69,0,0,1-32.59,32.59h0"/><path class="cls-13" d="M459.71,102h88.4a27.64,27.64,0,0,1,27.64,27.64V251.91a32.59,32.59,0,0,1-32.59,32.59H462.09a29.85,29.85,0,0,1-29.85-29.85V129.47A27.47,27.47,0,0,1,459.71,102Z"/><path class="cls-14" d="M466,106.5h75.88a27.64,27.64,0,0,1,27.64,27.64V247.4A32.59,32.59,0,0,1,536.91,280H468.35a29.85,29.85,0,0,1-29.85-29.85V134A27.47,27.47,0,0,1,466,106.5Z"/><rect class="cls-8" x="425" y="75.5" width="158" height="45.92"/><path class="cls-15" d="M573.19,183.94h18.46a27.64,27.64,0,0,1,27.64,27.64v33.33a32.59,32.59,0,0,1-32.59,32.59H575.56a29.85,29.85,0,0,1-29.85-29.85V211.41A27.47,27.47,0,0,1,573.19,183.94Z"/><path class="cls-16" d="M576.39,186.25h12a27.64,27.64,0,0,1,27.64,27.64V242.6a32.59,32.59,0,0,1-32.59,32.59h-4.71a29.85,29.85,0,0,1-29.85-29.85V213.72A27.47,27.47,0,0,1,576.39,186.25Z"/><rect class="cls-8" x="542" y="170.35" width="81" height="23.54"/><path class="cls-10" d="M694.24,169.17a13.77,13.77,0,0,0-4.57,18.27l23.05-14.87A13.69,13.69,0,0,0,694.24,169.17Z"/><path class="cls-11" d="M708.63,191.53a13.76,13.76,0,0,0,4.57-18.26l-23.05,14.87A13.67,13.67,0,0,0,708.63,191.53Z"/><path class="cls-11" d="M713,172.92c-.11-.08-.13-.27-.24-.35l-23.05,14.87h0c.1.08.13.27.24.35s.13.27.24.35l23.05-14.87C713.09,173.19,713.07,173,713,172.92Z"/><path class="cls-17" d="M481.48,176.53h26a14.15,14.15,0,0,1,14.15,14.15v34.63a28.29,28.29,0,0,1-28.29,28.29h0a25.91,25.91,0,0,1-25.91-25.91V190.53a14,14,0,0,1,14-14Z"/><rect class="cls-18" x="463" y="165.09" width="63.15" height="19.39"/><path class="cls-10" d="M696.57,220.12a13.47,13.47,0,0,0-3.84,3.67c1.11.22,2.21.46,3.27.71q6.39-3,12.79-5.7A13.77,13.77,0,0,0,696.57,220.12Z"/><path class="cls-10" d="M738.24,286.05c0-.06,0-.08,0-.12h0A.41.41,0,0,0,738.24,286.05Z"/><path class="cls-10" d="M761.11,270.9a.92.92,0,0,0,.19.28,1.17,1.17,0,0,0-.24-.35s0,0,0,0Z"/><path class="cls-11" d="M760.88,270.5a.41.41,0,0,1-.09-.21A.41.41,0,0,0,760.88,270.5Z"/><path class="cls-11" d="M761,270.64a.66.66,0,0,1-.15-.14A.66.66,0,0,0,761,270.64Z"/><path class="cls-3" d="M715.68,289Q726,284.27,736,279.65q11.93-5.55,23.22-10.95,12.28-5.86,23.72-11.57c35.21-17.53,64-33.64,83.07-47.63-1.89-15.38-15.94-22.68-42-22q-20.36,2.49-40.6,7a425.75,425.75,0,0,0-74.61,24.27q-6.4,2.74-12.79,5.7c-1.06-.25-2.16-.49-3.27-.71A160.52,160.52,0,0,0,668.88,221c-22.82-1.13-50.63.74-79.88,3.46-25.11.76-52.34-5-81-15-54.56-73.43-137.39-112.42-269-92v166c78.82,8.11,140.93,42.26,190,62,49.77,20,86.1,25.53,110,20,45.32-19.12,90.06-38.11,131.68-56.42Q688,301.46,704.55,294Z"/><rect class="cls-19" x="645.78" y="234.42" width="58.41" height="40.94" rx="12" transform="translate(-28.53 94.75) rotate(-7.86)"/><path class="cls-20" d="M451.5,279s31.75,17.73,59.56,19.08c33.56,1.63,70.85,3.42,71.94,3.42,1.31,0,46.6-6.47,77.55-10.91a124.85,124.85,0,0,0,52.23-20.17h0c2-1.39,3.53-3.95,4.6-6.75a28.76,28.76,0,0,0,.24-19.31h0A26,26,0,0,0,706,230.06L695.5,224"/></g></g></g></svg>