<svg xmlns="http://www.w3.org/2000/svg" viewBox="0 0 1366 768">
  <defs>
    <style>
      .cls-1 {
        fill: #3c85c4;
      }

      .cls-2, .cls-4, .cls-7 {
        fill: none;
      }

      .cls-2, .cls-4, .cls-5, .cls-7, .cls-8 {
        stroke: #fff;
        stroke-miterlimit: 10;
      }

      .cls-2, .cls-4, .cls-5 {
        stroke-width: 2px;
      }

      .cls-2, .cls-3 {
        opacity: 0.5;
      }

      .cls-5, .cls-6, .cls-8 {
        fill: #fff;
      }

      .cls-9 {
        opacity: 0.28;
      }
    </style>
  </defs>
  <title>mythTwobg</title>
  <g id="Layer_2" data-name="Layer 2">
    <g id="Layer_1-2" data-name="Layer 1">
      <rect class="cls-1" width="1366" height="768"/>
      <circle id="circle" class="cls-2" cx="896" cy="621" r="79"/>
      <g id="test_sample" data-name="test sample" class="cls-3">
        <circle class="cls-4" cx="714" cy="392" r="79"/>
        <circle class="cls-4" cx="713.5" cy="392.5" r="88.5"/>
        <path class="cls-5" d="M695,341l-2,64s-5,8-15-1V345h-3v-5S697,337,695,341Z"/>
        <path class="cls-4" d="M717,362V339h-3v-6h22v6h-2l1,23s30.5,22.5,0,53H719S684,392,717,362Z"/>
        <polygon class="cls-5" points="703.16 384.2 748.33 384.2 747.71 380.97 703.89 380.97 703.16 384.2"/>
        <polygon class="cls-5" points="706.31 375.14 745.59 375.14 746.74 377.84 705.02 377.84 706.31 375.14"/>
        <g>
          <path class="cls-6" d="M699.3,428.16v8.54a.54.54,0,0,0,.31.52,3.21,3.21,0,0,0,1,.23c.12,0,.18.09.18.26a1.39,1.39,0,0,1,0,.27l-1.08-.05c-.38,0-.76,0-1.15,0l-1.14,0-1.1.05a1.39,1.39,0,0,1,0-.27c0-.15.05-.23.16-.26a3.71,3.71,0,0,0,1-.24.51.51,0,0,0,.32-.51v-8.54h-1.65a3.12,3.12,0,0,0-.81.09,1.85,1.85,0,0,0-.56.29,1.89,1.89,0,0,0-.42.5c-.12.2-.24.44-.37.7a.16.16,0,0,1-.1.11.27.27,0,0,1-.14,0,.49.49,0,0,1-.3-.1q.15-.57.24-1c0-.3.1-.55.14-.75a2.72,2.72,0,0,1,.14-.45.23.23,0,0,1,.23-.16h.32l.44,0,.47,0h6.23l.48,0,.44,0h.32a.25.25,0,0,1,.24.16,3.45,3.45,0,0,1,.13.48c0,.2.09.45.14.75a6.53,6.53,0,0,0,.25,1l-.16.06a.27.27,0,0,1-.16,0,.31.31,0,0,1-.15,0,.17.17,0,0,1-.11-.11,7.59,7.59,0,0,0-.35-.7,2.07,2.07,0,0,0-.41-.5,1.74,1.74,0,0,0-.56-.29,3.12,3.12,0,0,0-.81-.09Z"/>
          <path class="cls-6" d="M707.26,428.16v4.09h2.49a.47.47,0,0,0,.46-.31,3.31,3.31,0,0,0,.21-.76.27.27,0,0,1,.29-.21l.13,0,.13,0c0,.24,0,.5-.06.8s0,.56,0,.79,0,.4,0,.66,0,.56.07.89l-.24,0a.28.28,0,0,1-.31-.21,3.31,3.31,0,0,0-.21-.76.47.47,0,0,0-.46-.31h-2.49v3.78c0,.22.14.37.43.44a5.91,5.91,0,0,0,1.42.12H710a2.21,2.21,0,0,0,.81-.14,2,2,0,0,0,.61-.37,2.83,2.83,0,0,0,.47-.55,7.59,7.59,0,0,0,.4-.7c0-.08.11-.11.24-.11a.38.38,0,0,1,.17,0l.17.1a3.44,3.44,0,0,0-.25.73l-.2.8a6.79,6.79,0,0,1-.2.66q-.11.27-.27.27h-.36l-.52,0-.57,0-.5,0h-3.5l-1,0-1,.05a1.38,1.38,0,0,1,0-.25c0-.15,0-.24.16-.26a3.4,3.4,0,0,0,.87-.24.45.45,0,0,0,.26-.45v-8.14a.46.46,0,0,0-.23-.44,4.07,4.07,0,0,0-.9-.25c-.11,0-.16-.11-.16-.27v-.14l0-.12,1.15.07h4a11.49,11.49,0,0,0,1.25-.05c.35,0,.59,0,.71,0s.23.08.28.26.08.39.12.63.06.51.11.79a1.81,1.81,0,0,0,.24.7.51.51,0,0,1-.29.1.26.26,0,0,1-.27-.15c-.13-.27-.25-.51-.37-.71a1.81,1.81,0,0,0-.41-.49,1.74,1.74,0,0,0-.56-.29,3.12,3.12,0,0,0-.81-.09Z"/>
          <path class="cls-6" d="M721,430a1,1,0,0,1-.24,0,.52.52,0,0,1-.31-.08.73.73,0,0,1-.14-.18,3.33,3.33,0,0,0-1-1.33,2.71,2.71,0,0,0-1.57-.41,2.48,2.48,0,0,0-.73.1,1.88,1.88,0,0,0-.6.3,1.76,1.76,0,0,0-.41.49,1.37,1.37,0,0,0-.15.64,1.48,1.48,0,0,0,.63,1.23,8.53,8.53,0,0,0,1.87,1,6.65,6.65,0,0,1,2.26,1.35,2.51,2.51,0,0,1,.73,1.83,3.78,3.78,0,0,1-.2,1.23,2.56,2.56,0,0,1-.62,1,3,3,0,0,1-1.1.66,4.85,4.85,0,0,1-1.62.24,7.19,7.19,0,0,1-1.8-.2,5,5,0,0,1-1.36-.55c0-.44-.08-.88-.15-1.29s-.14-.84-.22-1.25a.68.68,0,0,1,.27-.05.45.45,0,0,1,.3.09.68.68,0,0,1,.18.28,3.85,3.85,0,0,0,1,1.69,2.59,2.59,0,0,0,1.77.55,2.5,2.5,0,0,0,.9-.15,1.62,1.62,0,0,0,.64-.4,1.78,1.78,0,0,0,.38-.57,1.73,1.73,0,0,0,.13-.69,1.63,1.63,0,0,0-.57-1.31,5.28,5.28,0,0,0-1.62-.86c-.46-.18-.88-.35-1.25-.54a4,4,0,0,1-1-.65,2.53,2.53,0,0,1-.62-.86,2.9,2.9,0,0,1-.21-1.16,3,3,0,0,1,.21-1.11,2.67,2.67,0,0,1,.63-.9,3,3,0,0,1,1-.61,3.55,3.55,0,0,1,1.3-.22,7.48,7.48,0,0,1,1.44.14,11.47,11.47,0,0,1,1.55.48c0,.32,0,.66.09,1A7.72,7.72,0,0,0,721,430Z"/>
          <path class="cls-6" d="M728,428.16v8.54a.53.53,0,0,0,.3.52,3.29,3.29,0,0,0,1,.23c.11,0,.17.09.17.26a1.39,1.39,0,0,1,0,.27l-1.08-.05-1.14,0-1.15,0L725,438a1.47,1.47,0,0,1,0-.27c0-.15.06-.23.16-.26a3.71,3.71,0,0,0,1-.24.5.5,0,0,0,.32-.51v-8.54h-1.64a3.12,3.12,0,0,0-.81.09,1.91,1.91,0,0,0-.57.29,1.89,1.89,0,0,0-.42.5c-.11.2-.24.44-.36.7a.2.2,0,0,1-.11.11.24.24,0,0,1-.13,0,.55.55,0,0,1-.31-.1,9.1,9.1,0,0,0,.24-1c.06-.3.1-.55.15-.75a2.08,2.08,0,0,1,.13-.45.24.24,0,0,1,.23-.16h.32l.44,0,.48,0h6.22l.48,0,.44,0h.33a.24.24,0,0,1,.23.16,3.26,3.26,0,0,1,.14.48c0,.2.08.45.13.75a6.53,6.53,0,0,0,.25,1l-.15.06a.33.33,0,0,1-.17,0,.27.27,0,0,1-.14,0,.19.19,0,0,1-.12-.11,5.7,5.7,0,0,0-.35-.7,1.86,1.86,0,0,0-.41-.5,1.74,1.74,0,0,0-.56-.29,3,3,0,0,0-.8-.09Z"/>
          <path class="cls-6" d="M687.13,449.21a1,1,0,0,1-.24,0,.52.52,0,0,1-.31-.08.59.59,0,0,1-.14-.18,3.33,3.33,0,0,0-1-1.33,2.71,2.71,0,0,0-1.57-.41,2.48,2.48,0,0,0-.73.1,1.88,1.88,0,0,0-.6.3,1.76,1.76,0,0,0-.41.49,1.37,1.37,0,0,0-.15.64,1.51,1.51,0,0,0,.63,1.24,9,9,0,0,0,1.87,1,6.65,6.65,0,0,1,2.26,1.35,2.51,2.51,0,0,1,.73,1.83,3.78,3.78,0,0,1-.2,1.23,2.56,2.56,0,0,1-.62,1,3,3,0,0,1-1.1.67,5.14,5.14,0,0,1-1.62.23,7.19,7.19,0,0,1-1.8-.2,5,5,0,0,1-1.36-.55c0-.44-.08-.88-.15-1.29s-.14-.83-.22-1.25a.68.68,0,0,1,.27-.05.45.45,0,0,1,.3.09.68.68,0,0,1,.18.28,4,4,0,0,0,1,1.7,2.64,2.64,0,0,0,1.77.54,2.74,2.74,0,0,0,.9-.14,1.88,1.88,0,0,0,.64-.4,1.94,1.94,0,0,0,.38-.58,1.73,1.73,0,0,0,.13-.69,1.63,1.63,0,0,0-.57-1.31,5.28,5.28,0,0,0-1.62-.86c-.46-.18-.88-.35-1.25-.54a4.25,4.25,0,0,1-1-.65,2.59,2.59,0,0,1-.62-.85,3.2,3.2,0,0,1,0-2.28,2.67,2.67,0,0,1,.63-.9,3,3,0,0,1,1-.61,3.55,3.55,0,0,1,1.3-.22,7.48,7.48,0,0,1,1.44.14,11.47,11.47,0,0,1,1.55.48c0,.32.05.66.09,1A7.49,7.49,0,0,0,687.13,449.21Z"/>
          <path class="cls-6" d="M694.7,453.29h-3.57l-1,2.58a1,1,0,0,0-.08.32c0,.23.33.39,1,.48a.2.2,0,0,1,.15.09.31.31,0,0,1,0,.17,1.38,1.38,0,0,1,0,.25l-.91-.05-1,0-.65,0-.71.06a1.07,1.07,0,0,1,0-.25.42.42,0,0,1,0-.2.2.2,0,0,1,.17-.09,2.62,2.62,0,0,0,.74-.2.7.7,0,0,0,.36-.38l3.86-9.28c.07-.18.18-.27.3-.27l.2,0,3.87,9.57a.68.68,0,0,0,.43.35,2.71,2.71,0,0,0,.66.18.38.38,0,0,1,.15.09s0,.1,0,.2a1.38,1.38,0,0,1,0,.25l-1-.05-.92,0-1,0-1,.05a1.38,1.38,0,0,1,0-.25.25.25,0,0,1,.06-.2.14.14,0,0,1,.1-.06,3.32,3.32,0,0,0,.67-.18.35.35,0,0,0,.26-.32.49.49,0,0,0-.07-.23Zm-.26-.65L693,448.72l-1.55,3.92Z"/>
          <path class="cls-6" d="M709.4,447c0-.05.05-.09.07-.13a.26.26,0,0,1,.14-.1l.25,0a2.64,2.64,0,0,1,.45,0h.79c.16,0,.32,0,.48,0l.46,0a1.48,1.48,0,0,1,0,.26c0,.17-.05.26-.16.27a1.93,1.93,0,0,0-.77.22.44.44,0,0,0-.19.36l0,.42c0,.27,0,.73.07,1.36l.12,2.54c.05,1.05.1,2.37.17,3.93a.58.58,0,0,0,.2.45,1.87,1.87,0,0,0,.79.24.18.18,0,0,1,.12.09.43.43,0,0,1,0,.17,1.38,1.38,0,0,1,0,.25l-1-.05-.84,0h-.4l-.5,0-.52,0-.45,0a1.38,1.38,0,0,1,0-.25c0-.17,0-.26.16-.26a3.66,3.66,0,0,0,.87-.25A.47.47,0,0,0,710,456s0-.23,0-.59,0-.8-.07-1.33,0-1.08-.08-1.69,0-1.18-.08-1.72-.05-1-.07-1.4,0-.62,0-.71L706.1,457a1,1,0,0,1-.12.21.16.16,0,0,1-.15.07h-.14l-3.92-9c0,.1,0,.36,0,.77s0,.9-.07,1.47,0,1.16-.08,1.79-.07,1.21-.09,1.74,0,1-.07,1.35,0,.55,0,.57c0,.33.36.56,1.09.69.1,0,.16.1.16.26a1.38,1.38,0,0,1,0,.25l-.85-.05-.74,0-.69,0-.81.05a1.38,1.38,0,0,1,0-.25c0-.15,0-.24.16-.26a2.14,2.14,0,0,0,.69-.23.55.55,0,0,0,.3-.46q0-.14,0-.81c0-.44.05-1,.07-1.57s.06-1.25.09-1.94.06-1.31.09-1.89.05-1.06.06-1.44,0-.58,0-.59a.4.4,0,0,0-.2-.37,2.42,2.42,0,0,0-.76-.22c-.11,0-.16-.1-.16-.27a1.48,1.48,0,0,1,0-.26l.47,0,.53,0h.89a2.44,2.44,0,0,1,.44,0,1.2,1.2,0,0,1,.26,0,.3.3,0,0,1,.14.1s.05.08.07.13l3.42,8Z"/>
          <path class="cls-6" d="M716.76,452.59v3.28a.53.53,0,0,0,.35.52,4.23,4.23,0,0,0,1.06.25c.13,0,.19.11.19.27a1.39,1.39,0,0,1,0,.27l-1.06-.05c-.39,0-.82,0-1.28,0l-.94,0-1,.05a1.57,1.57,0,0,1,0-.25c0-.15.06-.24.16-.26a3.14,3.14,0,0,0,.86-.25.46.46,0,0,0,.22-.44v-8.14a.5.5,0,0,0-.25-.46,2.41,2.41,0,0,0-.89-.23c-.11,0-.16-.12-.16-.29a1.12,1.12,0,0,1,0-.24l1,.06,1,0h2.25a3.66,3.66,0,0,1,2.59.82,2.76,2.76,0,0,1,.87,2.11,2.65,2.65,0,0,1-.23,1,3.1,3.1,0,0,1-.67.95,3.46,3.46,0,0,1-1.09.7,3.81,3.81,0,0,1-1.47.27Zm.85-.65a2.68,2.68,0,0,0,1.73-.5,2.07,2.07,0,0,0,.6-1.68,3.49,3.49,0,0,0-.11-.93,1.88,1.88,0,0,0-.38-.76,1.86,1.86,0,0,0-.72-.52,2.82,2.82,0,0,0-1.12-.19h-.85v4.58Z"/>
          <path class="cls-6" d="M725.69,456a.38.38,0,0,0,.24.38,1.48,1.48,0,0,0,.65.12h1.75a2.41,2.41,0,0,0,.8-.12,1.65,1.65,0,0,0,.57-.35,2.19,2.19,0,0,0,.43-.55,5.67,5.67,0,0,0,.33-.74.18.18,0,0,1,.19-.13.38.38,0,0,1,.17,0,1.51,1.51,0,0,1,.18.09c-.07.32-.15.66-.22,1s-.13.76-.18,1.21a.28.28,0,0,1-.1.23.36.36,0,0,1-.19,0,6.21,6.21,0,0,1-.68,0c-.27,0-.51,0-.71,0h-4l-.93,0-1.07.05a1.38,1.38,0,0,1,0-.25c0-.15.05-.24.16-.26a2.88,2.88,0,0,0,.89-.25.45.45,0,0,0,.24-.42v-8.16a.5.5,0,0,0-.22-.46,2.57,2.57,0,0,0-.86-.23.14.14,0,0,1-.12-.09.27.27,0,0,1,0-.16,1.58,1.58,0,0,1,0-.28l1.07.06.9,0,1.15,0,1.09-.06a1.48,1.48,0,0,1,0,.26c0,.18-.06.28-.18.29a3.35,3.35,0,0,0-1,.23.55.55,0,0,0-.33.55Z"/>
          <path class="cls-6" d="M734.62,447.36v4.1h2.49a.47.47,0,0,0,.46-.32,3.17,3.17,0,0,0,.21-.76.27.27,0,0,1,.29-.21l.13,0,.13,0c0,.24,0,.5-.06.8s0,.56,0,.79,0,.4,0,.66,0,.56.07.89l-.24,0a.28.28,0,0,1-.31-.21,3.31,3.31,0,0,0-.21-.76.46.46,0,0,0-.46-.31h-2.49v3.78c0,.22.14.37.43.44a5.91,5.91,0,0,0,1.42.12h.88a2.21,2.21,0,0,0,.81-.14,2,2,0,0,0,.61-.37,2.83,2.83,0,0,0,.47-.55,7.59,7.59,0,0,0,.4-.7c0-.08.11-.11.24-.11a.38.38,0,0,1,.17,0l.17.1a3.44,3.44,0,0,0-.25.73l-.2.8a6.79,6.79,0,0,1-.2.66q-.11.27-.27.27h-.36l-.52,0-.57,0-.5,0h-3.5l-1,0-1,.05a1.38,1.38,0,0,1,0-.25c0-.15,0-.24.16-.26a3.4,3.4,0,0,0,.87-.24.45.45,0,0,0,.26-.45v-8.14a.46.46,0,0,0-.23-.44,4.07,4.07,0,0,0-.9-.25c-.11,0-.16-.11-.16-.27v-.14l0-.12,1.15.07h4a11.49,11.49,0,0,0,1.25-.05c.35,0,.59,0,.71,0s.23.08.28.26.08.39.12.63.07.51.11.79a1.81,1.81,0,0,0,.24.7.45.45,0,0,1-.29.1.26.26,0,0,1-.27-.15c-.13-.27-.25-.51-.37-.71a1.81,1.81,0,0,0-.41-.49,1.55,1.55,0,0,0-.56-.28,2.71,2.71,0,0,0-.81-.1Z"/>
          <path class="cls-6" d="M748.33,449.21a1,1,0,0,1-.24,0,.52.52,0,0,1-.31-.08.59.59,0,0,1-.14-.18,3.33,3.33,0,0,0-1-1.33,2.71,2.71,0,0,0-1.57-.41,2.48,2.48,0,0,0-.73.1,1.88,1.88,0,0,0-.6.3,1.76,1.76,0,0,0-.41.49,1.37,1.37,0,0,0-.15.64,1.51,1.51,0,0,0,.63,1.24,9,9,0,0,0,1.87,1,6.65,6.65,0,0,1,2.26,1.35,2.51,2.51,0,0,1,.73,1.83,3.78,3.78,0,0,1-.2,1.23,2.56,2.56,0,0,1-.62,1,3,3,0,0,1-1.1.67,5.14,5.14,0,0,1-1.62.23,7.19,7.19,0,0,1-1.8-.2,4.88,4.88,0,0,1-1.36-.55c0-.44-.08-.88-.15-1.29s-.14-.83-.22-1.25a.68.68,0,0,1,.27-.05.45.45,0,0,1,.3.09.68.68,0,0,1,.18.28,4,4,0,0,0,1,1.7,2.64,2.64,0,0,0,1.77.54,2.74,2.74,0,0,0,.9-.14,1.88,1.88,0,0,0,.64-.4,1.94,1.94,0,0,0,.38-.58,1.73,1.73,0,0,0,.13-.69,1.63,1.63,0,0,0-.57-1.31,5.28,5.28,0,0,0-1.62-.86c-.46-.18-.88-.35-1.25-.54a3.85,3.85,0,0,1-1-.65,2.59,2.59,0,0,1-.62-.85,3.2,3.2,0,0,1,0-2.28,2.67,2.67,0,0,1,.63-.9,3,3,0,0,1,1-.61,3.55,3.55,0,0,1,1.3-.22,7.48,7.48,0,0,1,1.44.14,11.47,11.47,0,0,1,1.55.48c0,.32,0,.66.09,1A7.49,7.49,0,0,0,748.33,449.21Z"/>
        </g>
      </g>
      <g id="test_subject" data-name="test subject" class="cls-3">
        <circle class="cls-4" cx="447" cy="131" r="79"/>
        <circle class="cls-4" cx="446.5" cy="131.5" r="88.5"/>
        <g>
          <g>
            <circle class="cls-6" cx="429.5" cy="95.5" r="5.5"/>
            <polygon class="cls-6" points="420 100 441 100 441 120 435 120 435 108 435 136 430 136 430 120 429 120 429 136 424 136 424 120 420 120 420 100"/>
          </g>
          <g>
            <circle class="cls-6" cx="468.5" cy="95.5" r="5.5"/>
            <polygon class="cls-6" points="459 100 480 100 480 120 474 120 474 108 474 136 469 136 469 120 468 120 468 136 463 136 463 120 459 120 459 100"/>
          </g>
          <g>
            <circle class="cls-6" cx="447.5" cy="95.5" r="5.5"/>
            <polygon class="cls-6" points="438 100 459 100 459 120 453 120 453 108 453 136 448 136 448 120 447 120 447 136 442 136 442 120 438 120 438 100"/>
          </g>
        </g>
        <g>
          <path class="cls-6" d="M434.71,148.19v8.54a.54.54,0,0,0,.31.52,3.21,3.21,0,0,0,1,.23c.12,0,.18.09.18.26a1.57,1.57,0,0,1,0,.27l-1.08-.06-1.15,0-1.14,0-1.1.06a1.57,1.57,0,0,1,0-.27c0-.15.05-.24.16-.26a3.71,3.71,0,0,0,1-.24.51.51,0,0,0,.32-.51v-8.54h-1.65a3.12,3.12,0,0,0-.81.09,1.64,1.64,0,0,0-1,.79c-.12.2-.24.43-.37.7a.18.18,0,0,1-.1.11.35.35,0,0,1-.14,0,.49.49,0,0,1-.3-.09c.1-.39.18-.73.24-1s.1-.54.14-.74a2.89,2.89,0,0,1,.14-.46.25.25,0,0,1,.23-.16l.32,0,.44,0,.47,0,.45,0h5.34l.44,0,.48,0,.44,0,.32,0a.25.25,0,0,1,.24.17,3.25,3.25,0,0,1,.13.47c0,.21.09.46.14.76a6.83,6.83,0,0,0,.25,1l-.16.06a.38.38,0,0,1-.16,0l-.15,0a.2.2,0,0,1-.11-.11,6.5,6.5,0,0,0-.35-.7,1.89,1.89,0,0,0-.41-.5,1.56,1.56,0,0,0-.56-.29,3.12,3.12,0,0,0-.81-.09Z"/>
          <path class="cls-6" d="M442.67,148.19v4.09h2.49a.46.46,0,0,0,.46-.31,3.31,3.31,0,0,0,.21-.76.27.27,0,0,1,.29-.21l.13,0,.13,0c0,.23,0,.5-.06.8s0,.56,0,.78,0,.41,0,.67,0,.56.07.89l-.24,0a.28.28,0,0,1-.31-.21,3.31,3.31,0,0,0-.21-.76.46.46,0,0,0-.46-.31h-2.49v3.77c0,.23.14.38.43.45a6,6,0,0,0,1.42.11h.88a2,2,0,0,0,1.42-.5,2.83,2.83,0,0,0,.47-.55,7.81,7.81,0,0,0,.4-.71c0-.07.11-.11.24-.11a.41.41,0,0,1,.17,0l.17.1a3.54,3.54,0,0,0-.25.72l-.2.81a6.79,6.79,0,0,1-.2.66q-.11.27-.27.27l-.36,0-.52,0-.57,0a4.62,4.62,0,0,0-.5,0h-3.5l-1,0-1,.06a1.48,1.48,0,0,1,0-.26c0-.15.05-.23.16-.25a4.51,4.51,0,0,0,.87-.24.47.47,0,0,0,.26-.45v-8.14a.45.45,0,0,0-.23-.44,3.57,3.57,0,0,0-.9-.25c-.11,0-.16-.11-.16-.27v-.14l0-.12,1.15.06.83,0H445c.48,0,.9,0,1.25-.05l.71,0c.13,0,.23.09.28.27s.08.38.12.63.07.51.11.78a1.8,1.8,0,0,0,.24.71.5.5,0,0,1-.29.09c-.14,0-.23,0-.27-.14a6.49,6.49,0,0,0-.37-.71,1.81,1.81,0,0,0-.41-.49,1.56,1.56,0,0,0-.56-.29,3.12,3.12,0,0,0-.81-.09Z"/>
          <path class="cls-6" d="M456.38,150l-.24,0a.46.46,0,0,1-.31-.08.55.55,0,0,1-.14-.17,3.33,3.33,0,0,0-1-1.33,2.63,2.63,0,0,0-1.57-.42,2.53,2.53,0,0,0-.73.11,1.88,1.88,0,0,0-.6.3,1.76,1.76,0,0,0-.41.49,1.37,1.37,0,0,0-.15.64,1.47,1.47,0,0,0,.64,1.23,8.19,8.19,0,0,0,1.86,1,6.35,6.35,0,0,1,2.26,1.35,2.51,2.51,0,0,1,.73,1.83,3.78,3.78,0,0,1-.2,1.23,2.63,2.63,0,0,1-.62,1,3,3,0,0,1-1.1.66,4.85,4.85,0,0,1-1.62.24,7.17,7.17,0,0,1-1.8-.21,5,5,0,0,1-1.36-.54c0-.45-.08-.88-.15-1.3s-.14-.83-.22-1.24a.54.54,0,0,1,.27-.05.45.45,0,0,1,.3.09.62.62,0,0,1,.18.28,3.91,3.91,0,0,0,1,1.69,2.64,2.64,0,0,0,1.77.55,2.5,2.5,0,0,0,.9-.15,1.74,1.74,0,0,0,.64-.4,1.78,1.78,0,0,0,.38-.57,1.8,1.8,0,0,0,.13-.69,1.61,1.61,0,0,0-.57-1.31,5.5,5.5,0,0,0-1.62-.87c-.46-.17-.88-.35-1.25-.53a4.36,4.36,0,0,1-1-.65,2.63,2.63,0,0,1-.62-.86,2.9,2.9,0,0,1-.21-1.16,3,3,0,0,1,.21-1.11,2.49,2.49,0,0,1,.63-.9,3,3,0,0,1,1-.61,3.54,3.54,0,0,1,1.3-.23,6.76,6.76,0,0,1,1.44.15,9.18,9.18,0,0,1,1.55.48c0,.32.05.66.09,1A7.72,7.72,0,0,0,456.38,150Z"/>
          <path class="cls-6" d="M463.42,148.19v8.54a.53.53,0,0,0,.3.52,3.29,3.29,0,0,0,1,.23c.11,0,.17.09.17.26a1.57,1.57,0,0,1,0,.27l-1.08-.06-1.14,0-1.15,0-1.09.06a1.76,1.76,0,0,1,0-.27c0-.15.06-.24.16-.26a3.71,3.71,0,0,0,1-.24.5.5,0,0,0,.32-.51v-8.54h-1.64a3.12,3.12,0,0,0-.81.09,1.7,1.7,0,0,0-.57.29,1.74,1.74,0,0,0-.42.5c-.11.2-.24.43-.36.7a.23.23,0,0,1-.11.11l-.13,0a.54.54,0,0,1-.31-.09,9.77,9.77,0,0,0,.24-1c.06-.29.1-.54.15-.74a2.2,2.2,0,0,1,.13-.46.26.26,0,0,1,.23-.16l.32,0,.44,0,.48,0,.44,0h5.35l.43,0,.48,0,.44,0,.33,0a.25.25,0,0,1,.23.17,3.07,3.07,0,0,1,.14.47c0,.21.08.46.13.76a6.83,6.83,0,0,0,.25,1l-.15.06a.47.47,0,0,1-.17,0l-.14,0a.22.22,0,0,1-.12-.11,5.06,5.06,0,0,0-.35-.7,1.72,1.72,0,0,0-.41-.5,1.56,1.56,0,0,0-.56-.29,3,3,0,0,0-.8-.09Z"/>
          <path class="cls-6" d="M418.18,169.24l-.24,0a.46.46,0,0,1-.31-.08.55.55,0,0,1-.14-.17,3.33,3.33,0,0,0-1-1.33,2.63,2.63,0,0,0-1.57-.42,2.48,2.48,0,0,0-.73.11,1.88,1.88,0,0,0-.6.3,1.76,1.76,0,0,0-.41.49,1.37,1.37,0,0,0-.15.64,1.48,1.48,0,0,0,.63,1.23,8.53,8.53,0,0,0,1.87,1,6.35,6.35,0,0,1,2.26,1.35,2.51,2.51,0,0,1,.73,1.83,3.78,3.78,0,0,1-.2,1.23,2.63,2.63,0,0,1-.62,1,3,3,0,0,1-1.1.66,4.85,4.85,0,0,1-1.62.24,7.17,7.17,0,0,1-1.8-.21,5,5,0,0,1-1.36-.54c0-.45-.08-.88-.15-1.3s-.14-.83-.22-1.24a.54.54,0,0,1,.27-.05.45.45,0,0,1,.3.09.62.62,0,0,1,.18.28,3.91,3.91,0,0,0,1,1.69,2.64,2.64,0,0,0,1.77.55,2.5,2.5,0,0,0,.9-.15,1.74,1.74,0,0,0,.64-.4,1.78,1.78,0,0,0,.38-.57,1.8,1.8,0,0,0,.13-.69,1.61,1.61,0,0,0-.57-1.31,5.5,5.5,0,0,0-1.62-.87c-.46-.17-.88-.35-1.25-.53a4.36,4.36,0,0,1-1-.65,2.63,2.63,0,0,1-.62-.86,2.9,2.9,0,0,1-.21-1.16,3,3,0,0,1,.21-1.11,2.49,2.49,0,0,1,.63-.9,3,3,0,0,1,1-.61,3.54,3.54,0,0,1,1.3-.23,6.76,6.76,0,0,1,1.44.15,9.18,9.18,0,0,1,1.55.48c0,.32.05.66.09,1A7.72,7.72,0,0,0,418.18,169.24Z"/>
          <path class="cls-6" d="M429.83,173.24a6.13,6.13,0,0,1-.21,1.66,3.24,3.24,0,0,1-.7,1.29,3.15,3.15,0,0,1-1.29.84,7.23,7.23,0,0,1-4.22-.05,3.06,3.06,0,0,1-1.3-.91,2.87,2.87,0,0,1-.61-1.28,7.36,7.36,0,0,1-.15-1.48v-5.44a.52.52,0,0,0-.23-.47,2.33,2.33,0,0,0-.85-.22c-.1,0-.16-.1-.16-.27a1,1,0,0,1,0-.26l1,.06,1,0,1,0,1-.06a1,1,0,0,1,0,.26c0,.17-.06.26-.16.27a2.83,2.83,0,0,0-.88.22.5.5,0,0,0-.26.47V173a4.27,4.27,0,0,0,.66,2.56,2.65,2.65,0,0,0,2.25.88,4.79,4.79,0,0,0,1.52-.2,2.36,2.36,0,0,0,1-.61,2.54,2.54,0,0,0,.57-1.08,6.16,6.16,0,0,0,.18-1.59v-5a.51.51,0,0,0-.24-.47,2.53,2.53,0,0,0-.87-.22c-.11,0-.17-.1-.17-.27a1.48,1.48,0,0,1,0-.26l.9.06.76,0,.78,0,.78-.06a1.48,1.48,0,0,1,0,.26.33.33,0,0,1-.05.16.18.18,0,0,1-.13.11,2,2,0,0,0-.82.21.53.53,0,0,0-.23.48Z"/>
          <path class="cls-6" d="M437.73,171.58a5.35,5.35,0,0,1,1,.23,3.25,3.25,0,0,1,.93.47,2.33,2.33,0,0,1,.67.76,2.21,2.21,0,0,1,.26,1.08,3.07,3.07,0,0,1-.26,1.27,2.66,2.66,0,0,1-.76.94,3.39,3.39,0,0,1-1.17.59,5.22,5.22,0,0,1-1.52.21h-2.53c-.18,0-.39,0-.62,0l-.64,0-.72,0a.22.22,0,0,1,0-.1.15.15,0,0,1,0-.08V177c0-.15.06-.23.18-.25a4.07,4.07,0,0,0,.86-.25.45.45,0,0,0,.24-.44v-8.14a.54.54,0,0,0-.05-.27.4.4,0,0,0-.19-.17,1,1,0,0,0-.33-.13l-.53-.12c-.12,0-.18-.12-.18-.31a.37.37,0,0,1,0-.12.3.3,0,0,1,0-.1l1,.06.93,0h2a5.21,5.21,0,0,1,1.53.2,2.8,2.8,0,0,1,1,.55,2.28,2.28,0,0,1,.59.81,2.55,2.55,0,0,1,.18,1,2,2,0,0,1-.14.72,2.48,2.48,0,0,1-.4.66,2.62,2.62,0,0,1-.6.54,2.81,2.81,0,0,1-.78.37Zm-2.35-.21a3.17,3.17,0,0,0,2-.5,1.89,1.89,0,0,0,.62-1.56,1.71,1.71,0,0,0-.62-1.45,3.32,3.32,0,0,0-2-.47h-.24v4Zm-.24,4.53a.42.42,0,0,0,.11.29.78.78,0,0,0,.28.17,1.9,1.9,0,0,0,.36.09,2.36,2.36,0,0,0,.37,0,6.2,6.2,0,0,0,1.1-.09,2.33,2.33,0,0,0,.85-.34,1.51,1.51,0,0,0,.54-.65,2.36,2.36,0,0,0,.2-1,2,2,0,0,0-.8-1.74A3.49,3.49,0,0,0,436,172h-.85Z"/>
          <path class="cls-6" d="M443.3,167.87a.49.49,0,0,0-.23-.46,2.73,2.73,0,0,0-.88-.23c-.1,0-.16-.11-.16-.27a1,1,0,0,1,0-.26l1.06.06.92,0,.92,0,1-.06a1.48,1.48,0,0,1,0,.26c0,.17-.06.26-.17.27a2.28,2.28,0,0,0-.81.23.49.49,0,0,0-.22.46v6.92a17.42,17.42,0,0,1-.09,1.92,4.3,4.3,0,0,1-1.33,2.68,12.24,12.24,0,0,1-1.57,1.26.45.45,0,0,1-.21-.34.27.27,0,0,1,.08-.19,4.75,4.75,0,0,0,1.62-3.73Z"/>
          <path class="cls-6" d="M450.29,167.39v4.09h2.5a.46.46,0,0,0,.45-.31,3.86,3.86,0,0,0,.22-.76.26.26,0,0,1,.29-.21l.12,0,.13,0c0,.23,0,.5-.05.8s0,.56,0,.78,0,.41,0,.67,0,.56.06.89a1,1,0,0,1-.24,0,.26.26,0,0,1-.3-.21,3.86,3.86,0,0,0-.22-.76.46.46,0,0,0-.45-.31h-2.5v3.77c0,.23.14.38.43.45a6.08,6.08,0,0,0,1.43.11H453a2.2,2.2,0,0,0,.8-.13,2.07,2.07,0,0,0,.61-.37,2.28,2.28,0,0,0,.47-.55,5.28,5.28,0,0,0,.4-.71.25.25,0,0,1,.24-.11.37.37,0,0,1,.17.05,1,1,0,0,1,.17.1,3.54,3.54,0,0,0-.25.72c-.07.29-.13.56-.2.81a4.81,4.81,0,0,1-.2.66c-.07.18-.16.27-.26.27l-.37,0-.52,0-.57,0a4.54,4.54,0,0,0-.49,0h-3.51l-1,0-1,.06a1.48,1.48,0,0,1,0-.26c0-.15.05-.23.16-.25a4.3,4.3,0,0,0,.87-.24.47.47,0,0,0,.27-.45v-8.14a.44.44,0,0,0-.24-.44,3.44,3.44,0,0,0-.9-.25c-.11,0-.16-.11-.16-.27a.57.57,0,0,1,0-.14.5.5,0,0,1,0-.12l1.15.06.84,0h3.15c.48,0,.89,0,1.25,0l.7-.05c.14,0,.23.09.28.27a3.94,3.94,0,0,1,.12.63c0,.25.07.51.11.78a1.8,1.8,0,0,0,.24.71.48.48,0,0,1-.29.09.26.26,0,0,1-.27-.14,7.57,7.57,0,0,0-.37-.71,1.78,1.78,0,0,0-.4-.49,1.75,1.75,0,0,0-.56-.29,3.12,3.12,0,0,0-.81-.09Z"/>
          <path class="cls-6" d="M462.18,177.32a6.25,6.25,0,0,1-2.35-.41,4.61,4.61,0,0,1-1.68-1.15,4.69,4.69,0,0,1-1-1.71,6.63,6.63,0,0,1-.33-2.12,5.8,5.8,0,0,1,.33-1.9,5.38,5.38,0,0,1,1-1.74,5,5,0,0,1,1.68-1.26,5.25,5.25,0,0,1,2.35-.49l1,0c.29,0,.57,0,.84.08l.78.15c.26.05.52.12.8.2a10.18,10.18,0,0,0,.11,1c.07.42.15.84.26,1.27a.62.62,0,0,1-.26.06.85.85,0,0,1-.23,0,.21.21,0,0,1-.14-.18,2.59,2.59,0,0,0-.91-1.5,3.06,3.06,0,0,0-1.81-.45,4.55,4.55,0,0,0-1.75.32,3.46,3.46,0,0,0-1.28.9,3.6,3.6,0,0,0-.78,1.38,5.67,5.67,0,0,0-.27,1.8,5.77,5.77,0,0,0,.34,2,5.28,5.28,0,0,0,.9,1.6,3.92,3.92,0,0,0,1.33,1,3.64,3.64,0,0,0,1.63.37,4.33,4.33,0,0,0,1.16-.14,2.2,2.2,0,0,0,.78-.39,2.34,2.34,0,0,0,.53-.63,6.29,6.29,0,0,0,.4-.86.41.41,0,0,1,.39-.24l.17,0a.32.32,0,0,1,.13.05c-.12.38-.25.79-.38,1.24a12.43,12.43,0,0,0-.32,1.34c-.52.08-1.06.15-1.6.2S462.83,177.32,462.18,177.32Z"/>
          <path class="cls-6" d="M472.75,167.39v8.54a.52.52,0,0,0,.31.52,3.21,3.21,0,0,0,1,.23c.12,0,.18.09.18.26a1.57,1.57,0,0,1,0,.27l-1.08-.06-1.15,0-1.14,0-1.1.06a1.57,1.57,0,0,1,0-.27c0-.15,0-.24.16-.26a3.71,3.71,0,0,0,1-.24.51.51,0,0,0,.32-.51v-8.54H469.6a3.12,3.12,0,0,0-.81.09,1.65,1.65,0,0,0-.56.29,1.74,1.74,0,0,0-.42.5c-.12.2-.24.43-.37.7a.18.18,0,0,1-.1.11l-.14,0a.49.49,0,0,1-.3-.09c.1-.39.18-.73.24-1s.1-.54.14-.74a2.13,2.13,0,0,1,.14-.46.25.25,0,0,1,.23-.16l.32,0,.44,0,.47,0,.45,0h5.34l.44,0,.47,0,.45,0,.32,0a.23.23,0,0,1,.23.17,2.24,2.24,0,0,1,.14.47c0,.21.09.46.14.76a6.83,6.83,0,0,0,.25,1l-.16.06a.38.38,0,0,1-.16,0l-.15,0a.2.2,0,0,1-.11-.11c-.12-.27-.24-.5-.35-.7a1.89,1.89,0,0,0-.41-.5,1.65,1.65,0,0,0-.56-.29,3.12,3.12,0,0,0-.81-.09Z"/>
          <path class="cls-6" d="M484.74,169.24l-.24,0a.46.46,0,0,1-.31-.08.55.55,0,0,1-.14-.17,3.33,3.33,0,0,0-1-1.33,2.63,2.63,0,0,0-1.57-.42,2.48,2.48,0,0,0-.73.11,1.88,1.88,0,0,0-.6.3,1.76,1.76,0,0,0-.41.49,1.37,1.37,0,0,0-.15.64,1.48,1.48,0,0,0,.63,1.23,8.53,8.53,0,0,0,1.87,1,6.35,6.35,0,0,1,2.26,1.35,2.51,2.51,0,0,1,.73,1.83,3.78,3.78,0,0,1-.2,1.23,2.63,2.63,0,0,1-.62,1,3,3,0,0,1-1.1.66,4.85,4.85,0,0,1-1.62.24,7.17,7.17,0,0,1-1.8-.21,4.88,4.88,0,0,1-1.36-.54c0-.45-.08-.88-.15-1.3s-.14-.83-.22-1.24a.54.54,0,0,1,.27-.05.45.45,0,0,1,.3.09.62.62,0,0,1,.18.28,3.91,3.91,0,0,0,1,1.69,2.64,2.64,0,0,0,1.77.55,2.5,2.5,0,0,0,.9-.15,1.74,1.74,0,0,0,.64-.4,1.78,1.78,0,0,0,.38-.57,1.8,1.8,0,0,0,.13-.69,1.61,1.61,0,0,0-.57-1.31,5.5,5.5,0,0,0-1.62-.87c-.46-.17-.88-.35-1.25-.53a4.13,4.13,0,0,1-1-.65,2.63,2.63,0,0,1-.62-.86,2.9,2.9,0,0,1-.21-1.16,3,3,0,0,1,.21-1.11,2.49,2.49,0,0,1,.63-.9,3,3,0,0,1,1-.61,3.54,3.54,0,0,1,1.3-.23,6.76,6.76,0,0,1,1.44.15,9.18,9.18,0,0,1,1.55.48c0,.32.05.66.09,1A7.72,7.72,0,0,0,484.74,169.24Z"/>
        </g>
      </g>
      <g id="reseacrher" class="cls-3">
        <circle class="cls-4" cx="277" cy="595" r="79"/>
        <circle class="cls-4" cx="276.5" cy="595.5" r="88.5"/>
        <g>
          <path class="cls-7" d="M267.15,571.34l7.39-7.82c1.85-1.95-1.85-21.5-11.09-19.54,0,0-13.86,4.88-10.16,20.52l3.69,5.86S260.68,572.32,267.15,571.34Z"/>
          <path class="cls-8" d="M251.44,570.36s-9.24-2-12.94,15.64h46.21s3.7-17.59-14.79-15.64c0,0-5.54,2-7.39,11.73C262.53,582.09,260.68,568.41,251.44,570.36Z"/>
          <path class="cls-8" d="M254.48,553.83a10.47,10.47,0,0,0,9.9-5s3.69,7.82,7.39,5.87,1.56-2,1.56-2,.29-7.82-8.95-9.77C264.38,543,257.52,543.15,254.48,553.83Z"/>
        </g>
        <g>
          <path class="cls-7" d="M302.15,590.84l7.39-7.82c1.85-1.95-1.85-21.5-11.09-19.54,0,0-13.86,4.88-10.16,20.52l3.69,5.86S295.68,591.82,302.15,590.84Z"/>
          <path class="cls-8" d="M286.44,589.86s-9.24-2-12.94,15.64h46.21s3.7-17.59-14.79-15.64c0,0-5.54,2-7.39,11.73C297.53,601.59,295.68,587.91,286.44,589.86Z"/>
          <path class="cls-8" d="M289.48,573.33a10.47,10.47,0,0,0,9.9-5s3.69,7.82,7.39,5.87,1.56-2,1.56-2,.29-7.82-8.95-9.77C299.38,562.5,292.52,562.65,289.48,573.33Z"/>
        </g>
        <g>
          <path class="cls-6" d="M227.74,628.81h-1.18v3.52a.46.46,0,0,0,.32.48,4,4,0,0,0,1,.21c.13,0,.2.11.2.27a1.47,1.47,0,0,1,0,.27l-1,0-1.21,0-1,0-1,0a1.38,1.38,0,0,1,0-.25c0-.15.06-.24.18-.26a2.74,2.74,0,0,0,.85-.23.47.47,0,0,0,.25-.46v-8.14a.54.54,0,0,0-.23-.46,2.36,2.36,0,0,0-.9-.23c-.11,0-.17-.1-.17-.27a1.86,1.86,0,0,1,0-.26l1,.06c.34,0,.67,0,1,0h2.17a3.9,3.9,0,0,1,2.6.76,2.59,2.59,0,0,1,.88,2.06,2.54,2.54,0,0,1-.12.74,2.82,2.82,0,0,1-1,1.43,3.11,3.11,0,0,1-.92.5l2.68,3.71a1.65,1.65,0,0,0,.67.58,3.55,3.55,0,0,0,.69.24c.09,0,.14.1.14.22a1.59,1.59,0,0,1,0,.29l-.9-.05-1,0a1,1,0,0,1-.68-.29,3.34,3.34,0,0,1-.65-.73Zm-.34-.65a2.72,2.72,0,0,0,1.73-.48,2,2,0,0,0,.61-1.65,2.9,2.9,0,0,0-.13-.91,1.82,1.82,0,0,0-1.14-1.2,3.09,3.09,0,0,0-1.12-.18h-.79v4.42Z"/>
          <path class="cls-6" d="M236.94,623.74v4.09h2.5a.46.46,0,0,0,.45-.31,3.67,3.67,0,0,0,.22-.76c0-.14.12-.2.28-.2h.13l.13,0c0,.24,0,.5-.06.8s0,.56,0,.79,0,.4,0,.66,0,.56.06.89l-.24,0a.26.26,0,0,1-.3-.21,3.86,3.86,0,0,0-.22-.76.47.47,0,0,0-.45-.31h-2.5v3.78c0,.22.14.37.43.45a6.64,6.64,0,0,0,1.42.11h.88a2.21,2.21,0,0,0,.81-.14,1.88,1.88,0,0,0,.61-.37,2.31,2.31,0,0,0,.47-.55,7.59,7.59,0,0,0,.4-.7c0-.08.11-.11.24-.11a.35.35,0,0,1,.17,0l.17.1a3.44,3.44,0,0,0-.25.73c-.07.28-.14.55-.2.81a5.09,5.09,0,0,1-.2.65c-.07.18-.16.27-.26.27h-.37l-.52,0-.57,0-.5,0h-3.5l-1,0-1,0a1.38,1.38,0,0,1,0-.25c0-.15.05-.24.16-.26a3.4,3.4,0,0,0,.87-.24.45.45,0,0,0,.27-.45v-8.14a.45.45,0,0,0-.24-.44,3.91,3.91,0,0,0-.9-.25c-.11,0-.16-.11-.16-.27a.61.61,0,0,1,0-.14.74.74,0,0,1,0-.12c.46,0,.84.06,1.15.07h4c.48,0,.89,0,1.24,0a6.86,6.86,0,0,1,.71,0c.14,0,.23.09.28.26a4.43,4.43,0,0,1,.12.63c0,.25.07.51.11.79a1.75,1.75,0,0,0,.24.7.43.43,0,0,1-.29.1.26.26,0,0,1-.27-.15c-.13-.27-.25-.51-.37-.71a1.63,1.63,0,0,0-1-.78,3.12,3.12,0,0,0-.81-.09Z"/>
          <path class="cls-6" d="M250.65,625.6l-.24,0a.47.47,0,0,1-.3-.08.63.63,0,0,1-.15-.18,3.16,3.16,0,0,0-1-1.33,2.68,2.68,0,0,0-1.57-.41,2.52,2.52,0,0,0-.73.1,1.75,1.75,0,0,0-.59.31,1.35,1.35,0,0,0-.41.48,1.4,1.4,0,0,0-.15.64,1.49,1.49,0,0,0,.63,1.24,8.23,8.23,0,0,0,1.86,1,6.71,6.71,0,0,1,2.27,1.35,2.55,2.55,0,0,1,.72,1.84,3.51,3.51,0,0,1-.2,1.22,2.56,2.56,0,0,1-.62,1,2.93,2.93,0,0,1-1.1.67,4.79,4.79,0,0,1-1.61.24,7.17,7.17,0,0,1-1.8-.21,5,5,0,0,1-1.37-.55c0-.44-.08-.88-.15-1.29s-.13-.84-.22-1.25a.76.76,0,0,1,.27,0,.45.45,0,0,1,.3.09.68.68,0,0,1,.18.28,4,4,0,0,0,1,1.7,2.67,2.67,0,0,0,1.77.54,2.5,2.5,0,0,0,.9-.15,1.72,1.72,0,0,0,.64-.39,1.76,1.76,0,0,0,.38-.58,1.73,1.73,0,0,0,.13-.69,1.63,1.63,0,0,0-.57-1.31,5.28,5.28,0,0,0-1.62-.86,11.42,11.42,0,0,1-1.25-.54,4.25,4.25,0,0,1-1-.65,2.42,2.42,0,0,1-.61-.85,3.06,3.06,0,0,1,0-2.28,2.64,2.64,0,0,1,.62-.9,3,3,0,0,1,1-.61,3.58,3.58,0,0,1,1.3-.22,7.48,7.48,0,0,1,1.44.14,11.05,11.05,0,0,1,1.55.48c0,.32.05.67.09,1S250.59,625.28,250.65,625.6Z"/>
          <path class="cls-6" d="M255.45,623.74v4.09H258a.46.46,0,0,0,.45-.31,3.67,3.67,0,0,0,.22-.76c0-.14.13-.2.29-.2H259l.12,0c0,.24,0,.5-.05.8s0,.56,0,.79,0,.4,0,.66,0,.56.06.89l-.24,0a.26.26,0,0,1-.3-.21,3.86,3.86,0,0,0-.22-.76.47.47,0,0,0-.45-.31h-2.5v3.78c0,.22.14.37.43.45a6.69,6.69,0,0,0,1.43.11h.88a2.12,2.12,0,0,0,.8-.14,1.88,1.88,0,0,0,.61-.37,2.1,2.1,0,0,0,.47-.55,5.83,5.83,0,0,0,.4-.7c0-.08.12-.11.24-.11a.35.35,0,0,1,.17,0l.17.1a4.11,4.11,0,0,0-.25.73c-.07.28-.13.55-.2.81a5.09,5.09,0,0,1-.2.65c-.07.18-.15.27-.26.27h-.37l-.52,0-.57,0-.49,0h-3.51l-1,0-1,0a1.38,1.38,0,0,1,0-.25c0-.15,0-.24.16-.26a3.17,3.17,0,0,0,.87-.24.45.45,0,0,0,.27-.45v-8.14a.45.45,0,0,0-.24-.44,3.91,3.91,0,0,0-.9-.25c-.11,0-.16-.11-.16-.27a.61.61,0,0,1,0-.14.74.74,0,0,1,0-.12c.46,0,.85.06,1.15.07h4c.48,0,.89,0,1.25,0a6.56,6.56,0,0,1,.7,0c.14,0,.23.09.28.26a4.43,4.43,0,0,1,.12.63c0,.25.07.51.11.79a2.13,2.13,0,0,0,.24.7.43.43,0,0,1-.29.1.27.27,0,0,1-.27-.15c-.13-.27-.25-.51-.37-.71a1.78,1.78,0,0,0-.4-.49,1.85,1.85,0,0,0-.56-.29,3.12,3.12,0,0,0-.81-.09Z"/>
          <path class="cls-6" d="M268.46,629.68h-3.57l-1,2.57a.78.78,0,0,0-.08.32c0,.22.32.39,1,.48a.17.17,0,0,1,.15.09.31.31,0,0,1,0,.17,1.57,1.57,0,0,1,0,.25l-.91,0-.94,0-.66,0-.7.06a1.09,1.09,0,0,1,0-.25.49.49,0,0,1,0-.19.2.2,0,0,1,.17-.1,2.82,2.82,0,0,0,.75-.2.78.78,0,0,0,.36-.38l3.85-9.28c.08-.18.18-.27.31-.27l.19,0,3.87,9.57a.71.71,0,0,0,.43.35,3,3,0,0,0,.66.18.38.38,0,0,1,.15.09.25.25,0,0,1,.06.2.91.91,0,0,1,0,.25l-1,0-.93,0-1,0-1,0a1.38,1.38,0,0,1,0-.25.25.25,0,0,1,.06-.2s.07-.06.1-.06a3.65,3.65,0,0,0,.68-.18.34.34,0,0,0,.25-.31.6.6,0,0,0-.06-.24Zm-.26-.66-1.49-3.92L265.16,629Z"/>
          <path class="cls-6" d="M277.93,633.68a6.05,6.05,0,0,1-2.35-.42,4.54,4.54,0,0,1-2.67-2.86,6.88,6.88,0,0,1-.32-2.12,6.06,6.06,0,0,1,.32-1.9,5.13,5.13,0,0,1,5-3.49c.35,0,.67,0,1,0a7.48,7.48,0,0,1,.84.08,6.69,6.69,0,0,1,.78.14l.8.2a10.34,10.34,0,0,0,.11,1.06c.07.41.15.83.26,1.26a.62.62,0,0,1-.26.06.85.85,0,0,1-.23,0,.2.2,0,0,1-.13-.17,2.65,2.65,0,0,0-.92-1.51,3,3,0,0,0-1.8-.45,4.57,4.57,0,0,0-1.76.32,3.8,3.8,0,0,0-1.28.9,3.88,3.88,0,0,0-.78,1.38,5.67,5.67,0,0,0-.26,1.8,6.06,6.06,0,0,0,.33,2,5.43,5.43,0,0,0,.91,1.6,4.14,4.14,0,0,0,1.32,1,3.77,3.77,0,0,0,1.63.36,4.31,4.31,0,0,0,1.16-.13,2.2,2.2,0,0,0,.78-.39,2.35,2.35,0,0,0,.53-.64,7.52,7.52,0,0,0,.41-.85.38.38,0,0,1,.38-.24l.17,0,.14.06q-.19.55-.39,1.23c-.13.45-.23.9-.32,1.34-.52.09-1.05.16-1.6.2S278.58,633.68,277.93,633.68Z"/>
          <path class="cls-6" d="M292.55,632.36a.46.46,0,0,0,.21.44,3.07,3.07,0,0,0,.83.25c.11,0,.16.1.16.23a1.49,1.49,0,0,1,0,.28l-.94,0-1,0-.94,0-1,0a1.49,1.49,0,0,1,0-.28c0-.13,0-.21.16-.23a2.72,2.72,0,0,0,.82-.24.46.46,0,0,0,.22-.45v-3.87h-5v3.87a.47.47,0,0,0,.2.44,3.05,3.05,0,0,0,.84.25.21.21,0,0,1,.17.23,1.49,1.49,0,0,1,0,.28l-1,0-1,0-.94,0-1,0a1.49,1.49,0,0,1,0-.28c0-.13.05-.21.16-.23a2.71,2.71,0,0,0,.83-.24.46.46,0,0,0,.22-.45v-8.12a.7.7,0,0,0,0-.27.37.37,0,0,0-.15-.18.9.9,0,0,0-.31-.14l-.52-.12c-.11,0-.16-.09-.16-.25a1.58,1.58,0,0,1,0-.28l.93.06c.35,0,.67,0,1,0s.61,0,.94,0l1-.06a1.58,1.58,0,0,1,0,.28c0,.14,0,.23-.16.25a2.3,2.3,0,0,0-.82.24.52.52,0,0,0-.2.47v3.58h5v-3.58a.57.57,0,0,0-.19-.45,1.88,1.88,0,0,0-.82-.26c-.12,0-.17-.09-.17-.25a1.58,1.58,0,0,1,0-.28l.93.06c.36,0,.68,0,1,0s.61,0,.93,0l1-.06a1.58,1.58,0,0,1,0,.28c0,.14-.06.23-.16.25a2.45,2.45,0,0,0-.83.24.55.55,0,0,0-.2.47Z"/>
          <path class="cls-6" d="M298.06,623.74v4.09h2.49a.46.46,0,0,0,.46-.31,3.67,3.67,0,0,0,.22-.76c0-.14.12-.2.28-.2h.13l.13,0c0,.24,0,.5-.06.8s0,.56,0,.79,0,.4,0,.66,0,.56.06.89l-.24,0a.26.26,0,0,1-.3-.21,3.86,3.86,0,0,0-.22-.76.47.47,0,0,0-.46-.31h-2.49v3.78c0,.22.14.37.43.45a6.64,6.64,0,0,0,1.42.11h.88a2.21,2.21,0,0,0,.81-.14,1.88,1.88,0,0,0,.61-.37,2.31,2.31,0,0,0,.47-.55,5.83,5.83,0,0,0,.4-.7c0-.08.11-.11.24-.11a.35.35,0,0,1,.17,0l.17.1a3.44,3.44,0,0,0-.25.73c-.07.28-.14.55-.2.81a5.09,5.09,0,0,1-.2.65c-.07.18-.16.27-.26.27h-.37l-.52,0-.57,0-.5,0h-3.5l-1,0-1,0a1.38,1.38,0,0,1,0-.25c0-.15.05-.24.16-.26a3.4,3.4,0,0,0,.87-.24.44.44,0,0,0,.26-.45v-8.14a.44.44,0,0,0-.23-.44,3.91,3.91,0,0,0-.9-.25c-.11,0-.16-.11-.16-.27a.61.61,0,0,1,0-.14.74.74,0,0,1,0-.12c.46,0,.84.06,1.15.07h4c.48,0,.89,0,1.24,0a6.86,6.86,0,0,1,.71,0c.14,0,.23.09.28.26a4.43,4.43,0,0,1,.12.63c0,.25.07.51.11.79a1.75,1.75,0,0,0,.24.7.45.45,0,0,1-.29.1.26.26,0,0,1-.27-.15c-.13-.27-.25-.51-.37-.71a1.81,1.81,0,0,0-.41-.49,1.74,1.74,0,0,0-.56-.29,3,3,0,0,0-.8-.09Z"/>
          <path class="cls-6" d="M308.92,628.81h-1.18v3.52a.47.47,0,0,0,.33.48,3.94,3.94,0,0,0,1,.21c.12,0,.19.11.19.27a1.39,1.39,0,0,1,0,.27l-1.05,0-1.21,0-1,0-1,0a.91.91,0,0,1,0-.25c0-.15.06-.24.18-.26a2.82,2.82,0,0,0,.86-.23.48.48,0,0,0,.24-.46v-8.14a.52.52,0,0,0-.23-.46,2.25,2.25,0,0,0-.9-.23c-.11,0-.16-.1-.16-.27a1.58,1.58,0,0,1,0-.26l1,.06c.34,0,.67,0,1,0h2.16a3.94,3.94,0,0,1,2.61.76,2.62,2.62,0,0,1,.88,2.06,2.54,2.54,0,0,1-.12.74,3.26,3.26,0,0,1-.37.75,3.39,3.39,0,0,1-.64.68,3.25,3.25,0,0,1-.92.5l2.67,3.71a1.71,1.71,0,0,0,.67.58,4.08,4.08,0,0,0,.69.24c.1,0,.14.1.14.22a1.59,1.59,0,0,1,0,.29l-.89-.05-1,0a1,1,0,0,1-.68-.29,3.34,3.34,0,0,1-.65-.73Zm-.33-.65a2.71,2.71,0,0,0,1.72-.48,2,2,0,0,0,.61-1.65,2.9,2.9,0,0,0-.13-.91,1.76,1.76,0,0,0-1.14-1.2,3,3,0,0,0-1.11-.18h-.8v4.42Z"/>
          <path class="cls-6" d="M322.15,625.6l-.24,0a.49.49,0,0,1-.3-.08.59.59,0,0,1-.14-.18,3.25,3.25,0,0,0-1-1.33,2.65,2.65,0,0,0-1.56-.41,2.48,2.48,0,0,0-.73.1,1.71,1.71,0,0,0-.6.31,1.46,1.46,0,0,0-.41.48,1.4,1.4,0,0,0-.15.64,1.49,1.49,0,0,0,.63,1.24,8.23,8.23,0,0,0,1.86,1,6.71,6.71,0,0,1,2.27,1.35,2.56,2.56,0,0,1,.73,1.84,3.76,3.76,0,0,1-.2,1.22,2.7,2.7,0,0,1-.63,1,3,3,0,0,1-1.09.67,4.85,4.85,0,0,1-1.62.24,7.17,7.17,0,0,1-1.8-.21,5.09,5.09,0,0,1-1.37-.55c0-.44-.08-.88-.14-1.29s-.14-.84-.23-1.25a.78.78,0,0,1,.28,0,.44.44,0,0,1,.29.09.8.8,0,0,1,.19.28,3.86,3.86,0,0,0,1,1.7,2.64,2.64,0,0,0,1.77.54,2.4,2.4,0,0,0,.89-.15,1.65,1.65,0,0,0,.64-.39,2,2,0,0,0,.39-.58,1.92,1.92,0,0,0,.12-.69,1.65,1.65,0,0,0-.56-1.31,5.23,5.23,0,0,0-1.63-.86,12.33,12.33,0,0,1-1.25-.54,4.25,4.25,0,0,1-1-.65,2.56,2.56,0,0,1-.61-.85,3.06,3.06,0,0,1,0-2.28,2.64,2.64,0,0,1,.62-.9,2.91,2.91,0,0,1,1-.61,3.49,3.49,0,0,1,1.29-.22,7.48,7.48,0,0,1,1.44.14,10.66,10.66,0,0,1,1.55.48c0,.32,0,.67.09,1S322.09,625.28,322.15,625.6Z"/>
        </g>
      </g>
      <g id="graphicsFive" class="cls-9">
        <circle class="cls-6" cx="536" cy="642" r="17"/>
        <circle class="cls-6" cx="515.89" cy="601.39" r="8.5"/>
        <circle class="cls-6" cx="574.59" cy="625.6" r="8.5"/>
        <circle class="cls-6" cx="498.6" cy="658.6" r="8.5"/>
        <circle class="cls-6" cx="556.6" cy="667.6" r="8.5"/>
      </g>
      <g id="graohicsThree" class="cls-9">
        <circle class="cls-6" cx="1205" cy="108" r="17"/>
        <circle class="cls-6" cx="1184.89" cy="67.39" r="8.5"/>
        <circle class="cls-6" cx="1243.59" cy="91.6" r="8.5"/>
        <circle class="cls-6" cx="1167.6" cy="124.6" r="8.5"/>
        <circle class="cls-6" cx="1225.6" cy="133.6" r="8.5"/>
      </g>
      <g id="graphicsThree" class="cls-9">
        <circle class="cls-6" cx="1167" cy="563" r="17"/>
        <circle class="cls-6" cx="1146.89" cy="522.39" r="8.5"/>
        <circle class="cls-6" cx="1205.59" cy="546.6" r="8.5"/>
        <circle class="cls-6" cx="1129.6" cy="579.6" r="8.5"/>
        <circle class="cls-6" cx="1187.6" cy="588.6" r="8.5"/>
      </g>
      <g id="graphicsTwo" class="cls-9">
        <circle class="cls-6" cx="111" cy="75" r="17"/>
        <circle class="cls-6" cx="90.89" cy="34.39" r="8.5"/>
        <circle class="cls-6" cx="149.59" cy="58.6" r="8.5"/>
        <circle class="cls-6" cx="73.6" cy="91.6" r="8.5"/>
        <circle class="cls-6" cx="131.6" cy="100.6" r="8.5"/>
      </g>
      <g id="graphicsOne" class="cls-9">
        <circle class="cls-6" cx="110" cy="423" r="17"/>
        <circle class="cls-6" cx="89.89" cy="382.39" r="8.5"/>
        <circle class="cls-6" cx="148.59" cy="406.6" r="8.5"/>
        <circle class="cls-6" cx="72.6" cy="439.6" r="8.5"/>
        <circle class="cls-6" cx="130.6" cy="448.6" r="8.5"/>
      </g>
    </g>
  </g>
</svg>
