<?xml version="1.0" encoding="utf-8"?>
<!-- Generator: Adobe Illustrator 24.0.1, SVG Export Plug-In . SVG Version: 6.00 Build 0)  -->
<svg version="1.1" id="room" xmlns="http://www.w3.org/2000/svg" xmlns:xlink="http://www.w3.org/1999/xlink" x="0px" y="0px"
	 viewBox="0 0 1366 768" style="enable-background:new 0 0 1366 768;" xml:space="preserve">
<style type="text/css">
	.st0{fill:#F4E8B5;}
	.st1{fill:#EEEEEE;stroke:#C49E7C;stroke-width:3;stroke-miterlimit:10;}
	.st2{fill:#EEEEEE;stroke:#AAAAAA;stroke-width:3;stroke-miterlimit:10;}
	.st3{fill:#C19A6B;}
	.st4{fill:#D3DDE2;}
	.st5{fill:url(#SVGID_1_);}
	.st6{fill:url(#SVGID_2_);}
	.st7{fill:none;stroke:#000000;stroke-width:1.0028;stroke-miterlimit:10;}
	.st8{fill:#EEEEEE;}
	.st9{font-family:'MyriadPro-Regular';}
	.st10{font-size:8.9724px;}
	.st11{fill:#6B5137;}
	.st12{fill:#3A2C21;}
	.st13{fill:#AD8C68;}
	.st14{fill:none;stroke:#3A2C21;stroke-width:0.8674;stroke-miterlimit:10;}
	.st15{fill:none;stroke:#3A2C21;stroke-miterlimit:10;}
	.st16{fill:#80C56E;}
	.st17{fill:#66AD66;}
	.st18{fill:#FEC37D;}
	.st19{fill:#F9AE5D;}
	.st20{fill:#F2A559;}
	.st21{fill:#EA8F3D;}
	.st22{fill:none;stroke:#000000;stroke-width:7;stroke-miterlimit:10;}
	.st23{fill:none;stroke:#000000;stroke-width:5.6036;stroke-miterlimit:10;}
	.st24{fill:#FFFFFF;}
	.st25{font-family:'DrSugiyama-Regular';}
	.st26{font-size:21px;}
	.st27{fill:none;stroke:#000000;stroke-miterlimit:10;}
	.st28{font-size:14.0734px;}
	.st29{fill:none;stroke:#000000;stroke-width:0.6702;stroke-miterlimit:10;}
	.st30{fill:#7C7A23;stroke:#000000;stroke-width:2;stroke-miterlimit:10;}
	.st31{fill:#3CB5E5;stroke:#000000;stroke-width:10;stroke-miterlimit:10;}
	.st32{fill:#1E7A37;}
	.st33{fill:#ACDBEA;}
	.st34{fill:#CE5E20;}
</style>
<rect id="roomWall" x="-2" y="129" class="st0" width="1370" height="640"/>
<rect x="0.3" y="730" class="st1" width="1366.1" height="40"/>
<g id="ceiling">
	<path class="st2" d="M1207.5-0.5h159l0.5,129L0,129C-0.7,129.7,0,0,0,0l120.1-0.3L153.3,128L120,0l143.1-0.3L296.3,128L263.5-2.6
		h150.4l21.5,130.8l-22-130.7L570.8-3l15.8,131.6L570.5-2.5L756.9-3l-15.8,131.6L756.5-2.5l157.3-0.1l-21.5,130.8L913.5-2.5
		l151.1,2.2L1031.5,128l33-128.5l143.1,0.2L1174.5,128"/>
</g>
<g id="door">
	<rect x="79.5" y="295.5" width="274" height="475.2"/>
	<polygon class="st3" points="311.5,769.7 78.5,769.7 79,295 312,337.2 	"/>
	<path class="st4" d="M295.8,565.3h-19.6c-1.2,0-2.2-1-2.2-2.2v-34.6c0-1.2,1-2.2,2.2-2.2h19.6c1.2,0,2.2,1,2.2,2.2v34.6
		C298,564.3,297,565.3,295.8,565.3z"/>
	
		<radialGradient id="SVGID_1_" cx="286" cy="544" r="8" gradientTransform="matrix(1 0 0 1.0056 -1.608562e-05 -1.6648)" gradientUnits="userSpaceOnUse">
		<stop  offset="0" style="stop-color:#FFFFFF"/>
		<stop  offset="8.489811e-02" style="stop-color:#F6F6F6"/>
		<stop  offset="0.224" style="stop-color:#DDDDDD"/>
		<stop  offset="0.4" style="stop-color:#B5B5B5"/>
		<stop  offset="0.6061" style="stop-color:#7E7E7E"/>
		<stop  offset="0.8345" style="stop-color:#373737"/>
		<stop  offset="1" style="stop-color:#000000"/>
	</radialGradient>
	<ellipse class="st5" cx="286" cy="545.4" rx="8" ry="8"/>
	
		<radialGradient id="SVGID_2_" cx="286" cy="544" r="3" gradientTransform="matrix(1 0 0 1.0056 -1.608562e-05 -1.6648)" gradientUnits="userSpaceOnUse">
		<stop  offset="0" style="stop-color:#FFFFFF"/>
		<stop  offset="8.489811e-02" style="stop-color:#F6F6F6"/>
		<stop  offset="0.224" style="stop-color:#DDDDDD"/>
		<stop  offset="0.4" style="stop-color:#B5B5B5"/>
		<stop  offset="0.6061" style="stop-color:#7E7E7E"/>
		<stop  offset="0.8345" style="stop-color:#373737"/>
		<stop  offset="1" style="stop-color:#000000"/>
	</radialGradient>
	<ellipse class="st6" cx="286" cy="545.4" rx="3" ry="3"/>
	<line class="st7" x1="286" y1="542.4" x2="286" y2="548.4"/>
	<rect x="142.9" y="385" class="st8" width="108.6" height="21.7"/>
	<text transform="matrix(0.9944 0 0 1 160.1401 399.6045)" class="st9 st10">Clinical Trials Expert</text>
</g>
<g id="table">
	<rect x="771" y="559.5" class="st11" width="199" height="207.8"/>
	<rect x="777.4" y="565.9" class="st12" width="187.6" height="200.4"/>
</g>
<g id="secondTable">
	<rect x="970" y="642" class="st13" width="397" height="126"/>
	<rect x="970" y="642" class="st12" width="396.6" height="16"/>
	<rect x="1234.5" y="657.5" class="st14" width="133" height="28"/>
	<rect x="971" y="658" class="st15" width="132" height="110"/>
	<line class="st14" x1="1036.5" y1="686" x2="1036.5" y2="768"/>
	<rect x="970.5" y="657.5" class="st14" width="133" height="28"/>
	<circle class="st12" cx="1036.7" cy="671.7" r="4.3"/>
	<circle class="st12" cx="1027.7" cy="701.7" r="4.3"/>
	<circle class="st12" cx="1044.7" cy="701.7" r="4.3"/>
	<rect x="1103" y="658" class="st15" width="132" height="110"/>
	<line class="st14" x1="1168.5" y1="686" x2="1168.5" y2="768"/>
	<rect x="1102.5" y="657.5" class="st14" width="133" height="28"/>
	<circle class="st12" cx="1168.7" cy="671.7" r="4.3"/>
	<circle class="st12" cx="1159.7" cy="701.7" r="4.3"/>
	<circle class="st12" cx="1176.7" cy="701.7" r="4.3"/>
	<rect x="1235" y="658" class="st15" width="132" height="110"/>
	<line class="st14" x1="1300.5" y1="686" x2="1300.5" y2="768"/>
	<circle class="st12" cx="1300.7" cy="671.7" r="4.3"/>
	<circle class="st12" cx="1291.7" cy="701.7" r="4.3"/>
	<circle class="st12" cx="1308.7" cy="701.7" r="4.3"/>
</g>
<g id="plant">
	<path class="st16" d="M1355.1,587.1c0.3,0.7,3.2,9.3-2.8,19.5c-3.7,6.2-9.2,6.6-9.8,6.6c-0.3-0.4-3.5-5-0.9-11.7
		C1345.8,590.4,1354.3,587.4,1355.1,587.1z"/>
	<path class="st17" d="M1355.1,587.1l-12.6,26l0,0c0.5,0,6.1-0.4,9.8-6.6C1358.3,596.5,1355.3,587.9,1355.1,587.1z"/>
	<path class="st16" d="M1319.4,587.1c-0.3,0.7-3.2,9.3,2.8,19.5c3.7,6.2,9.2,6.6,9.8,6.6c0.3-0.4,3.5-5,0.9-11.7
		C1328.7,590.4,1320.1,587.4,1319.4,587.1z"/>
	<path class="st17" d="M1332.8,601.5c-4.2-11-12.7-14.1-13.5-14.3c7.4,14.2,11.4,23.3,12.6,26C1332.4,612.5,1335.3,608,1332.8,601.5
		z"/>
	<path class="st16" d="M1337.2,581.8c-0.9,0.9-11.3,11.4-9.6,30.4c1,11.6,8.8,16.1,9.6,16.5c0.8-0.4,8.6-4.9,9.6-16.5
		C1348.5,593.2,1338.1,582.7,1337.2,581.8z"/>
	<path class="st17" d="M1337,581.8v47c0.8-0.4,8.6-4.9,9.6-16.5C1348.3,593.2,1337.9,582.7,1337,581.8z"/>
	<path class="st16" d="M1359.4,610.9c2-6.7,1.3-12.9,1.3-12.9s-3.8,1.7-13.2,7.8c-7.3,4.7-9.6,13-10.3,15.3h8.6
		C1352.1,621,1357.6,616.9,1359.4,610.9z"/>
	<path class="st17" d="M1360.7,597.9c0,0-9.7,19.2-23.5,23.1h8.6c6.3,0,11.8-4.1,13.6-10.1C1361.4,604.2,1360.7,597.9,1360.7,597.9z
		"/>
	<path class="st16" d="M1315.1,610.9c-2-6.7-1.3-12.9-1.3-12.9s3.8,1.7,13.2,7.8c7.3,4.7,9.6,13,10.3,15.3h-8.6
		C1322.4,621,1316.8,616.9,1315.1,610.9z"/>
	<path class="st17" d="M1337.2,621.2c-0.7-2.2-2.9-10.5-10.3-15.3c-9.4-6.1-13.2-7.8-13.2-7.8S1323.5,617.2,1337.2,621.2z"/>
	<path class="st18" d="M1343.5,642H1331c-3.3,0-6.1-2.4-6.7-5.6l-2.7-14.4h31.3l-2.7,14.4C1349.6,639.6,1346.8,642,1343.5,642z"/>
	<path class="st19" d="M1346.8,622l-2.7,14.4c-0.6,3.3-3.4,5.6-6.8,5.6h6.1c3.3,0,6.1-2.4,6.7-5.6l2.7-14.4H1346.8z"/>
	<path class="st20" d="M1354.3,625h-34.1c-1.4,0-2.5-1.1-2.5-2.5l0,0c0-1.4,1.1-2.5,2.5-2.5h34.1c1.4,0,2.5,1.1,2.5,2.5l0,0
		C1356.8,623.9,1355.6,625,1354.3,625z"/>
	<path class="st21" d="M1354,620h-4v5h4c1.4,0,2.5-1.1,2.5-2.5l0,0C1356.5,621.1,1355.4,620,1354,620z"/>
	<path d="M1360.3,611.3c2-6.9,1.4-13.2,1.3-13.5c0,0,0,0,0,0c0,0,0-0.1,0-0.1c0,0,0,0,0,0c0,0,0-0.1,0-0.1c0,0,0,0,0,0
		c0,0,0,0,0-0.1c0,0,0,0,0,0c0,0,0,0,0-0.1c0,0,0,0,0,0c0,0,0,0-0.1-0.1c0,0,0,0,0,0c0,0,0-0.1-0.1-0.1c0,0,0,0,0,0c0,0,0,0-0.1-0.1
		c0,0,0,0,0,0c0,0,0,0-0.1,0c0,0,0,0,0,0c0,0,0,0,0,0c0,0,0,0,0,0c0,0,0,0,0,0c0,0,0,0,0,0c0,0,0,0-0.1,0c0,0,0,0,0,0
		c-0.1,0-0.1,0-0.2,0c0,0-0.2,0-0.2,0c0,0-0.1,0-0.1,0c0,0,0,0,0,0c0,0,0,0-0.1,0c0,0,0,0,0,0c0,0,0,0-0.1,0c0,0,0,0,0,0
		c0,0-0.1,0-0.1,0c0,0,0,0,0,0c-0.1,0-1.3,0.6-4.1,2.2c1.7-6.9,0-11.9-0.3-12.6c0,0,0,0,0,0c0,0,0,0,0,0c0,0,0,0,0,0c0,0,0,0,0,0
		c0,0,0,0,0,0c0,0,0,0,0,0c0,0,0,0,0,0c0,0,0,0,0,0c0,0,0,0,0,0c0,0,0,0,0,0c0,0,0,0,0,0c0,0,0,0,0,0c0,0,0,0,0,0c0,0,0,0,0,0
		c0,0,0,0,0,0c0,0,0,0,0,0c0,0,0,0,0,0c0,0,0,0,0,0c0,0,0,0,0,0c0,0,0,0,0,0c0,0,0,0,0,0c0,0,0,0,0,0c0,0,0,0,0,0c0,0,0,0,0,0
		c0,0,0,0,0,0c0,0,0,0-0.1,0c0,0,0,0,0,0c0,0,0,0-0.1,0c0,0,0,0,0,0c0,0,0,0,0,0c0,0,0,0,0,0c0,0,0,0,0,0c0,0,0,0,0,0c0,0,0,0,0,0
		c-0.6,0.2-5.3,1.9-9.4,6.9c-2.7-7.3-6.7-11.4-7.4-12c0,0,0,0,0,0c0,0,0,0,0,0c0,0,0,0,0,0c0,0,0,0,0,0c0,0,0,0,0,0c0,0,0,0,0,0
		c0,0,0,0,0,0c0,0,0,0,0,0c0,0,0,0,0,0c0,0,0,0,0,0c0,0,0,0,0,0c0,0,0,0,0,0c0,0,0,0,0,0c0,0,0,0,0,0c0,0-0.1,0-0.1,0c0,0,0,0,0,0
		c0,0,0,0,0,0c0,0-0.1,0-0.1,0c0,0,0,0,0,0c0,0,0,0,0,0c0,0,0,0,0,0c0,0,0,0,0,0c0,0,0,0,0,0c0,0,0,0,0,0c0,0,0,0,0,0c0,0,0,0,0,0
		c0,0,0,0,0,0c0,0,0,0,0,0c0,0,0,0,0,0c0,0,0,0,0,0c0,0,0,0,0,0c0,0,0,0,0,0c-0.6,0.6-4.6,4.7-7.4,12c-4.2-5.1-8.9-6.8-9.4-6.9
		c0,0,0,0,0,0c0,0,0,0,0,0c0,0,0,0,0,0c0,0,0,0,0,0c0,0,0,0-0.1,0c0,0,0,0,0,0c0,0,0,0-0.1,0c0,0,0,0,0,0c0,0,0,0-0.1,0c0,0,0,0,0,0
		c0,0,0,0,0,0c0,0,0,0,0,0c0,0,0,0,0,0c0,0,0,0,0,0c0,0,0,0,0,0c0,0,0,0,0,0c0,0,0,0,0,0c0,0,0,0,0,0c0,0,0,0,0,0c0,0,0,0,0,0
		c0,0,0,0,0,0c0,0,0,0,0,0c0,0,0,0,0,0c0,0,0,0,0,0c0,0,0,0,0,0c0,0,0,0,0,0c0,0,0,0,0,0c0,0,0,0,0,0c0,0,0,0,0,0c0,0,0,0,0,0
		c0,0,0,0,0,0c0,0,0,0,0,0c0,0,0,0,0,0c0,0,0,0,0,0c-0.2,0.6-2,5.7-0.3,12.6c-2.8-1.6-4-2.2-4.1-2.2c0,0,0,0,0,0c0,0-0.1,0-0.1,0
		c0,0,0,0,0,0c0,0,0,0-0.1,0c0,0,0,0,0,0c0,0,0,0-0.1,0c0,0,0,0,0,0c0,0,0,0-0.1,0c0,0,0,0,0,0c-0.1,0-0.1,0-0.2,0c0,0,0,0,0,0
		c0,0,0,0-0.1,0c0,0,0,0,0,0c0,0,0,0,0,0c0,0,0,0,0,0c0,0,0,0,0,0c0,0,0,0,0,0c0,0,0,0-0.1,0c0,0,0,0,0,0c0,0,0,0-0.1,0.1
		c0,0,0,0,0,0c0,0,0,0-0.1,0.1c0,0,0,0,0,0c0,0,0,0,0,0.1c0,0,0,0,0,0c0,0,0,0,0,0.1c0,0,0,0,0,0c0,0,0,0,0,0.1c0,0,0,0,0,0
		c0,0,0,0.1,0,0.1c0,0,0,0,0,0c0,0,0,0.1,0,0.1c0,0,0,0,0,0c0,0.3-0.7,6.4,1.3,13.2c1,3.4,3.1,6.3,6.1,8.2c-1.1,0.5-1.8,1.6-1.8,2.9
		c0,1.7,1.3,3.1,2.9,3.2l1.9,10.3c0.7,3.7,3.9,6.3,7.6,6.3h12.3c3.7,0,6.9-2.7,7.6-6.3l1.8-9.7h1.2c1.4,0,2.7-0.8,3.2-2.1
		c0.8-2.2-0.7-4.2-2.6-4.5C1357.3,617.4,1359.3,614.6,1360.3,611.3z M1353.9,600.8c-1.5,0.9-3.2,2-5.3,3.3c0,0,0,0-0.1,0
		c-0.2,0.2-0.5,0.3-0.7,0.5c0,0,0,0,0,0c0-0.1,0-0.1,0-0.2c0-0.2,0-0.4,0-0.5c2.1-4.4,4.5-9.2,7.1-14.2
		C1355.2,592,1355.5,596,1353.9,600.8z M1353.1,589c-2.1,4-4,7.9-5.8,11.6c-0.3-1.9-0.8-3.7-1.3-5.3
		C1348.4,592,1351.2,590.1,1353.1,589z M1338,584.2c0.9,1.1,2.1,2.7,3.2,4.8c1.1,2,2,4.1,2.7,6.3c0,0,0,0.1,0,0.1
		c1,3,1.6,6.2,1.9,9.4c0,0,0,0.1,0,0.1c0,0.2,0,0.4,0,0.6c0,0.1,0,0.1,0,0.2c0,0,0,0.1,0,0.1c-2.9,2.1-5.3,5-7.1,8.6c0,0,0,0,0,0
		c-0.1,0.1-0.1,0.3-0.2,0.4c0,0,0,0,0,0.1c-0.1,0.1-0.1,0.3-0.2,0.4c0,0,0,0,0,0.1c-0.1,0.2-0.2,0.4-0.3,0.6L1338,584.2L1338,584.2z
		 M1330,595.4C1330,595.4,1330,595.4,1330,595.4c0.7-2.3,1.7-4.4,2.8-6.4c1.2-2.1,2.3-3.7,3.2-4.8V616c-0.1-0.2-0.2-0.4-0.3-0.6
		c0,0,0,0,0-0.1c-0.1-0.1-0.1-0.3-0.2-0.4c0,0,0,0,0-0.1c-0.1-0.1-0.1-0.3-0.2-0.4c0,0,0,0,0,0c-1.8-3.6-4.2-6.5-7.1-8.6
		c0,0,0-0.1,0-0.1c0-0.1,0-0.1,0-0.2c0-0.2,0-0.4,0-0.6c0,0,0-0.1,0-0.1C1328.4,601.6,1329,598.4,1330,595.4z M1328.5,595.3
		c-0.5,1.6-1,3.4-1.3,5.3c-1.8-3.6-3.7-7.5-5.8-11.6C1323.3,590.1,1326,592,1328.5,595.3z M1319.7,589.6c2.6,5,5,9.8,7.1,14.2
		c0,0.2,0,0.4,0,0.5c0,0.1,0,0.1,0,0.2c0,0,0,0,0,0c-0.3-0.2-0.5-0.3-0.8-0.5c0,0,0,0,0,0c-2.1-1.3-3.8-2.4-5.3-3.3
		C1319,596,1319.2,592,1319.7,589.6z M1322.1,603.7c0.1,0.1,0.2,0.1,0.3,0.2c0.2,0.1,0.4,0.2,0.6,0.4c0.1,0.1,0.3,0.2,0.4,0.3
		c0.1,0.1,0.2,0.1,0.4,0.2c0.2,0.1,0.4,0.3,0.6,0.4c0.1,0,0.2,0.1,0.2,0.1c0.3,0.2,0.5,0.3,0.8,0.5c0.1,0,0.1,0.1,0.2,0.1
		c0.3,0.2,0.6,0.4,0.9,0.5c0.1,0.1,0.2,0.1,0.3,0.2c0.1,0,0.1,0.1,0.2,0.1c0,0,0,0,0,0c0,0,0,0,0,0c3.6,2.5,6.4,6.3,8.3,11.2
		c0,0,0,0.1,0,0.1c0.1,0.1,0.1,0.3,0.2,0.4c0,0.1,0,0.1,0.1,0.2c0,0.1,0.1,0.2,0.1,0.3h-1.1c-6.1-2.8-11.1-8.4-14.4-12.7
		c-1.8-2.4-3.2-4.6-4.2-6.2C1317.4,600.9,1319.4,602,1322.1,603.7z M1315.9,610.6c-1-3.6-1.3-7-1.4-9.4c1,1.6,2.4,3.8,4.2,6.2
		c3.9,5.2,7.9,9.1,12,11.6h-7.3C1319.8,617.4,1317,614.4,1315.9,610.6z M1355.9,622.5c0,0.8-0.7,1.5-1.5,1.5h-2.2h0h-19.4
		c-0.5,0-0.9,0.4-0.9,0.9c0,0.5,0.9,1.1,0.9,1.1h18.3l-1.9,10.1c-0.5,2.8-3,4.9-5.9,4.9H1331c-2.9,0-5.3-2-5.9-4.9l-1.9-10.1h3.2
		c0,0,0.9-0.6,0.9-1.1c0-0.5-0.9-0.9-0.9-0.9h-4.5c0,0,0,0,0,0h-0.4c-0.8,0-1.5-0.7-1.5-1.5s0.7-1.5,1.5-1.5h1.5h11.3c0,0,0,0,0,0
		c0,0,0,0,0,0h2.6h0.6h13.9h3C1355.2,621,1355.9,621.7,1355.9,622.5z M1351,619h-7.3c3.8-2.4,7.6-6,11.3-10.7c0.3-0.4,0.2-1-0.2-1.3
		c-0.4-0.3-1-0.2-1.3,0.2c-4.4,5.7-9,9.6-13.6,11.8c0,0,0,0,0,0h-1.1c0-0.1,0.1-0.2,0.1-0.3c0-0.1,0-0.1,0.1-0.2
		c0.1-0.1,0.1-0.3,0.2-0.4c0,0,0-0.1,0-0.1c1.9-4.9,4.7-8.7,8.3-11.2c0,0,0,0,0,0c0,0,0,0,0,0c0.1,0,0.1-0.1,0.2-0.1
		c0.1-0.1,0.2-0.1,0.3-0.2c0.3-0.2,0.6-0.4,0.9-0.5c0.1,0,0.1-0.1,0.2-0.1c0.3-0.2,0.5-0.3,0.8-0.5c0.1-0.1,0.2-0.1,0.2-0.2
		c0.2-0.1,0.4-0.3,0.6-0.4c0.1-0.1,0.3-0.2,0.4-0.2c0.1-0.1,0.3-0.2,0.4-0.3c0.2-0.1,0.4-0.3,0.6-0.4c0.1,0,0.1-0.1,0.2-0.1
		c2.7-1.7,4.7-2.8,6.1-3.6c-0.3,0.6-0.8,1.2-1.2,2c-0.3,0.4-0.1,1,0.3,1.2c0.2,0.1,0.3,0.1,0.5,0.1c0.3,0,0.6-0.1,0.8-0.4
		c0.4-0.7,0.8-1.3,1.2-1.9c0,2.4-0.3,5.8-1.4,9.4C1357.4,614.4,1354.7,617.4,1351,619z"/>
	<g>
	</g>
	<g>
	</g>
	<g>
	</g>
	<g>
	</g>
	<g>
	</g>
	<g>
	</g>
	<g>
	</g>
	<g>
	</g>
	<g>
	</g>
	<g>
	</g>
	<g>
	</g>
	<g>
	</g>
	<g>
	</g>
	<g>
	</g>
	<g>
	</g>
</g>
<g id="_chair">
	<path d="M1262,638h-82c-11,0-20-9-20-20V513c0-11,9-20,20-20h82c11,0,20,9,20,20v105C1282,629,1273,638,1262,638z"/>
	<path d="M1274,681h-105c-11,0-20-9-20-20v-3c0-11,9-20,20-20h105c11,0,20,9,20,20v3C1294,672,1285,681,1274,681z"/>
	<g>
		<path d="M1154.5,601h-11.6c-2.5,0-4.5-2-4.5-4.5l0,0c0-2.5,2-4.5,4.5-4.5h11.6c2.5,0,4.5,2,4.5,4.5l0,0
			C1159,599,1157,601,1154.5,601z"/>
		<path d="M1153,653l-4-2c-3.3,0-6-2.7-6-6v-43c0-3.3,2.7-6,6-6l0,0c3.3,0,6,2.7,6,6v43C1155,648.3,1156.3,653,1153,653z"/>
	</g>
	<g>
		<path d="M1287.9,601h11.6c2.5,0,4.5-2,4.5-4.5l0,0c0-2.5-2-4.5-4.5-4.5h-11.6c-2.5,0-4.5,2-4.5,4.5l0,0
			C1283.4,599,1285.4,601,1287.9,601z"/>
		<path d="M1289.4,653l4-2c3.3,0,6-2.7,6-6v-43c0-3.3-2.7-6-6-6l0,0c-3.3,0-6,2.7-6,6v43C1287.4,648.3,1286.1,653,1289.4,653z"/>
	</g>
	<rect x="1213" y="681" width="19" height="64.8"/>
	<line class="st22" x1="1220" y1="742" x2="1164" y2="752"/>
	<line class="st22" x1="1224" y1="742" x2="1280" y2="752"/>
	<line class="st22" x1="1221.5" y1="739.5" x2="1221.5" y2="756.5"/>
	<circle class="st23" cx="1167.1" cy="761.1" r="4.4"/>
	<circle class="st23" cx="1221.1" cy="761.1" r="4.4"/>
	<circle class="st23" cx="1278.1" cy="761.1" r="4.4"/>
</g>
<g id="certificate">
	<rect x="1077" y="239" class="st12" width="150" height="150"/>
	<rect x="1082.4" y="244.3" class="st24" width="140" height="140"/>
	<text transform="matrix(1 0 0 1 1118.8154 269.5278)" class="st25 st26">Certificate</text>
	<path class="st27" d="M1093,292c0,0-1-5,5-4s2,3,7,3s3-1,7-1s4-2,7,1s1,2,7,0s-1-6,6-2s7,5,9,3s-3-4,5-2s3-4,9-1s2,2,6,3s1,0,7-2
		s1-8,6-2s6,6,8,3s-3-7,4-3s8,6,11,3s1-7,5-4s1,2,4,3s3,1,3,1l0,0"/>
	<path class="st27" d="M1092,301.5c0,0-1-5,5-4s2,3,7,3s3-1,7-1s4-2,7,1s1,2,7,0s-1-6,6-2s7,5,9,3s-3-4,5-2s3-4,9-1s2,2,6,3s1,0,7-2
		s1-8,6-2s6,6,8,3s-3-7,4-3s8,6,11,3s1-7,5-4s1,2,4,3s3,1,3,1l0,0"/>
	<path class="st27" d="M1092,311.5c0,0-1-5,5-4s2,3,7,3s3-1,7-1s4-2,7,1s1,2,7,0s-1-6,6-2s7,5,9,3s-3-4,5-2s3-4,9-1s2,2,6,3s1,0,7-2
		s1-8,6-2s6,6,8,3s-3-7,4-3s8,6,11,3s1-7,5-4s1,2,4,3s3,1,3,1l0,0"/>
	<path class="st27" d="M1091,319.5c0,0-1-5,5-4s2,3,7,3s3-1,7-1s4-2,7,1s1,2,7,0s-1-6,6-2s7,5,9,3s-3-4,5-2s3-4,9-1s2,2,6,3s1,0,7-2
		s1-8,6-2s6,6,8,3s-3-7,4-3s8,6,11,3s1-7,5-4s1,2,4,3s3,1,3,1l0,0"/>
	<path class="st27" d="M1167,346c0,0-9-19,5-10s18-5,10,4s-1,9,0,9s2-8,10-3s-9-8-3-7s9-1,9-1s-3-3,3-1s6,4,8,3s-8,3-8,3"/>
	<line class="st27" x1="1163" y1="353.5" x2="1208" y2="353.5"/>
	<text transform="matrix(1 0 0 1 1163.9629 364.3818)" class="st25 st26">nisnci</text>
	
		<image style="overflow:visible;" width="1602" height="2135" xlink:href="../../../../Downloads/award-solid_108261.png"  transform="matrix(1.456511e-02 0 0 1.456510e-02 1098 335)">
	</image>
</g>
<g id="certificateSmall">
	<rect x="1243.5" y="288.5" class="st12" width="100.5" height="100.5"/>
	<rect x="1247.1" y="292" class="st24" width="93.8" height="93.8"/>
	<text transform="matrix(1 0 0 1 1271.499 308.9346)" class="st25 st28">Certificate</text>
	<path class="st29" d="M1254.2,324c0,0-0.7-3.4,3.4-2.7c4,0.7,1.3,2,4.7,2c3.4,0,2-0.7,4.7-0.7s2.7-1.3,4.7,0.7s0.7,1.3,4.7,0
		s-0.7-4,4-1.3s4.7,3.4,6,2s-2-2.7,3.4-1.3s2-2.7,6-0.7c4,2,1.3,1.3,4,2s0.7,0,4.7-1.3s0.7-5.4,4-1.3c3.4,4,4,4,5.4,2s-2-4.7,2.7-2
		s5.4,4,7.4,2s0.7-4.7,3.4-2.7s0.7,1.3,2.7,2c2,0.7,2,0.7,2,0.7l0,0"/>
	<path class="st29" d="M1253.5,330.4c0,0-0.7-3.4,3.4-2.7c4,0.7,1.3,2,4.7,2c3.4,0,2-0.7,4.7-0.7s2.7-1.3,4.7,0.7s0.7,1.3,4.7,0
		s-0.7-4,4-1.3c4.7,2.7,4.7,3.4,6,2s-2-2.7,3.4-1.3s2-2.7,6-0.7c4,2,1.3,1.3,4,2s0.7,0,4.7-1.3s0.7-5.4,4-1.3c3.4,4,4,4,5.4,2
		s-2-4.7,2.7-2c4.7,2.7,5.4,4,7.4,2s0.7-4.7,3.4-2.7c2.7,2,0.7,1.3,2.7,2c2,0.7,2,0.7,2,0.7l0,0"/>
	<path class="st29" d="M1253.5,337.1c0,0-0.7-3.4,3.4-2.7c4,0.7,1.3,2,4.7,2c3.4,0,2-0.7,4.7-0.7s2.7-1.3,4.7,0.7c2,2,0.7,1.3,4.7,0
		s-0.7-4,4-1.3c4.7,2.7,4.7,3.4,6,2s-2-2.7,3.4-1.3c5.4,1.3,2-2.7,6-0.7c4,2,1.3,1.3,4,2s0.7,0,4.7-1.3c4-1.3,0.7-5.4,4-1.3
		c3.4,4,4,4,5.4,2c1.3-2-2-4.7,2.7-2c4.7,2.7,5.4,4,7.4,2c2-2,0.7-4.7,3.4-2.7c2.7,2,0.7,1.3,2.7,2c2,0.7,2,0.7,2,0.7l0,0"/>
	<path class="st29" d="M1252.9,342.4c0,0-0.7-3.4,3.4-2.7s1.3,2,4.7,2c3.4,0,2-0.7,4.7-0.7s2.7-1.3,4.7,0.7c2,2,0.7,1.3,4.7,0
		s-0.7-4,4-1.3s4.7,3.4,6,2c1.3-1.3-2-2.7,3.4-1.3s2-2.7,6-0.7c4,2,1.3,1.3,4,2s0.7,0,4.7-1.3s0.7-5.4,4-1.3c3.4,4,4,4,5.4,2
		c1.3-2-2-4.7,2.7-2s5.4,4,7.4,2c2-2,0.7-4.7,3.4-2.7s0.7,1.3,2.7,2c2,0.7,2,0.7,2,0.7l0,0"/>
	<path class="st29" d="M1303.8,360.2c0,0-6-12.7,3.4-6.7c9.4,6,12.1-3.4,6.7,2.7s-0.7,6,0,6s1.3-5.4,6.7-2c5.4,3.4-6-5.4-2-4.7
		s6-0.7,6-0.7s-2-2,2-0.7c4,1.3,4,2.7,5.4,2s-5.4,2-5.4,2"/>
	<line class="st29" x1="1301.1" y1="365.2" x2="1331.3" y2="365.2"/>
	<text transform="matrix(1 0 0 1 1301.7549 372.502)" class="st25 st28">nisnci</text>
	
		<image style="overflow:visible;" width="1602" height="2135" xlink:href="../../../../Downloads/award-solid_108261.png"  transform="matrix(9.761010e-03 0 0 9.761004e-03 1257.549 352.8111)">
	</image>
</g>
<g id="lamp">
	<path class="st30" d="M793,557h27v2h-27V557z"/>
	<path class="st30" d="M806,536h2v18h-2V536z"/>
	<path class="st30" d="M799,544.5V534h27.9l-10.8-39h-18.8l-10.8,39H797v10.5c-1.5,0.5-1.9,1.6-1.7,2.6c0.3,1,1.2,1.7,2.2,1.7
		s1.9-0.7,2.2-1.7C800,546.1,799.6,545,799,544.5L799,544.5z"/>
</g>
<g id="picture">
	<rect x="719.5" y="237.5" class="st31" width="300" height="150"/>
	<path class="st32" d="M723.5,309.5c0,0,24-29,83-28s103,31,103,31l-30-15c0,0,52-17,93-10s39,7,39,7s2,1,3,1v87h-290
		C724.5,382.5,723.5,309.2,723.5,309.5z"/>
	<path class="st33" d="M879.5,297.5c0,0-45,5-35,21s6,28-12,29s-32,3-39,12s-40.4,22.6-40.4,22.6l91.4,0.2c0,0,49.9-10.9,45.9-30.9
		s-36-18-25-34S879.5,297.5,879.5,297.5z"/>
	<circle class="st34" cx="894.5" cy="262.5" r="12.5"/>
</g>
</svg>
