<svg xmlns="http://www.w3.org/2000/svg" viewBox="0 0 1366 768">
  <defs>
    <style>
      .cls-1 {
        opacity: 0.76;
      }

      .cls-2 {
        fill: #273be2;
      }

      .cls-3 {
        fill: none;
      }

      .cls-4 {
        fill: #1b2327;
      }

      .cls-5 {
        fill: #f7f1e6;
      }

      .cls-6 {
        fill: #e74424;
      }

      .cls-7 {
        fill: #748488;
      }

      .cls-8 {
        fill: #ba6746;
      }

      .cls-9 {
        fill: #55696e;
      }

      .cls-10 {
        fill: #fff;
      }

      .cls-11 {
        fill: #414b82;
      }

      .cls-12 {
        fill: #64afff;
      }

      .cls-13 {
        fill: #ffb69e;
      }

      .cls-14 {
        fill: #4699f2;
      }

      .cls-15 {
        fill: #55879b;
      }

      .cls-16 {
        fill: #6c9baa;
      }

      .cls-17 {
        fill: #b4d7dc;
      }

      .cls-18 {
        fill: #80391b;
      }
    </style>
  </defs>
  <title>mythfourbg</title>
  <g id="Layer_2" data-name="Layer 2">
    <g id="Layer_1-2" data-name="Layer 1">
      <g class="cls-1">
        <rect class="cls-2" x="0.5" y="0.5" width="1365" height="767"/>
        <path d="M1365,1V767H1V1H1365m1-1H0V768H1366V0Z"/>
      </g>
      <g id="Layer_2-2" data-name="Layer 2">
        <g>
          <rect class="cls-3" x="891.16" y="662.54" width="37.68" height="12.56"/>
          <path class="cls-4" d="M891.16,662.54h37.68V675.1h11.54V656.69a5.69,5.69,0,0,0-5.69-5.69h-49a5.69,5.69,0,0,0-5.69,5.69V675.1h11.2V662.54Z"/>
          <path class="cls-5" d="M975,690.59a15.5,15.5,0,0,0-15.49-15.49h-99A15.5,15.5,0,0,0,845,690.59v54.89A15.49,15.49,0,0,0,860.49,761h99A15.49,15.49,0,0,0,975,745.48Zm-64.56,54.07a24.72,24.72,0,1,1,24.72-24.72A24.72,24.72,0,0,1,910.44,744.66Z"/>
          <path class="cls-6" d="M910.44,695.22a24.72,24.72,0,1,0,24.72,24.72A24.72,24.72,0,0,0,910.44,695.22Zm14.33,26.11A3.66,3.66,0,0,1,921.1,725h-5.84v5.51a3.66,3.66,0,0,1-3.66,3.66h-2.52a3.66,3.66,0,0,1-3.66-3.66V725h-5.85a3.66,3.66,0,0,1-3.66-3.66v-2.52a3.66,3.66,0,0,1,3.66-3.66h5.85v-5.84a3.66,3.66,0,0,1,3.66-3.66h2.52a3.66,3.66,0,0,1,3.66,3.66v5.84h5.84a3.66,3.66,0,0,1,3.67,3.66Z"/>
          <path class="cls-5" d="M921.1,715.15h-5.84v-5.84a3.66,3.66,0,0,0-3.66-3.66h-2.52a3.66,3.66,0,0,0-3.66,3.66v5.84h-5.85a3.66,3.66,0,0,0-3.66,3.66v2.52a3.66,3.66,0,0,0,3.66,3.66h5.85v5.51a3.66,3.66,0,0,0,3.66,3.66h2.52a3.66,3.66,0,0,0,3.66-3.66V725h5.84a3.66,3.66,0,0,0,3.67-3.66v-2.52A3.66,3.66,0,0,0,921.1,715.15Z"/>
        </g>
      </g>
      <g id="Layer_2-3" data-name="Layer 2">
        <g>
          <rect class="cls-3" x="444.16" y="664.54" width="37.68" height="12.56"/>
          <path class="cls-4" d="M444.16,664.54h37.68V677.1h11.54V658.69a5.69,5.69,0,0,0-5.69-5.69h-49a5.69,5.69,0,0,0-5.69,5.69V677.1h11.2V664.54Z"/>
          <path class="cls-5" d="M528,692.59a15.5,15.5,0,0,0-15.49-15.49h-99A15.5,15.5,0,0,0,398,692.59v54.89A15.49,15.49,0,0,0,413.49,763h99A15.49,15.49,0,0,0,528,747.48Zm-64.56,54.07a24.72,24.72,0,1,1,24.72-24.72A24.72,24.72,0,0,1,463.44,746.66Z"/>
          <path class="cls-6" d="M463.44,697.22a24.72,24.72,0,1,0,24.72,24.72A24.72,24.72,0,0,0,463.44,697.22Zm14.33,26.11A3.66,3.66,0,0,1,474.1,727h-5.84v5.51a3.66,3.66,0,0,1-3.66,3.66h-2.52a3.66,3.66,0,0,1-3.66-3.66V727h-5.85a3.66,3.66,0,0,1-3.66-3.66v-2.52a3.66,3.66,0,0,1,3.66-3.66h5.85v-5.84a3.66,3.66,0,0,1,3.66-3.66h2.52a3.66,3.66,0,0,1,3.66,3.66v5.84h5.84a3.66,3.66,0,0,1,3.67,3.66Z"/>
          <path class="cls-5" d="M474.1,717.15h-5.84v-5.84a3.66,3.66,0,0,0-3.66-3.66h-2.52a3.66,3.66,0,0,0-3.66,3.66v5.84h-5.85a3.66,3.66,0,0,0-3.66,3.66v2.52a3.66,3.66,0,0,0,3.66,3.66h5.85v5.51a3.66,3.66,0,0,0,3.66,3.66h2.52a3.66,3.66,0,0,0,3.66-3.66V727h5.84a3.66,3.66,0,0,0,3.67-3.66v-2.52A3.66,3.66,0,0,0,474.1,717.15Z"/>
        </g>
      </g>
      <g>
        <g>
          <path class="cls-7" d="M721.44,747.87a16,16,0,0,1-16-16V604.16A16.19,16.19,0,0,1,719.08,588a16,16,0,0,1,18.37,15.85v128a16,16,0,0,1-16,16Z"/>
          <circle class="cls-8" cx="741.05" cy="440.24" r="27.57"/>
          <path class="cls-9" d="M760.28,747.87a16,16,0,0,1-16-16V604.16A16.19,16.19,0,0,1,757.92,588a16,16,0,0,1,18.37,15.85v128a16,16,0,0,1-16,16Z"/>
          <g>
            <path class="cls-8" d="M754.21,476.26H727.05l-.56,3.66a14.54,14.54,0,0,0,13.45,16.79,14.34,14.34,0,0,0,14.87-16.49Z"/>
            <path class="cls-8" d="M673.4,537.75v67.59a13.49,13.49,0,0,0,12.09,13.55A13.3,13.3,0,0,0,700,605.65v-67.9l-14-5.16Z"/>
            <path class="cls-8" d="M782.42,537.75v67.59a13.5,13.5,0,0,0,12.1,13.55A13.29,13.29,0,0,0,809,605.65v-67.9l-15.22-2.91Z"/>
          </g>
          <path class="cls-10" d="M776.25,476.26H754.17a1.64,1.64,0,0,0,0,.22c.33,7.36-6.48,13.62-13.57,13.62-7.61,0-13.25-6.24-13.58-13.62v-.22H705.39a31.87,31.87,0,0,0-32,31.49v29.84H700V508.37a5.22,5.22,0,0,1,5.14-4.85h.32V604.37h70.86l-.12-100.85h.44a5.2,5.2,0,0,1,5.13,4.78v29.29H809V507.68C808.91,490.36,794.22,476.26,776.25,476.26Z"/>
        </g>
        <g>
          <path class="cls-11" d="M740.68,695.19l-52.89-37H590.43a15,15,0,1,1-.18-30H692.56a14.88,14.88,0,0,1,8.51,2.68l56.79,39.72a15,15,0,0,1-17.18,24.57Z"/>
          <path class="cls-12" d="M588,547.49a16.67,16.67,0,0,0-23.26-3.89l-30,18.13A16.68,16.68,0,0,0,530.84,585l47.38,65.52L641,628.15Z"/>
          <path class="cls-13" d="M554.77,501.69a29.25,29.25,0,1,0-9.54,40.25A29.26,29.26,0,0,0,554.77,501.69Z"/>
          <path class="cls-13" d="M654.83,593.47h-.06l-49.85.22-13-11.42-15.53,1.57-2.86,17.33,17.74,15.58A13.27,13.27,0,0,0,600,620h0l54.85-.24a13.17,13.17,0,0,0-.06-26.33Z"/>
          <path class="cls-14" d="M591.7,582.42l-24.82-21.84a13.25,13.25,0,0,0-17.49,19.92l23.83,20.92Z"/>
          <path class="cls-15" d="M634.56,750.89A8.86,8.86,0,0,1,625.7,742V669.09a8.86,8.86,0,1,1,17.72-.11v73a8.86,8.86,0,0,1-8.86,8.86Z"/>
          <path class="cls-16" d="M634.16,732.17c-25.53,0-46.23,12.52-46.23,18.5s20.7,10.83,46.23,10.83,46.22-4.85,46.22-10.83-20.7-18.5-46.22-18.5Z"/>
          <path class="cls-17" d="M753.32,727.81a12.22,12.22,0,0,1-7.22-2.36l-61.31-44.76H578a12.26,12.26,0,0,1-10-5.22L486.12,559a12.27,12.27,0,0,1,20.08-14.09l78.12,111.3H688.79a12.21,12.21,0,0,1,7.23,2.36l64.54,47.12a12.27,12.27,0,0,1-7.24,22.17Z"/>
        </g>
      </g>
      <g>
        <g>
          <path class="cls-11" d="M1242.64,674.41l-54.46-38.09H1088a15.44,15.44,0,1,1-.22-30.87h105.32a15.38,15.38,0,0,1,8.84,2.79l58.45,40.87a15.44,15.44,0,0,1-17.7,25.3Z"/>
          <path class="cls-12" d="M1085.21,522a17.19,17.19,0,0,0-24-4l-31,18.7a17.21,17.21,0,0,0-4,24l48.9,67.62L1140,605.27Z"/>
          <path class="cls-13" d="M1050.93,474.76a30.18,30.18,0,1,0-9.84,41.53A30.17,30.17,0,0,0,1050.93,474.76Z"/>
          <path class="cls-13" d="M1154.23,569.77h-.06l-51.49.23-13.43-11.79-16,1.61-3,17.91,18.32,16.09a13.65,13.65,0,0,0,9,3.39h0l56.65-.24a13.6,13.6,0,0,0-.06-27.2Z"/>
          <path class="cls-14" d="M1089.05,558.07l-25.62-22.54a13.68,13.68,0,0,0-18,20.56l24.6,21.59Z"/>
          <path class="cls-15" d="M1124.39,721.59v-73a9.1,9.1,0,0,1,8.51-9.19,8.93,8.93,0,0,1,9.33,8.91v73.55a8.92,8.92,0,0,1-9.33,8.91A9.1,9.1,0,0,1,1124.39,721.59Z"/>
          <path class="cls-16" d="M1132.87,712.62c-26.35,0-47.71,12.92-47.71,19.09s21.36,11.18,47.71,11.18,47.7-5,47.7-11.18S1159.21,712.62,1132.87,712.62Z"/>
          <path class="cls-17" d="M1255.11,708.42a12.48,12.48,0,0,1-7.41-2.44l-62.93-46.33H1075.13a12.55,12.55,0,0,1-10.31-5.4l-83.88-120.5c-3.06-4.4-2.9-11.47.58-15.53a12.55,12.55,0,0,1,20,.86l80.18,115.19h107.21a12.47,12.47,0,0,1,7.42,2.44l66.24,48.76a12.77,12.77,0,0,1,2.75,17.74,12.57,12.57,0,0,1-10.18,5.21Z"/>
        </g>
        <g>
          <circle class="cls-18" cx="1156.75" cy="434.26" r="31.13" transform="translate(31.74 945.14) rotate(-45)"/>
          <path class="cls-7" d="M1186.44,740l-12.14-81.63a17.1,17.1,0,0,1,.41-6.94l19.6-71.84a16.92,16.92,0,0,1,32.65,8.9l-18.67,68.42,11.62,78.12a16.92,16.92,0,1,1-33.47,5Z"/>
          <path class="cls-9" d="M1239.34,740l-12.13-81.63a16.69,16.69,0,0,1-.07-4.52l8.71-71.85a16.92,16.92,0,1,1,33.59,4.07L1261,655.67l11.8,79.38a16.92,16.92,0,1,1-33.47,5Z"/>
          <path class="cls-10" d="M1195.29,462l-21.89,8.84a30.44,30.44,0,0,0-17.35,38.24l32.24,92.64,80.69-22-33.44-99.18A30.45,30.45,0,0,0,1195.29,462Z"/>
          <path class="cls-10" d="M1211.36,485.86a14.1,14.1,0,0,0-18-8.53l-54.43,19.46-48.18-9.88L1084,499.19l1,15.34,52,10.68a14.08,14.08,0,0,0,7.58-.53l58.15-20.8a14.09,14.09,0,0,0,8.52-18Z"/>
          <path class="cls-18" d="M1090.73,486.91a14.1,14.1,0,1,0-5.66,27.62Z"/>
        </g>
      </g>
      <g>
        <path class="cls-11" d="M337.9,676.61l-66.49-46.5H149.2a19.13,19.13,0,0,1-19.27-18.35,18.85,18.85,0,0,1,18.84-19.35H277.35a18.85,18.85,0,0,1,10.8,3.4l71.36,49.91a18.85,18.85,0,0,1-21.61,30.89Z"/>
        <path class="cls-12" d="M144.39,489.15a21.29,21.29,0,0,0-29.68-5L76.43,507.32a21.28,21.28,0,0,0-5,29.68l60.45,83.6,80.12-28.53Z"/>
        <path class="cls-13" d="M102,430.73a37.32,37.32,0,1,0-12.17,51.35A37.32,37.32,0,0,0,102,430.73Z"/>
        <path class="cls-13" d="M230.06,547.73H230l-64.18.28-16.73-14.69-20,2-3.68,22.31,22.87,20.08a17,17,0,0,0,11.18,4.21h.08l70.6-.31a17,17,0,0,0-.08-33.9Z"/>
        <path class="cls-14" d="M149.13,533.73l-31.67-27.87a16.91,16.91,0,1,0-22.31,25.41L125.55,558Z"/>
        <path class="cls-15" d="M203.45,748a11.17,11.17,0,0,1-11.17-11.17V644.94a11.29,11.29,0,0,1,9.14-11.21,11.17,11.17,0,0,1,13.2,11v92.1A11.17,11.17,0,0,1,203.45,748Z"/>
        <path class="cls-16" d="M203.3,724.79c-32.57,0-59,16-59,23.6s26.41,13.82,59,13.82,59-6.19,59-13.82S235.87,724.79,203.3,724.79Z"/>
        <path class="cls-17" d="M354.42,719.11a15.51,15.51,0,0,1-9.16-3l-77.79-56.68H131.91a16,16,0,0,1-12.73-6.73L15.4,504.86A15.56,15.56,0,1,1,40.88,487L140,628H272.55a17.1,17.1,0,0,1,9.18,3.18L363.61,691a15.57,15.57,0,0,1-9.19,28.14Z"/>
      </g>
    </g>
  </g>
</svg>
