<?xml version="1.0" encoding="utf-8"?>
<!-- Generator: Adobe Illustrator 24.0.1, SVG Export Plug-In . SVG Version: 6.00 Build 0)  -->
<svg version="1.1" id="room" xmlns="http://www.w3.org/2000/svg" xmlns:xlink="http://www.w3.org/1999/xlink" x="0px" y="0px"
	 viewBox="0 0 1366 768" style="enable-background:new 0 0 1366 768;" xml:space="preserve">
<style type="text/css">
	.st0{fill:#F4E8B5;}
	.st1{fill:#EEEEEE;stroke:#C49E7C;stroke-width:3;stroke-miterlimit:10;}
	.st2{fill:#EEEEEE;stroke:#AAAAAA;stroke-width:3;stroke-miterlimit:10;}
	.st3{fill:#C19A6B;}
	.st4{fill:#D3DDE2;}
	.st5{fill:url(#SVGID_1_);}
	.st6{fill:url(#SVGID_2_);}
	.st7{fill:none;stroke:#000000;stroke-width:1.0028;stroke-miterlimit:10;}
	.st8{fill:#EEEEEE;}
	.st9{font-family:'MyriadPro-Regular';}
	.st10{font-size:8.9724px;}
	.st11{fill:#6B5137;}
	.st12{fill:#3A2C21;}
	.st13{fill:#AD8C68;}
	.st14{fill:none;stroke:#3A2C21;stroke-width:0.8674;stroke-miterlimit:10;}
	.st15{fill:none;stroke:#3A2C21;stroke-miterlimit:10;}
	.st16{fill:#80C56E;}
	.st17{fill:#66AD66;}
	.st18{fill:#FEC37D;}
	.st19{fill:#F9AE5D;}
	.st20{fill:#F2A559;}
	.st21{fill:#EA8F3D;}
	.st22{fill:#331100;}
	.st23{fill:#582200;}
	.st24{fill:#545454;}
	.st25{fill:#66A7DD;}
	.st26{fill:#312322;}
	.st27{fill:#FF8888;}
	.st28{fill:#97CBFF;}
	.st29{fill:#FFFFFF;}
	.st30{fill:none;stroke:#000000;stroke-width:2.6101;stroke-miterlimit:10;}
	.st31{fill:#F5B98C;}
	.st32{fill:#F4A671;}
	.st33{fill:#3B2416;}
	.st34{fill:#00060D;}
	.st35{fill:#44211B;}
	.st36{fill:#F9F9F9;}
	.st37{fill:#EE5351;}
	.st38{fill:none;stroke:#000000;stroke-width:1.3051;stroke-miterlimit:10;}
	.st39{fill:#CCCCCC;}
	.st40{fill:none;stroke:#CCCCCC;stroke-width:2.6101;stroke-miterlimit:10;}
	.st41{fill:#FFF8F8;stroke:#CCCCCC;stroke-width:1.3051;stroke-miterlimit:10;}
	.st42{fill:#999999;}
	.st43{fill:#FFFFFF;stroke:#999999;stroke-width:1.3051;stroke-miterlimit:10;}
	.st44{fill:#FFFFFF;stroke:#CCCCCC;stroke-width:0.6525;stroke-miterlimit:10;}
	.st45{fill:#ADADAD;}
	.st46{fill:#2D60AA;}
	.st47{fill:#FFA63B;}
	.st48{fill:#E2A379;}
	.st49{fill:#160900;}
	.st50{fill:none;stroke:#533520;stroke-width:0.4664;stroke-miterlimit:10;}
	.st51{fill:none;stroke:#000000;stroke-width:7;stroke-miterlimit:10;}
	.st52{fill:none;stroke:#000000;stroke-width:5.6036;stroke-miterlimit:10;}
	.st53{font-family:'DrSugiyama-Regular';}
	.st54{font-size:21px;}
	.st55{fill:none;stroke:#000000;stroke-miterlimit:10;}
	.st56{font-size:14.0734px;}
	.st57{fill:none;stroke:#000000;stroke-width:0.6702;stroke-miterlimit:10;}
	.st58{fill:#7C7A23;stroke:#000000;stroke-width:2;stroke-miterlimit:10;}
	.st59{fill:#3CB5E5;stroke:#000000;stroke-width:10;stroke-miterlimit:10;}
	.st60{fill:#1E7A37;}
	.st61{fill:#ACDBEA;}
	.st62{fill:#CE5E20;}
</style>
<rect id="roomWall" x="-2" y="129" class="st0" width="1370" height="640"/>
<rect x="0.3" y="730" class="st1" width="1366.1" height="40"/>
<g id="ceiling">
	<path class="st2" d="M1207.5-0.5h159l0.5,129L0,129C-0.7,129.7,0,0,0,0l120.1-0.3L153.3,128L120,0l143.1-0.3L296.3,128L263.5-2.6
		h150.4l21.5,130.8l-22-130.7L570.8-3l15.8,131.6L570.5-2.5L756.9-3l-15.8,131.6L756.5-2.5l157.3-0.1l-21.5,130.8L913.5-2.5
		l151.1,2.2L1031.5,128l33-128.5l143.1,0.2L1174.5,128"/>
</g>
<g id="door">
	<rect x="79.5" y="295.5" width="274" height="475.2"/>
	<polygon class="st3" points="311.5,769.7 78.5,769.7 79,295 312,337.2 	"/>
	<path class="st4" d="M295.8,565.3h-19.6c-1.2,0-2.2-1-2.2-2.2v-34.6c0-1.2,1-2.2,2.2-2.2h19.6c1.2,0,2.2,1,2.2,2.2v34.6
		C298,564.3,297,565.3,295.8,565.3z"/>
	
		<radialGradient id="SVGID_1_" cx="286" cy="544" r="8" gradientTransform="matrix(1 0 0 1.0056 -1.608562e-05 -1.6648)" gradientUnits="userSpaceOnUse">
		<stop  offset="0" style="stop-color:#FFFFFF"/>
		<stop  offset="8.489811e-02" style="stop-color:#F6F6F6"/>
		<stop  offset="0.224" style="stop-color:#DDDDDD"/>
		<stop  offset="0.4" style="stop-color:#B5B5B5"/>
		<stop  offset="0.6061" style="stop-color:#7E7E7E"/>
		<stop  offset="0.8345" style="stop-color:#373737"/>
		<stop  offset="1" style="stop-color:#000000"/>
	</radialGradient>
	<ellipse class="st5" cx="286" cy="545.4" rx="8" ry="8"/>
	
		<radialGradient id="SVGID_2_" cx="286" cy="544" r="3" gradientTransform="matrix(1 0 0 1.0056 -1.608562e-05 -1.6648)" gradientUnits="userSpaceOnUse">
		<stop  offset="0" style="stop-color:#FFFFFF"/>
		<stop  offset="8.489811e-02" style="stop-color:#F6F6F6"/>
		<stop  offset="0.224" style="stop-color:#DDDDDD"/>
		<stop  offset="0.4" style="stop-color:#B5B5B5"/>
		<stop  offset="0.6061" style="stop-color:#7E7E7E"/>
		<stop  offset="0.8345" style="stop-color:#373737"/>
		<stop  offset="1" style="stop-color:#000000"/>
	</radialGradient>
	<ellipse class="st6" cx="286" cy="545.4" rx="3" ry="3"/>
	<line class="st7" x1="286" y1="542.4" x2="286" y2="548.4"/>
	<rect x="142.9" y="385" class="st8" width="108.6" height="21.7"/>
	<text transform="matrix(0.9944 0 0 1 160.1401 399.6045)" class="st9 st10">Clinical Trials Expert</text>
</g>
<g id="table">
	<rect x="771" y="559.5" class="st11" width="199" height="207.8"/>
	<rect x="777.4" y="565.9" class="st12" width="187.6" height="200.4"/>
</g>
<g id="secondTable">
	<rect x="970" y="642" class="st13" width="397" height="126"/>
	<rect x="970" y="642" class="st12" width="396.6" height="16"/>
	<rect x="1234.5" y="657.5" class="st14" width="133" height="28"/>
	<rect x="971" y="658" class="st15" width="132" height="110"/>
	<line class="st14" x1="1036.5" y1="686" x2="1036.5" y2="768"/>
	<rect x="970.5" y="657.5" class="st14" width="133" height="28"/>
	<circle class="st12" cx="1036.7" cy="671.7" r="4.3"/>
	<circle class="st12" cx="1027.7" cy="701.7" r="4.3"/>
	<circle class="st12" cx="1044.7" cy="701.7" r="4.3"/>
	<rect x="1103" y="658" class="st15" width="132" height="110"/>
	<line class="st14" x1="1168.5" y1="686" x2="1168.5" y2="768"/>
	<rect x="1102.5" y="657.5" class="st14" width="133" height="28"/>
	<circle class="st12" cx="1168.7" cy="671.7" r="4.3"/>
	<circle class="st12" cx="1159.7" cy="701.7" r="4.3"/>
	<circle class="st12" cx="1176.7" cy="701.7" r="4.3"/>
	<rect x="1235" y="658" class="st15" width="132" height="110"/>
	<line class="st14" x1="1300.5" y1="686" x2="1300.5" y2="768"/>
	<circle class="st12" cx="1300.7" cy="671.7" r="4.3"/>
	<circle class="st12" cx="1291.7" cy="701.7" r="4.3"/>
	<circle class="st12" cx="1308.7" cy="701.7" r="4.3"/>
</g>
<g id="plant">
	<path class="st16" d="M1355.1,587.1c0.3,0.7,3.2,9.3-2.8,19.5c-3.7,6.2-9.2,6.6-9.8,6.6c-0.3-0.4-3.5-5-0.9-11.7
		C1345.8,590.4,1354.3,587.4,1355.1,587.1z"/>
	<path class="st17" d="M1355.1,587.1l-12.6,26l0,0c0.5,0,6.1-0.4,9.8-6.6C1358.3,596.5,1355.3,587.9,1355.1,587.1z"/>
	<path class="st16" d="M1319.4,587.1c-0.3,0.7-3.2,9.3,2.8,19.5c3.7,6.2,9.2,6.6,9.8,6.6c0.3-0.4,3.5-5,0.9-11.7
		C1328.7,590.4,1320.1,587.4,1319.4,587.1z"/>
	<path class="st17" d="M1332.8,601.5c-4.2-11-12.7-14.1-13.5-14.3c7.4,14.2,11.4,23.3,12.6,26C1332.4,612.5,1335.3,608,1332.8,601.5
		z"/>
	<path class="st16" d="M1337.2,581.8c-0.9,0.9-11.3,11.4-9.6,30.4c1,11.6,8.8,16.1,9.6,16.5c0.8-0.4,8.6-4.9,9.6-16.5
		C1348.5,593.2,1338.1,582.7,1337.2,581.8z"/>
	<path class="st17" d="M1337,581.8v47c0.8-0.4,8.6-4.9,9.6-16.5C1348.3,593.2,1337.9,582.7,1337,581.8z"/>
	<path class="st16" d="M1359.4,610.9c2-6.7,1.3-12.9,1.3-12.9s-3.8,1.7-13.2,7.8c-7.3,4.7-9.6,13-10.3,15.3h8.6
		C1352.1,621,1357.6,616.9,1359.4,610.9z"/>
	<path class="st17" d="M1360.7,597.9c0,0-9.7,19.2-23.5,23.1h8.6c6.3,0,11.8-4.1,13.6-10.1C1361.4,604.2,1360.7,597.9,1360.7,597.9z
		"/>
	<path class="st16" d="M1315.1,610.9c-2-6.7-1.3-12.9-1.3-12.9s3.8,1.7,13.2,7.8c7.3,4.7,9.6,13,10.3,15.3h-8.6
		C1322.4,621,1316.8,616.9,1315.1,610.9z"/>
	<path class="st17" d="M1337.2,621.2c-0.7-2.2-2.9-10.5-10.3-15.3c-9.4-6.1-13.2-7.8-13.2-7.8S1323.5,617.2,1337.2,621.2z"/>
	<path class="st18" d="M1343.5,642H1331c-3.3,0-6.1-2.4-6.7-5.6l-2.7-14.4h31.3l-2.7,14.4C1349.6,639.6,1346.8,642,1343.5,642z"/>
	<path class="st19" d="M1346.8,622l-2.7,14.4c-0.6,3.3-3.4,5.6-6.8,5.6h6.1c3.3,0,6.1-2.4,6.7-5.6l2.7-14.4H1346.8z"/>
	<path class="st20" d="M1354.3,625h-34.1c-1.4,0-2.5-1.1-2.5-2.5l0,0c0-1.4,1.1-2.5,2.5-2.5h34.1c1.4,0,2.5,1.1,2.5,2.5l0,0
		C1356.8,623.9,1355.6,625,1354.3,625z"/>
	<path class="st21" d="M1354,620h-4v5h4c1.4,0,2.5-1.1,2.5-2.5l0,0C1356.5,621.1,1355.4,620,1354,620z"/>
	<path d="M1360.3,611.3c2-6.9,1.4-13.2,1.3-13.5c0,0,0,0,0,0c0,0,0-0.1,0-0.1c0,0,0,0,0,0c0,0,0-0.1,0-0.1c0,0,0,0,0,0
		c0,0,0,0,0-0.1c0,0,0,0,0,0c0,0,0,0,0-0.1c0,0,0,0,0,0c0,0,0,0-0.1-0.1c0,0,0,0,0,0c0,0,0-0.1-0.1-0.1c0,0,0,0,0,0c0,0,0,0-0.1-0.1
		c0,0,0,0,0,0c0,0,0,0-0.1,0c0,0,0,0,0,0c0,0,0,0,0,0c0,0,0,0,0,0c0,0,0,0,0,0c0,0,0,0,0,0c0,0,0,0-0.1,0c0,0,0,0,0,0
		c-0.1,0-0.1,0-0.2,0c0,0-0.2,0-0.2,0c0,0-0.1,0-0.1,0c0,0,0,0,0,0c0,0,0,0-0.1,0c0,0,0,0,0,0c0,0,0,0-0.1,0c0,0,0,0,0,0
		c0,0-0.1,0-0.1,0c0,0,0,0,0,0c-0.1,0-1.3,0.6-4.1,2.2c1.7-6.9,0-11.9-0.3-12.6c0,0,0,0,0,0c0,0,0,0,0,0c0,0,0,0,0,0c0,0,0,0,0,0
		c0,0,0,0,0,0c0,0,0,0,0,0c0,0,0,0,0,0c0,0,0,0,0,0c0,0,0,0,0,0c0,0,0,0,0,0c0,0,0,0,0,0c0,0,0,0,0,0c0,0,0,0,0,0c0,0,0,0,0,0
		c0,0,0,0,0,0c0,0,0,0,0,0c0,0,0,0,0,0c0,0,0,0,0,0c0,0,0,0,0,0c0,0,0,0,0,0c0,0,0,0,0,0c0,0,0,0,0,0c0,0,0,0,0,0c0,0,0,0,0,0
		c0,0,0,0,0,0c0,0,0,0-0.1,0c0,0,0,0,0,0c0,0,0,0-0.1,0c0,0,0,0,0,0c0,0,0,0,0,0c0,0,0,0,0,0c0,0,0,0,0,0c0,0,0,0,0,0c0,0,0,0,0,0
		c-0.6,0.2-5.3,1.9-9.4,6.9c-2.7-7.3-6.7-11.4-7.4-12c0,0,0,0,0,0c0,0,0,0,0,0c0,0,0,0,0,0c0,0,0,0,0,0c0,0,0,0,0,0c0,0,0,0,0,0
		c0,0,0,0,0,0c0,0,0,0,0,0c0,0,0,0,0,0c0,0,0,0,0,0c0,0,0,0,0,0c0,0,0,0,0,0c0,0,0,0,0,0c0,0,0,0,0,0c0,0-0.1,0-0.1,0c0,0,0,0,0,0
		c0,0,0,0,0,0c0,0-0.1,0-0.1,0c0,0,0,0,0,0c0,0,0,0,0,0c0,0,0,0,0,0c0,0,0,0,0,0c0,0,0,0,0,0c0,0,0,0,0,0c0,0,0,0,0,0c0,0,0,0,0,0
		c0,0,0,0,0,0c0,0,0,0,0,0c0,0,0,0,0,0c0,0,0,0,0,0c0,0,0,0,0,0c0,0,0,0,0,0c-0.6,0.6-4.6,4.7-7.4,12c-4.2-5.1-8.9-6.8-9.4-6.9
		c0,0,0,0,0,0c0,0,0,0,0,0c0,0,0,0,0,0c0,0,0,0,0,0c0,0,0,0-0.1,0c0,0,0,0,0,0c0,0,0,0-0.1,0c0,0,0,0,0,0c0,0,0,0-0.1,0c0,0,0,0,0,0
		c0,0,0,0,0,0c0,0,0,0,0,0c0,0,0,0,0,0c0,0,0,0,0,0c0,0,0,0,0,0c0,0,0,0,0,0c0,0,0,0,0,0c0,0,0,0,0,0c0,0,0,0,0,0c0,0,0,0,0,0
		c0,0,0,0,0,0c0,0,0,0,0,0c0,0,0,0,0,0c0,0,0,0,0,0c0,0,0,0,0,0c0,0,0,0,0,0c0,0,0,0,0,0c0,0,0,0,0,0c0,0,0,0,0,0c0,0,0,0,0,0
		c0,0,0,0,0,0c0,0,0,0,0,0c0,0,0,0,0,0c0,0,0,0,0,0c-0.2,0.6-2,5.7-0.3,12.6c-2.8-1.6-4-2.2-4.1-2.2c0,0,0,0,0,0c0,0-0.1,0-0.1,0
		c0,0,0,0,0,0c0,0,0,0-0.1,0c0,0,0,0,0,0c0,0,0,0-0.1,0c0,0,0,0,0,0c0,0,0,0-0.1,0c0,0,0,0,0,0c-0.1,0-0.1,0-0.2,0c0,0,0,0,0,0
		c0,0,0,0-0.1,0c0,0,0,0,0,0c0,0,0,0,0,0c0,0,0,0,0,0c0,0,0,0,0,0c0,0,0,0,0,0c0,0,0,0-0.1,0c0,0,0,0,0,0c0,0,0,0-0.1,0.1
		c0,0,0,0,0,0c0,0,0,0-0.1,0.1c0,0,0,0,0,0c0,0,0,0,0,0.1c0,0,0,0,0,0c0,0,0,0,0,0.1c0,0,0,0,0,0c0,0,0,0,0,0.1c0,0,0,0,0,0
		c0,0,0,0.1,0,0.1c0,0,0,0,0,0c0,0,0,0.1,0,0.1c0,0,0,0,0,0c0,0.3-0.7,6.4,1.3,13.2c1,3.4,3.1,6.3,6.1,8.2c-1.1,0.5-1.8,1.6-1.8,2.9
		c0,1.7,1.3,3.1,2.9,3.2l1.9,10.3c0.7,3.7,3.9,6.3,7.6,6.3h12.3c3.7,0,6.9-2.7,7.6-6.3l1.8-9.7h1.2c1.4,0,2.7-0.8,3.2-2.1
		c0.8-2.2-0.7-4.2-2.6-4.5C1357.3,617.4,1359.3,614.6,1360.3,611.3z M1353.9,600.8c-1.5,0.9-3.2,2-5.3,3.3c0,0,0,0-0.1,0
		c-0.2,0.2-0.5,0.3-0.7,0.5c0,0,0,0,0,0c0-0.1,0-0.1,0-0.2c0-0.2,0-0.4,0-0.5c2.1-4.4,4.5-9.2,7.1-14.2
		C1355.2,592,1355.5,596,1353.9,600.8z M1353.1,589c-2.1,4-4,7.9-5.8,11.6c-0.3-1.9-0.8-3.7-1.3-5.3
		C1348.4,592,1351.2,590.1,1353.1,589z M1338,584.2c0.9,1.1,2.1,2.7,3.2,4.8c1.1,2,2,4.1,2.7,6.3c0,0,0,0.1,0,0.1
		c1,3,1.6,6.2,1.9,9.4c0,0,0,0.1,0,0.1c0,0.2,0,0.4,0,0.6c0,0.1,0,0.1,0,0.2c0,0,0,0.1,0,0.1c-2.9,2.1-5.3,5-7.1,8.6c0,0,0,0,0,0
		c-0.1,0.1-0.1,0.3-0.2,0.4c0,0,0,0,0,0.1c-0.1,0.1-0.1,0.3-0.2,0.4c0,0,0,0,0,0.1c-0.1,0.2-0.2,0.4-0.3,0.6L1338,584.2L1338,584.2z
		 M1330,595.4C1330,595.4,1330,595.4,1330,595.4c0.7-2.3,1.7-4.4,2.8-6.4c1.2-2.1,2.3-3.7,3.2-4.8V616c-0.1-0.2-0.2-0.4-0.3-0.6
		c0,0,0,0,0-0.1c-0.1-0.1-0.1-0.3-0.2-0.4c0,0,0,0,0-0.1c-0.1-0.1-0.1-0.3-0.2-0.4c0,0,0,0,0,0c-1.8-3.6-4.2-6.5-7.1-8.6
		c0,0,0-0.1,0-0.1c0-0.1,0-0.1,0-0.2c0-0.2,0-0.4,0-0.6c0,0,0-0.1,0-0.1C1328.4,601.6,1329,598.4,1330,595.4z M1328.5,595.3
		c-0.5,1.6-1,3.4-1.3,5.3c-1.8-3.6-3.7-7.5-5.8-11.6C1323.3,590.1,1326,592,1328.5,595.3z M1319.7,589.6c2.6,5,5,9.8,7.1,14.2
		c0,0.2,0,0.4,0,0.5c0,0.1,0,0.1,0,0.2c0,0,0,0,0,0c-0.3-0.2-0.5-0.3-0.8-0.5c0,0,0,0,0,0c-2.1-1.3-3.8-2.4-5.3-3.3
		C1319,596,1319.2,592,1319.7,589.6z M1322.1,603.7c0.1,0.1,0.2,0.1,0.3,0.2c0.2,0.1,0.4,0.2,0.6,0.4c0.1,0.1,0.3,0.2,0.4,0.3
		c0.1,0.1,0.2,0.1,0.4,0.2c0.2,0.1,0.4,0.3,0.6,0.4c0.1,0,0.2,0.1,0.2,0.1c0.3,0.2,0.5,0.3,0.8,0.5c0.1,0,0.1,0.1,0.2,0.1
		c0.3,0.2,0.6,0.4,0.9,0.5c0.1,0.1,0.2,0.1,0.3,0.2c0.1,0,0.1,0.1,0.2,0.1c0,0,0,0,0,0c0,0,0,0,0,0c3.6,2.5,6.4,6.3,8.3,11.2
		c0,0,0,0.1,0,0.1c0.1,0.1,0.1,0.3,0.2,0.4c0,0.1,0,0.1,0.1,0.2c0,0.1,0.1,0.2,0.1,0.3h-1.1c-6.1-2.8-11.1-8.4-14.4-12.7
		c-1.8-2.4-3.2-4.6-4.2-6.2C1317.4,600.9,1319.4,602,1322.1,603.7z M1315.9,610.6c-1-3.6-1.3-7-1.4-9.4c1,1.6,2.4,3.8,4.2,6.2
		c3.9,5.2,7.9,9.1,12,11.6h-7.3C1319.8,617.4,1317,614.4,1315.9,610.6z M1355.9,622.5c0,0.8-0.7,1.5-1.5,1.5h-2.2h0h-19.4
		c-0.5,0-0.9,0.4-0.9,0.9c0,0.5,0.9,1.1,0.9,1.1h18.3l-1.9,10.1c-0.5,2.8-3,4.9-5.9,4.9H1331c-2.9,0-5.3-2-5.9-4.9l-1.9-10.1h3.2
		c0,0,0.9-0.6,0.9-1.1c0-0.5-0.9-0.9-0.9-0.9h-4.5c0,0,0,0,0,0h-0.4c-0.8,0-1.5-0.7-1.5-1.5s0.7-1.5,1.5-1.5h1.5h11.3c0,0,0,0,0,0
		c0,0,0,0,0,0h2.6h0.6h13.9h3C1355.2,621,1355.9,621.7,1355.9,622.5z M1351,619h-7.3c3.8-2.4,7.6-6,11.3-10.7c0.3-0.4,0.2-1-0.2-1.3
		c-0.4-0.3-1-0.2-1.3,0.2c-4.4,5.7-9,9.6-13.6,11.8c0,0,0,0,0,0h-1.1c0-0.1,0.1-0.2,0.1-0.3c0-0.1,0-0.1,0.1-0.2
		c0.1-0.1,0.1-0.3,0.2-0.4c0,0,0-0.1,0-0.1c1.9-4.9,4.7-8.7,8.3-11.2c0,0,0,0,0,0c0,0,0,0,0,0c0.1,0,0.1-0.1,0.2-0.1
		c0.1-0.1,0.2-0.1,0.3-0.2c0.3-0.2,0.6-0.4,0.9-0.5c0.1,0,0.1-0.1,0.2-0.1c0.3-0.2,0.5-0.3,0.8-0.5c0.1-0.1,0.2-0.1,0.2-0.2
		c0.2-0.1,0.4-0.3,0.6-0.4c0.1-0.1,0.3-0.2,0.4-0.2c0.1-0.1,0.3-0.2,0.4-0.3c0.2-0.1,0.4-0.3,0.6-0.4c0.1,0,0.1-0.1,0.2-0.1
		c2.7-1.7,4.7-2.8,6.1-3.6c-0.3,0.6-0.8,1.2-1.2,2c-0.3,0.4-0.1,1,0.3,1.2c0.2,0.1,0.3,0.1,0.5,0.1c0.3,0,0.6-0.1,0.8-0.4
		c0.4-0.7,0.8-1.3,1.2-1.9c0,2.4-0.3,5.8-1.4,9.4C1357.4,614.4,1354.7,617.4,1351,619z"/>
	<g>
	</g>
	<g>
	</g>
	<g>
	</g>
	<g>
	</g>
	<g>
	</g>
	<g>
	</g>
	<g>
	</g>
	<g>
	</g>
	<g>
	</g>
	<g>
	</g>
	<g>
	</g>
	<g>
	</g>
	<g>
	</g>
	<g>
	</g>
	<g>
	</g>
</g>
<g id="doctor">
	<title>doc_1</title>
	<g id="Layer_2_2_">
		<g id="Layer_1-2_1_">
			<g id="legs_1_">
				<ellipse class="st22" cx="1042.1" cy="757.7" rx="6.8" ry="10.6"/>
				
					<ellipse transform="matrix(1.221724e-03 -1 1 1.221724e-03 283.8527 1798.246)" class="st23" cx="1042.1" cy="757" rx="8.9" ry="6.8"/>
				<ellipse class="st22" cx="1072.5" cy="757.2" rx="6.8" ry="10.6"/>
				
					<ellipse transform="matrix(1.221724e-03 -1 1 1.221724e-03 314.6935 1828.1968)" class="st23" cx="1072.6" cy="756.6" rx="8.9" ry="6.8"/>
				<path class="st24" d="M1089.1,620.9c-20-0.1-39.9-0.1-59.9,0c0.2,7.7,0.4,15.3,0.7,23l0,0c1.1,38,5.2,76,4.9,114.1
					c5.1-1,9.7-1.8,15-0.9c-4.2-36.6,5.8-75.8,7-112.3c0.1-1.8-0.8-0.5,1-0.5c0.8,0,1.7,0,2.5,0.1c1.4,0,0.2-0.8,0.3,0.5
					c8.4,37.4,5,74.6,4.2,110.9c4.9,0.6,10.6-1.2,15.4-0.5c1.6-37.9,6.9-73.2,7.3-111.2l0,0C1088,636.3,1088.6,628.6,1089.1,620.9z"
					/>
			</g>
			<g id="body_1_">
				<rect x="1045.4" y="513.5" class="st25" width="24.8" height="107"/>
				<rect x="1021.9" y="617.9" class="st26" width="69.2" height="3.9"/>
				<polygon class="st27" points="1061.4,531.8 1064.3,526.6 1061.4,521.4 1055.5,521.4 1052.5,526.6 1055.4,531.7 1054,569.8 
					1058.2,585.5 1062.4,569.8 1061.3,531.8 				"/>
				<polygon class="st28" points="1064.1,514.8 1062.6,514.8 1053.9,514.8 1052.4,514.8 1042.2,514.8 1047.3,520.7 1052.4,526.6 
					1057.5,520.7 1058.3,519.9 1059,520.7 1064.1,526.6 1069.2,520.7 1074.3,514.8 				"/>
				<path class="st29" d="M1045.4,513.1v148.9c-5.9,0-11.8-0.2-17.5-0.6c0-8.6-2.5-22.9-5.8-39.6c-5.3-27.6-12.5-61.6-13.2-87
					c-0.4-12.8,2.1-17.2,9.7-18.7c7.1-1.5,14.3-2.4,21.5-2.8C1041.9,513.2,1043.6,513.2,1045.4,513.1z"/>
				<path class="st29" d="M1099.6,534.2c-0.8,31.6-4.5,60.2-7.6,87.7c-1.5,13.4-2.8,26.5-3.6,39.6c0,0,0,0.5-0.3,0.5
					c-5.6,0-11.8,0.1-18,0V513.1c2,0,4,0,6,0.2c5.3,0.3,10.5,1.2,15.6,2.6C1097.9,517.5,1099.9,520.1,1099.6,534.2z"/>
			</g>
			<path class="st30" d="M1073.7,508.1c8,4.2,8,24.3,6.1,28.5"/>
			<path class="st30" d="M1035.4,530.7c0.3-9.9-1.7-18.1,6.5-21.1"/>
			<g id="head_1_">
				<ellipse class="st31" cx="1024" cy="483.2" rx="4.6" ry="8.8"/>
				<ellipse class="st32" cx="1024" cy="483.2" rx="2.6" ry="6.5"/>
				<ellipse class="st31" cx="1091.7" cy="483.2" rx="4.1" ry="8.8"/>
				<ellipse class="st32" cx="1091.7" cy="483.2" rx="2.6" ry="6.5"/>
				<path class="st31" d="M1045,433.9h27.8c11.5,0,20.9,9.3,20.9,20.7c0,0,0,0,0,0v27.7c0,20.1-16.3,36.4-36.4,36.4h-0.3l0,0
					c-19.4,0-35.1-15.6-35.1-34.8v-27.1C1021.9,444.2,1032.2,433.9,1045,433.9L1045,433.9z"/>
				<path class="st33" d="M1095,455.8l-0.6,18.8c0,0.5,0,1,0,1.5c0.1,0.4,0.1,0.8,0,1.2c-0.2,0.3-6.5-16-6.5-16
					c-5.1-2.5-9.5-6.5-13.2-11.9c-8.8,9.2-24,11.9-41.8,11.9c3.6-2.4,5.4-5.5,5.6-9.2c-2.7,4.3-6.1,7.4-10.4,9.2
					c-1.2,3.2-3.3,8.7-5.7,15.3c-1.2-6.2-2.2-14.5-2.8-24.3c-0.4-3.4,0.9-6.6,3.8-9.3c0.8-0.8,1.6-1.6,2.3-2.5c3-3.5,8-6.2,14.3-8.4
					c3.3-1.4,7.5-2.3,12.4-2.9c3-0.3,6-0.3,9,0l7.2,0.8c1.5,0.2,2.9,0.9,3.9,1.9l0,0c1.6-0.7,2-2,1.8-3.6c3.9,1.6,5.8,3.9,6.3,6.8
					l8.1,0.2c-1.2,1.2-1.8,2.4-1.3,3.7c2.2,1.6,3.6,3.1,4.3,4.6c2,1.3,3.1,2.7,3.5,4.2C1095.7,450.8,1096,453.5,1095,455.8z"/>
				<line class="st30" x1="1020.3" y1="464.6" x2="1032" y2="468.8"/>
				<ellipse class="st34" cx="1043.6" cy="474.8" rx="3.4" ry="3.3"/>
				<ellipse class="st34" cx="1073.1" cy="474.7" rx="3.4" ry="3.3"/>
				<path class="st35" d="M1043.3,499.2h30.9c-0.2,0.2-0.4,0.4-0.6,0.6c-0.5,0.5-1.1,1.1-1.7,1.7c-2.1,2-5.1,4.1-8.7,5.1
					c-2.4-2.6-6.4-2.9-9.1-0.5c-0.1,0.1-0.3,0.2-0.4,0.4c-2.3-0.7-4.4-1.9-6.3-3.4c-1.3-1-2.5-2.1-3.6-3.4
					C1043.6,499.6,1043.4,499.4,1043.3,499.2z"/>
				<path class="st36" d="M1075.6,499.2c-0.3,0.3-0.8,0.9-1.2,1.3l-31.4,0.1c-0.4-0.4-1-1-1.3-1.4H1075.6z"/>
				<path class="st37" d="M1063.2,507c-0.9,0.3-1.8,0.4-2.7,0.5c-0.8,0.1-1.6,0.1-2.3,0.1c-1.5-0.1-3-0.3-4.4-0.8
					c2.4-2.6,6.5-2.7,9.1-0.2C1063,506.7,1063.1,506.9,1063.2,507L1063.2,507z"/>
				<path class="st32" d="M1059.1,488.7c-2.5,0-4.5-2.1-4.6-4.7v2.6c0,2.3,1.5,4.4,3.7,4.8c2.9,0.5,5.4-1.8,5.4-4.6V484
					C1063.6,486.6,1061.6,488.7,1059.1,488.7C1059.1,488.7,1059.1,488.7,1059.1,488.7z"/>
				<path class="st38" d="M1065.4,467.2h19.6c0.1,0,0.1,0.1,0.1,0.1v12.9c0,0.7-0.6,1.3-1.3,1.3h-15.9c-2,0-3.6-1.7-3.6-3.8l0,0
					v-9.4C1064.3,467.7,1064.8,467.2,1065.4,467.2L1065.4,467.2L1065.4,467.2z"/>
				<path class="st38" d="M1065.4,468.5h19.7c0.1,0,0.1,0.1,0.1,0.1v11.7c0,0.7-0.5,1.2-1.2,1.2h-16.1c-2,0-3.6-1.6-3.6-3.6l0,0
					v-8.4C1064.3,469,1064.8,468.5,1065.4,468.5L1065.4,468.5L1065.4,468.5z"/>
				<path class="st38" d="M1032.8,467.2h19.6c0.1,0,0.1,0.1,0.1,0.1v12.9c0,0.7-0.6,1.3-1.3,1.3h-15.9c-2,0-3.7-1.7-3.7-3.8l0,0
					v-9.4C1031.7,467.7,1032.2,467.2,1032.8,467.2L1032.8,467.2z"/>
				<path class="st38" d="M1032,468.5h20.5c0.1,0,0.1,0.1,0.1,0.1v11.7c0,0.7-0.5,1.2-1.2,1.2h-16c-2,0-3.7-1.6-3.7-3.5l0,0v-9.2
					C1031.7,468.6,1031.8,468.5,1032,468.5z"/>
				<path class="st38" d="M1051.9,468.9c0.5-0.4,3-1.4,6.6-1.3c2.9,0.1,5.5,0.7,6.1,1.2"/>
				<path class="st38" d="M1051.9,469.3c0.5-0.4,3-1.4,6.6-1.3c2.9,0.1,5.5,0.7,6.1,1.2"/>
				<line class="st30" x1="1095" y1="464.5" x2="1085.6" y2="468.2"/>
			</g>
			<path class="st31" d="M1008.7,621.8c0.3,3.8,0.6,8-4.4,8.5c-5,0.4-5.9-3.5-6.3-7.4c-0.4-3.9-0.9-9,4.5-9.5
				C1007.9,612.8,1008.4,618,1008.7,621.8z"/>
			<path class="st29" d="M1011.5,621.3c-6,0.3-12,0.3-18-0.1c-2.1-36.6-3.2-77.3,19.3-102.8c0.4-0.6,1.1-0.8,1.8-0.7
				c6.7,0.9,9.5,1.7,11.3,4.8c1.9,3.4,1.7,7.6-0.5,10.8C1007.7,559.4,1013.2,591.8,1011.5,621.3z"/>
			<g id="rightArm_1_">
				<path class="st31" d="M1114,621.7c-0.2,3.6-0.9,8.9-6,8.5s-4.9-5.8-4.7-9.4c0.2-3.6,0.8-9,5.9-8.6
					C1114.4,612.7,1114.2,618.1,1114,621.7z"/>
				<path class="st29" d="M1098.8,620.8c6,0.1,12,0.1,18.1,0.1c1.4-26,6.5-86.9-20.3-102.9c-11.1,1.6-11.5,2.7-13.7,12.4
					C1102.8,559.9,1097.1,588.2,1098.8,620.8z"/>
			</g>
			<g id="pockets_1_">
				<path class="st39" d="M1074.1,625.8h13l0,0v6.1c0,3.1-2.5,5.6-5.6,5.6h-1.8c-3.1,0-5.6-2.5-5.6-5.6L1074.1,625.8L1074.1,625.8z"
					/>
				<path class="st39" d="M1027.1,625.8h13l0,0v6.1c0,3.1-2.5,5.6-5.6,5.6h-1.8c-3.1,0-5.6-2.5-5.6-5.6L1027.1,625.8L1027.1,625.8z"
					/>
			</g>
			<g id="stethoscope2_1_">
				<path class="st30" d="M1040.2,533.8v4.1c1.5,0.1,1.4,0.2,1.3,0.2l0,0c-0.1,0-0.2-0.1,0-0.2v-3.6c-0.2-1.5-3.5-2.6-3.5-2.6h-5.1
					c0,0-3.3,1-4.4,2.6v3.6c1.1,0.1,1,0.2,0.9,0.2l0,0c-0.1,0-0.2-0.1,0.4-0.2v-4.1c-0.6-1.5,2.7-2.1,2.7-2.1h5.9
					C1038.3,531.8,1041.7,532.3,1040.2,533.8z"/>
				<path class="st40" d="M1041.5,543c0-5.3-12.1-5.3-12.1,0"/>
				<path class="st40" d="M1041.3,538.9c-0.2,6.1,0.4,12.1,0.1,18.3c-0.1,2.4-2.6,3.3-5.1,3.7c-0.9,0.2-4.4,1.2-5.4,1.3
					c0,0.1,0,0.3,0.1,0.4c1.2-0.2,5-1.2,6-1.4c2.5-0.4,4.6-1.2,4.7-3.6c0.4-6.3-0.3-12.4-0.1-18.7
					C1041.5,538.9,1041.4,538.9,1041.3,538.9z"/>
				<path class="st40" d="M1029.1,538.9c0.2,6.2-0.4,12.2-0.1,18.4c0.1,2.3,2.3,3.1,4.7,3.5c1,0.2,4.3,1.2,5.5,1.4
					c0.1-0.1,0.1-0.3,0.1-0.4c-1-0.1-3.9-1.1-4.8-1.3c-2.5-0.4-4.9-1.3-5.1-3.7c-0.4-6.1,0.3-12,0.1-18
					C1029.4,538.9,1029.3,538.9,1029.1,538.9z"/>
				
					<ellipse transform="matrix(0.967 -0.2549 0.2549 0.967 -109.4342 281.0153)" class="st41" cx="1029.4" cy="562.7" rx="1.6" ry="1.1"/>
				
					<ellipse transform="matrix(0.1601 -0.9871 0.9871 0.1601 319.282 1499.4829)" class="st41" cx="1040.7" cy="562.1" rx="1.1" ry="1.6"/>
			</g>
			<circle class="st42" cx="1080.6" cy="534.5" r="3.4"/>
			<circle class="st43" cx="1080.6" cy="534.5" r="2.5"/>
			<circle class="st44" cx="1080.5" cy="534.4" r="1.3"/>
		</g>
	</g>
</g>
<g id="visitor">
	<title>visitor_1</title>
	<g id="Layer_2_3_">
		<g id="Layer_1-2_2_">
			<g id="rightFeet_1_">
				
					<ellipse transform="matrix(1.221725e-03 -1 1 1.221725e-03 -116.2443 1404.9987)" class="st45" cx="645.2" cy="760.7" rx="8.2" ry="5.2"/>
				
					<ellipse transform="matrix(1.221725e-03 -1 1 1.221725e-03 -115.5325 1404.2877)" class="st29" cx="645.2" cy="760" rx="6.9" ry="5.2"/>
			</g>
			<g id="leftFeet_1_">
				
					<ellipse transform="matrix(1.221815e-03 -1 1 1.221815e-03 -144.574 1376.6343)" class="st45" cx="616.9" cy="760.7" rx="8.2" ry="5.2"/>
				
					<ellipse transform="matrix(1.221908e-03 -1 1 1.221908e-03 -143.7688 1375.8298)" class="st29" cx="616.9" cy="759.9" rx="6.8" ry="5.2"/>
			</g>
			<path id="rightHand_1_" class="st31" d="M657.1,605c-2.1,2.2-4.2,4.9-1,7.2c3.5,2.6,7,0.4,10-1.9c-2.2-1.4-4.5-2.6-6.7-3.9
				C658.7,605.9,657.9,605.4,657.1,605z"/>
			<path id="leftHand_1_" class="st31" d="M612.8,615.1c-4.2,3.4-8-0.4-11.2-3.3c2.2-1.6,4.5-3,6.8-4.5c0.8-0.5,1.6-1.1,2.5-1.6
				C613.6,608.3,616.7,612,612.8,615.1z"/>
			<g id="pants_1_">
				<path class="st46" d="M659.2,607.6c-0.3,2.9,1.1,3.1,3.3,5l-3.1-14.6c-1.1,1.8-2.1,3-3.3,4.8c1.2,0.9,2.5,1.9,3.8,2.8
					C659.5,606.2,659.3,606.9,659.2,607.6z"/>
				<path class="st46" d="M662.2,612.6c-0.1,4.5-0.9,10.6-1.6,15c-9.8,43-4.1,87.7-9.3,131.2l-0.5-0.2c-7.1-2.6-4.7-3.2-11-0.9
					l-1.3,0.5c-2.2-41.9-7.3-83.8-3.9-125.8c-1.4,0.4-2.7,0.8-4.1,1.2c-1.6,43-2.4,81.2-7.9,124l-3.1-0.7c-2.8-0.6-5.7-0.4-8.3,0.7
					l-0.5,0.2c-4.9-37-0.2-84-4.6-118.4c-0.8-8.9-0.8-17.9,0-26.9l0,0V603l-0.2-0.2c0-0.1,1.2-10.2,1.2-10.2l51.3-1.6
					c0.6,1.8,1.2,3.6,1.7,5.4c0,0,0,0,0,0c-1.3,2.1-2.8,4.2-4.3,6.4c1.2,0.9,2.5,1.9,3.8,2.8c-0.3,0.6-0.6,1.3-0.6,2
					C658.6,610.5,660,610.7,662.2,612.6z"/>
			</g>
			<path id="rightArm_2_" class="st47" d="M674,513.8c-3.5,3.8-6.7,7.3-8.9,12c13.6,28.3,13,47-5.2,73c-1.3,1.9-2.9,3.5-4.2,5.3
				l1.5,0.9l2.3,1.4c2.2,1.3,4.5,2.6,6.7,3.9l2.4,1.4C687.4,590.8,704.7,531.6,674,513.8z"/>
			<path id="leftArm_1_" class="st47" d="M612.6,604.4l-1.7,1.1l-0.9,0.6l-0.9,0.6l-0.6,0.4l-5.1,3.4c-0.6,0.4-1.2,0.8-1.7,1.1
				c-0.5,0.3-0.8,0.5-1.3,0.9c-23.7-29.1-38-60.4-9.5-92.4c3.3-3.7,11.5-9.3,17.6-9.4c0.1,0,0.3-0.1,0.3-0.1s0,0,0,0.1
				c0.2,5.4-1.9,10.7-3,16.1c-6,7.4-12.3,15.4-14.1,24.7c-3.1,15.7,3.6,28.2,11.8,41c1.3,2.1,3.6,4.9,5.1,7c0.1,0.1,0.2,0.2,0.3,0.3
				C610.1,601.5,611.3,603,612.6,604.4z"/>
			<path id="torso_1_" class="st47" d="M659.9,598c-16.6,0.2-33-0.7-49.5-0.1c-1.2,0.1-2.4,0.1-3.7,0.2c-0.5-2.6-1.1-5.1-1.7-7.6
				c-3.5-14-8.7-26.9-11.6-40.3c-2.1-9.7-3-19.6-1.3-30.5c3.4-3.3,7.1-6.3,11.1-9c0.1,0,0.2-0.1,0.3-0.1c8.6-3.8,19.1-6.8,19.1-6.8
				l21.9,0.6l5.6,0.6c4.6,0.8,26.5,7.6,27,11.4C680.5,544.6,670.4,571.8,659.9,598z"/>
			<g id="head_2_">
				
					<ellipse transform="matrix(0.1613 -0.9869 0.9869 0.1613 85.5943 1054.9113)" class="st31" cx="663.4" cy="477.1" rx="7.3" ry="3.5"/>
				
					<ellipse transform="matrix(0.1613 -0.9869 0.9869 0.1613 85.3203 1054.4485)" class="st48" cx="663" cy="477" rx="5.4" ry="2.2"/>
				
					<ellipse transform="matrix(0.9985 -5.495018e-02 5.495018e-02 0.9985 -25.2961 34.1251)" class="st31" cx="607.9" cy="477.1" rx="3.5" ry="7.3"/>
				
					<ellipse transform="matrix(0.9985 -5.495018e-02 5.495018e-02 0.9985 -25.2942 34.1476)" class="st48" cx="608.3" cy="477" rx="2.2" ry="5.4"/>
				<path id="face_1_" class="st31" d="M644.8,441.3h-20.7c-10.6,0-19.1,9.5-19.1,21.2v5.9c0,5.2,1.3,10.3,3.6,14.9
					c4.3,8.5,10.6,19.7,15,22c1.5,5.1,5.6,8.9,10.1,9.3c4.7,0.4,9.3-2.9,11.4-7.9c0.8-0.2,1.6-0.4,2.4-0.6c8-2.4,15.7-25,16.5-27.2
					c0-0.1,0.1-0.2,0.1-0.4l0.1-0.3c0.1-0.2,0.1-0.5,0.1-0.7c0.1-1.4,0.4-2.4,0.4-3.8v-10.3C664.7,451.2,655.8,441.3,644.8,441.3z
					 M636.5,488c0.4,0,0.8,0,1.2,0c-0.1,0-0.3,0.1-0.4,0.3c-0.3,0.5-0.9,0.6-1.4,0.4c-0.2-0.1-0.3-0.2-0.4-0.4
					c-0.1-0.1-0.2-0.2-0.4-0.3C635.6,488,636.1,488,636.5,488L636.5,488z"/>
				<path class="st49" d="M662.2,484.3c-0.5,9.8-1.3,7.4-6.6,14.5c-6.7,9.1-10.5,9.5-20.1,9.5c-8.4,0-11.8-2.3-18.3-9
					c-7.5-7.7-6.9-4.4-7.9-15.7c3.6,8,11.8,11.4,16.7,13.7c6.2,2.8,12.9,3.7,20.2,1S662.2,484.3,662.2,484.3z"/>
				<ellipse class="st34" cx="625.4" cy="471.3" rx="2.8" ry="2.7"/>
				<ellipse class="st34" cx="650.7" cy="471.2" rx="2.8" ry="2.7"/>
				<path class="st48" d="M635.8,479.9c-1.5,0-2.8-1.7-2.8-3.7v2.2c0,2,1.3,3.7,2.8,3.7c1.5,0,2.8-1.7,2.8-3.7v-2.2
					C638.6,478.2,637.3,479.9,635.8,479.9z"/>
				<path class="st49" d="M665.9,456.5l-1.3-6.7c-0.2-1.2-0.7-2.3-1.3-3.4L659,439c-0.6-1.1-1.4-2.1-2.3-3c-0.4-0.5-1-0.9-1.6-1.2
					l-5.4-2.5c-6.4-2.9-13.4-4-20.3-3.2l-1.8,0.2c-6.2,0.7-12.3,2.5-17.9,5.3c-3.6,1.8-5.7,5.3-5.4,9l0.9,11.4
					c0.1,0.7,0.1,1.4,0,2.1c-0.1,1,0,3.2,0.1,5.7c0,3.3,0,6.8,0.2,8.3l0,0c0.4-2.2,1.8-6.3,2.5-8.3c0.4-1.2,1-2.4,1.8-3.5
					c1.5-2.1,2.9-4.4,4.6-5.9c1-0.9,1.8-1,2.6-1.3c0.5-0.2,1.1-0.5,1.6-0.7l4.4-1.6c1.1-0.4,2.2-0.7,3.4-0.9l2.4-0.4
					c5.1-0.9,10.3-0.8,15.4,0.3c1.9,0.4,3.7,1.1,5.4,2.1c0,0,0.1,0,0.1,0.1c0.4,0.3,0.9,0.6,1.3,0.8c3.3,2.2,6.3,4.9,8.9,7.9
					l0.3,0.4c0,0.1,0.1,0.1,0.1,0.2c1.5,2,3.7,7,4.6,9.6l0,0.1c0-0.1,0-0.2,0-0.3l0.4-5c0.1-2,0.4-3.9,0.6-5.8
					C666,458,666,457.2,665.9,456.5z"/>
				<path class="st49" d="M621.7,465.6c-0.6,0.2-1,0.8-1,1.9h7.6c0.6-0.2,1-0.9,1-1.9H621.7z"/>
				<path class="st49" d="M647,465.6c-0.6,0.2-1,0.8-1,1.9h7.6c0.6-0.2,1-0.9,1-1.9H647z"/>
				<path class="st49" d="M651.2,492.6c0.5,7-8.8,8.7-14.6,8.8c-5.8,0.1-15.5-1.4-15.2-8.5c0.3-7.1,9.1-8.1,14.9-8.1
					C642,484.7,650.6,485.6,651.2,492.6z"/>
				<path class="st31" d="M644.2,489.2L644.2,489.2c0,0.1-0.1,0.2-0.2,0.3c-0.1,0.1-0.1,0.1-0.2,0.1c-0.9,0.6-3.3,1-6.3,1.1
					c-0.4,0-0.8,0-1.2,0c-0.4,0-0.8,0-1.2,0c-2.9-0.1-5.3-0.5-6.2-1.1c-0.1,0-0.1-0.1-0.2-0.1c-0.1-0.1-0.2-0.2-0.3-0.4v0.1
					c0,0,0.3-0.3,0.5-0.4l0,0l0.1,0.1h0c0.9-0.7,3.3-1.2,6.2-0.9h0c0.1-0.3,0.1-0.3,0.2-0.3c0.4,0,0.8,0,1.2,0s0.8,0,1.2,0
					c0.1,0,0.1,0,0.2,0c2.9,0.1,5.2,0.5,6.2,1.1c0,0,0,0,0.1,0C644.3,488.9,644.2,489.2,644.2,489.2z"/>
				<path class="st50" d="M628.5,488.8c1.6,0.4,4.2,0.5,6.6,0.5c3.3,0,7.3,0.1,9.2-0.5"/>
			</g>
		</g>
	</g>
</g>
<g id="_chair">
	<path d="M1262,638h-82c-11,0-20-9-20-20V513c0-11,9-20,20-20h82c11,0,20,9,20,20v105C1282,629,1273,638,1262,638z"/>
	<path d="M1274,681h-105c-11,0-20-9-20-20v-3c0-11,9-20,20-20h105c11,0,20,9,20,20v3C1294,672,1285,681,1274,681z"/>
	<g>
		<path d="M1154.5,601h-11.6c-2.5,0-4.5-2-4.5-4.5l0,0c0-2.5,2-4.5,4.5-4.5h11.6c2.5,0,4.5,2,4.5,4.5l0,0
			C1159,599,1157,601,1154.5,601z"/>
		<path d="M1153,653l-4-2c-3.3,0-6-2.7-6-6v-43c0-3.3,2.7-6,6-6l0,0c3.3,0,6,2.7,6,6v43C1155,648.3,1156.3,653,1153,653z"/>
	</g>
	<g>
		<path d="M1287.9,601h11.6c2.5,0,4.5-2,4.5-4.5l0,0c0-2.5-2-4.5-4.5-4.5h-11.6c-2.5,0-4.5,2-4.5,4.5l0,0
			C1283.4,599,1285.4,601,1287.9,601z"/>
		<path d="M1289.4,653l4-2c3.3,0,6-2.7,6-6v-43c0-3.3-2.7-6-6-6l0,0c-3.3,0-6,2.7-6,6v43C1287.4,648.3,1286.1,653,1289.4,653z"/>
	</g>
	<rect x="1213" y="681" width="19" height="64.8"/>
	<line class="st51" x1="1220" y1="742" x2="1164" y2="752"/>
	<line class="st51" x1="1224" y1="742" x2="1280" y2="752"/>
	<line class="st51" x1="1221.5" y1="739.5" x2="1221.5" y2="756.5"/>
	<circle class="st52" cx="1167.1" cy="761.1" r="4.4"/>
	<circle class="st52" cx="1221.1" cy="761.1" r="4.4"/>
	<circle class="st52" cx="1278.1" cy="761.1" r="4.4"/>
</g>
<g id="certificate">
	<rect x="1077" y="239" class="st12" width="150" height="150"/>
	<rect x="1082.4" y="244.3" class="st29" width="140" height="140"/>
	<text transform="matrix(1 0 0 1 1118.8154 269.5278)" class="st53 st54">Certificate</text>
	<path class="st55" d="M1093,292c0,0-1-5,5-4s2,3,7,3s3-1,7-1s4-2,7,1s1,2,7,0s-1-6,6-2s7,5,9,3s-3-4,5-2s3-4,9-1s2,2,6,3s1,0,7-2
		s1-8,6-2s6,6,8,3s-3-7,4-3s8,6,11,3s1-7,5-4s1,2,4,3s3,1,3,1l0,0"/>
	<path class="st55" d="M1092,301.5c0,0-1-5,5-4s2,3,7,3s3-1,7-1s4-2,7,1s1,2,7,0s-1-6,6-2s7,5,9,3s-3-4,5-2s3-4,9-1s2,2,6,3s1,0,7-2
		s1-8,6-2s6,6,8,3s-3-7,4-3s8,6,11,3s1-7,5-4s1,2,4,3s3,1,3,1l0,0"/>
	<path class="st55" d="M1092,311.5c0,0-1-5,5-4s2,3,7,3s3-1,7-1s4-2,7,1s1,2,7,0s-1-6,6-2s7,5,9,3s-3-4,5-2s3-4,9-1s2,2,6,3s1,0,7-2
		s1-8,6-2s6,6,8,3s-3-7,4-3s8,6,11,3s1-7,5-4s1,2,4,3s3,1,3,1l0,0"/>
	<path class="st55" d="M1091,319.5c0,0-1-5,5-4s2,3,7,3s3-1,7-1s4-2,7,1s1,2,7,0s-1-6,6-2s7,5,9,3s-3-4,5-2s3-4,9-1s2,2,6,3s1,0,7-2
		s1-8,6-2s6,6,8,3s-3-7,4-3s8,6,11,3s1-7,5-4s1,2,4,3s3,1,3,1l0,0"/>
	<path class="st55" d="M1167,346c0,0-9-19,5-10s18-5,10,4s-1,9,0,9s2-8,10-3s-9-8-3-7s9-1,9-1s-3-3,3-1s6,4,8,3s-8,3-8,3"/>
	<line class="st55" x1="1163" y1="353.5" x2="1208" y2="353.5"/>
	<text transform="matrix(1 0 0 1 1163.9629 364.3818)" class="st53 st54">nisnci</text>
	
		<image style="overflow:visible;" width="1602" height="2135" xlink:href="../../../../Downloads/award-solid_108261.png"  transform="matrix(1.456511e-02 0 0 1.456510e-02 1098 335)">
	</image>
</g>
<g id="certificateSmall">
	<rect x="1243.5" y="288.5" class="st12" width="100.5" height="100.5"/>
	<rect x="1247.1" y="292" class="st29" width="93.8" height="93.8"/>
	<text transform="matrix(1 0 0 1 1271.499 308.9346)" class="st53 st56">Certificate</text>
	<path class="st57" d="M1254.2,324c0,0-0.7-3.4,3.4-2.7c4,0.7,1.3,2,4.7,2c3.4,0,2-0.7,4.7-0.7s2.7-1.3,4.7,0.7s0.7,1.3,4.7,0
		s-0.7-4,4-1.3s4.7,3.4,6,2s-2-2.7,3.4-1.3s2-2.7,6-0.7c4,2,1.3,1.3,4,2s0.7,0,4.7-1.3s0.7-5.4,4-1.3c3.4,4,4,4,5.4,2s-2-4.7,2.7-2
		s5.4,4,7.4,2s0.7-4.7,3.4-2.7s0.7,1.3,2.7,2c2,0.7,2,0.7,2,0.7l0,0"/>
	<path class="st57" d="M1253.5,330.4c0,0-0.7-3.4,3.4-2.7c4,0.7,1.3,2,4.7,2c3.4,0,2-0.7,4.7-0.7s2.7-1.3,4.7,0.7s0.7,1.3,4.7,0
		s-0.7-4,4-1.3c4.7,2.7,4.7,3.4,6,2s-2-2.7,3.4-1.3s2-2.7,6-0.7c4,2,1.3,1.3,4,2s0.7,0,4.7-1.3s0.7-5.4,4-1.3c3.4,4,4,4,5.4,2
		s-2-4.7,2.7-2c4.7,2.7,5.4,4,7.4,2s0.7-4.7,3.4-2.7c2.7,2,0.7,1.3,2.7,2c2,0.7,2,0.7,2,0.7l0,0"/>
	<path class="st57" d="M1253.5,337.1c0,0-0.7-3.4,3.4-2.7c4,0.7,1.3,2,4.7,2c3.4,0,2-0.7,4.7-0.7s2.7-1.3,4.7,0.7c2,2,0.7,1.3,4.7,0
		s-0.7-4,4-1.3c4.7,2.7,4.7,3.4,6,2s-2-2.7,3.4-1.3c5.4,1.3,2-2.7,6-0.7c4,2,1.3,1.3,4,2s0.7,0,4.7-1.3c4-1.3,0.7-5.4,4-1.3
		c3.4,4,4,4,5.4,2c1.3-2-2-4.7,2.7-2c4.7,2.7,5.4,4,7.4,2c2-2,0.7-4.7,3.4-2.7c2.7,2,0.7,1.3,2.7,2c2,0.7,2,0.7,2,0.7l0,0"/>
	<path class="st57" d="M1252.9,342.4c0,0-0.7-3.4,3.4-2.7s1.3,2,4.7,2c3.4,0,2-0.7,4.7-0.7s2.7-1.3,4.7,0.7c2,2,0.7,1.3,4.7,0
		s-0.7-4,4-1.3s4.7,3.4,6,2c1.3-1.3-2-2.7,3.4-1.3s2-2.7,6-0.7c4,2,1.3,1.3,4,2s0.7,0,4.7-1.3s0.7-5.4,4-1.3c3.4,4,4,4,5.4,2
		c1.3-2-2-4.7,2.7-2s5.4,4,7.4,2c2-2,0.7-4.7,3.4-2.7s0.7,1.3,2.7,2c2,0.7,2,0.7,2,0.7l0,0"/>
	<path class="st57" d="M1303.8,360.2c0,0-6-12.7,3.4-6.7c9.4,6,12.1-3.4,6.7,2.7s-0.7,6,0,6s1.3-5.4,6.7-2c5.4,3.4-6-5.4-2-4.7
		s6-0.7,6-0.7s-2-2,2-0.7c4,1.3,4,2.7,5.4,2s-5.4,2-5.4,2"/>
	<line class="st57" x1="1301.1" y1="365.2" x2="1331.3" y2="365.2"/>
	<text transform="matrix(1 0 0 1 1301.7549 372.502)" class="st53 st56">nisnci</text>
	
		<image style="overflow:visible;" width="1602" height="2135" xlink:href="../../../../Downloads/award-solid_108261.png"  transform="matrix(9.761010e-03 0 0 9.761004e-03 1257.549 352.8111)">
	</image>
</g>
<g id="lamp">
	<path class="st58" d="M793,557h27v2h-27V557z"/>
	<path class="st58" d="M806,536h2v18h-2V536z"/>
	<path class="st58" d="M799,544.5V534h27.9l-10.8-39h-18.8l-10.8,39H797v10.5c-1.5,0.5-1.9,1.6-1.7,2.6c0.3,1,1.2,1.7,2.2,1.7
		s1.9-0.7,2.2-1.7C800,546.1,799.6,545,799,544.5L799,544.5z"/>
</g>
<g id="picture">
	<rect x="719.5" y="237.5" class="st59" width="300" height="150"/>
	<path class="st60" d="M723.5,309.5c0,0,24-29,83-28s103,31,103,31l-30-15c0,0,52-17,93-10s39,7,39,7s2,1,3,1v87h-290
		C724.5,382.5,723.5,309.2,723.5,309.5z"/>
	<path class="st61" d="M879.5,297.5c0,0-45,5-35,21s6,28-12,29s-32,3-39,12s-40.4,22.6-40.4,22.6l91.4,0.2c0,0,49.9-10.9,45.9-30.9
		s-36-18-25-34S879.5,297.5,879.5,297.5z"/>
	<circle class="st62" cx="894.5" cy="262.5" r="12.5"/>
</g>
</svg>
