<svg xmlns="http://www.w3.org/2000/svg" viewBox="0 0 102.41 89.01">
  <title>Asset 10</title>
  <g id="Layer_2" data-name="Layer 2">
    <g id="Layer_1-2" data-name="Layer 1">
      <g id="syringe">
        <rect x="35.45" y="2.24" width="29.01" height="87.9" rx="11.35" transform="translate(52.76 -21.79) rotate(49.61)" style="fill: #43bfb3"/>
        <rect x="81.65" y="5.88" width="15.11" height="14.72" transform="translate(41.48 -63.28) rotate(49.61)" style="fill: #b7b7b7"/>
        <rect x="85.8" y="6.66" width="19.69" height="2.2" rx="1.1" transform="translate(39.57 -70.12) rotate(49.61)" style="fill: #a5a5a5"/>
        <path d="M23.67,82.83,22.28,84a3.55,3.55,0,0,1-5-.51L8,72.64a3.55,3.55,0,0,1,.3-5l1.38-1.18" style="fill: #a5a5a5"/>
        <path d="M5.32,75.21H7.61a0,0,0,0,1,0,0V90.33a1.14,1.14,0,0,1-1.14,1.14h0a1.15,1.15,0,0,1-1.15-1.15V75.21A0,0,0,0,1,5.32,75.21Z" transform="translate(65.75 24.41) rotate(49.61)" style="fill: #a5a5a5"/>
        <path d="M61,18.21l8.81,10.35a1.5,1.5,0,0,1-.13,2.11h0a1.5,1.5,0,0,1-2.11-.21l-8.8-10.35Z" style="fill: #309e90"/>
        <path d="M52.14,25.94,61,36.29a1.52,1.52,0,0,1-.13,2.12h0a1.51,1.51,0,0,1-2.11-.21l-8.8-10.35Z" style="fill: #309e90"/>
        <path d="M56.36,22.35,62.1,29.1a1.08,1.08,0,0,1-.22,1.5h0a1.1,1.1,0,0,1-1.52,0l-5.74-6.75Z" style="fill: #309e90"/>
        <path d="M47.31,29.83l8.81,10.35A1.5,1.5,0,0,1,56,42.29h0a1.5,1.5,0,0,1-2.11-.21l-8.8-10.35Z" style="fill: #309e90"/>
        <path d="M38.48,37.57l8.81,10.35A1.5,1.5,0,0,1,47.16,50h0a1.51,1.51,0,0,1-2.11-.21l-8.8-10.35Z" style="fill: #309e90"/>
        <path d="M42.7,34l5.74,6.75a1.07,1.07,0,0,1-.22,1.5h0a1.1,1.1,0,0,1-1.52,0L41,35.45Z" style="fill: #309e90"/>
        <path d="M33.65,41.45,42.46,51.8a1.51,1.51,0,0,1-.13,2.12h0a1.51,1.51,0,0,1-2.11-.22l-8.8-10.35Z" style="fill: #309e90"/>
        <path d="M24.82,49.19l8.81,10.35a1.5,1.5,0,0,1-.13,2.11h0a1.5,1.5,0,0,1-2.11-.21l-8.8-10.35Z" style="fill: #309e90"/>
        <path d="M29.05,45.6l5.73,6.74a1.07,1.07,0,0,1-.22,1.5h0a1.07,1.07,0,0,1-1.51,0l-5.74-6.75Z" style="fill: #309e90"/>
      </g>
    </g>
  </g>
</svg>
