<?xml version="1.0" encoding="utf-8"?>
<!-- Generator: Adobe Illustrator 24.0.2, SVG Export Plug-In . SVG Version: 6.00 Build 0)  -->
<svg version="1.1" id="Layer_1" xmlns="http://www.w3.org/2000/svg" xmlns:xlink="http://www.w3.org/1999/xlink" x="0px" y="0px"
	 viewBox="0 0 102.4 89" style="enable-background:new 0 0 102.4 89;" xml:space="preserve">
<style type="text/css">
	.st0{fill:#B7B7B7;stroke:#444444;stroke-width:0.5;stroke-miterlimit:10;}
	.st1{fill:#A5A5A5;stroke:#444444;stroke-width:0.5;stroke-miterlimit:10;}
	.st2{fill:#D2FFF8;stroke:#1E635A;stroke-width:0.5;stroke-miterlimit:10;}
	.st3{fill:#B6EFE4;stroke:#1E635A;stroke-width:0.5;stroke-miterlimit:10;}
	.st4{fill:#43BFB3;stroke:#1E635A;stroke-width:0.5;stroke-miterlimit:10;}
	.st5{fill:#309E90;}
</style>
<title>Asset 10</title>
<g id="pusher">
	<polygon class="st0" points="89.9,2.7 99.7,14.2 86.5,26 76.7,14.9 	"/>
	<path class="st1" d="M90.8,0.4l11.3,13.3c0.4,0.5,0.3,1.2-0.1,1.6l0,0c-0.5,0.4-1.2,0.3-1.6-0.1L89.1,1.8c-0.4-0.5-0.3-1.2,0.1-1.6
		l0,0C89.7-0.1,90.4-0.1,90.8,0.4z"/>
</g>
<g>
	<g id="liquid">
		<path class="st4" d="M81.4,15.3l4.1,4.8c4.1,4.8,3.5,11.9-1.3,16L34.5,78.4c-4.8,4.1-11.9,3.5-16-1.3l-4.1-4.8
			c-4.1-4.8-3.5-11.9,1.3-16L65.4,14C70.2,10,77.3,10.5,81.4,15.3z"/>
		<path class="st5" d="M61,18.2l8.8,10.4c0.5,0.6,0.5,1.6-0.1,2.1l0,0c-0.6,0.5-1.6,0.4-2.1-0.2l-8.8-10.4L61,18.2z"/>
		<path class="st5" d="M52.1,25.9L61,36.3c0.5,0.6,0.5,1.6-0.1,2.1l0,0c-0.6,0.5-1.6,0.4-2.1-0.2L50,27.9L52.1,25.9z"/>
		<path class="st5" d="M56.4,22.4l5.7,6.8c0.3,0.5,0.3,1.1-0.2,1.5l0,0c-0.4,0.4-1.1,0.4-1.5,0l-5.7-6.8L56.4,22.4z"/>
		<path class="st5" d="M47.3,29.8l8.8,10.4c0.5,0.6,0.5,1.6-0.1,2.1l0,0c-0.6,0.5-1.6,0.4-2.1-0.2l-8.8-10.4L47.3,29.8z"/>
		<path class="st5" d="M38.5,37.6l8.8,10.3c0.5,0.6,0.5,1.5-0.1,2.1l0,0c-0.6,0.5-1.6,0.4-2.1-0.2l-8.8-10.3L38.5,37.6z"/>
		<path class="st5" d="M42.7,34l5.7,6.8c0.4,0.5,0.3,1.1-0.2,1.5c0,0,0,0,0,0l0,0c-0.4,0.4-1.1,0.4-1.5,0L41,35.5L42.7,34z"/>
		<path class="st5" d="M33.7,41.5l8.8,10.3c0.5,0.6,0.5,1.6-0.1,2.1l0,0c-0.6,0.5-1.6,0.4-2.1-0.2l-8.8-10.3L33.7,41.5z"/>
		<path class="st5" d="M24.8,49.2l8.8,10.4c0.5,0.6,0.5,1.6-0.1,2.1l0,0c-0.6,0.5-1.6,0.4-2.1-0.2l-8.8-10.3L24.8,49.2z"/>
		<path class="st5" d="M29,45.6l5.7,6.7c0.4,0.5,0.3,1.1-0.2,1.5c0,0,0,0,0,0l0,0c-0.4,0.4-1.1,0.4-1.5,0l-5.7-6.8L29,45.6z"/>
	</g>
</g>
<path class="st1" d="M25.6,81l-1.9,1.9L22.3,84c-1.5,1.2-3.8,1-5-0.5c0,0,0,0,0,0L8,72.6c-1.3-1.5-1.2-3.7,0.3-5l1.4-1.2l2-2
	L25.6,81z"/>
<path id="needle" class="st1" d="M11.9,77.2l1.5,1.7l0,0L1.9,88.7c-0.5,0.4-1.2,0.3-1.6-0.1l0,0c-0.4-0.5-0.4-1.2,0.1-1.6l0,0
	L11.9,77.2L11.9,77.2z"/>
</svg>
