<?xml version="1.0" encoding="utf-8"?>
<!-- Generator: Adobe Illustrator 24.0.2, SVG Export Plug-In . SVG Version: 6.00 Build 0)  -->
<svg version="1.1" id="Layer_1" xmlns="http://www.w3.org/2000/svg" xmlns:xlink="http://www.w3.org/1999/xlink" x="0px" y="0px"
	 viewBox="0 0 1370 770" enable-background="new 0 0 1370 770" xml:space="preserve">
<g id="floor">
	<rect x="0" y="630" fill="#B8BCC5" width="1370" height="140"/>
</g>
<g id="wall_1_">
	<rect id="wallBlue" x="0" fill="#95CFE5" width="1370" height="630"/>
	<rect x="0" y="625" fill="#8D9393" width="1370" height="5"/>
</g>
<g id="monitor">
	<path fill="#3D3D3D" d="M1236.4,454h-88.7c-3.1,0-5.6-2.5-5.6-5.6v-49.7c0-3.1,2.5-5.6,5.6-5.6h88.7c3.1,0,5.6,2.5,5.6,5.6v49.7
		C1242,451.5,1239.5,454,1236.4,454z"/>
	<rect x="1148" y="397" fill="#3D3D3D" width="88" height="53"/>
	<path fill="#161616" d="M1192,478L1192,478c-5,0-9-7-9-12v-29c0-5,4-9,9-9l0,0c5,0,9,4,9,9v29C1201,471,1197,478,1192,478z"/>
	<path fill="#262626" d="M1213.8,480h-44c-1.4,0-2.5-1.1-2.5-2.5l0,0c0-1.4,1.1-2.5,2.5-2.5h44c1.4,0,2.5,1.1,2.5,2.5l0,0
		C1216.3,478.9,1215.1,480,1213.8,480z"/>
	<path fill="#262626" d="M1191.8,477L1191.8,477c-4.4,0-8-6.7-8-11.5l-1-27.5c0-4.8,4.6-9,9-9l0,0c4.4,0,9,4.2,9,9l-1,27.5
		C1199.8,470.3,1196.2,477,1191.8,477z"/>
</g>
<g id="table">
	<ellipse opacity="0.25" fill="#513C2C" cx="1024" cy="665.5" rx="234" ry="13.5"/>
	<g>
		<g>
			
				<rect x="813.4" y="487.1" transform="matrix(1 -1.322242e-03 1.322242e-03 1 -0.7611 1.3456)" fill="#C8A994" width="407.8" height="178.5"/>
			
				<rect x="813.6" y="492.4" transform="matrix(1 -1.322242e-03 1.322242e-03 1 -0.7446 1.3458)" fill="#EEE2D6" width="407.8" height="142.7"/>
		</g>
		<rect x="794.8" y="480" fill="#C8A994" width="445.3" height="12.1"/>
	</g>
	<g>
		<circle fill="#FFA4A4" cx="1014.7" cy="576.3" r="30.1"/>
		<polygon fill="#FFFFFF" points="1039.9,571 1020,571 1020,551.1 1009.4,551.1 1009.4,571 989.5,571 989.5,581.6 1009.4,581.6 
			1009.4,601.6 1020,601.6 1020,581.6 1039.9,581.6 		"/>
	</g>
</g>
<rect id="tableShadow" x="813.4" y="492" fill="#473C34" width="408" height="6"/>
<g id="brainChart">
	<rect x="1100.3" y="157" fill="#FFFFFA" width="134.5" height="157.2"/>
	<rect x="1105.2" y="162" fill="#FFFFBB" width="124.6" height="147.3"/>
	<g>
		<path fill="#FF9999" stroke="#000000" stroke-width="0.5" stroke-miterlimit="10" d="M1197.1,252.5c-1.4,6.1,0.5,11.8,5.7,17
			l-16,6.7c-0.7,0.3-1.4,0.5-2.1,0.8c-6.5,2.2-9,3.5-15.6,6.8c0,0-4.4-13.2-14.5-12.8h-15.4c-2.4,0-4.4-2-4.4-4.4v-8.3l0,0
			c-2.7-2.7-3.8-6.5-3.1-10.1l0.2-1.2l-2.9-1.7c-2.4-1.4-3.2-4.4-1.9-6.9l4.3-8c1.2-2.1,1.5-4.6,1.1-6.9l-1.4-7
			c-0.5-2.3-0.3-4.7,0.4-7v0c2.1-6.2,5.2-11.9,9.3-16.9l0,0c4.2-5.1,10.1-8.5,16.6-9.6l1.3-0.2c9.2-1.5,18.7-0.9,27.6,1.9l0,0
			c5.9,1.8,11.2,5.4,15.1,10.2v0c4.4,5.3,6.7,12,6.7,18.9v9.3c0,2.3-0.2,4.6-0.7,6.9c-0.9,4.2-2.8,8.1-5.8,11.2
			C1198.7,244.3,1197.4,248.2,1197.1,252.5z"/>
		<g>
			<g>
				<path fill="#FFD4D4" stroke="#000000" stroke-width="0.5" stroke-miterlimit="10" d="M1169.3,224.1
					c-11.3-3.6-18.1-16.1-16.7-20.7c1.5-4.6,10.8-0.4,22.1,3.2c11.3,3.6,20.3,5,18.9,9.6C1192.1,220.8,1180.5,227.7,1169.3,224.1z"
					/>
				
					<path fill="#FFD4D4" stroke="#000000" stroke-width="0.5" stroke-linecap="round" stroke-linejoin="round" stroke-miterlimit="10" d="
					M1189.5,220.9c0-0.5,0-1.1-0.2-1.9c-0.4-1.4-1.3-2.3-1.8-2.6"/>
				
					<path fill="#FFD4D4" stroke="#000000" stroke-width="0.5" stroke-linecap="round" stroke-linejoin="round" stroke-miterlimit="10" d="
					M1179.9,224.9c0.4-0.3,1.4-1.1,1.8-2.5c0.7-2.1-0.2-3.9-0.5-4.3c-1.1-1.9-3-2.5-3.3-2.6"/>
				
					<path fill="#FFD4D4" stroke="#000000" stroke-width="0.5" stroke-linecap="round" stroke-linejoin="round" stroke-miterlimit="10" d="
					M1167.8,223.7c-0.4-0.4-1.1-1.2-1.5-2.6c-0.4-1.4-0.2-2.6-0.1-3.1"/>
				
					<path fill="#FFD4D4" stroke="#000000" stroke-width="0.5" stroke-linecap="round" stroke-linejoin="round" stroke-miterlimit="10" d="
					M1177.2,220.1c-0.3-0.1-2.5-0.8-3.3-2.8c-0.5-1.2-0.3-2.3-0.1-2.9c0.5-2.4,2.3-3.8,2.9-4.3"/>
				
					<path fill="#FFD4D4" stroke="#000000" stroke-width="0.5" stroke-linecap="round" stroke-linejoin="round" stroke-miterlimit="10" d="
					M1173.5,213.2c-0.2-0.1-1.5-0.4-2.7,0.4c-1.4,0.9-1.4,2.5-1.4,2.7"/>
				
					<path fill="#FFD4D4" stroke="#000000" stroke-width="0.5" stroke-linecap="round" stroke-linejoin="round" stroke-miterlimit="10" d="
					M1168.4,209.6c-0.6,1.3-1.4,2.1-1.8,2.5c-0.6,0.5-2.4,2.2-4.4,1.7c-0.6-0.2-1.1-0.5-1.3-0.7"/>
				
					<path fill="#FFD4D4" stroke="#000000" stroke-width="0.5" stroke-linecap="round" stroke-linejoin="round" stroke-miterlimit="10" d="
					M1160.5,215.6c0.1-0.5,0.3-1.3,0.2-2.3c-0.1-0.9-0.2-2.1-1.1-3.2c-1.1-1.3-2.7-1.5-3.2-1.5"/>
				
					<path fill="#FFD4D4" stroke="#000000" stroke-width="0.5" stroke-linecap="round" stroke-linejoin="round" stroke-miterlimit="10" d="
					M1165.1,207.8c0.1-0.2,0.5-2-0.7-3.6c-0.9-1.3-2.3-1.5-2.6-1.6"/>
				
					<path fill="#FFD4D4" stroke="#000000" stroke-width="0.5" stroke-linecap="round" stroke-linejoin="round" stroke-miterlimit="10" d="
					M1183.1,212.4c0.1-0.2,0.4-1.3-0.3-2.4c-0.6-1.1-1.7-1.3-1.9-1.4"/>
			</g>
			<g>
				<path fill="#FFD4D4" stroke="#000000" stroke-width="0.5" stroke-miterlimit="10" d="M1180.4,188.8c-11.3-3.6-24.3,3.4-25.7,8
					c-1.5,4.6,8.8,5.8,20.1,9.4c11.3,3.6,19.5,7.6,21,3C1197.2,204.6,1191.7,192.4,1180.4,188.8z"/>
				
					<path fill="#FFD4D4" stroke="#000000" stroke-width="0.5" stroke-linecap="round" stroke-linejoin="round" stroke-miterlimit="10" d="
					M1195.1,203c-0.2,0.4-0.6,0.9-1.2,1.4c-1.2,0.9-2.4,1.1-3,1.1"/>
				
					<path fill="#FFD4D4" stroke="#000000" stroke-width="0.5" stroke-linecap="round" stroke-linejoin="round" stroke-miterlimit="10" d="
					M1189.6,194.3c0.2,0.5,0.5,1.7,0.1,3.1c-0.6,2.1-2.4,3.1-2.8,3.3c-2,1-3.9,0.4-4.2,0.2"/>
				
					<path fill="#FFD4D4" stroke="#000000" stroke-width="0.5" stroke-linecap="round" stroke-linejoin="round" stroke-miterlimit="10" d="
					M1179,188.4c-0.5,0.1-1.6,0.3-2.7,1.2c-1.2,0.9-1.6,2-1.8,2.5"/>
				
					<path fill="#FFD4D4" stroke="#000000" stroke-width="0.5" stroke-linecap="round" stroke-linejoin="round" stroke-miterlimit="10" d="
					M1184.7,196.6c-0.3-0.1-2.5-0.8-4.3,0.5c-1.1,0.7-1.5,1.7-1.8,2.3c-1,2.2-0.3,4.4-0.1,5.2"/>
				
					<path fill="#FFD4D4" stroke="#000000" stroke-width="0.5" stroke-linecap="round" stroke-linejoin="round" stroke-miterlimit="10" d="
					M1177.6,200.1c-0.2-0.1-1.5-0.5-2-1.9c-0.6-1.6,0.3-2.9,0.4-3"/>
				
					<path fill="#FFD4D4" stroke="#000000" stroke-width="0.5" stroke-linecap="round" stroke-linejoin="round" stroke-miterlimit="10" d="
					M1171.4,200.2c0.3-1.4,0.1-2.5-0.1-3.1c-0.2-0.8-0.7-3.2-2.6-3.9c-0.6-0.2-1.1-0.2-1.5-0.2"/>
				
					<path fill="#FFD4D4" stroke="#000000" stroke-width="0.5" stroke-linecap="round" stroke-linejoin="round" stroke-miterlimit="10" d="
					M1168.4,190.7c-0.2,0.5-0.5,1.2-1.1,2c-0.5,0.7-1.3,1.6-2.7,2c-1.7,0.4-3.1-0.3-3.4-0.6"/>
				
					<path fill="#FFD4D4" stroke="#000000" stroke-width="0.5" stroke-linecap="round" stroke-linejoin="round" stroke-miterlimit="10" d="
					M1167.9,200.4c-0.1,0.2-0.8,1.9-2.6,2.5c-1.5,0.5-2.8,0-3.1-0.2"/>
				
					<path fill="#FFD4D4" stroke="#000000" stroke-width="0.5" stroke-linecap="round" stroke-linejoin="round" stroke-miterlimit="10" d="
					M1185,206.3c-0.1,0.2-0.4,1.3-1.6,1.8c-1.1,0.5-2.2,0.1-2.3,0"/>
			</g>
		</g>
	</g>
	<rect x="1113.2" y="167.9" fill="#E5E289" width="107.1" height="10.4"/>
	<rect x="1191.5" y="292.4" fill="#E5E289" width="33.1" height="5.2"/>
	<rect x="1113.1" y="278.5" fill="#E5E289" width="40.9" height="22.6"/>
</g>
<g id="chairs">
	<ellipse opacity="0.25" fill="#513C2C" cx="561" cy="656" rx="134" ry="11"/>
	
		<rect x="526.9" y="579.7" transform="matrix(-1 -1.224647e-16 1.224647e-16 -1 1064.292 1235.5367)" fill="#111111" width="10.5" height="76.2"/>
	<rect x="443.3" y="579.7" fill="#111111" width="10.5" height="76.2"/>
	<path fill="#B73E3E" d="M546.5,572.7H435c0.1-2.6,1.2-4.9,2.9-6.6c1.8-1.8,4.3-2.9,7.1-2.9h91.5
		C541.9,563.1,546.3,567.4,546.5,572.7z"/>
	<path fill="#A52D2D" d="M546.5,573.1c0,2.8-1.1,5.3-2.9,7.1c-1.8,1.8-4.3,2.9-7.1,2.9H445c-5.5,0-10-4.5-10-10c0-0.1,0-0.3,0-0.4
		h111.5C546.5,572.8,546.5,573,546.5,573.1z"/>
	
		<rect x="485.1" y="568.8" transform="matrix(-1.836970e-16 1 -1 -1.836970e-16 1095.6781 115.0276)" fill="#111111" width="10.5" height="73.2"/>
	<path fill="#A52D2D" d="M537.4,497.2c0-8.3-3.6-15.7-9.3-20.9c-1.3,13.8-5.8,28.3-13.7,42.1c-14.1,24.3-35.5,40.6-56.9,45.5h79.9
		V497.2z"/>
	<path fill="#B73E3E" d="M514.3,518.4c7.9-13.8,12.5-28.3,13.7-42.1c-5-4.5-11.7-7.3-18.9-7.3h-37.8c-15.9,0-29,13-29,29v66h15
		C478.8,559,500.3,542.8,514.3,518.4z"/>
	
		<rect x="656.9" y="579.7" transform="matrix(-1 -1.224647e-16 1.224647e-16 -1 1324.292 1235.5367)" fill="#111111" width="10.5" height="76.2"/>
	<rect x="573.3" y="579.7" fill="#111111" width="10.5" height="76.2"/>
	<path fill="#B73E3E" d="M676.5,572.7H565c0.1-2.6,1.2-4.9,2.9-6.6c1.8-1.8,4.3-2.9,7.1-2.9h91.5
		C671.9,563.1,676.3,567.4,676.5,572.7z"/>
	<path fill="#A52D2D" d="M676.5,573.1c0,2.8-1.1,5.3-2.9,7.1c-1.8,1.8-4.3,2.9-7.1,2.9H575c-5.5,0-10-4.5-10-10c0-0.1,0-0.3,0-0.4
		h111.5C676.5,572.8,676.5,573,676.5,573.1z"/>
	
		<rect x="615.1" y="568.8" transform="matrix(-1.836970e-16 1 -1 -1.836970e-16 1225.6781 -14.9724)" fill="#111111" width="10.5" height="73.2"/>
	<path fill="#A52D2D" d="M667.4,497.2c0-8.3-3.6-15.7-9.3-20.9c-1.3,13.8-5.8,28.3-13.7,42.1c-14.1,24.3-35.5,40.6-56.9,45.5h79.9
		V497.2z"/>
	<path fill="#B73E3E" d="M644.3,518.4c7.9-13.8,12.5-28.3,13.7-42.1c-5-4.5-11.7-7.3-18.9-7.3h-37.8c-15.9,0-29,13-29,29v66h15
		C608.8,559,630.3,542.8,644.3,518.4z"/>
</g>
<g id="bulletinBoard">
	<g>
		<rect x="779" y="167.9" fill="#FFCB97" width="174" height="146"/>
		<rect x="784.9" y="172.9" fill="#BA9A88" width="162.1" height="135.8"/>
	</g>
	<g>
		<rect x="801.1" y="191.6" fill="#FFFFFF" width="34" height="50.1"/>
		<rect x="805.3" y="204.3" opacity="0.2" fill="#050505" width="25.5" height="1.7"/>
		<rect x="805.3" y="207.7" opacity="0.2" fill="#050505" width="25.5" height="1.7"/>
		<rect x="805.3" y="211.1" opacity="0.2" fill="#050505" width="25.5" height="1.7"/>
		<rect x="805.3" y="214.5" opacity="0.2" fill="#050505" width="25.5" height="1.7"/>
		<rect x="805.3" y="217.9" opacity="0.2" fill="#050505" width="25.5" height="1.7"/>
		<rect x="805.3" y="221.3" opacity="0.2" fill="#050505" width="25.5" height="1.7"/>
		<rect x="805.3" y="224.7" opacity="0.2" fill="#050505" width="25.5" height="1.7"/>
		<rect x="805.3" y="228.1" opacity="0.2" fill="#050505" width="25.5" height="1.7"/>
		<circle fill="#FF4040" cx="817.6" cy="192" r="3"/>
	</g>
	<rect x="824" y="255.3" fill="#FFFFFF" width="95.1" height="42.4"/>
	<circle fill="#43FF5E" cx="871.1" cy="255.7" r="3"/>
	<g>
		<rect x="850.3" y="185.7" fill="#FFFFFF" width="34" height="50.1"/>
		<rect x="854.5" y="198.4" opacity="0.2" fill="#050505" width="25.5" height="1.7"/>
		<rect x="854.5" y="201.8" opacity="0.2" fill="#050505" width="25.5" height="1.7"/>
		<rect x="854.5" y="205.2" opacity="0.2" fill="#050505" width="25.5" height="1.7"/>
		<rect x="854.5" y="208.6" opacity="0.2" fill="#050505" width="25.5" height="1.7"/>
		<rect x="854.5" y="212" opacity="0.2" fill="#050505" width="25.5" height="1.7"/>
		<rect x="854.5" y="215.4" opacity="0.2" fill="#050505" width="25.5" height="1.7"/>
		<rect x="854.5" y="218.8" opacity="0.2" fill="#050505" width="25.5" height="1.7"/>
		<rect x="854.5" y="222.2" opacity="0.2" fill="#050505" width="25.5" height="1.7"/>
		<circle fill="#F2FF45" cx="866.8" cy="186.1" r="3"/>
	</g>
	<g>
		<rect x="899.4" y="191.7" fill="#FFFFFF" width="34" height="50.1"/>
		<rect x="903.6" y="204.5" opacity="0.2" fill="#050505" width="25.5" height="1.7"/>
		<rect x="903.6" y="207.9" opacity="0.2" fill="#050505" width="25.5" height="1.7"/>
		<rect x="903.6" y="211.3" opacity="0.2" fill="#050505" width="25.5" height="1.7"/>
		<rect x="903.6" y="214.6" opacity="0.2" fill="#050505" width="25.5" height="1.7"/>
		<rect x="903.6" y="218" opacity="0.2" fill="#050505" width="25.5" height="1.7"/>
		<rect x="903.6" y="221.4" opacity="0.2" fill="#050505" width="25.5" height="1.7"/>
		<rect x="903.6" y="224.8" opacity="0.2" fill="#050505" width="25.5" height="1.7"/>
		<rect x="903.6" y="228.2" opacity="0.2" fill="#050505" width="25.5" height="1.7"/>
		<circle fill="#43B3FF" cx="915.9" cy="192.2" r="3"/>
	</g>
	<g>
		<line fill="none" stroke="#000000" stroke-width="2" stroke-miterlimit="10" x1="813.5" y1="123.7" x2="813.5" y2="167"/>
		<line fill="none" stroke="#000000" stroke-width="2" stroke-miterlimit="10" x1="920.4" y1="123.7" x2="920.4" y2="167"/>
	</g>
	<line fill="none" stroke="#000000" stroke-width="3" stroke-miterlimit="10" x1="940.2" y1="122.9" x2="793.7" y2="122.9"/>
	<path d="M940.7,128.4L940.7,128.4c-1.4,0-2.5-1.1-2.5-2.5V119c0-1.4,1.1-2.5,2.5-2.5l0,0c1.4,0,2.5,1.1,2.5,2.5v6.8
		C943.2,127.2,942.1,128.4,940.7,128.4z"/>
	<path d="M794.3,128.8L794.3,128.8c-1.4,0-2.5-1.1-2.5-2.5v-6.8c0-1.4,1.1-2.5,2.5-2.5l0,0c1.4,0,2.5,1.1,2.5,2.5v6.8
		C796.8,127.7,795.7,128.8,794.3,128.8z"/>
	<rect x="835.9" y="266.1" opacity="0.2" fill="#050505" width="71.3" height="1.4"/>
	<rect x="835.9" y="268.9" opacity="0.2" fill="#050505" width="71.3" height="1.4"/>
	<rect x="835.9" y="271.8" opacity="0.2" fill="#050505" width="71.3" height="1.4"/>
	<rect x="835.9" y="274.7" opacity="0.2" fill="#050505" width="71.3" height="1.4"/>
	<rect x="835.9" y="277.6" opacity="0.2" fill="#050505" width="71.3" height="1.4"/>
	<rect x="835.9" y="280.5" opacity="0.2" fill="#050505" width="71.3" height="1.4"/>
	<rect x="835.9" y="283.3" opacity="0.2" fill="#050505" width="71.3" height="1.4"/>
	<rect x="835.9" y="286.2" opacity="0.2" fill="#050505" width="71.3" height="1.4"/>
</g>
<g id="lights">
	<g id="lightOne">
		<ellipse fill="#FFF9DE" cx="304.5" cy="90.5" rx="6.5" ry="5.5"/>
		<g>
			<polygon fill="#B8BCC5" points="331.8,89 277,89 290,75.4 293.1,72 299.5,64.9 301.5,64.9 301.5,62.7 302.5,61.6 304.8,63.8 
				304.8,64.9 306.1,64.9 313,71.4 			"/>
		</g>
		<polygon fill="#595959" points="313,64.9 313,72 293,72 293,64.9 301.5,64.9 301.5,0 304.8,0 304.8,64.9 		"/>
	</g>
	<g id="lightTwo">
		<ellipse fill="#FFF9DE" cx="944.5" cy="44.5" rx="6.5" ry="5.5"/>
		<g>
			<polygon fill="#B8BCC5" points="971.8,43 917,43 930,29.4 933.1,26 939.5,18.9 941.5,18.9 941.5,16.7 942.5,15.6 944.8,17.8 
				944.8,18.9 946.1,18.9 953,25.4 			"/>
		</g>
		<polygon fill="#595959" points="953,18.9 953,26 933,26 933,18.9 941.5,18.9 941.5,0 944.8,0 944.8,18.9 		"/>
	</g>
</g>
<g id="clock">
	<g>
		<circle fill="#0A0A0A" cx="168.7" cy="189" r="37"/>
		<circle fill="#FCFCFC" cx="168.7" cy="189" r="31"/>
	</g>
	<circle fill="#0A0A0A" cx="168.7" cy="166" r="1.3"/>
	<circle fill="#0A0A0A" cx="197" cy="189" r="1.3"/>
	<circle fill="#0A0A0A" cx="168.7" cy="216.2" r="1.3"/>
	<circle fill="#0A0A0A" cx="142.6" cy="189" r="1.3"/>
	<path fill="#0A0A0A" d="M182.5,190h-12.8v-16.3c0-0.7-0.6-1.3-1.3-1.3h0c-0.7,0-1.3,0.6-1.3,1.3v17.2c-0.1,0.2-0.1,0.4-0.1,0.6
		c0,0.8,0.7,1.5,1.5,1.5h14c0.8,0,1.5-0.7,1.5-1.5S183.3,190,182.5,190z"/>
</g>
<g id="hall">
	<rect id="hallway" x="50" y="275" fill="#7FC3D3" width="227" height="367"/>
	<g>
		<polygon fill="#B8BCC5" points="178,422 291,654 163,654 35,654 156,422 		"/>
	</g>
	<polygon fill="#C8A994" points="278,263 277,263 50,263 32,263 32,625 50,625 50,275 277,275 277,625 293,625 293,263 	"/>
</g>
<g id="plants">
	<g id="plantOne">
		<path fill="#7EA51E" d="M1119.8,443.8c0,1.7,0,3.5,0,5.3c-0.1,2.2-0.4,4.4-0.9,6.5l-0.9,4.5h-2.4c0.8-5,1.3-10.8,1.3-17.1
			c0.1-5.9-0.3-11.3-0.9-16.1c0.2-0.6,0.5-1.1,0.7-1.5c0.8,1.1,1.4,2.8,1.9,4.4c1,3.1,1.4,6.3,1.4,9.5L1119.8,443.8z"/>
		<path fill="#9ACB33" d="M1118,460.1l-0.2,1l-2.3,0l-1.1,0l-0.1-0.9l-0.8-4.4c-0.5-2.1-0.8-4.3-0.9-6.5c-0.1-1.8-0.1-3.6,0-5.3
			c0.1-5.2,1-10.3,2.7-15.2c0.2-0.6,0.4-1.2,0.7-1.7c0.6,4.8,1,10.2,0.9,16.1c-0.1,6.3-0.6,12-1.3,17.1H1118z"/>
		<path fill="#C68987" d="M1107.4,464.5l-0.8,5.3c-0.2,1.6,0,3.2,0.7,4.7l2.3,5.5h13.8l2.2-6.2c0.7-2.1,0.9-4.2,0.5-6.4l-0.5-3
			H1107.4z"/>
		<path fill="#97CA38" d="M1103,440.8c2.6,2.2,4.8,4.8,6.6,7.7l1.4,2.6c1.4,2.5,2.2,5.3,2,8.2c0,0.3,0,0.5-0.1,0.8h-2.7
			c-2.1-2.4-3.7-4.8-5.1-7.2l0,0c-1.4-2.9-2.2-6.1-2.2-9.3V440.8z"/>
		<path fill="#7EA51E" d="M1130,441v2.6c0,3.2-0.8,6.4-2.2,9.3c-1.4,2.3-3,4.7-5.1,7.2h-0.9c-0.3,0.3-0.6,0.6-0.8,0.9l0.4-0.9
			L1130,441z"/>
		<path fill="#9ACB33" d="M1130,440.8v0.2c-0.2,2.8-0.9,6.8-3,11.2c-1.6,3.3-3.5,5.9-5.2,7.9h-1.8c0-0.3-0.1-0.5-0.1-0.8
			c-0.1-2.8,0.6-5.7,2-8.2l1.5-2.6C1125.2,445.6,1127.4,443,1130,440.8z"/>
		<path fill="#9E5A5A" d="M1126,471c-1,1-4,4.1-5,5c-2,2-3,3-4.9,4h7.9C1125.2,476.4,1126.3,472.8,1126,471z"/>
		<rect x="1105.8" y="460.1" fill="#F9B9B9" width="20.9" height="4.4"/>
	</g>
	<g id="plantThree">
		<path fill="#7EA51E" d="M1094.4,464.1c0,0.7,0,1.6,0,2.3c0,1-0.2,1.9-0.4,2.9l-0.4,2h-1c0.3-2.2,0.6-4.7,0.6-7.5
			c0-2.6-0.1-5-0.4-7.1c0.1-0.3,0.2-0.5,0.3-0.7c0.3,0.5,0.6,1.2,0.8,1.9c0.4,1.4,0.6,2.8,0.6,4.2L1094.4,464.1z"/>
		<path fill="#9ACB33" d="M1093.6,471.2l-0.1,0.4l-1,0l-0.5,0l-0.1-0.4l-0.3-1.9c-0.2-0.9-0.4-1.9-0.4-2.9c0-0.8,0-1.6,0-2.3
			c0-2.3,0.4-4.5,1.2-6.7c0.1-0.3,0.2-0.5,0.3-0.8c0.3,2.1,0.4,4.5,0.4,7.1c0,2.8-0.3,5.3-0.6,7.5H1093.6z"/>
		<path fill="#C68987" d="M1088.9,473.2l-0.3,2.3c-0.1,0.7,0,1.4,0.3,2.1l1,2.4h6l1-2.7c0.3-0.9,0.4-1.9,0.2-2.8l-0.2-1.3H1088.9z"
			/>
		<path fill="#97CA38" d="M1087,462.8c1.1,1,2.1,2.1,2.9,3.4l0.6,1.1c0.6,1.1,0.9,2.3,0.9,3.6c0,0.1,0,0.2,0,0.3h-1.2
			c-0.9-1.1-1.6-2.1-2.2-3.1l0,0c-0.6-1.3-1-2.7-1-4.1V462.8z"/>
		<path fill="#7EA51E" d="M1098.9,462.9v1.1c0,1.4-0.3,2.8-1,4.1c-0.6,1-1.3,2.1-2.2,3.1h-0.4c-0.1,0.1-0.2,0.3-0.4,0.4l0.2-0.4
			L1098.9,462.9z"/>
		<path fill="#9ACB33" d="M1098.9,462.8L1098.9,462.8c-0.1,1.3-0.4,3.1-1.3,5c-0.7,1.4-1.5,2.6-2.3,3.5h-0.8c0-0.1,0-0.2,0-0.3
			c-0.1-1.3,0.3-2.5,0.9-3.6l0.6-1.1C1096.8,464.9,1097.7,463.8,1098.9,462.8z"/>
		<path fill="#9E5A5A" d="M1097.1,476c-0.4,0.4-1.8,1.8-2.2,2.2c-0.9,0.9-1.3,1.3-2.2,1.7h3.5C1096.7,478.4,1097.3,476.9,1097.1,476
			z"/>
		<rect x="1088.2" y="471.2" fill="#F9B9B9" width="9.2" height="1.9"/>
	</g>
	<g id="plantTwo">
		<path fill="#7EA51E" d="M1141.4,464.1c0,0.7,0,1.6,0,2.3c0,1-0.2,1.9-0.4,2.9l-0.4,2h-1c0.3-2.2,0.6-4.7,0.6-7.5
			c0-2.6-0.1-5-0.4-7.1c0.1-0.3,0.2-0.5,0.3-0.7c0.3,0.5,0.6,1.2,0.8,1.9c0.4,1.4,0.6,2.8,0.6,4.2L1141.4,464.1z"/>
		<path fill="#9ACB33" d="M1140.6,471.2l-0.1,0.4l-1,0l-0.5,0l-0.1-0.4l-0.3-1.9c-0.2-0.9-0.4-1.9-0.4-2.9c0-0.8,0-1.6,0-2.3
			c0-2.3,0.4-4.5,1.2-6.7c0.1-0.3,0.2-0.5,0.3-0.8c0.3,2.1,0.4,4.5,0.4,7.1c0,2.8-0.3,5.3-0.6,7.5H1140.6z"/>
		<path fill="#C68987" d="M1135.9,473.2l-0.3,2.3c-0.1,0.7,0,1.4,0.3,2.1l1,2.4h6l1-2.7c0.3-0.9,0.4-1.9,0.2-2.8l-0.2-1.3H1135.9z"
			/>
		<path fill="#97CA38" d="M1134,462.8c1.1,1,2.1,2.1,2.9,3.4l0.6,1.1c0.6,1.1,0.9,2.3,0.9,3.6c0,0.1,0,0.2,0,0.3h-1.2
			c-0.9-1.1-1.6-2.1-2.2-3.1l0,0c-0.6-1.3-1-2.7-1-4.1V462.8z"/>
		<path fill="#7EA51E" d="M1145.9,462.9v1.1c0,1.4-0.3,2.8-1,4.1c-0.6,1-1.3,2.1-2.2,3.1h-0.4c-0.1,0.1-0.2,0.3-0.4,0.4l0.2-0.4
			L1145.9,462.9z"/>
		<path fill="#9ACB33" d="M1145.9,462.8L1145.9,462.8c-0.1,1.3-0.4,3.1-1.3,5c-0.7,1.4-1.5,2.6-2.3,3.5h-0.8c0-0.1,0-0.2,0-0.3
			c-0.1-1.3,0.3-2.5,0.9-3.6l0.6-1.1C1143.8,464.9,1144.7,463.8,1145.9,462.8z"/>
		<path fill="#9E5A5A" d="M1144.1,476c-0.4,0.4-1.8,1.8-2.2,2.2c-0.9,0.9-1.3,1.3-2.2,1.7h3.5C1143.7,478.4,1144.3,476.9,1144.1,476
			z"/>
		<rect x="1135.2" y="471.2" fill="#F9B9B9" width="9.2" height="1.9"/>
	</g>
</g>
</svg>
