<?xml version="1.0" encoding="utf-8"?>
<!-- Generator: Adobe Illustrator 24.0.2, SVG Export Plug-In . SVG Version: 6.00 Build 0)  -->
<svg version="1.1" id="Layer_1" xmlns="http://www.w3.org/2000/svg" xmlns:xlink="http://www.w3.org/1999/xlink" x="0px" y="0px"
	 viewBox="0 0 1280 1024" enable-background="new 0 0 1280 1024" xml:space="preserve">
<g id="bed">
	<path fill="#1B9096" stroke="#000000" stroke-width="2" stroke-miterlimit="10" d="M738.2,934.2H534c-13.4,0-24.4-11-24.4-24.4
		V343.6c0-13.4,11-24.4,24.4-24.4h204.2c13.4,0,24.4,11,24.4,24.4v566.2C762.6,923.2,751.6,934.2,738.2,934.2z"/>
	<path id="pillow" fill="#E6EDED" stroke="#000000" stroke-width="2" stroke-miterlimit="10" d="M671.5,511.2h-79
		c-29.2,0-53-23.9-53-53v-48c0-29.2,23.9-53,53-53h79c29.2,0,53,23.9,53,53v48C724.6,487.3,700.7,511.2,671.5,511.2z"/>
</g>
<g id="body">
	<path id="neck" fill="#F0C0AC" stroke="#000000" stroke-width="2" stroke-miterlimit="10" d="M654.7,518.8
		c-6.8,7.6-16.5,11.4-25.7,9.7c-7.4-1.4-12.5-5.9-15.1-8.8c2.9-1.2,4.7-3.2,4.7-5.6v-17.7h33v17.6
		C651.6,516,652.8,517.6,654.7,518.8z"/>
	<path id="shirt" fill="#EFACAC" stroke="#000000" stroke-width="2" stroke-miterlimit="10" d="M728.1,548.4v91.1
		c0,7-5.8,12.7-12.9,12.7H560.7c-9.8,0-17.7-7.8-17.7-17.5v-86.3c0-13.5,28.6-24.9,67.6-28.4c1.1-0.1,2.2-0.3,3.2-0.6
		c2.6,2,7.6,5.1,15.1,6c9.3,1.2,18.9-1.4,25.7-6.7c1.3,0.6,2.9,1,4.8,1.1C699,523.3,728.1,534.8,728.1,548.4z"/>
</g>
<g id="head">
	<ellipse fill="#F0C0AC" stroke="#000000" stroke-miterlimit="10" cx="578.9" cy="448.9" rx="5.2" ry="8.7"/>
	<ellipse fill="#F0C0AC" stroke="#000000" stroke-miterlimit="10" cx="687.9" cy="448.9" rx="4.7" ry="8.7"/>
	<g>
		<path fill="#F0C0AC" stroke="#000000" stroke-width="2" stroke-miterlimit="10" d="M635.7,506.6h-6.6c-20.1,0-49.1-17.1-49.1-38.1
			v-69.7c0-13.7,10.7-24.9,23.7-24.9h59.2c13,0,23.7,11.2,23.7,24.9v70.1C686.6,489.7,655.5,506.6,635.7,506.6z"/>
		<path fill="#562C20" stroke="#000000" stroke-width="2" stroke-miterlimit="10" d="M606.2,408.7l11.4-5c14.8-6.4,32-3,43.4,8.6
			l0,0l0,0l6.9-9.9c2-2.9,6.3-2.6,7.9,0.6l10.8,21.6c0.6-14.1,0.7-27.5-1.9-36.1c-2.4-7.2-7.1-13.8-18.9-14.6l-11.3-0.5h-36.6
			c-8.5-0.5-16.1-0.2-22.1,1.4c-4.9,1.6-8.9,5.3-12.3,10.5c-2.6,4.5-3.5,9-3.6,13.5l0.1,15l4.7-7.5c2.3-3.7,7.4-4,10.2-0.6v0
			c1.9,2.4,4.7,3.7,7.7,3.7h0C603.8,409.5,605,409.2,606.2,408.7z"/>
	</g>
	<path fill="#F0C0AC" stroke="#000000" stroke-width="2" stroke-miterlimit="10" d="M617.9,482.2c3.2,1.2,9.8,3.2,18.3,2.7
		c7.2-0.4,12.7-2.4,15.7-3.8"/>
	<path fill="#F0C0AC" stroke="#000000" stroke-width="2" stroke-miterlimit="10" d="M650.3,427.4c1.7,1.9,5.4,5.1,10.2,4.6
		c4.1-0.5,7.4-3.4,9.1-5.4"/>
	<path fill="#F0C0AC" stroke="#000000" stroke-width="2" stroke-miterlimit="10" d="M602.2,428.4c1.7,1.9,5.4,5.1,10.2,4.6
		c4.1-0.5,7.4-3.4,9.1-5.4"/>
	<g>
		<line fill="none" stroke="#000000" stroke-width="2" stroke-miterlimit="10" x1="636.8" y1="430" x2="621.1" y2="455.2"/>
		<line fill="none" stroke="#000000" stroke-width="2" stroke-miterlimit="10" x1="630.8" y1="455.1" x2="621.4" y2="455.1"/>
	</g>
</g>
<g id="pill">
	<circle fill="#40D37F" stroke="#000000" stroke-width="2" stroke-miterlimit="10" cx="382.5" cy="402.6" r="83.1"/>
	<g>
		<path fill="#FF8F8F" stroke="#000000" stroke-width="2" stroke-miterlimit="10" d="M430.8,364.8c-6.1-9.2-18.1-11.3-26.6-4.7
			l-38.9,30.5l27.3,29.6l33.9-26.6c5.1-4,7.9-10.4,7.9-16.8C434.4,372.7,433.2,368.5,430.8,364.8z"/>
		<path fill="#FFFFFF" stroke="#000000" stroke-width="2" stroke-miterlimit="10" d="M338.6,411.6c-8.5,6.7-10.4,19.7-4.3,28.9
			c6.1,9.2,18.1,11.3,26.6,4.7l31.7-24.8l-27.3-29.6L338.6,411.6z"/>
	</g>
</g>
<g id="brain">
	<circle fill="#8742D1" stroke="#000000" stroke-width="2" stroke-miterlimit="10" cx="636.1" cy="194.6" r="83.2"/>
	<g>
		<g>
			<path fill="#EB9E9A" stroke="#000000" stroke-width="4" stroke-miterlimit="10" d="M684.1,192.9c0,30.6-25.6,57.4-38.1,57.4
				c-12.6,0-9.3-26.4-9.3-57.1s-3.6-54.2,9-54.2S684.1,162.2,684.1,192.9z"/>
			<path fill="none" stroke="#000000" stroke-width="4" stroke-linecap="round" stroke-linejoin="round" stroke-miterlimit="10" d="
				M660.3,145.4c-1.2,0.3-2.8,0.8-4.5,1.9c-3.2,2.1-4.6,5.1-5.1,6.4"/>
			<path fill="none" stroke="#000000" stroke-width="4" stroke-linecap="round" stroke-linejoin="round" stroke-miterlimit="10" d="
				M677.7,165.9c-1.1-0.8-3.8-2.5-7.7-2.6c-5.8-0.1-9.5,3.7-10.3,4.5c-3.9,4.2-3.9,9.2-3.8,10.3"/>
			<path fill="none" stroke="#000000" stroke-width="4" stroke-linecap="round" stroke-linejoin="round" stroke-miterlimit="10" d="
				M684.1,196.7c-0.6,1.2-2.1,3.8-5.1,5.8c-3.2,2.1-6.3,2.5-7.7,2.6"/>
			<path fill="none" stroke="#000000" stroke-width="4" stroke-linecap="round" stroke-linejoin="round" stroke-miterlimit="10" d="
				M668,176.2c0,0.9-0.1,6.7-4.5,10.3c-2.6,2.1-5.4,2.4-7.1,2.6c-6.3,0.6-11.2-2.6-12.8-3.8"/>
			<path fill="none" stroke="#000000" stroke-width="4" stroke-linecap="round" stroke-linejoin="round" stroke-miterlimit="10" d="
				M653.9,190.9c0,0.5,0.1,4.1,3.2,6.4c3.4,2.6,7.4,1.4,7.7,1.3"/>
			<path fill="none" stroke="#000000" stroke-width="4" stroke-linecap="round" stroke-linejoin="round" stroke-miterlimit="10" d="
				M648.8,206.3c3.7,0.5,6.2,1.7,7.7,2.6c1.8,1.1,7.3,4.3,7.7,9.6c0.1,1.6-0.3,3-0.6,3.8"/>
			<path fill="none" stroke="#000000" stroke-width="4" stroke-linecap="round" stroke-linejoin="round" stroke-miterlimit="10" d="
				M670,221.1c-1.4,0.1-3.4,0.4-5.8,1.3c-2.1,0.8-5.1,2-7.1,5.1c-2.3,3.8-1.5,7.9-1.3,9"/>
			<path fill="none" stroke="#000000" stroke-width="4" stroke-linecap="round" stroke-linejoin="round" stroke-miterlimit="10" d="
				M646.9,215.9c-0.6,0-5.4,0.4-8.3,4.5c-2.4,3.3-2,6.8-1.9,7.7"/>
			<path fill="none" stroke="#000000" stroke-width="4" stroke-linecap="round" stroke-linejoin="round" stroke-miterlimit="10" d="
				M644.3,167.9c-0.5,0-3.5,0-5.8,2.6c-2.2,2.4-2,5.3-1.9,5.8"/>
		</g>
		<g>
			<path fill="#EB9E9A" stroke="#000000" stroke-width="4" stroke-miterlimit="10" d="M588.1,192.9c0,30.6,27.3,57.4,39.9,57.4
				s7.5-26.4,7.5-57.1s3.6-54.2-9-54.2S588.1,162.2,588.1,192.9z"/>
			<path fill="none" stroke="#000000" stroke-width="4" stroke-linecap="round" stroke-linejoin="round" stroke-miterlimit="10" d="
				M611.8,145.4c1.2,0.3,2.8,0.8,4.5,1.9c3.2,2.1,4.6,5.1,5.1,6.4"/>
			<path fill="none" stroke="#000000" stroke-width="4" stroke-linecap="round" stroke-linejoin="round" stroke-miterlimit="10" d="
				M594.5,165.9c1.1-0.8,3.8-2.5,7.7-2.6c5.8-0.1,9.5,3.7,10.3,4.5c3.9,4.2,3.9,9.2,3.8,10.3"/>
			<path fill="none" stroke="#000000" stroke-width="4" stroke-linecap="round" stroke-linejoin="round" stroke-miterlimit="10" d="
				M588.1,196.7c0.6,1.2,2.1,3.8,5.1,5.8c3.2,2.1,6.3,2.5,7.7,2.6"/>
			<path fill="none" stroke="#000000" stroke-width="4" stroke-linecap="round" stroke-linejoin="round" stroke-miterlimit="10" d="
				M604.1,176.2c0,0.9,0.1,6.7,4.5,10.3c2.6,2.1,5.4,2.4,7.1,2.6c6.3,0.6,11.2-2.6,12.8-3.8"/>
			<path fill="none" stroke="#000000" stroke-width="4" stroke-linecap="round" stroke-linejoin="round" stroke-miterlimit="10" d="
				M618.2,190.9c0,0.5-0.1,4.1-3.2,6.4c-3.4,2.6-7.4,1.4-7.7,1.3"/>
			<path fill="none" stroke="#000000" stroke-width="4" stroke-linecap="round" stroke-linejoin="round" stroke-miterlimit="10" d="
				M623.3,206.3c-3.7,0.5-6.2,1.7-7.7,2.6c-1.8,1.1-7.3,4.3-7.7,9.6c-0.1,1.6,0.3,3,0.6,3.8"/>
			<path fill="none" stroke="#000000" stroke-width="4" stroke-linecap="round" stroke-linejoin="round" stroke-miterlimit="10" d="
				M602.2,221.1c1.4,0.1,3.4,0.4,5.8,1.3c2.1,0.8,5.1,2,7.1,5.1c2.3,3.8,1.5,7.9,1.3,9"/>
			<path fill="none" stroke="#000000" stroke-width="4" stroke-linecap="round" stroke-linejoin="round" stroke-miterlimit="10" d="
				M626.5,214.6c0.6,0,5.4,0.4,8.3,4.5c2.4,3.3,2,6.8,1.9,7.7"/>
			<path fill="none" stroke="#000000" stroke-width="4" stroke-linecap="round" stroke-linejoin="round" stroke-miterlimit="10" d="
				M627.8,167.9c0.5,0,3.5,0,5.8,2.6c2.2,2.4,2,5.3,1.9,5.8"/>
		</g>
	</g>
</g>
<g id="candy">
	<circle fill="#CC4444" stroke="#000000" stroke-width="2" stroke-miterlimit="10" cx="887.2" cy="402.6" r="83.2"/>
	<path fill="#FFFF92" stroke="#000000" stroke-width="2" stroke-miterlimit="10" d="M952.6,375.7l-25.5-3.4l-3.3-25.2l-5.3,19.5
		l-4,15c-6-3.7-18.3,1.7-28.2,12.8c-8.4,9.3-12.5,19.8-11,26.2l-13.9,3.7l-19.6,5.2l25.5,3.4l3.3,25.2l5.3-19.5l3.5-12.9
		c6.3,2.9,17.9-2.6,27.4-13.2c8.9-9.9,13-21.1,10.7-27.4l15.6-4.2L952.6,375.7z"/>
</g>
<g id="blanket">
	<path fill="#BBD0FF" stroke="#000000" stroke-width="2" stroke-miterlimit="10" d="M761.7,934.2H513.5c-4.1,0-7.4-3.3-7.4-7.4
		V543.6c0-4.1,3.3-7.4,7.4-7.4h248.2c4.1,0,7.4,3.3,7.4,7.4v383.2C769.1,930.9,765.7,934.2,761.7,934.2z"/>
	<path fill="none" stroke="#94C5FF" stroke-width="2" stroke-miterlimit="10" d="M720.6,574.6c-10.9,39.7-11.6,67.7-10,86.6
		c0.7,7.8,2.9,27.1-5,51.4c-3.4,10.6-7.8,19-11,24.6"/>
	<path fill="none" stroke="#94C5FF" stroke-width="2" stroke-miterlimit="10" d="M591.2,887.8c1.7,1.5,19.8,16.8,48.7,13.3
		c22.8-2.7,43-16,51.3-33.6"/>
	<path fill="none" stroke="#94C5FF" stroke-width="3" stroke-miterlimit="10" d="M594.2,894.8c1.7,1.5,19.8,16.8,48.7,13.3
		c22.8-2.7,43-16,51.3-33.6"/>
	<path fill="none" stroke="#94C5FF" stroke-width="2" stroke-miterlimit="10" d="M546.7,578.1c10.9,39.7,11.6,67.7,10,86.6
		c-0.7,7.8-2.9,27.1,5,51.4c3.4,10.6,7.8,19,11,24.6"/>
	<path fill="none" stroke="#94C5FF" stroke-width="3" stroke-miterlimit="10" d="M540.7,578.1c10.9,39.7,11.6,67.7,10,86.6
		c-0.7,7.8-2.9,27.1,5,51.4c3.4,10.6,7.8,19,11,24.6"/>
	<path fill="none" stroke="#94C5FF" stroke-width="3" stroke-miterlimit="10" d="M725.7,578c-10.9,39.7-11.6,67.7-10,86.6
		c0.7,7.8,2.9,27.1-5,51.4c-3.4,10.6-7.8,19-11,24.6"/>
</g>
</svg>
