<?xml version="1.0" encoding="utf-8"?>
<!-- Generator: Adobe Illustrator 24.0.2, SVG Export Plug-In . SVG Version: 6.00 Build 0)  -->
<svg version="1.1" id="Layer_1" xmlns="http://www.w3.org/2000/svg" xmlns:xlink="http://www.w3.org/1999/xlink" x="0px" y="0px"
	 viewBox="0 0 1280 1024" enable-background="new 0 0 1280 1024" xml:space="preserve">
<g id="leftHand">
	<g>
		<path fill="#EA9F6C" d="M494,619v8c0,3.7-2,6.9-5,8.6v-25.3c0.8,0.4,1.5,1,2.1,1.6C492.9,613.8,494,616.3,494,619z"/>
	</g>
	<g>
		<path fill="#FFB883" d="M489,610.3v25.3c-1.5,0.9-3.2,1.4-5,1.4c-5.5,0-10-4.5-10-10v-8c0-5.5,4.5-10,10-10
			C485.8,609,487.5,609.5,489,610.3z"/>
	</g>
</g>
<g id="rightHand">
	<g>
		<path fill="#EA9F6C" d="M688,616v8c0,3.7-2,6.9-5,8.6v-25.3c0.8,0.4,1.5,1,2.1,1.6C686.9,610.8,688,613.3,688,616z"/>
	</g>
	<g>
		<path fill="#FFB883" d="M683,607.3v25.3c-1.5,0.9-3.2,1.4-5,1.4c-5.5,0-10-4.5-10-10v-8c0-5.5,4.5-10,10-10
			C679.8,606,681.5,606.5,683,607.3z"/>
	</g>
</g>
<g id="head">
	<g>
		<path fill="#FFB883" d="M602.7,407h-42.4c-3.2,0-5.7-2.6-5.7-5.7v-41.5c0-3.2,2.6-5.7,5.7-5.7h42.4c3.2,0,5.7,2.6,5.7,5.7v41.5
			C608.5,404.4,605.9,407,602.7,407z"/>
	</g>
	<g>
		<path fill="#FFB883" d="M536.7,250.9c-13.1,7.1-21.6,20.7-21.7,35.7c0,0.1,0,0.2,0,0.3c0,12.6,4,23.8,10.3,31
			c9.1,31.6,31.7,54,58.2,54s49.1-22.4,58.2-54c6.3-7.3,10.3-18.5,10.3-31c0-11.7-3.5-22.3-9.1-29.5l-4.1-21.1
			c-3.6-18.2-45.4-12.2-61.8-3.3L536.7,250.9z"/>
	</g>
	<path fill="#663402" d="M645.6,296.4c1-3.6,1.7-7.3,2.1-11.1l0,0c0.8-6.6,1.4-31,3.9-37.1l1.5-3.6c9.3-22.5-2.2-44.6-25.6-48.9
		c-5.9-1.1-12.6-1.8-20.3-2.3c-25-1.8-43.7,2.1-48.7,17.8l0,0c-0.4,1.4-2.2,1.8-3.2,0.7c-4.7-5.2-11-8.4-17.9-8.4
		c-14.8,0-26.9,14.8-26.9,33c0,8,2.3,15.3,6.1,21l-0.1,0.3l0.9,12.5c1.2,17.8,8.8,35.4,12.5,52.8c0.4,1.7,1.7,3.5,2.1,5.2
		c3.5,17.7,24.7,31.6,42.9,31.6h12.2c17.8,0,42.1-12.3,46.1-29.4L645.6,296.4z"/>
</g>
<g id="body">
	<g>
		<path fill="#50D85D" d="M690.8,454.8c-4.7-27.5-12.9-50-35.2-59.3L609.3,376c-4,13.1-14.6,22.5-27,22.5c-0.2,0-0.3,0-0.5,0v61.1
			l72.5,6L667,619l23,4L690.8,454.8z"/>
		<path fill="#50D85D" d="M473,454.9c4.7-27.5,12.9-50,35.2-59.3l46.3-19.5c4,13.1,14.6,22.5,27,22.5c0.2,0,0.3,0,0.5,0v61.1
			l-72.5,6L495,623l-22-2L473,454.9z"/>
		<polygon fill="#50D85D" points="645,604 518,604 510.1,459.6 654.4,459.6 		"/>
	</g>
	<path fill="#BDF9C1" d="M629,459h-89c-5.5,0-10-4.5-10-10v-4c0-5.5,4.5-10,10-10h89c5.5,0,10,4.5,10,10v4
		C639,454.5,634.5,459,629,459z"/>
	<text transform="matrix(1 0 0 1 543.3035 449.7944)" font-family="'Questrial-Regular'" font-size="9px">Clinical Trials Patient</text>
</g>
<g id="shoes">
	<path fill="#161616" d="M553,939.6h-7c-4.2,0-9.8-10.3-12-14.1v5.9c0,3.6,4.5,10.6,7.5,10.6h16c3,0,7.5-7,7.5-10.6v-4.7
		C562.8,930.5,557.2,939.6,553,939.6z"/>
	<path fill="#773A1C" d="M553,939.6h-7c-6.6,0-12-5.4-12-12v-10.2c0-6.6,5.4-12,12-12h7c6.6,0,12,5.4,12,12v10.2
		C565,934.2,559.6,939.6,553,939.6z"/>
	<path fill="#161616" d="M616,939.6h-7c-4.2,0-9.8-10.3-12-14.1v5.9c0,3.6,4.5,10.6,7.5,10.6h16c3,0,7.5-7,7.5-10.6v-4.7
		C625.8,930.5,620.2,939.6,616,939.6z"/>
	<path fill="#773A1C" d="M628,919.6c0-7.8-5.4-14.1-12-14.1h-7c-6.6,0-12,6.4-12,14.1v5.9c0,2.9,0.7,5.5,2,7.8
		c2.2,3.8,5.8,6.4,10,6.4h7c4.2,0,7.8-2.5,10-6.4c1.3-2.2,2-4.9,2-7.8V919.6z"/>
</g>
<path fill="#396BBC" d="M581,670l14,137l3,93.8h29L643,604H521l15,296.8h26l5-91.8l9-140.2"/>
<path fill="none" stroke="#18567C" stroke-width="2" stroke-miterlimit="10" d="M542.8,646L542.8,646c-5.6,0-11.8-8.4-11.8-13.3
	v-10.3c0-4.9,4.5-8.8,10.1-8.8h4.2c5.6,0,10.1,4,10.1,8.8v10.3C555.4,637.6,548.3,646,542.8,646z"/>
<path fill="none" stroke="#18567C" stroke-width="2" stroke-miterlimit="10" d="M617.8,646L617.8,646c-5.6,0-11.8-8.4-11.8-13.3
	v-10.3c0-4.9,4.5-8.8,10.1-8.8h4.2c5.6,0,10.1,4,10.1,8.8v10.3C630.4,637.6,623.3,646,617.8,646z"/>
<path fill="#6E9FE5" d="M561.5,916.1h-24c-3,0-5.5-2.5-5.5-5.5v-6.7c0-3,2.5-5.5,5.5-5.5h24c3,0,5.5,2.5,5.5,5.5v6.7
	C567,913.6,564.5,916.1,561.5,916.1z"/>
<path fill="#6E9FE5" d="M624.5,916.1h-24c-3,0-5.5-2.5-5.5-5.5v-6.7c0-3,2.5-5.5,5.5-5.5h24c3,0,5.5,2.5,5.5,5.5v6.7
	C630,913.6,627.5,916.1,624.5,916.1z"/>
</svg>
