<?xml version="1.0" encoding="utf-8"?>
<!-- Generator: Adobe Illustrator 24.0.2, SVG Export Plug-In . SVG Version: 6.00 Build 0)  -->
<svg version="1.1" id="Layer_1" xmlns="http://www.w3.org/2000/svg" xmlns:xlink="http://www.w3.org/1999/xlink" x="0px" y="0px"
	 viewBox="0 0 1280 1024" enable-background="new 0 0 1280 1024" xml:space="preserve">
<g id="body">
	<g>
		<path id="rightHand" fill="#EFB58E" d="M685.5,534.6c0.8,9,1.9,16.8,13,16.8c12.4,0,20.9-8.4,27.5-18.4
			C712.6,533.4,699.1,533.6,685.5,534.6z"/>
		<path fill="#397786" d="M725.7,375.1c-15.7,1.6-31.3,3.2-47,4.5c-5.3-25.7-10.6-51.2-19.5-75.9c8.2-11.4,17.9-20.9,28.5-30
			C720.9,301.4,722.9,334.8,725.7,375.1z"/>
		<path fill="#F5B98C" d="M725.7,375.1c2.6,53,9.4,104.8,0.9,157.7c-5.5,0.5-11.1,0.9-16.6,1.3c-4.3,0.4-8.7,0.7-13,1.1
			c-0.1,0-0.2,0-0.3,0c-3.9,0.3-7.9,0.6-11.8,0.9c6.4-52.7,4.4-104.5-6.3-156.5C694.3,378.3,710,376.7,725.7,375.1z"/>
	</g>
	<g>
		<path id="leftHand" fill="#F5B98C" d="M459,550.2c-14.3,3.5-23.9-8.4-30.5-19.8c13.6-2.8,27.3-4.4,41.1-6.3
			C472.9,535,472.1,547,459,550.2z"/>
		<path fill="#397786" d="M500.7,308.7c-10.9,17.4-20.9,35.3-29.9,53.8c-15.9-0.9-31.3-3-47.4-4.6c10.3-23.8,19.5-42.1,35.4-65.1
			c7.2-10.4,29-27.7,45.4-28.4c0.4,0,1.1-0.8,1-0.2C506.1,279.2,502.5,293.8,500.7,308.7z"/>
		<path fill="#F5B98C" d="M469.2,523.9c-4.2,0.8-8.6,1.6-12.7,2.2c-4.2,0.7-8.1,1.3-12.3,2c-0.2,0-0.4,0.1-0.6,0.1
			c-5,0.9-10,1.8-15.1,2.8c-17.2-56.4-25.4-117.2-5-173.3c15.7,1.9,31.4,3.7,47.2,4.8c-2.8,6.1-6.5,13.6-8.5,19.8
			c-12.9,39.6-7.7,65.6-2.4,105.4C462,500.1,465,512.1,469.2,523.9z"/>
	</g>
	<path id="torso" fill="#397786" d="M648.2,508c-49.5,0.7-98.7-2.5-148.1,0.4c-14.5-75.2-53.5-139.9-40.5-218.3
		c8.7-8.6,19-17,30.8-25.1c23.4-10.6,54.1-19.2,53.8-19.1l60.9,1.7l15.7,1.7c12.7,2.3,73.8,21.2,75.1,31.6
		C705.7,359.2,677.4,435,648.2,508z"/>
	<path fill="#FFFFFF" d="M666.7,345.8h-81.2c-5.2,0-9.5-4.3-9.5-9.5v-3.5c0-5.2,4.3-9.5,9.5-9.5h81.2c5.2,0,9.5,4.3,9.5,9.5v3.5
		C676.2,341.5,672,345.8,666.7,345.8z"/>
	<rect x="583.3" y="330" fill="none" width="85.7" height="9.2"/>
	<text transform="matrix(1 0 0 1 583.2943 337.0621)" font-family="'MyriadPro-Regular'" font-size="10px">Clinical Trials Patient</text>
</g>
<g id="head">
	<path fill="#F5B98C" d="M667.4,172.5c-1.8,11-7.5,19.3-12.7,18.4c-12.4-2.9-6-41.1,6.6-39.9C666.5,151.9,669.3,161.5,667.4,172.5z"
		/>
	<path fill="#E2A379" d="M663.5,172c-1.3,8.3-5.1,14.5-8.5,14c-7.9-1.9-3.2-30.7,4.9-29.9C663.3,156.6,664.9,163.7,663.5,172z"/>
	<g>
		<path fill="#F5B98C" d="M492.2,172.9c1.7,11.2,7.3,19.6,12.4,18.9c12.2-2.7,6.3-41.6-6.1-40.6C493.3,152,490.5,161.7,492.2,172.9z
			"/>
		<path fill="#E2A379" d="M497.1,171.8c1.2,8.2,4.9,14.4,8.1,13.9c7.7-1.7,3.4-30.3-4.5-29.7C497.4,156.5,495.8,163.6,497.1,171.8z"
			/>
	</g>
	<path id="face" fill="#F5B98C" d="M607,72h-57.1c-29.2,0-52.9,26.4-52.9,58.9v16.6c0,14.4,3.5,28.6,10,41.5
		c11.8,23.6,29.3,54.9,41.5,61.2c9.8,32.2,46.1,35.1,59.6,3.9c27.8-1.9,49.1-69.7,52.5-78.7c2.3-8.9,1.3-32.6,1.5-42.1
		C662,99.4,637.4,72,607,72z"/>
	<path fill="#160900" d="M654.8,190.5c-1.5,27.3-3.6,20.5-18.5,40.5c-18.7,25.3-29.3,26.5-56,26.5c-23.3,0-32.8-6.3-50.8-24.9
		c-20.9-21.5-19.2-12.3-21.9-43.7c10.1,22.2,32.9,31.9,46.6,38.1C603.3,249,633.2,218.1,654.8,190.5L654.8,190.5z"/>
	<path fill="#00060D" d="M554,155.5c0,4.1-3.6,7.5-8,7.5c-10.6-0.4-10.6-14.7,0-15C550.4,148,554,151.4,554,155.5z"/>
	<path fill="#00060D" d="M623,154.5c0,4.1-3.6,7.5-8,7.5c-10.6-0.4-10.6-14.7,0-15C619.4,147,623,150.4,623,154.5z"/>
	<path fill="#E2A379" d="M581.5,179.3c-4.7,0-8.5-5.1-8.5-11.2v6.6c0,6.2,3.8,11.2,8.5,11.2c4.7,0,8.5-5.1,8.5-11.2v-6.6
		C590,174.2,586.2,179.3,581.5,179.3z"/>
	<path fill="#160900" d="M664.9,114l-3.5-18.6c-0.6-3.3-1.8-6.5-3.5-9.4c-4.1-6.5-12.9-24-18.3-29.2c-1.3-1.3-2.7-2.6-4.4-3.3
		l-15-6.9c-19-8.8-40.6-11.3-61.5-8.2c-17.5,2-34.4,7-49.9,14.7c-9.9,4.9-15.8,14.7-14.9,25.1c0.1,4.1,3.2,34.2,2.6,37.5
		c-0.2,2.7-0.1,8.8,0.2,15.9c0.1,9.2,0.1,18.8,0.4,23c0,0,0,0,0,0c-0.1,0,0,0,0,0c1-6.2,4.9-17.5,6.9-23c1.4-3.9,3.2-7.2,5-9.7
		c4.1-5.8,8-12.2,12.9-16.4c2.8-2.4,5.1-2.9,7.2-3.8c3.1-1.5,13.4-5,16.7-6.3c5.2-1.9,10.8-2.8,16.1-3.7c18.3-3,41.5-2.8,57.9,6.7
		c11.2,6.9,21.1,15.6,29.3,25.6c4.4,5.8,10.6,19.8,13.1,27.2l0.1,0.3c0.1-0.6,0-0.3,0.1-0.8l1.1-14c0.3-5.5,1-10.9,1.7-16.3
		C665.4,118.1,665.3,116,664.9,114z"/>
	<path fill="#160900" d="M537,140c-1.6,0-2.8,1.8-2.9,4h21.3c1.6,0,2.8-1.8,2.9-4H537z"/>
	<path fill="#160900" d="M605.5,140c-1.6,0-2.8,1.8-2.9,4h21.3c1.6,0,2.8-1.8,2.9-4H605.5z"/>
	<path fill="#160900" d="M624,214.4c1.5,19.5-24.5,24.3-40.7,24.4c-16.2,0.1-43.1-4-42.3-23.7c0.8-19.7,25.4-22.6,41.5-22.7
		C598.6,192.5,622.5,194.9,624,214.4z"/>
	<path id="lowerLip" fill="#F5B98C" d="M605,207.5L605,207.5c0,0.6-0.6,1.2-1.2,1.5c-6.9,4.1-34.6,4.1-41.6,0.1
		c-0.6-0.3-1.3-0.9-1.3-1.5c0-0.4,0.2-0.8,0.7-1.2c4.7,0.9,11.2,1.1,17.4,1.1c8.7,0.1,19.3,0.3,25.3-1.1
		C604.8,206.8,605,207.1,605,207.5z"/>
	<path id="upperLip" fill="#F5B98C" d="M604.4,205.4c-6,1.4-16.6,1.1-25.3,1.1c-6.2,0-12.8-0.2-17.4-1.1c0,0,0.1-0.1,0.1-0.1l0,0
		c0.1-0.1,0.2-0.1,0.3-0.2c0,0,0,0,0,0c2.5-1.6,9-2.8,17-3.1c0.2,0,0.3,0,0.5,0c2.2-0.1,4.6-0.1,6.8,0c0.2,0,0.3,0,0.5,0
		c8,0.3,14.5,1.5,17,3.1c0.1,0,0.1,0.1,0.2,0.1C604.2,205.3,604.3,205.3,604.4,205.4z"/>
</g>
<g id="legs_1_">
	<g id="leftFeet">
		<g>
			<path fill="#ADADAD" d="M543,956.7c-0.4,10.8-6.8,19.3-14.5,19.3c-9.1-0.5-13.9-9.5-14.3-19c0,0.2,0,0.4,0,0.6
				c-0.1,11.3,4.7,22.8,14.4,23.4c8,0,14.5-10.3,14.5-23c0-0.3,0-0.6,0-0.8C543,957,543,956.9,543,956.7z"/>
			<path fill="#FFFFFF" d="M515.5,947.9C515.5,947.8,515.5,947.8,515.5,947.9c2.1-7.1,6.4-12.5,13-12.9c-6.6,0.3-10.9,5.2-13,11.4
				c0,0,0,0,0,0.1c-0.2,0.5-0.3,1.1-0.5,1.6c-0.7,2.8-1,5.7-0.9,8.7c0,0.1,0,0.2,0,0.3c0.1-2.6,0.4-5.2,1-7.7
				C515.2,948.9,515.3,948.4,515.5,947.9z"/>
			<path fill="#FFFFFF" d="M541.7,948.3c0.3,1,0.6,2.1,0.8,3.3c0.3,1.6,0.5,3.4,0.5,5.2c0-0.2,0-0.3,0-0.5c0-0.2,0-0.5,0-0.7
				c0-1.8-0.2-3.5-0.5-5.2c-0.2-1.2-0.5-2.4-0.9-3.5c-2.3-7-7.3-11.8-13.1-11.9C534.3,935,539.3,940.4,541.7,948.3z"/>
			<path fill="#FFFFFF" d="M528.5,976c7.7,0,14-8.5,14.5-19.3c-0.1-1.8-0.2-3.5-0.5-5.2c-0.2-1.1-0.5-2.2-0.8-3.3
				c-2.3-7.8-7.3-13.3-13.1-13.3c-6.6,0.4-11,5.8-13,12.8c0,0,0,0,0,0.1c-0.1,0.5-0.3,1-0.4,1.5c-0.6,2.5-0.9,5-1,7.7
				C514.6,966.5,519.4,975.5,528.5,976z"/>
		</g>
		<path fill="none" stroke="#999999" stroke-width="0.25" stroke-miterlimit="10" d="M538,972"/>
	</g>
	<g id="rightFeet">
		<path fill="none" stroke="#999999" stroke-width="0.25" stroke-miterlimit="10" d="M626.5,973"/>
		<g>
			<path fill="#ADADAD" d="M631,956.7c-0.4,10.8-6.8,19.3-14.5,19.3c-9.1-0.5-13.9-9.5-14.3-19c0,0.2,0,0.4,0,0.6
				c-0.1,11.3,4.7,22.8,14.4,23.4c8,0,14.5-10.3,14.5-23c0-0.3,0-0.6,0-0.8C631,957,631,956.9,631,956.7z"/>
			<path fill="#FFFFFF" d="M603.5,947.9C603.5,947.8,603.5,947.8,603.5,947.9c2.1-7.1,6.4-12.5,13-12.9c-6.6,0.3-10.9,5.2-13,11.4
				c0,0,0,0,0,0.1c-0.2,0.5-0.3,1.1-0.5,1.6c-0.7,2.8-1,5.7-0.9,8.7c0,0.1,0,0.2,0,0.3c0.1-2.6,0.4-5.2,1-7.7
				C603.2,948.9,603.3,948.4,603.5,947.9z"/>
			<path fill="#FFFFFF" d="M629.7,948.3c0.3,1,0.6,2.1,0.8,3.3c0.3,1.6,0.5,3.4,0.5,5.2c0-0.2,0-0.3,0-0.5c0-0.2,0-0.5,0-0.7
				c0-1.8-0.2-3.5-0.5-5.2c-0.2-1.2-0.5-2.4-0.9-3.5c-2.3-7-7.3-11.8-13.1-11.9C622.3,935,627.3,940.4,629.7,948.3z"/>
			<path fill="#FFFFFF" d="M616.5,976c7.7,0,14-8.5,14.5-19.3c-0.1-1.8-0.2-3.5-0.5-5.2c-0.2-1.1-0.5-2.2-0.8-3.3
				c-2.3-7.8-7.3-13.3-13.1-13.3c-6.6,0.4-11,5.8-13,12.8c0,0,0,0,0,0.1c-0.1,0.5-0.3,1-0.4,1.5c-0.6,2.5-0.9,5-1,7.7
				C602.6,966.5,607.4,975.5,616.5,976z"/>
		</g>
	</g>
	<path id="leftLeg" fill="#397786" d="M577.5,604.1c-3.5,1-7,2-10.4,3.1c-4.4,119.6-6.6,226.1-22.1,345.4c-0.3-0.1-0.5-0.1-0.8-0.2
		c-0.7-0.2-1.5-0.3-2.2-0.5c0,0-0.1,0-0.1,0c-10.2-2.3-17.2-3.5-26.6-0.1c0,0-0.1,0-0.2,0.1c-1.1,0.4-2.2,0.9-3.4,1.4
		c-13.7-103.1-0.6-234-12.7-329.7c-0.5-5.5-0.9-11.3-1.2-17.3c-0.9-19.1-0.4-39.8,1.2-57.6c0,0,0,0,0.1,0V522l1-16l71-1.9v100.2
		l2.4-0.1L577.5,604.1z"/>
	<path id="leftLeg_1_" fill="#397786" d="M562,606.3c3.8,1,7.7,2,11.5,3.1c4.8,119.6,7.3,226.1,24.4,345.4c0.3-0.1,0.6-0.1,0.9-0.2
		c0.8-0.2,1.6-0.3,2.4-0.5c0.1,0,0.1,0,0.1,0c11.2-2.3,19-3.5,29.3-0.1c0.1,0,0.1,0,0.2,0.1c1.2,0.4,2.5,0.9,3.8,1.4
		c15.1-103.1,0.6-234,14.1-329.7c0.6-5.5,1-11.3,1.3-17.3c1-19.1,0.5-39.8-1.3-57.6c0,0,0,0-0.1,0v-26.6l-1.1-16l-78.4-1.9v100.2
		l-2.7-0.1L562,606.3z"/>
</g>
</svg>
