<?xml version="1.0" encoding="utf-8"?>
<!-- Generator: Adobe Illustrator 24.0.2, SVG Export Plug-In . SVG Version: 6.00 Build 0)  -->
<svg version="1.1" id="Layer_1" xmlns="http://www.w3.org/2000/svg" xmlns:xlink="http://www.w3.org/1999/xlink" x="0px" y="0px"
	 viewBox="0 0 1280 1024" style="enable-background:new 0 0 1280 1024;" xml:space="preserve">
<style type="text/css">
	.st0{fill:#397786;}
	.st1{fill:#F5B98C;}
	.st2{fill:#E2A379;}
	.st3{fill:#EFB58E;}
	.st4{fill:#160900;}
	.st5{fill:#FFFFFF;}
	.st6{font-family:'ArialMT';}
	.st7{font-size:10px;}
	.st8{fill:#00060D;}
	.st9{fill:#ADADAD;}
	.st10{fill:none;stroke:#999999;stroke-width:0.25;stroke-miterlimit:10;}
</style>
<path id="shoulderRight" class="st0" d="M725.7,375.1c-15.7,1.6-31.3,3.2-47,4.5c-5.3-25.7-10.6-51.2-19.5-75.9
	c8.2-11.4,17.9-20.9,28.5-30C720.9,301.4,722.9,334.8,725.7,375.1z"/>
<g id="shoulderLeft">
	<path class="st0" d="M500.7,308.7c-10.9,17.4-20.9,35.3-29.9,53.8c-15.9-0.9-31.3-3-47.4-4.6c10.3-23.8,19.5-42.1,35.4-65.1
		c7.2-10.4,29-27.7,45.4-28.4c0.4,0,1.1-0.8,1-0.2C506.1,279.2,502.5,293.8,500.7,308.7z"/>
</g>
<path id="torso" class="st0" d="M648.2,508c-49.5,0.7-98.7-2.5-148.1,0.4c-14.5-75.2-53.5-139.9-40.5-218.3c8.7-8.6,19-17,30.8-25.1
	c23.4-10.6,54.1-19.2,53.8-19.1l60.9,1.7l15.7,1.7c12.7,2.3,73.8,21.2,75.1,31.6C705.7,359.2,677.4,435,648.2,508z"/>
<g id="skin">
	<g>
		<path class="st1" d="M667.4,172.5c-1.8,10.8-7.3,19-12.4,18.4c0.7-1.9,1.4-3.7,2-5.3c2.8-1.5,5.5-6.9,6.5-13.6
			c1-6.2,0.4-11.8-1.4-14.4c0-2.1,0.1-4.3,0.1-6.4C666.8,153,669.2,162.1,667.4,172.5z"/>
		<path class="st2" d="M663.5,172c-1,6.7-3.8,12.1-6.5,13.6c1.8-4.9,3-8.5,3.6-10.2c1-3.9,1.4-10.6,1.5-17.8
			C663.9,160.2,664.5,165.8,663.5,172z"/>
	</g>
	<g>
		<path class="st1" d="M507.6,190.1c-0.8,0.8-1.8,1.4-3,1.7c-5.1,0.7-10.7-7.7-12.4-18.9c-1.5-10.2,0.6-19.1,4.9-21.2
			c0.1,2.5,0.3,5,0.7,7.4c-1.2,2.9-1.5,7.6-0.7,12.7c1.2,8.2,4.9,14.4,8.1,13.9c0.1,0,0.1,0,0.2,0c0.5,1.1,1,2.2,1.6,3.3
			L507.6,190.1z"/>
		<path class="st2" d="M505.4,185.7c-0.1,0-0.1,0-0.2,0c-3.2,0.5-6.9-5.7-8.1-13.9c-0.8-5.1-0.5-9.8,0.7-12.7
			C499,168.3,501.5,177.2,505.4,185.7z"/>
	</g>
	<path class="st1" d="M662.2,151.2c0,2.1,0,4.3-0.1,6.4c-0.1,7.1-0.5,13.9-1.5,17.8c-0.6,1.7-1.9,5.3-3.6,10.2
		c-0.6,1.6-1.3,3.4-2,5.3c-8.7,22.9-25.9,61.7-46.9,63.2c-13.5,31.2-49.8,28.3-59.6-3.9c-12-6.2-29.1-36.6-40.9-60.1L507,189
		c-0.6-1.1-1.1-2.2-1.6-3.3c-3.9-8.5-6.5-17.4-7.6-26.6c-0.3-2.5-0.5-4.9-0.7-7.4c-0.1-1.4-0.1-2.8-0.1-4.2v-16.6
		c0-32.5,23.7-58.9,52.9-58.9H607c30.4,0,55,27.4,55.1,61.3C662,137.4,662.2,144.2,662.2,151.2z"/>
	<g id="arms">
		<path id="rightHand" class="st3" d="M685.5,534.6c0.8,9,1.9,16.8,13,16.8c12.4,0,20.9-8.4,27.5-18.4
			C712.6,533.4,699.1,533.6,685.5,534.6z"/>
		<path class="st1" d="M725.7,375.1c2.6,53,9.4,104.8,0.9,157.7c-5.5,0.5-11.1,0.9-16.6,1.3c-4.3,0.4-8.7,0.7-13,1.1
			c-0.1,0-0.2,0-0.3,0c-3.9,0.3-7.9,0.6-11.8,0.9c6.4-52.7,4.4-104.5-6.3-156.5C694.3,378.3,710,376.7,725.7,375.1z"/>
		<path id="leftHand" class="st1" d="M459,550.2c-14.3,3.5-23.9-8.4-30.5-19.8c13.6-2.8,27.3-4.4,41.1-6.3
			C472.9,535,472.1,547,459,550.2z"/>
		<path class="st1" d="M469.2,523.9c-4.2,0.8-8.6,1.6-12.7,2.2c-4.2,0.7-8.1,1.3-12.3,2c-0.2,0-0.4,0.1-0.6,0.1
			c-5,0.9-10,1.8-15.1,2.8c-17.2-56.4-25.4-117.2-5-173.3c15.7,1.9,31.4,3.7,47.2,4.8c-2.8,6.1-6.5,13.6-8.5,19.8
			c-12.9,39.6-7.7,65.6-2.4,105.4C462,500.1,465,512.1,469.2,523.9z"/>
	</g>
	<path class="st2" d="M581.5,179.3c-4.7,0-8.5-5.1-8.5-11.2v6.6c0,6.2,3.8,11.2,8.5,11.2s8.5-5.1,8.5-11.2v-6.6
		C590,174.2,586.2,179.3,581.5,179.3z"/>
</g>
<g id="facialHair">
	<path class="st4" d="M624,214.4c1.5,19.5-24.5,24.3-40.7,24.4c-16.2,0.1-43.1-4-42.3-23.7s25.4-22.6,41.5-22.7
		C598.6,192.5,622.5,194.9,624,214.4z"/>
	<path class="st4" d="M654.8,190.5c-1.5,27.3-3.6,20.5-18.5,40.5c-18.7,25.3-29.3,26.5-56,26.5c-23.3,0-32.8-6.3-50.8-24.9
		c-20.9-21.5-19.2-12.3-21.9-43.7c10.1,22.2,32.9,31.9,46.6,38.1C603.3,249,633.2,218.1,654.8,190.5L654.8,190.5z"/>
</g>
<g id="lips">
	<path id="lowerLip" class="st1" d="M605,207.5L605,207.5c0,0.6-0.6,1.2-1.2,1.5c-6.9,4.1-34.6,4.1-41.6,0.1
		c-0.6-0.3-1.3-0.9-1.3-1.5c0-0.4,0.2-0.8,0.7-1.2c4.7,0.9,11.2,1.1,17.4,1.1c8.7,0.1,19.3,0.3,25.3-1.1
		C604.8,206.8,605,207.1,605,207.5z"/>
	<path id="upperLip" class="st1" d="M604.4,205.4c-6,1.4-16.6,1.1-25.3,1.1c-6.2,0-12.8-0.2-17.4-1.1l0.1-0.1l0,0
		c0.1-0.1,0.2-0.1,0.3-0.2l0,0c2.5-1.6,9-2.8,17-3.1c0.2,0,0.3,0,0.5,0c2.2-0.1,4.6-0.1,6.8,0c0.2,0,0.3,0,0.5,0
		c8,0.3,14.5,1.5,17,3.1c0.1,0,0.1,0.1,0.2,0.1C604.2,205.3,604.3,205.3,604.4,205.4z"/>
</g>
<path class="st5" d="M666.7,345.8h-81.2c-5.2,0-9.5-4.3-9.5-9.5v-3.5c0-5.2,4.3-9.5,9.5-9.5h81.2c5.2,0,9.5,4.3,9.5,9.5v3.5
	C676.2,341.5,672,345.8,666.7,345.8z"/>
<text transform="matrix(1 0 0 1 583.2943 337.0621)" class="st6 st7">Clinical Trials Patient</text>
<g id="eyes">
	<path class="st8" d="M554,155.5c0,4.1-3.6,7.5-8,7.5c-10.6-0.4-10.6-14.7,0-15C550.4,148,554,151.4,554,155.5z"/>
	<path class="st8" d="M623,154.5c0,4.1-3.6,7.5-8,7.5c-10.6-0.4-10.6-14.7,0-15C619.4,147,623,150.4,623,154.5z"/>
</g>
<path id="hair" class="st4" d="M664.9,114l-3.5-18.6c-0.6-3.3-1.8-6.5-3.5-9.4c-4.1-6.5-12.9-24-18.3-29.2c-1.3-1.3-2.7-2.6-4.4-3.3
	l-15-6.9c-19-8.8-40.6-11.3-61.5-8.2c-17.5,2-34.4,7-49.9,14.7c-9.9,4.9-15.8,14.7-14.9,25.1c0.1,4.1,3.2,34.2,2.6,37.5
	c-0.2,2.7-0.1,8.8,0.2,15.9c0.1,9.2,0.1,18.8,0.4,23l0,0c-0.1,0,0,0,0,0c1-6.2,4.9-17.5,6.9-23c1.4-3.9,3.2-7.2,5-9.7
	c4.1-5.8,8-12.2,12.9-16.4c2.8-2.4,5.1-2.9,7.2-3.8c3.1-1.5,13.4-5,16.7-6.3c5.2-1.9,10.8-2.8,16.1-3.7c18.3-3,41.5-2.8,57.9,6.7
	c11.2,6.9,21.1,15.6,29.3,25.6c4.4,5.8,10.6,19.8,13.1,27.2l0.1,0.3c0.1-0.6,0-0.3,0.1-0.8l1.1-14c0.3-5.5,1-10.9,1.7-16.3
	C665.4,118.1,665.3,116,664.9,114z"/>
<g id="brows">
	<path class="st4" d="M537,140c-1.6,0-2.8,1.8-2.9,4h21.3c1.6,0,2.8-1.8,2.9-4H537z"/>
	<path class="st4" d="M605.5,140c-1.6,0-2.8,1.8-2.9,4h21.3c1.6,0,2.8-1.8,2.9-4H605.5z"/>
</g>
<g id="legs">
	<g id="leftFeet">
		<g>
			<path class="st9" d="M543,956.7c-0.4,10.8-6.8,19.3-14.5,19.3c-9.1-0.5-13.9-9.5-14.3-19c0,0.2,0,0.4,0,0.6
				c-0.1,11.3,4.7,22.8,14.4,23.4c8,0,14.5-10.3,14.5-23c0-0.3,0-0.6,0-0.8C543,957,543,956.9,543,956.7z"/>
			<path class="st5" d="M515.5,947.9C515.5,947.8,515.5,947.8,515.5,947.9c2.1-7.1,6.4-12.5,13-12.9c-6.6,0.3-10.9,5.2-13,11.4
				c0,0,0,0,0,0.1c-0.2,0.5-0.3,1.1-0.5,1.6c-0.7,2.8-1,5.7-0.9,8.7c0,0.1,0,0.2,0,0.3c0.1-2.6,0.4-5.2,1-7.7
				C515.2,948.9,515.3,948.4,515.5,947.9z"/>
			<path class="st5" d="M541.7,948.3c0.3,1,0.6,2.1,0.8,3.3c0.3,1.6,0.5,3.4,0.5,5.2c0-0.2,0-0.3,0-0.5s0-0.5,0-0.7
				c0-1.8-0.2-3.5-0.5-5.2c-0.2-1.2-0.5-2.4-0.9-3.5c-2.3-7-7.3-11.8-13.1-11.9C534.3,935,539.3,940.4,541.7,948.3z"/>
			<path class="st5" d="M528.5,976c7.7,0,14-8.5,14.5-19.3c-0.1-1.8-0.2-3.5-0.5-5.2c-0.2-1.1-0.5-2.2-0.8-3.3
				c-2.3-7.8-7.3-13.3-13.1-13.3c-6.6,0.4-11,5.8-13,12.8c0,0,0,0,0,0.1c-0.1,0.5-0.3,1-0.4,1.5c-0.6,2.5-0.9,5-1,7.7
				C514.6,966.5,519.4,975.5,528.5,976z"/>
		</g>
		<path class="st10" d="M538,972"/>
	</g>
	<g id="rightFeet">
		<path class="st10" d="M626.5,973"/>
		<g>
			<path class="st9" d="M631,956.7c-0.4,10.8-6.8,19.3-14.5,19.3c-9.1-0.5-13.9-9.5-14.3-19c0,0.2,0,0.4,0,0.6
				c-0.1,11.3,4.7,22.8,14.4,23.4c8,0,14.5-10.3,14.5-23c0-0.3,0-0.6,0-0.8C631,957,631,956.9,631,956.7z"/>
			<path class="st5" d="M603.5,947.9C603.5,947.8,603.5,947.8,603.5,947.9c2.1-7.1,6.4-12.5,13-12.9c-6.6,0.3-10.9,5.2-13,11.4
				c0,0,0,0,0,0.1c-0.2,0.5-0.3,1.1-0.5,1.6c-0.7,2.8-1,5.7-0.9,8.7c0,0.1,0,0.2,0,0.3c0.1-2.6,0.4-5.2,1-7.7
				C603.2,948.9,603.3,948.4,603.5,947.9z"/>
			<path class="st5" d="M629.7,948.3c0.3,1,0.6,2.1,0.8,3.3c0.3,1.6,0.5,3.4,0.5,5.2c0-0.2,0-0.3,0-0.5s0-0.5,0-0.7
				c0-1.8-0.2-3.5-0.5-5.2c-0.2-1.2-0.5-2.4-0.9-3.5c-2.3-7-7.3-11.8-13.1-11.9C622.3,935,627.3,940.4,629.7,948.3z"/>
			<path class="st5" d="M616.5,976c7.7,0,14-8.5,14.5-19.3c-0.1-1.8-0.2-3.5-0.5-5.2c-0.2-1.1-0.5-2.2-0.8-3.3
				c-2.3-7.8-7.3-13.3-13.1-13.3c-6.6,0.4-11,5.8-13,12.8c0,0,0,0,0,0.1c-0.1,0.5-0.3,1-0.4,1.5c-0.6,2.5-0.9,5-1,7.7
				C602.6,966.5,607.4,975.5,616.5,976z"/>
		</g>
	</g>
	<path class="st0" d="M650,608.5c-0.3,6-0.7,11.8-1.3,17.3c-13.5,95.7,1,226.6-14.1,329.7c-1.3-0.5-2.6-1-3.8-1.4
		c-0.1-0.1-0.1-0.1-0.2-0.1c-10.3-3.4-18.1-2.2-29.3,0.1c0,0,0,0-0.1,0c-0.8,0.2-1.6,0.3-2.4,0.5c-0.3,0.1-0.6,0.1-0.9,0.2
		c-17.1-119.3-19.6-225.8-24.4-345.4c-2.1-0.6-4.3-1.2-6.4-1.8c0-0.1,0-0.3,0-0.4c0.6-0.2,1.3-0.4,1.9-0.6h0.1l0,0H569l-2.6-0.1
		l-4.4-0.2c1.7,0.4,3.4,0.9,5.1,1.3c-4.4,119.4-6.6,225.8-22.1,345c-0.3-0.1-0.5-0.1-0.8-0.2c-0.7-0.2-1.5-0.3-2.2-0.5h-0.1
		c-10.2-2.3-17.2-3.5-26.6-0.1c0,0-0.1,0-0.2,0.1c-1.1,0.4-2.2,0.9-3.4,1.4c-13.7-103.1-0.6-234-12.7-329.7
		c-0.5-5.5-0.9-11.3-1.2-17.3c-0.9-19.1-0.4-39.8,1.2-57.6c0,0,0,0,0.1,0V522l1-16l71-1.9v2.4l76.4,1.8l1.1,16v26.6
		c0.1,0,0.1,0,0.1,0C650.5,568.7,651,589.4,650,608.5z"/>
</g>
</svg>
