<?xml version="1.0" encoding="utf-8"?>
<!-- Generator: Adobe Illustrator 24.0.2, SVG Export Plug-In . SVG Version: 6.00 Build 0)  -->
<svg version="1.1" id="Layer_1" xmlns="http://www.w3.org/2000/svg" xmlns:xlink="http://www.w3.org/1999/xlink" x="0px" y="0px"
	 viewBox="0 0 1280 1024" enable-background="new 0 0 1280 1024" xml:space="preserve">
<g>
	
		<ellipse transform="matrix(0.7071 -0.7071 0.7071 0.7071 -221.1818 542.0198)" fill="#FFFFFF" cx="543.7" cy="538" rx="193" ry="193"/>
	<g>
		<path fill="#FF8383" d="M543.7,355c101.1,0,183,81.9,183,183s-81.9,183-183,183s-183-81.9-183-183S442.6,355,543.7,355 M543.7,335
			c-27.4,0-54,5.4-79,16c-24.2,10.2-45.9,24.9-64.5,43.5c-18.6,18.6-33.3,40.3-43.5,64.5c-10.6,25-16,51.6-16,79s5.4,54,16,79
			c10.2,24.2,24.9,45.9,43.5,64.5c18.6,18.6,40.3,33.3,64.5,43.5c25,10.6,51.6,16,79,16s54-5.4,79-16c24.2-10.2,45.9-24.9,64.5-43.5
			c18.6-18.6,33.3-40.3,43.5-64.5c10.6-25,16-51.6,16-79s-5.4-54-16-79c-10.2-24.2-24.9-45.9-43.5-64.5
			c-18.6-18.6-40.3-33.3-64.5-43.5C597.7,340.4,571.1,335,543.7,335L543.7,335z"/>
	</g>
</g>
<g>
	<path fill="#8A90FF" d="M594.1,441.7V539H493.3v-96.8c0-25.2,20.6-45.9,45.9-45.9h9.5C573.6,396.3,594.1,416.7,594.1,441.7z"/>
	<path fill="#4552CE" d="M594.1,539v94.9c0,25.4-20.8,46.3-46.3,46.3h-8.9c-25.1,0-45.6-20.5-45.6-45.6V539H594.1z"/>
</g>
<line fill="none" stroke="#FF8383" stroke-width="20" stroke-miterlimit="10" x1="412.9" y1="669" x2="674.9" y2="407"/>
</svg>
