<svg xmlns="http://www.w3.org/2000/svg" viewBox="0 0 171.96 151.81"><defs><style>.cls-1{opacity:0;}.cls-2{fill:#f9a6ba;}.cls-3{fill:#fa6f5f;}.cls-4{fill:#ffdc7b;}.cls-5{fill:#606060;}.cls-6{fill:#727272;}.cls-7{fill:#444;}.cls-8{fill:#636363;}.cls-9{fill:#6ad65b;}.cls-10{fill:#95e588;}</style></defs><title>stagesMobile_1</title><g id="Layer_2" data-name="Layer 2"><g id="Layer_1-2" data-name="Layer 1"><g id="stagesMobile"><g id="stage4" class="cls-1"><path class="cls-2" d="M104.07,91.05c-3.74,33.35-27.22,39.14-48.32,37.44-20.23-1.64-12.47-8.57-4.87-42S83.22,20.14,96.25,31.17Q109.51,42.39,104.07,91.05Z"/><path class="cls-2" d="M109.78,91.05c3.74,33.35,27.22,39.14,48.32,37.44,20.23-1.64,12.47-8.57,4.87-42S130.63,20.14,117.6,31.17Q104.34,42.39,109.78,91.05Z"/><path class="cls-3" d="M123.47,67.23l32.67,7.83c-8.23-2.31-28.51-9.55-32-12.25l13.27-19.39c-5.5,6.81-12.28,16.6-17.69,18-4.56-2.28-8.23-5.85-8.85-10.38V16.4L111.22,5c0-2.24-.48-4.08-2.72-4.08h-3.75A2.72,2.72,0,0,0,102,3.6V50.73c-.62,4.53-4.29,8.1-8.85,10.38-5.41-1.43-12.19-11.22-17.69-18l13.27,19.4c-3.47,2.7-23.76,9.94-32,12.25l32.67-7.83c-8.67,7-14.38,17.06-18,20.08l-3.07,4.77S73.2,86.24,79,80.62l2.31,15.52c.3-5.33.31-16.08,2.09-19.64a55.07,55.07,0,0,1,8.09-6.23C93,69,94.79,67.89,96.34,66.55l7-6A15.83,15.83,0,0,0,106.35,57a16.14,16.14,0,0,0,3.27,3.92l6.95,6c1.55,1.34,3.31,2.41,4.88,3.72a55.07,55.07,0,0,1,8.09,6.23c1.78,3.56,1.79,14.31,2.09,19.64L134,81c5.77,5.62,10.62,11.12,10.62,11.12l-3.07-4.77C137.85,84.29,132.14,74.28,123.47,67.23Z"/><path class="cls-4" d="M90.09,95.38q0-.39,0-.78a8.76,8.76,0,0,0-.21-1.86,5,5,0,0,0-4.75-6.42,5.08,5.08,0,0,0-1.24.16,5,5,0,0,0-6.74,1.21c-.21,0-.42,0-.63,0a5,5,0,0,0-5,5,5.11,5.11,0,0,0,.3,1.7,5,5,0,0,0,4,7.9,4.48,4.48,0,0,0,.64,0,4.94,4.94,0,0,0,7.65.43,5,5,0,0,0,6.62-4.69A5,5,0,0,0,90.09,95.38Z"/><path class="cls-4" d="M75.11,78.44c0-.12,0-.24,0-.37a4.14,4.14,0,0,0-.1-.87,2.61,2.61,0,0,0,.1-.69,2.34,2.34,0,0,0-2.34-2.34,2.2,2.2,0,0,0-.58.08,2.31,2.31,0,0,0-1.29-.39,2.34,2.34,0,0,0-1.89,1l-.3,0a2.34,2.34,0,0,0-2.34,2.34,2.37,2.37,0,0,0,.15.8,2.27,2.27,0,0,0-.46,1.38,2.34,2.34,0,0,0,2.34,2.34l.3,0a2.35,2.35,0,0,0,3.61.2,2.44,2.44,0,0,0,.77.13,2.34,2.34,0,0,0,2.34-2.34A2.29,2.29,0,0,0,75.11,78.44Z"/><path class="cls-4" d="M80.9,45.46c0-.1,0-.2,0-.3a3.38,3.38,0,0,0-.08-.72,2.12,2.12,0,0,0,.08-.57A1.9,1.9,0,0,0,78.5,42a1.84,1.84,0,0,0-1.06-.32,1.94,1.94,0,0,0-1.56.79,1,1,0,0,0-.24,0,1.92,1.92,0,0,0-1.93,1.93,1.84,1.84,0,0,0,.12.66,1.88,1.88,0,0,0-.38,1.14,1.94,1.94,0,0,0,1.93,1.93l.25,0a1.92,1.92,0,0,0,3,.16,1.91,1.91,0,0,0,.64.11,1.93,1.93,0,0,0,1.66-2.91Z"/><path class="cls-4" d="M96.55,58.25c0-.1,0-.2,0-.3a3.36,3.36,0,0,0-.08-.71,2.1,2.1,0,0,0,.08-.56,1.92,1.92,0,0,0-1.91-1.92,1.86,1.86,0,0,0-.48.06,1.93,1.93,0,0,0-2.6.47l-.24,0a1.92,1.92,0,0,0-1.92,1.92,1.75,1.75,0,0,0,.12.65A1.93,1.93,0,0,0,89.16,59a1.91,1.91,0,0,0,1.91,1.92l.25,0a1.9,1.9,0,0,0,1.54.79A1.88,1.88,0,0,0,94.27,61a1.91,1.91,0,0,0,2.55-1.8A1.92,1.92,0,0,0,96.55,58.25Z"/><path class="cls-4" d="M110.54,49.28c0-.06,0-.11,0-.16a1.58,1.58,0,0,0,0-.38.93.93,0,0,0,0-.29,1,1,0,0,0-1.26-1,1.06,1.06,0,0,0-.56-.17,1,1,0,0,0-.81.42h-.13a1,1,0,0,0-1,1,1.28,1.28,0,0,0,.06.35,1,1,0,0,0-.19.6,1,1,0,0,0,1,1h.13a1,1,0,0,0,.81.42,1,1,0,0,0,.74-.33.88.88,0,0,0,.33.06,1,1,0,0,0,1-1A1,1,0,0,0,110.54,49.28Z"/><path class="cls-4" d="M121.26,62a.76.76,0,0,0,0-.15,2.33,2.33,0,0,0,0-.38,1.36,1.36,0,0,0,0-.3,1,1,0,0,0-1-1,1.07,1.07,0,0,0-.25,0,1,1,0,0,0-.55-.17,1,1,0,0,0-.82.41h-.12a1,1,0,0,0-1,1,1,1,0,0,0,.06.35,1,1,0,0,0,.81,1.6h.13a1,1,0,0,0,.81.41,1,1,0,0,0,.74-.32,1.28,1.28,0,0,0,.34.06,1,1,0,0,0,.86-1.53Z"/><path class="cls-4" d="M134,78.9a.86.86,0,0,0,0-.16,1.58,1.58,0,0,0,0-.38.93.93,0,0,0,0-.29,1,1,0,0,0-1.26-1,1,1,0,0,0-.56-.16,1,1,0,0,0-.81.41h-.13a1,1,0,0,0-1,1,1,1,0,0,0,.06.34,1,1,0,0,0-.2.6,1,1,0,0,0,1,1h.13a1,1,0,0,0,1.55.08,1,1,0,0,0,.33.06,1,1,0,0,0,1-1A1,1,0,0,0,134,78.9Z"/><path class="cls-4" d="M138.12,44.68v-.16a1.64,1.64,0,0,0,0-.38.92.92,0,0,0,0-.29,1,1,0,0,0-1.25-1,1,1,0,0,0-.56-.16,1,1,0,0,0-.81.41h-.13a1,1,0,0,0-1,1,.93.93,0,0,0,.06.34,1,1,0,0,0-.19.6,1,1,0,0,0,1,1h.12a1,1,0,0,0,1.56.08.88.88,0,0,0,.33.06,1,1,0,0,0,.87-1.52Z"/><path class="cls-4" d="M106.44,42.83s0-.11,0-.17a2,2,0,0,0,0-.42,1.13,1.13,0,0,0,0-.32,1.11,1.11,0,0,0-1.11-1.11,1.26,1.26,0,0,0-.28,0,1.05,1.05,0,0,0-.61-.19,1.08,1.08,0,0,0-.89.46h-.14a1.11,1.11,0,0,0-1.11,1.11,1,1,0,0,0,.07.38,1,1,0,0,0-.22.65,1.11,1.11,0,0,0,1.11,1.11h.14a1.12,1.12,0,0,0,.89.45,1.1,1.1,0,0,0,.82-.36,1.11,1.11,0,0,0,1.32-1.61Z"/><path class="cls-5" d="M81.28,148.21a3.16,3.16,0,0,1-1.23,2.65,5.35,5.35,0,0,1-3.34.95,8.39,8.39,0,0,1-3.51-.59v-1.44a8.86,8.86,0,0,0,1.72.52,9,9,0,0,0,1.85.2,3.73,3.73,0,0,0,2.25-.57,1.86,1.86,0,0,0,.75-1.58,2,2,0,0,0-.27-1.09,2.42,2.42,0,0,0-.89-.79,13.38,13.38,0,0,0-1.91-.82,6,6,0,0,1-2.57-1.52,3.35,3.35,0,0,1-.76-2.29,2.84,2.84,0,0,1,1.11-2.36,4.63,4.63,0,0,1,3-.88,8.69,8.69,0,0,1,3.53.7l-.47,1.3a8.05,8.05,0,0,0-3.09-.67,3,3,0,0,0-1.86.51,1.69,1.69,0,0,0-.66,1.42,2.2,2.2,0,0,0,.24,1.09,2.25,2.25,0,0,0,.83.78,10.43,10.43,0,0,0,1.79.79,7,7,0,0,1,2.78,1.55A3,3,0,0,1,81.28,148.21Z"/><path class="cls-5" d="M87.87,151.63h-1.5V140.11H82.3v-1.33h9.64v1.33H87.87Z"/><path class="cls-5" d="M102,151.63l-1.6-4.09H95.2l-1.58,4.09H92.1l5.08-12.9h1.26l5,12.9Zm-2.07-5.43-1.49-4c-.2-.51-.39-1.12-.6-1.86a16.85,16.85,0,0,1-.55,1.86l-1.52,4Z"/><path class="cls-5" d="M110.91,144.9h4.37v6.25a14.82,14.82,0,0,1-2.07.49,16,16,0,0,1-2.45.17,5.91,5.91,0,0,1-4.54-1.74,6.82,6.82,0,0,1-1.63-4.86,7.28,7.28,0,0,1,.81-3.51,5.42,5.42,0,0,1,2.31-2.31,7.51,7.51,0,0,1,3.54-.79,9.78,9.78,0,0,1,3.84.75l-.58,1.32a8.62,8.62,0,0,0-3.35-.74,4.81,4.81,0,0,0-3.67,1.4,5.41,5.41,0,0,0-1.32,3.88,5.51,5.51,0,0,0,1.28,3.94,4.87,4.87,0,0,0,3.73,1.35,10.84,10.84,0,0,0,2.61-.31v-4h-2.88Z"/><path class="cls-5" d="M125.53,151.63h-7.16V138.78h7.16v1.33h-5.67v4.14h5.33v1.32h-5.33v4.73h5.67Z"/><path class="cls-5" d="M141.22,148.68h-1.91v2.95h-1.4v-2.95h-6.25V147.4l6.1-8.69h1.55v8.64h1.91Zm-3.31-1.33v-4.27c0-.84,0-1.78.09-2.84h-.07a14.62,14.62,0,0,1-.79,1.4l-4,5.71Z"/><g id="trial4" class="cls-1"><circle class="cls-6" cx="30.87" cy="29.91" r="29.91"/><rect class="cls-7" x="20.81" y="38.16" width="14.94" height="1.83" rx="0.91"/><rect class="cls-7" x="27.37" y="30.5" width="4.8" height="1.66" transform="translate(13.64 -8.76) rotate(21.62)"/><rect class="cls-8" x="27.45" y="30.09" width="2.57" height="1.66" transform="translate(13.41 -8.41) rotate(21.62)"/><rect class="cls-7" x="34.74" y="12.09" width="4.8" height="2.33" transform="translate(7.5 -12.75) rotate(21.62)"/><rect class="cls-8" x="34.82" y="11.68" width="2.57" height="2.33" transform="translate(7.27 -12.4) rotate(21.62)"/><path class="cls-9" d="M44.6,32.5a10.07,10.07,0,0,0-7.17-9.6l2.91-7.34L33,12.64,26.29,29.51l7.37,2.92L36.19,26A6.72,6.72,0,0,1,36,39.09l-.17-.32A1.41,1.41,0,0,0,34.57,38v1.24h0V42.6h0v3.8H37.5a1.52,1.52,0,0,0,1.24-2.28l-1.1-2A10.07,10.07,0,0,0,44.6,32.5Z"/><path class="cls-10" d="M34.57,38V46.4H31.65a1.52,1.52,0,0,1-1.25-2.28l1.46-2.68,1.47-2.67A1.39,1.39,0,0,1,34.57,38Z"/><rect class="cls-10" x="22.46" y="19.78" width="18.15" height="4.11" transform="translate(-0.38 43.1) rotate(-68.38)"/><rect class="cls-10" x="17.15" y="44.11" width="22.87" height="4.42" rx="2.21"/></g></g><g id="stage3" class="cls-1"><path class="cls-2" d="M104.65,90.61C100.9,124,77.43,129.75,56.33,128.05c-20.23-1.64-12.48-8.57-4.87-42S83.79,19.7,96.82,30.73Q110.1,42,104.65,90.61Z"/><path class="cls-2" d="M110.35,90.61c3.74,33.35,27.22,39.14,48.32,37.44,20.23-1.64,12.48-8.57,4.87-42S131.21,19.7,118.18,30.73Q104.91,42,110.35,90.61Z"/><path class="cls-3" d="M124,66.79l32.67,7.83c-8.23-2.31-28.51-9.55-32-12.25L138,43c-5.5,6.81-12.28,16.6-17.7,18-4.56-2.28-8.23-5.85-8.85-10.38V16l.34-11.44c0-2.24-.47-4.08-2.72-4.08h-3.74a2.72,2.72,0,0,0-2.72,2.72V50.29c-.63,4.53-4.29,8.1-8.85,10.38-5.42-1.43-12.2-11.22-17.7-18L89.34,62c-3.48,2.7-23.76,9.94-32,12.25L90,66.45c-8.67,7-14.38,17.06-18,20.08L68.92,91.3s4.85-5.5,10.62-11.12L81.85,95.7c.31-5.33.32-16.08,2.09-19.64A55.6,55.6,0,0,1,92,69.83c1.58-1.31,3.33-2.38,4.88-3.72l7-6a15.62,15.62,0,0,0,3.07-3.58,15.7,15.7,0,0,0,3.27,3.92l7,6c1.55,1.34,3.3,2.41,4.88,3.72a55.6,55.6,0,0,1,8.09,6.23C131.89,80,131.9,90.71,132.21,96l2.31-15.52c5.77,5.62,10.62,11.12,10.62,11.12l-3.06-4.77C138.42,83.85,132.71,73.84,124,66.79Z"/><path class="cls-4" d="M89.54,92.31q0-.3,0-.6a6.41,6.41,0,0,0-.17-1.46,3.87,3.87,0,0,0-3.71-5,4.44,4.44,0,0,0-1,.12,3.87,3.87,0,0,0-5.26,1,4,4,0,0,0-.49,0,3.89,3.89,0,0,0-3.65,5.21,3.85,3.85,0,0,0,3.62,6.14,3.87,3.87,0,0,0,6,.33,4,4,0,0,0,1.29.22,3.88,3.88,0,0,0,3.88-3.88A3.83,3.83,0,0,0,89.54,92.31Z"/><path class="cls-4" d="M99.8,58.52a1.94,1.94,0,0,0,0-.24,2.62,2.62,0,0,0-.07-.57,1.62,1.62,0,0,0,.07-.44,1.52,1.52,0,0,0-1.52-1.52,1.58,1.58,0,0,0-.38,0,1.52,1.52,0,0,0-2.06.37l-.2,0a1.52,1.52,0,0,0-1.51,1.52,1.5,1.5,0,0,0,.09.52,1.48,1.48,0,0,0-.3.9,1.52,1.52,0,0,0,1.52,1.52l.2,0a1.5,1.5,0,0,0,2.34.13,1.35,1.35,0,0,0,.5.09A1.52,1.52,0,0,0,100,59.29,1.44,1.44,0,0,0,99.8,58.52Z"/><path class="cls-4" d="M111.11,48.84a.92.92,0,0,0,0-.16,2.33,2.33,0,0,0,0-.38,1.35,1.35,0,0,0,0-.29,1,1,0,0,0-1.26-1,1,1,0,0,0-.55-.17,1,1,0,0,0-.82.42h-.13a1,1,0,0,0-1,1,1,1,0,0,0,.06.35,1,1,0,0,0-.2.6,1,1,0,0,0,1,1h.13a1,1,0,0,0,1.55.09,1,1,0,0,0,.34.06,1,1,0,0,0,1-1A1,1,0,0,0,111.11,48.84Z"/><path class="cls-4" d="M107,42.39a.91.91,0,0,0,0-.17,2,2,0,0,0,0-.42,1.13,1.13,0,0,0,0-.32,1.11,1.11,0,0,0-1.11-1.11,1.17,1.17,0,0,0-.27,0,1.1,1.1,0,0,0-1.51.27H104a1.11,1.11,0,0,0-1.11,1.11,1.22,1.22,0,0,0,.07.38,1.11,1.11,0,0,0,.89,1.76H104a1.1,1.1,0,0,0,1.7.09,1.16,1.16,0,0,0,.37.07,1.11,1.11,0,0,0,1-1.68Z"/><path class="cls-4" d="M75.8,76.39a1.93,1.93,0,0,0,0-.24,2.6,2.6,0,0,0-.06-.56,1.63,1.63,0,0,0,.06-.45,1.52,1.52,0,0,0-1.52-1.52,1.65,1.65,0,0,0-.38,0,1.48,1.48,0,0,0-.83-.25,1.52,1.52,0,0,0-1.22.62h-.2a1.52,1.52,0,0,0-1.52,1.52,1.55,1.55,0,0,0,.1.52,1.47,1.47,0,0,0-.3.89,1.52,1.52,0,0,0,1.52,1.52h.19A1.52,1.52,0,0,0,74,78.6a1.71,1.71,0,0,0,.51.09A1.52,1.52,0,0,0,76,77.17,1.57,1.57,0,0,0,75.8,76.39Z"/><path class="cls-4" d="M79.89,44.22c0-.08,0-.16,0-.24a2.62,2.62,0,0,0-.07-.57A1.62,1.62,0,0,0,79.9,43a1.52,1.52,0,0,0-1.52-1.52,1.58,1.58,0,0,0-.38,0,1.52,1.52,0,0,0-2.06.37l-.19,0a1.52,1.52,0,0,0-1.52,1.52,1.5,1.5,0,0,0,.09.52,1.53,1.53,0,0,0-.29.9,1.52,1.52,0,0,0,1.51,1.52l.2,0a1.5,1.5,0,0,0,2.34.13,1.39,1.39,0,0,0,.5.09,1.52,1.52,0,0,0,1.31-2.29Z"/><path class="cls-5" d="M81.64,147.77a3.16,3.16,0,0,1-1.23,2.65,5.39,5.39,0,0,1-3.34,1,8.4,8.4,0,0,1-3.52-.59v-1.44a8.86,8.86,0,0,0,1.72.52,9,9,0,0,0,1.85.2,3.73,3.73,0,0,0,2.25-.57,1.86,1.86,0,0,0,.75-1.58,2.09,2.09,0,0,0-.26-1.09A2.55,2.55,0,0,0,79,146a13.38,13.38,0,0,0-1.91-.82,5.93,5.93,0,0,1-2.56-1.52,3.31,3.31,0,0,1-.77-2.29A2.84,2.84,0,0,1,74.83,139a4.64,4.64,0,0,1,3-.88,8.68,8.68,0,0,1,3.52.7l-.47,1.3a8.05,8.05,0,0,0-3.09-.67,3,3,0,0,0-1.85.51,1.67,1.67,0,0,0-.67,1.42,2.2,2.2,0,0,0,.24,1.09,2.28,2.28,0,0,0,.84.78,9.92,9.92,0,0,0,1.78.79,7.13,7.13,0,0,1,2.79,1.55A3.06,3.06,0,0,1,81.64,147.77Z"/><path class="cls-5" d="M88.22,151.19h-1.5V139.67H82.66v-1.33h9.63v1.33H88.22Z"/><path class="cls-5" d="M102.3,151.19l-1.6-4.09H95.55L94,151.19H92.45l5.09-12.9h1.25l5.06,12.9Zm-2.07-5.43-1.49-4c-.19-.51-.39-1.12-.6-1.86a16.85,16.85,0,0,1-.55,1.86l-1.51,4Z"/><path class="cls-5" d="M111.26,144.46h4.37v6.25a14.82,14.82,0,0,1-2.07.49,16,16,0,0,1-2.45.17,5.91,5.91,0,0,1-4.54-1.74,6.86,6.86,0,0,1-1.63-4.86,7.28,7.28,0,0,1,.81-3.51,5.42,5.42,0,0,1,2.31-2.31,7.53,7.53,0,0,1,3.55-.79,9.76,9.76,0,0,1,3.83.75l-.58,1.32a8.62,8.62,0,0,0-3.35-.74,4.82,4.82,0,0,0-3.67,1.4,6.57,6.57,0,0,0,0,7.82,4.87,4.87,0,0,0,3.73,1.35,10.84,10.84,0,0,0,2.61-.31v-4h-2.88Z"/><path class="cls-5" d="M125.88,151.19h-7.16V138.34h7.16v1.33h-5.67v4.14h5.33v1.32h-5.33v4.73h5.67Z"/><path class="cls-5" d="M140.48,141.37a2.92,2.92,0,0,1-.69,2,3.42,3.42,0,0,1-2,1v.07a3.7,3.7,0,0,1,2.3,1,2.93,2.93,0,0,1,.74,2.07,3.36,3.36,0,0,1-1.27,2.83,5.8,5.8,0,0,1-3.62,1,9.88,9.88,0,0,1-1.87-.16,6.38,6.38,0,0,1-1.65-.54v-1.39a8.49,8.49,0,0,0,3.57.85q3.33,0,3.33-2.61,0-2.34-3.67-2.34h-1.27v-1.26h1.29a3.89,3.89,0,0,0,2.38-.66,2.19,2.19,0,0,0,.88-1.84,1.83,1.83,0,0,0-.65-1.48,2.63,2.63,0,0,0-1.75-.53,5.41,5.41,0,0,0-1.59.22,7.49,7.49,0,0,0-1.71.85l-.74-1a6.41,6.41,0,0,1,1.83-1,6.8,6.8,0,0,1,2.17-.35,4.45,4.45,0,0,1,2.91.85A2.92,2.92,0,0,1,140.48,141.37Z"/><g id="trial3" class="cls-1"><circle class="cls-6" cx="30.3" cy="31.19" r="29.91"/><rect class="cls-7" x="20.24" y="39.44" width="14.94" height="1.83" rx="0.91"/><rect class="cls-7" x="26.79" y="31.78" width="4.8" height="1.66" transform="translate(14.07 -8.46) rotate(21.62)"/><rect class="cls-8" x="26.87" y="31.37" width="2.57" height="1.66" transform="translate(13.85 -8.11) rotate(21.62)"/><rect class="cls-7" x="34.17" y="13.37" width="4.8" height="2.33" transform="translate(7.93 -12.45) rotate(21.62)"/><rect class="cls-8" x="34.25" y="12.96" width="2.57" height="2.33" transform="translate(7.71 -12.1) rotate(21.62)"/><path class="cls-9" d="M44,33.78a10.06,10.06,0,0,0-7.16-9.6l2.91-7.34L32.4,13.92,25.71,30.79l7.37,2.92,2.54-6.4a6.72,6.72,0,0,1-.2,13.06l-.18-.32A1.39,1.39,0,0,0,34,39.29v1.24h0v3.35h0v3.8h2.93a1.52,1.52,0,0,0,1.24-2.28l-1.1-2A10.05,10.05,0,0,0,44,33.78Z"/><path class="cls-10" d="M34,39.29v8.39H31.07a1.52,1.52,0,0,1-1.24-2.28l1.46-2.68,1.46-2.67A1.42,1.42,0,0,1,34,39.29Z"/><rect class="cls-10" x="21.89" y="21.06" width="18.15" height="4.11" transform="translate(-1.93 43.38) rotate(-68.38)"/><rect class="cls-10" x="16.58" y="45.39" width="22.87" height="4.42" rx="2.21"/></g></g><g id="stage2" class="cls-1"><path class="cls-2" d="M105,90.61c-3.75,33.35-27.23,39.14-48.32,37.44-20.23-1.64-12.48-8.57-4.87-42S84.18,19.7,97.21,30.73Q110.49,42,105,90.61Z"/><path class="cls-2" d="M110.74,90.61c3.74,33.35,27.22,39.14,48.32,37.44,20.23-1.64,12.48-8.57,4.87-42S131.6,19.7,118.57,30.73Q105.3,42,110.74,90.61Z"/><path class="cls-3" d="M124.43,66.79l32.67,7.83c-8.23-2.31-28.51-9.55-32-12.25L138.38,43c-5.49,6.81-12.27,16.6-17.69,18-4.56-2.28-8.23-5.85-8.85-10.38V16l.34-11.44c0-2.24-.47-4.08-2.72-4.08h-3.74A2.72,2.72,0,0,0,103,3.16V50.29c-.63,4.53-4.29,8.1-8.85,10.38-5.42-1.43-12.2-11.22-17.7-18L89.72,62C86.25,64.73,66,72,57.74,74.28L90.4,66.45c-8.66,7-14.37,17.06-18,20.08L69.31,91.3s4.85-5.5,10.62-11.12L82.24,95.7c.31-5.33.32-16.08,2.09-19.64a55.07,55.07,0,0,1,8.09-6.23c1.57-1.31,3.33-2.38,4.88-3.72l7-6a15.87,15.87,0,0,0,3.07-3.58,15.7,15.7,0,0,0,3.27,3.92l6.94,6c1.55,1.34,3.31,2.41,4.89,3.72a55.57,55.57,0,0,1,8.08,6.23c1.78,3.56,1.79,14.31,2.1,19.64l2.31-15.52c5.77,5.62,10.62,11.12,10.62,11.12l-3.06-4.77C138.81,83.85,133.1,73.84,124.43,66.79Z"/><path class="cls-4" d="M88.6,94.39a4,4,0,0,0,0-.49,5.08,5.08,0,0,0-.14-1.18,3.1,3.1,0,0,0,.14-.92,3.15,3.15,0,0,0-3.15-3.15,3.33,3.33,0,0,0-.78.1,3.14,3.14,0,0,0-4.27.77,2.73,2.73,0,0,0-.41,0,3.15,3.15,0,0,0-3.14,3.15,3.23,3.23,0,0,0,.19,1.08,3.14,3.14,0,0,0,2.54,5l.4,0a3.14,3.14,0,0,0,4.85.26,3,3,0,0,0,1,.18,3.13,3.13,0,0,0,2.7-4.75Z"/><path class="cls-4" d="M76.19,76.39a1.93,1.93,0,0,0,0-.24,2.1,2.1,0,0,0-.07-.56,1.33,1.33,0,0,0,.07-.45,1.52,1.52,0,0,0-1.52-1.52,1.58,1.58,0,0,0-.38,0,1.48,1.48,0,0,0-.83-.25,1.54,1.54,0,0,0-1.23.62h-.19a1.52,1.52,0,0,0-1.52,1.52,1.83,1.83,0,0,0,.09.52,1.52,1.52,0,0,0,1.23,2.41H72a1.52,1.52,0,0,0,2.34.13,1.7,1.7,0,0,0,.5.09,1.52,1.52,0,0,0,1.52-1.52A1.57,1.57,0,0,0,76.19,76.39Z"/><path class="cls-4" d="M80.27,44.22a1.94,1.94,0,0,0,0-.24,2.62,2.62,0,0,0-.07-.57,1.62,1.62,0,0,0,.07-.44,1.52,1.52,0,0,0-1.52-1.52,1.58,1.58,0,0,0-.38,0,1.52,1.52,0,0,0-2.06.37l-.19,0a1.52,1.52,0,0,0-1.52,1.52,1.5,1.5,0,0,0,.09.52,1.54,1.54,0,0,0-.3.9,1.52,1.52,0,0,0,1.52,1.52l.2,0a1.5,1.5,0,0,0,2.34.13,1.35,1.35,0,0,0,.5.09A1.52,1.52,0,0,0,80.49,45,1.44,1.44,0,0,0,80.27,44.22Z"/><path class="cls-5" d="M82.25,147.77A3.16,3.16,0,0,1,81,150.42a5.37,5.37,0,0,1-3.34,1,8.4,8.4,0,0,1-3.52-.59v-1.44a8.86,8.86,0,0,0,1.72.52,9,9,0,0,0,1.85.2,3.69,3.69,0,0,0,2.25-.57,1.86,1.86,0,0,0,.75-1.58,2,2,0,0,0-.26-1.09,2.55,2.55,0,0,0-.9-.79,13.38,13.38,0,0,0-1.91-.82,5.93,5.93,0,0,1-2.56-1.52,3.31,3.31,0,0,1-.77-2.29A2.84,2.84,0,0,1,75.44,139a4.64,4.64,0,0,1,3-.88,8.68,8.68,0,0,1,3.52.7l-.46,1.3a8.1,8.1,0,0,0-3.1-.67,3,3,0,0,0-1.85.51,1.67,1.67,0,0,0-.67,1.42,2.09,2.09,0,0,0,.25,1.09,2.17,2.17,0,0,0,.83.78,10.26,10.26,0,0,0,1.78.79,7.13,7.13,0,0,1,2.79,1.55A3.06,3.06,0,0,1,82.25,147.77Z"/><path class="cls-5" d="M88.83,151.19H87.34V139.67H83.27v-1.33H92.9v1.33H88.83Z"/><path class="cls-5" d="M102.91,151.19l-1.6-4.09H96.16l-1.58,4.09H93.07l5.08-12.9H99.4l5.06,12.9Zm-2.07-5.43-1.49-4c-.19-.51-.39-1.12-.6-1.86a16.85,16.85,0,0,1-.55,1.86l-1.51,4Z"/><path class="cls-5" d="M111.87,144.46h4.37v6.25a14.82,14.82,0,0,1-2.07.49,15.91,15.91,0,0,1-2.44.17,5.93,5.93,0,0,1-4.55-1.74,6.86,6.86,0,0,1-1.62-4.86,7.27,7.27,0,0,1,.8-3.51,5.44,5.44,0,0,1,2.32-2.31,7.46,7.46,0,0,1,3.54-.79,9.73,9.73,0,0,1,3.83.75l-.58,1.32a8.62,8.62,0,0,0-3.35-.74,4.78,4.78,0,0,0-3.66,1.4,5.41,5.41,0,0,0-1.32,3.88,5.51,5.51,0,0,0,1.27,3.94,4.87,4.87,0,0,0,3.73,1.35,10.84,10.84,0,0,0,2.61-.31v-4h-2.88Z"/><path class="cls-5" d="M126.49,151.19h-7.16V138.34h7.16v1.33h-5.67v4.14h5.33v1.32h-5.33v4.73h5.67Z"/><path class="cls-5" d="M141.57,151.19h-8.44v-1.26l3.38-3.4a24.47,24.47,0,0,0,2-2.23,5.79,5.79,0,0,0,.74-1.3,3.81,3.81,0,0,0,.24-1.36,2.13,2.13,0,0,0-.62-1.63,2.4,2.4,0,0,0-1.73-.6,4.3,4.3,0,0,0-1.52.26,5.59,5.59,0,0,0-1.59,1l-.78-1a6,6,0,0,1,3.87-1.47,4.13,4.13,0,0,1,2.84.92,3.19,3.19,0,0,1,1,2.5,4.76,4.76,0,0,1-.69,2.41,15.11,15.11,0,0,1-2.56,3L135,149.77v.07h6.61Z"/><g id="trial2" class="cls-1"><circle class="cls-6" cx="29.91" cy="31.47" r="29.91"/><rect class="cls-7" x="19.85" y="39.72" width="14.94" height="1.83" rx="0.91"/><rect class="cls-7" x="26.4" y="32.06" width="4.8" height="1.66" transform="translate(14.15 -8.3) rotate(21.62)"/><rect class="cls-8" x="26.48" y="31.65" width="2.57" height="1.66" transform="translate(13.92 -7.95) rotate(21.62)"/><rect class="cls-7" x="33.78" y="13.65" width="4.8" height="2.33" transform="translate(8.01 -12.29) rotate(21.62)"/><rect class="cls-8" x="33.86" y="13.24" width="2.57" height="2.33" transform="translate(7.78 -11.93) rotate(21.62)"/><path class="cls-9" d="M43.64,34.06a10.08,10.08,0,0,0-7.17-9.6l2.91-7.34L32,14.2,25.32,31.07,32.69,34l2.54-6.4A6.72,6.72,0,0,1,35,40.65l-.18-.32a1.39,1.39,0,0,0-1.24-.76v1.24h0l0,3.35h0V48h2.93a1.52,1.52,0,0,0,1.24-2.28l-1.1-2A10.07,10.07,0,0,0,43.64,34.06Z"/><path class="cls-10" d="M33.61,39.57V48H30.68a1.52,1.52,0,0,1-1.24-2.28L30.9,43l1.47-2.67A1.39,1.39,0,0,1,33.61,39.57Z"/><rect class="cls-10" x="21.5" y="21.34" width="18.15" height="4.11" transform="translate(-2.43 43.19) rotate(-68.38)"/><rect class="cls-10" x="16.19" y="45.67" width="22.87" height="4.42" rx="2.21"/></g></g><g id="stage1" class="cls-1"><path class="cls-2" d="M103.88,91.05c-3.74,33.35-27.22,39.14-48.32,37.44-20.23-1.64-12.48-8.57-4.87-42S83,20.14,96.05,31.17Q109.33,42.39,103.88,91.05Z"/><path class="cls-2" d="M109.58,91.05c3.75,33.35,27.23,39.14,48.32,37.44,20.23-1.64,12.48-8.57,4.87-42s-32.33-66.34-45.36-55.31Q104.14,42.39,109.58,91.05Z"/><path class="cls-3" d="M123.28,67.23l32.66,7.83c-8.23-2.31-28.51-9.55-32-12.25l13.27-19.39c-5.5,6.81-12.28,16.6-17.7,18-4.55-2.28-8.22-5.85-8.84-10.38V16.4L111,5c0-2.24-.48-4.08-2.73-4.08h-3.74a2.72,2.72,0,0,0-2.72,2.72V50.73c-.62,4.53-4.29,8.1-8.85,10.38-5.42-1.43-12.2-11.22-17.69-18l13.27,19.4c-3.48,2.7-23.76,9.94-32,12.25l32.67-7.83c-8.67,7-14.38,17.06-18,20.08l-3.06,4.77S73,86.24,78.77,80.62l2.31,15.52c.31-5.33.32-16.08,2.1-19.64a55.57,55.57,0,0,1,8.08-6.23c1.58-1.31,3.34-2.38,4.89-3.72l6.94-6A15.62,15.62,0,0,0,106.16,57a15.7,15.7,0,0,0,3.27,3.92l6.95,6c1.55,1.34,3.31,2.41,4.88,3.72a55.07,55.07,0,0,1,8.09,6.23c1.77,3.56,1.78,14.31,2.09,19.64L133.75,81c5.77,5.62,10.62,11.12,10.62,11.12l-3.06-4.77C137.65,84.29,131.94,74.28,123.28,67.23Z"/><path class="cls-4" d="M84.5,94.7c0-.12,0-.24,0-.36a4,4,0,0,0-.1-.86,2.13,2.13,0,0,0,.1-.67,2.3,2.3,0,0,0-2.3-2.3,2.18,2.18,0,0,0-.57.08,2.21,2.21,0,0,0-1.26-.39,2.28,2.28,0,0,0-1.85.94l-.3,0a2.3,2.3,0,0,0-2.15,3.09,2.26,2.26,0,0,0-.45,1.35,2.3,2.3,0,0,0,2.3,2.3l.29,0a2.29,2.29,0,0,0,3.54.2,2.38,2.38,0,0,0,.76.13,2.3,2.3,0,0,0,2.3-2.3A2.22,2.22,0,0,0,84.5,94.7Z"/><path class="cls-5" d="M81.09,148.21a3.16,3.16,0,0,1-1.23,2.65,5.35,5.35,0,0,1-3.34.95,8.44,8.44,0,0,1-3.52-.59v-1.44a10,10,0,0,0,3.57.72,3.69,3.69,0,0,0,2.25-.57,1.85,1.85,0,0,0,.76-1.58,2,2,0,0,0-.27-1.09,2.55,2.55,0,0,0-.9-.79,12.88,12.88,0,0,0-1.91-.82,6,6,0,0,1-2.56-1.52,3.36,3.36,0,0,1-.77-2.29,2.83,2.83,0,0,1,1.12-2.36,4.61,4.61,0,0,1,2.95-.88,8.64,8.64,0,0,1,3.52.7l-.46,1.3a8.05,8.05,0,0,0-3.09-.67,3,3,0,0,0-1.86.51,1.7,1.7,0,0,0-.67,1.42,2.09,2.09,0,0,0,.25,1.09,2.17,2.17,0,0,0,.83.78,10.43,10.43,0,0,0,1.79.79,7.08,7.08,0,0,1,2.78,1.55A3,3,0,0,1,81.09,148.21Z"/><path class="cls-5" d="M87.67,151.63H86.18V140.11H82.11v-1.33h9.63v1.33H87.67Z"/><path class="cls-5" d="M101.75,151.63l-1.6-4.09H95l-1.58,4.09H91.91L97,138.73h1.26l5,12.9Zm-2.06-5.43-1.5-4c-.19-.51-.39-1.12-.59-1.86a17.05,17.05,0,0,1-.56,1.86l-1.51,4Z"/><path class="cls-5" d="M110.72,144.9h4.37v6.25a15,15,0,0,1-2.08.49,15.91,15.91,0,0,1-2.44.17,5.93,5.93,0,0,1-4.55-1.74,6.86,6.86,0,0,1-1.62-4.86,7.39,7.39,0,0,1,.8-3.51,5.44,5.44,0,0,1,2.32-2.31,7.51,7.51,0,0,1,3.54-.79,9.73,9.73,0,0,1,3.83.75l-.58,1.32a8.58,8.58,0,0,0-3.35-.74,4.8,4.8,0,0,0-3.66,1.4,5.41,5.41,0,0,0-1.32,3.88,5.51,5.51,0,0,0,1.27,3.94A4.88,4.88,0,0,0,111,150.5a10.84,10.84,0,0,0,2.61-.31v-4h-2.87Z"/><path class="cls-5" d="M125.33,151.63h-7.16V138.78h7.16v1.33h-5.67v4.14H125v1.32h-5.33v4.73h5.67Z"/><path class="cls-5" d="M137.37,151.63H136v-9.16c0-.76,0-1.48.07-2.16l-.41.39-2.09,1.71-.78-1,3.4-2.63h1.23Z"/><g id="trial1" class="cls-1"><circle class="cls-6" cx="31.07" cy="29.91" r="29.91"/><rect class="cls-7" x="21.01" y="38.16" width="14.94" height="1.83" rx="0.91"/><rect class="cls-7" x="27.56" y="30.5" width="4.8" height="1.66" transform="translate(13.65 -8.84) rotate(21.62)"/><rect class="cls-8" x="27.64" y="30.09" width="2.57" height="1.66" transform="translate(13.43 -8.48) rotate(21.62)"/><rect class="cls-7" x="34.94" y="12.09" width="4.8" height="2.33" transform="translate(7.51 -12.82) rotate(21.62)"/><rect class="cls-8" x="35.01" y="11.68" width="2.57" height="2.33" transform="translate(7.29 -12.47) rotate(21.62)"/><path class="cls-9" d="M44.79,32.5a10.06,10.06,0,0,0-7.16-9.6l2.91-7.34-7.37-2.92L26.48,29.51l7.37,2.92L36.39,26a6.72,6.72,0,0,1-.2,13.06L36,38.77A1.39,1.39,0,0,0,34.77,38v1.24h0V42.6h0v3.8h2.92a1.52,1.52,0,0,0,1.25-2.28l-1.1-2A10.05,10.05,0,0,0,44.79,32.5Z"/><path class="cls-10" d="M34.77,38V46.4H31.84a1.52,1.52,0,0,1-1.24-2.28l1.46-2.68,1.46-2.67A1.41,1.41,0,0,1,34.77,38Z"/><rect class="cls-10" x="22.66" y="19.78" width="18.15" height="4.11" transform="translate(-0.25 43.28) rotate(-68.38)"/><rect class="cls-10" x="17.35" y="44.11" width="22.87" height="4.42" rx="2.21"/></g></g></g></g></g></svg>