<svg xmlns="http://www.w3.org/2000/svg" viewBox="0 0 864.04 152.53"><defs><style>.cls-1{fill:#f9a6ba;}.cls-2{fill:#fa6f5f;}.cls-3{fill:#ffdc7b;}.cls-4{fill:#606060;}.cls-5{opacity:0;}.cls-6{fill:#727272;}.cls-7{fill:#444;}.cls-8{fill:#636363;}.cls-9{fill:#6ad65b;}.cls-10{fill:#95e588;}</style></defs><title>stages_1</title><g id="Layer_2" data-name="Layer 2"><g id="Layer_1-2" data-name="Layer 1"><g id="stage1"><path class="cls-1" d="M102.72,91.05C99,124.4,75.5,130.19,54.4,128.49c-20.23-1.64-12.47-8.57-4.87-42S81.87,20.14,94.9,31.17Q108.16,42.39,102.72,91.05Z"/><path class="cls-1" d="M108.43,91.05c3.74,33.35,27.22,39.14,48.32,37.44,20.23-1.64,12.47-8.57,4.87-42s-32.34-66.34-45.37-55.31Q103,42.39,108.43,91.05Z"/><path class="cls-2" d="M122.12,67.23l32.67,7.83c-8.23-2.31-28.52-9.55-32-12.25l13.27-19.39c-5.5,6.81-12.28,16.6-17.69,18-4.56-2.28-8.23-5.85-8.85-10.38V16.4L109.87,5c0-2.24-.48-4.08-2.72-4.08H103.4a2.72,2.72,0,0,0-2.72,2.72V50.73c-.62,4.53-4.29,8.1-8.85,10.38-5.41-1.43-12.19-11.22-17.69-18l13.27,19.4c-3.48,2.7-23.76,9.94-32,12.25l32.67-7.83c-8.67,7-14.38,17.06-18,20.08L67,91.74s4.86-5.5,10.62-11.12l2.32,15.52c.3-5.33.31-16.08,2.09-19.64a55.07,55.07,0,0,1,8.09-6.23C91.68,69,93.44,67.89,95,66.55l7-6A15.83,15.83,0,0,0,105,57a15.92,15.92,0,0,0,3.27,3.92l7,6c1.55,1.34,3.31,2.41,4.88,3.72a55.07,55.07,0,0,1,8.09,6.23C130,80.4,130,91.15,130.28,96.48L132.6,81c5.76,5.62,10.62,11.12,10.62,11.12l-3.07-4.77C136.5,84.29,130.79,74.28,122.12,67.23Z"/><path class="cls-3" d="M83.35,94.7c0-.12,0-.24,0-.36a3.49,3.49,0,0,0-.1-.86,2.13,2.13,0,0,0,.1-.67,2.29,2.29,0,0,0-2.29-2.3,2.25,2.25,0,0,0-.58.08,2.19,2.19,0,0,0-1.26-.39,2.29,2.29,0,0,0-1.85.94l-.29,0a2.3,2.3,0,0,0-2.16,3.09,2.26,2.26,0,0,0-.45,1.35,2.3,2.3,0,0,0,2.3,2.3l.29,0a2.29,2.29,0,0,0,3.54.2,2.43,2.43,0,0,0,.76.13,2.3,2.3,0,0,0,2-3.47Z"/><path class="cls-4" d="M79.93,148.21a3.16,3.16,0,0,1-1.23,2.65,5.35,5.35,0,0,1-3.34.95,8.39,8.39,0,0,1-3.51-.59v-1.44a8.65,8.65,0,0,0,1.72.52,9,9,0,0,0,1.85.2,3.73,3.73,0,0,0,2.25-.57,1.86,1.86,0,0,0,.75-1.58,2,2,0,0,0-.27-1.09,2.51,2.51,0,0,0-.89-.79,13.1,13.1,0,0,0-1.92-.82,6.05,6.05,0,0,1-2.56-1.52,3.36,3.36,0,0,1-.77-2.29,2.85,2.85,0,0,1,1.12-2.36,4.61,4.61,0,0,1,3-.88,8.69,8.69,0,0,1,3.53.7l-.47,1.3a8.05,8.05,0,0,0-3.09-.67,3,3,0,0,0-1.86.51,1.69,1.69,0,0,0-.66,1.42,2.2,2.2,0,0,0,.24,1.09,2.25,2.25,0,0,0,.83.78,10.43,10.43,0,0,0,1.79.79,7,7,0,0,1,2.78,1.55A3,3,0,0,1,79.93,148.21Z"/><path class="cls-4" d="M86.52,151.63H85V140.11H81v-1.33h9.63v1.33H86.52Z"/><path class="cls-4" d="M100.6,151.63,99,147.54H93.85l-1.59,4.09H90.75l5.08-12.9h1.26l5,12.9Zm-2.07-5.43-1.49-4a17.92,17.92,0,0,1-.6-1.86,15.09,15.09,0,0,1-.56,1.86l-1.51,4Z"/><path class="cls-4" d="M109.56,144.9h4.37v6.25a14.63,14.63,0,0,1-2.08.49,15.81,15.81,0,0,1-2.44.17,5.91,5.91,0,0,1-4.54-1.74,6.82,6.82,0,0,1-1.63-4.86,7.28,7.28,0,0,1,.81-3.51,5.37,5.37,0,0,1,2.31-2.31,7.51,7.51,0,0,1,3.54-.79,9.81,9.81,0,0,1,3.84.75l-.58,1.32a8.62,8.62,0,0,0-3.35-.74,4.81,4.81,0,0,0-3.67,1.4,5.41,5.41,0,0,0-1.32,3.88,5.55,5.55,0,0,0,1.27,3.94,4.88,4.88,0,0,0,3.73,1.35,10.84,10.84,0,0,0,2.61-.31v-4h-2.87Z"/><path class="cls-4" d="M124.18,151.63H117V138.78h7.17v1.33h-5.67v4.14h5.32v1.32h-5.32v4.73h5.67Z"/><path class="cls-4" d="M136.22,151.63h-1.43v-9.16c0-.76,0-1.48.07-2.16l-.41.39-2.09,1.71-.77-1,3.4-2.63h1.23Z"/><g id="trial1" class="cls-5"><circle class="cls-6" cx="29.91" cy="29.91" r="29.91"/><rect class="cls-7" x="19.85" y="38.16" width="14.94" height="1.83" rx="0.91"/><rect class="cls-7" x="26.4" y="30.5" width="4.8" height="1.66" transform="translate(13.57 -8.41) rotate(21.62)"/><rect class="cls-8" x="26.48" y="30.09" width="2.57" height="1.66" transform="translate(13.35 -8.06) rotate(21.62)"/><rect class="cls-7" x="33.78" y="12.09" width="4.8" height="2.33" transform="translate(7.43 -12.4) rotate(21.62)"/><rect class="cls-8" x="33.86" y="11.68" width="2.57" height="2.33" transform="translate(7.21 -12.04) rotate(21.62)"/><path class="cls-9" d="M43.64,32.5a10.08,10.08,0,0,0-7.17-9.6l2.91-7.34L32,12.64,25.32,29.51l7.37,2.92L35.23,26A6.72,6.72,0,0,1,35,39.09l-.18-.32A1.39,1.39,0,0,0,33.61,38v1.24h0l0,3.35h0v3.8h2.93a1.52,1.52,0,0,0,1.24-2.28l-1.1-2A10.07,10.07,0,0,0,43.64,32.5Z"/><path class="cls-10" d="M33.61,38V46.4H30.68a1.52,1.52,0,0,1-1.24-2.28l1.46-2.68,1.47-2.67A1.39,1.39,0,0,1,33.61,38Z"/><rect class="cls-10" x="21.5" y="19.78" width="18.15" height="4.11" transform="translate(-0.98 42.21) rotate(-68.38)"/><rect class="cls-10" x="16.19" y="44.11" width="22.87" height="4.42" rx="2.21"/></g></g><g id="stage2"><path class="cls-1" d="M336,91.05c-3.75,33.35-27.23,39.14-48.32,37.44-20.23-1.64-12.48-8.57-4.87-42s32.33-66.34,45.36-55.31Q341.49,42.39,336,91.05Z"/><path class="cls-1" d="M341.74,91.05c3.74,33.35,27.22,39.14,48.32,37.44,20.23-1.64,12.48-8.57,4.87-42S362.6,20.14,349.57,31.17Q336.3,42.39,341.74,91.05Z"/><path class="cls-2" d="M355.43,67.23l32.67,7.83c-8.23-2.31-28.51-9.55-32-12.25l13.27-19.39c-5.49,6.81-12.27,16.6-17.69,18-4.56-2.28-8.23-5.85-8.85-10.38V16.4L343.18,5c0-2.24-.47-4.08-2.72-4.08h-3.74A2.72,2.72,0,0,0,334,3.6V50.73c-.63,4.53-4.29,8.1-8.85,10.38-5.42-1.43-12.2-11.22-17.7-18l13.27,19.4c-3.47,2.7-23.75,9.94-32,12.25l32.66-7.83c-8.66,7-14.37,17.06-18,20.08l-3.06,4.77s4.85-5.5,10.62-11.12l2.31,15.52c.31-5.33.32-16.08,2.09-19.64a55.07,55.07,0,0,1,8.09-6.23c1.57-1.31,3.33-2.38,4.88-3.72l6.95-6A15.87,15.87,0,0,0,338.32,57a15.7,15.7,0,0,0,3.27,3.92l6.94,6c1.55,1.34,3.31,2.41,4.89,3.72a55.57,55.57,0,0,1,8.08,6.23c1.78,3.56,1.79,14.31,2.1,19.64L365.91,81c5.77,5.62,10.62,11.12,10.62,11.12l-3.06-4.77C369.81,84.29,364.1,74.28,355.43,67.23Z"/><path class="cls-3" d="M319.6,94.83a4,4,0,0,0,0-.49,5.08,5.08,0,0,0-.14-1.18,3.1,3.1,0,0,0,.14-.92,3.15,3.15,0,0,0-3.15-3.15,3.33,3.33,0,0,0-.78.1,3.14,3.14,0,0,0-4.27.77,2.73,2.73,0,0,0-.41,0,3.15,3.15,0,0,0-3.14,3.15,3.23,3.23,0,0,0,.19,1.08,3.14,3.14,0,0,0,2.54,5l.4,0a3.14,3.14,0,0,0,4.85.26,3,3,0,0,0,1,.18,3.13,3.13,0,0,0,2.7-4.75Z"/><path class="cls-3" d="M307.19,76.83a1.93,1.93,0,0,0,0-.24,2.1,2.1,0,0,0-.07-.56,1.33,1.33,0,0,0,.07-.45,1.52,1.52,0,0,0-1.52-1.52,1.58,1.58,0,0,0-.38,0,1.48,1.48,0,0,0-.83-.25,1.54,1.54,0,0,0-1.23.62h-.19A1.52,1.52,0,0,0,301.53,76a1.83,1.83,0,0,0,.09.52,1.52,1.52,0,0,0,1.23,2.41H303a1.52,1.52,0,0,0,2.34.13,1.7,1.7,0,0,0,.5.09,1.52,1.52,0,0,0,1.52-1.52A1.57,1.57,0,0,0,307.19,76.83Z"/><path class="cls-3" d="M311.27,44.66a1.94,1.94,0,0,0,0-.24,2.62,2.62,0,0,0-.07-.57,1.62,1.62,0,0,0,.07-.44,1.52,1.52,0,0,0-1.52-1.52,1.58,1.58,0,0,0-.38,0,1.52,1.52,0,0,0-2.06.37l-.19,0a1.52,1.52,0,0,0-1.52,1.52,1.5,1.5,0,0,0,.09.52,1.54,1.54,0,0,0-.3.9,1.52,1.52,0,0,0,1.52,1.52l.2,0a1.5,1.5,0,0,0,2.34.13,1.35,1.35,0,0,0,.5.09,1.52,1.52,0,0,0,1.52-1.52A1.44,1.44,0,0,0,311.27,44.66Z"/><path class="cls-4" d="M313.25,148.21a3.16,3.16,0,0,1-1.23,2.65,5.37,5.37,0,0,1-3.34.95,8.4,8.4,0,0,1-3.52-.59v-1.44a8.86,8.86,0,0,0,1.72.52,9,9,0,0,0,1.85.2,3.69,3.69,0,0,0,2.25-.57,1.86,1.86,0,0,0,.75-1.58,2,2,0,0,0-.26-1.09,2.55,2.55,0,0,0-.9-.79,13.38,13.38,0,0,0-1.91-.82,5.93,5.93,0,0,1-2.56-1.52,3.31,3.31,0,0,1-.77-2.29,2.84,2.84,0,0,1,1.11-2.36,4.64,4.64,0,0,1,3-.88,8.68,8.68,0,0,1,3.52.7l-.46,1.3a8.1,8.1,0,0,0-3.1-.67,3,3,0,0,0-1.85.51,1.67,1.67,0,0,0-.67,1.42,2.09,2.09,0,0,0,.25,1.09,2.17,2.17,0,0,0,.83.78,10.26,10.26,0,0,0,1.78.79,7.13,7.13,0,0,1,2.79,1.55A3.06,3.06,0,0,1,313.25,148.21Z"/><path class="cls-4" d="M319.83,151.63h-1.49V140.11h-4.07v-1.33h9.63v1.33h-4.07Z"/><path class="cls-4" d="M333.91,151.63l-1.6-4.09h-5.15l-1.58,4.09h-1.51l5.08-12.9h1.25l5.06,12.9Zm-2.07-5.43-1.49-4c-.19-.51-.39-1.12-.6-1.86a16.85,16.85,0,0,1-.55,1.86l-1.51,4Z"/><path class="cls-4" d="M342.87,144.9h4.37v6.25a14.82,14.82,0,0,1-2.07.49,15.91,15.91,0,0,1-2.44.17,5.93,5.93,0,0,1-4.55-1.74,6.86,6.86,0,0,1-1.62-4.86,7.27,7.27,0,0,1,.8-3.51,5.44,5.44,0,0,1,2.32-2.31,7.46,7.46,0,0,1,3.54-.79,9.73,9.73,0,0,1,3.83.75l-.58,1.32a8.62,8.62,0,0,0-3.35-.74,4.78,4.78,0,0,0-3.66,1.4,5.41,5.41,0,0,0-1.32,3.88,5.51,5.51,0,0,0,1.27,3.94,4.87,4.87,0,0,0,3.73,1.35,10.84,10.84,0,0,0,2.61-.31v-4h-2.88Z"/><path class="cls-4" d="M357.49,151.63h-7.16V138.78h7.16v1.33h-5.67v4.14h5.33v1.32h-5.33v4.73h5.67Z"/><path class="cls-4" d="M372.57,151.63h-8.44v-1.26l3.38-3.4a24.47,24.47,0,0,0,2-2.23,5.79,5.79,0,0,0,.74-1.3,3.81,3.81,0,0,0,.24-1.36,2.13,2.13,0,0,0-.62-1.63,2.4,2.4,0,0,0-1.73-.6,4.3,4.3,0,0,0-1.52.26,5.59,5.59,0,0,0-1.59,1l-.78-1a6,6,0,0,1,3.87-1.47,4.13,4.13,0,0,1,2.84.92,3.19,3.19,0,0,1,1,2.5,4.76,4.76,0,0,1-.69,2.41,15.11,15.11,0,0,1-2.56,3L366,150.21v.07h6.61Z"/><g id="trial2" class="cls-5"><circle class="cls-6" cx="260.91" cy="31.91" r="29.91"/><rect class="cls-7" x="250.85" y="40.16" width="14.94" height="1.83" rx="0.91"/><rect class="cls-7" x="257.4" y="32.5" width="4.8" height="1.66" transform="translate(30.56 -93.38) rotate(21.62)"/><rect class="cls-8" x="257.48" y="32.09" width="2.57" height="1.66" transform="translate(30.34 -93.03) rotate(21.62)"/><rect class="cls-7" x="264.78" y="14.09" width="4.8" height="2.33" transform="translate(24.42 -97.37) rotate(21.62)"/><rect class="cls-8" x="264.86" y="13.68" width="2.57" height="2.33" transform="translate(24.19 -97.02) rotate(21.62)"/><path class="cls-9" d="M274.64,34.5a10.08,10.08,0,0,0-7.17-9.6l2.91-7.34L263,14.64l-6.69,16.87,7.37,2.92,2.54-6.4a6.72,6.72,0,0,1-.2,13.06l-.18-.32a1.39,1.39,0,0,0-1.24-.76v1.24h0l0,3.35h0v3.8h2.93a1.52,1.52,0,0,0,1.24-2.28l-1.1-2A10.07,10.07,0,0,0,274.64,34.5Z"/><path class="cls-10" d="M264.61,40V48.4h-2.93a1.52,1.52,0,0,1-1.24-2.28l1.46-2.68,1.47-2.67A1.39,1.39,0,0,1,264.61,40Z"/><rect class="cls-10" x="252.5" y="21.78" width="18.15" height="4.11" transform="translate(143.04 258.22) rotate(-68.38)"/><rect class="cls-10" x="247.19" y="46.11" width="22.87" height="4.42" rx="2.21"/></g></g><g id="stage3"><path class="cls-1" d="M569.26,91.33c-3.74,33.35-27.22,39.14-48.32,37.44-20.23-1.64-12.48-8.57-4.87-42s32.33-66.34,45.36-55.31Q574.7,42.67,569.26,91.33Z"/><path class="cls-1" d="M575,91.33c3.75,33.35,27.22,39.14,48.32,37.44,20.23-1.64,12.48-8.57,4.87-42s-32.33-66.34-45.36-55.31Q569.52,42.67,575,91.33Z"/><path class="cls-2" d="M588.65,67.51l32.67,7.83c-8.23-2.31-28.51-9.55-32-12.25L602.61,43.7c-5.5,6.81-12.28,16.6-17.7,18-4.56-2.28-8.22-5.85-8.85-10.38V16.68l.34-11.44c0-2.24-.47-4.08-2.72-4.08h-3.74a2.72,2.72,0,0,0-2.72,2.72V51c-.62,4.53-4.29,8.1-8.85,10.38-5.42-1.43-12.2-11.22-17.69-18L554,62.75c-3.48,2.7-23.76,9.94-32,12.25l32.67-7.83c-8.67,7-14.38,17.06-18,20.08L533.53,92s4.85-5.5,10.62-11.12l2.31,15.52c.31-5.33.32-16.08,2.09-19.64a55.6,55.6,0,0,1,8.09-6.23c1.58-1.31,3.33-2.38,4.88-3.72l7-6a15.62,15.62,0,0,0,3.07-3.58,15.7,15.7,0,0,0,3.27,3.92l7,6c1.55,1.34,3.3,2.41,4.88,3.72a55.6,55.6,0,0,1,8.09,6.23c1.77,3.56,1.78,14.31,2.09,19.64l2.31-15.52c5.77,5.62,10.62,11.12,10.62,11.12l-3.06-4.77C603,84.57,597.32,74.56,588.65,67.51Z"/><path class="cls-3" d="M554.15,93q0-.3,0-.6A6.41,6.41,0,0,0,554,91a3.87,3.87,0,0,0-3.71-5,4.35,4.35,0,0,0-1,.12,3.93,3.93,0,0,0-2.14-.64A3.88,3.88,0,0,0,544.07,87a3.88,3.88,0,0,0-4.14,5.17,3.89,3.89,0,0,0,3.13,6.18,4.21,4.21,0,0,0,.5,0,3.85,3.85,0,0,0,6,.33,4,4,0,0,0,1.29.22A3.88,3.88,0,0,0,554.7,95,3.83,3.83,0,0,0,554.15,93Z"/><path class="cls-3" d="M564.41,59.24a1.94,1.94,0,0,0,0-.24,2.62,2.62,0,0,0-.07-.57,1.62,1.62,0,0,0,.07-.44,1.52,1.52,0,0,0-1.52-1.52,1.58,1.58,0,0,0-.38.05,1.52,1.52,0,0,0-2.06.37l-.19,0a1.52,1.52,0,0,0-1.52,1.52,1.5,1.5,0,0,0,.09.52,1.54,1.54,0,0,0-.3.9,1.52,1.52,0,0,0,1.52,1.52l.2,0a1.5,1.5,0,0,0,2.34.13,1.35,1.35,0,0,0,.5.09A1.52,1.52,0,0,0,564.63,60,1.44,1.44,0,0,0,564.41,59.24Z"/><path class="cls-3" d="M575.72,49.56a.92.92,0,0,0,0-.16,2.33,2.33,0,0,0,0-.38,1.35,1.35,0,0,0,0-.29,1,1,0,0,0-1-1,1.07,1.07,0,0,0-.25,0,1,1,0,0,0-.55-.17,1,1,0,0,0-.82.42H573a1,1,0,0,0-1,1,1,1,0,0,0,.06.35,1,1,0,0,0-.2.6,1,1,0,0,0,1,1H573a1,1,0,0,0,.81.42,1,1,0,0,0,.74-.33,1,1,0,0,0,.34.06,1,1,0,0,0,1-1A1,1,0,0,0,575.72,49.56Z"/><path class="cls-3" d="M571.62,43.11a.91.91,0,0,0,0-.17,2,2,0,0,0,0-.42,1.13,1.13,0,0,0,0-.32,1.11,1.11,0,0,0-1.11-1.11,1.26,1.26,0,0,0-.27,0,1.1,1.1,0,0,0-.61-.19,1.12,1.12,0,0,0-.9.46h-.14a1.11,1.11,0,0,0-1.11,1.11,1.22,1.22,0,0,0,.07.38,1.11,1.11,0,0,0,.89,1.76h.15a1.1,1.1,0,0,0,1.7.09,1.16,1.16,0,0,0,.37.07,1.11,1.11,0,0,0,1-1.68Z"/><path class="cls-3" d="M540.41,77.11a1.93,1.93,0,0,0,0-.24,2.6,2.6,0,0,0-.06-.56,1.63,1.63,0,0,0,.06-.45,1.52,1.52,0,0,0-1.52-1.52,1.49,1.49,0,0,1-1.21-.2,1.52,1.52,0,0,0-1.22.62h-.2a1.52,1.52,0,0,0-1.52,1.52,1.55,1.55,0,0,0,.1.52,1.47,1.47,0,0,0-.3.89,1.52,1.52,0,0,0,1.52,1.52h.19a1.51,1.51,0,0,0,1.23.62,1.49,1.49,0,0,0,1.11-.49,1.71,1.71,0,0,0,.51.09,1.52,1.52,0,0,0,1.52-1.52A1.48,1.48,0,0,0,540.41,77.11Z"/><path class="cls-3" d="M544.5,44.94c0-.08,0-.16,0-.24a2.62,2.62,0,0,0-.07-.57,1.62,1.62,0,0,0,.07-.44A1.52,1.52,0,0,0,543,42.17a1.58,1.58,0,0,0-.38,0,1.52,1.52,0,0,0-2.06.37l-.19,0a1.52,1.52,0,0,0-1.52,1.52,1.5,1.5,0,0,0,.09.52,1.53,1.53,0,0,0-.29.9A1.52,1.52,0,0,0,540.16,47l.19,0a1.5,1.5,0,0,0,2.34.13,1.43,1.43,0,0,0,.5.09,1.52,1.52,0,0,0,1.31-2.29Z"/><path class="cls-4" d="M546.25,148.49a3.16,3.16,0,0,1-1.23,2.65,5.37,5.37,0,0,1-3.34,1,8.4,8.4,0,0,1-3.52-.59v-1.44a8.86,8.86,0,0,0,1.72.52,9,9,0,0,0,1.85.2,3.69,3.69,0,0,0,2.25-.57,1.86,1.86,0,0,0,.75-1.58,2,2,0,0,0-.26-1.09,2.55,2.55,0,0,0-.9-.79,13.38,13.38,0,0,0-1.91-.82,5.93,5.93,0,0,1-2.56-1.52,3.31,3.31,0,0,1-.77-2.29,2.84,2.84,0,0,1,1.11-2.36,4.64,4.64,0,0,1,3-.88,8.68,8.68,0,0,1,3.52.7l-.46,1.3a8.1,8.1,0,0,0-3.1-.67,3,3,0,0,0-1.85.51,1.67,1.67,0,0,0-.67,1.42,2.09,2.09,0,0,0,.25,1.09,2.17,2.17,0,0,0,.83.78,10.26,10.26,0,0,0,1.78.79,7.13,7.13,0,0,1,2.79,1.55A3.06,3.06,0,0,1,546.25,148.49Z"/><path class="cls-4" d="M552.83,151.91h-1.49V140.39h-4.07v-1.33h9.63v1.33h-4.07Z"/><path class="cls-4" d="M566.91,151.91l-1.6-4.09h-5.15l-1.58,4.09h-1.51l5.08-12.9h1.25l5.06,12.9Zm-2.07-5.43-1.49-4c-.19-.51-.39-1.12-.6-1.86a16.85,16.85,0,0,1-.55,1.86l-1.51,4Z"/><path class="cls-4" d="M575.87,145.18h4.37v6.25a14.82,14.82,0,0,1-2.07.49,15.91,15.91,0,0,1-2.44.17,5.93,5.93,0,0,1-4.55-1.74,6.86,6.86,0,0,1-1.62-4.86,7.27,7.27,0,0,1,.8-3.51,5.44,5.44,0,0,1,2.32-2.31,7.46,7.46,0,0,1,3.54-.79,9.73,9.73,0,0,1,3.83.75l-.58,1.32a8.62,8.62,0,0,0-3.35-.74,4.78,4.78,0,0,0-3.66,1.4,5.41,5.41,0,0,0-1.32,3.88,5.51,5.51,0,0,0,1.27,3.94,4.87,4.87,0,0,0,3.73,1.35,10.84,10.84,0,0,0,2.61-.31v-4h-2.88Z"/><path class="cls-4" d="M590.49,151.91h-7.16V139.06h7.16v1.33h-5.67v4.14h5.33v1.32h-5.33v4.73h5.67Z"/><path class="cls-4" d="M605.09,142.09a2.92,2.92,0,0,1-.69,2,3.42,3.42,0,0,1-2,1v.07a3.67,3.67,0,0,1,2.3,1,2.89,2.89,0,0,1,.74,2.07,3.36,3.36,0,0,1-1.27,2.83,5.8,5.8,0,0,1-3.62,1,9.88,9.88,0,0,1-1.87-.16,6.38,6.38,0,0,1-1.65-.54V150a8.49,8.49,0,0,0,3.57.85q3.33,0,3.33-2.61,0-2.34-3.67-2.34H599v-1.26h1.29a3.89,3.89,0,0,0,2.38-.66,2.19,2.19,0,0,0,.88-1.84,1.83,1.83,0,0,0-.65-1.48,2.63,2.63,0,0,0-1.75-.53,5.5,5.5,0,0,0-1.59.22,7.49,7.49,0,0,0-1.71.85l-.74-1a6.41,6.41,0,0,1,1.83-1,6.8,6.8,0,0,1,2.17-.35,4.45,4.45,0,0,1,2.91.85A2.92,2.92,0,0,1,605.09,142.09Z"/><g id="trial3" class="cls-5"><circle class="cls-6" cx="494.91" cy="31.91" r="29.91"/><rect class="cls-7" x="484.85" y="40.16" width="14.94" height="1.83" rx="0.91"/><rect class="cls-7" x="491.4" y="32.5" width="4.8" height="1.66" transform="translate(47.02 -179.6) rotate(21.62)"/><rect class="cls-8" x="491.48" y="32.09" width="2.57" height="1.66" transform="translate(46.8 -179.25) rotate(21.62)"/><rect class="cls-7" x="498.78" y="14.09" width="4.8" height="2.33" transform="translate(40.88 -183.59) rotate(21.62)"/><rect class="cls-8" x="498.86" y="13.68" width="2.57" height="2.33" transform="translate(40.66 -183.24) rotate(21.62)"/><path class="cls-9" d="M508.64,34.5a10.08,10.08,0,0,0-7.17-9.6l2.91-7.34L497,14.64l-6.69,16.87,7.37,2.92,2.54-6.4a6.72,6.72,0,0,1-.2,13.06l-.18-.32a1.39,1.39,0,0,0-1.24-.76v1.24h0l0,3.35h0v3.8h2.93a1.52,1.52,0,0,0,1.24-2.28l-1.1-2A10.07,10.07,0,0,0,508.64,34.5Z"/><path class="cls-10" d="M498.61,40V48.4h-2.93a1.52,1.52,0,0,1-1.24-2.28l1.46-2.68,1.47-2.67A1.39,1.39,0,0,1,498.61,40Z"/><rect class="cls-10" x="486.5" y="21.78" width="18.15" height="4.11" transform="translate(290.83 475.76) rotate(-68.38)"/><rect class="cls-10" x="481.19" y="46.11" width="22.87" height="4.42" rx="2.21"/></g></g><g id="stage4"><path class="cls-1" d="M797.11,91.77c-3.74,33.35-27.22,39.14-48.32,37.44-20.23-1.64-12.47-8.57-4.87-42s32.33-66.34,45.36-55.31Q802.56,43.11,797.11,91.77Z"/><path class="cls-1" d="M802.81,91.77c3.75,33.35,27.23,39.14,48.32,37.44,20.24-1.64,12.48-8.57,4.87-42s-32.33-66.34-45.36-55.31Q797.37,43.11,802.81,91.77Z"/><path class="cls-2" d="M816.51,68l32.66,7.83c-8.23-2.31-28.51-9.55-32-12.25l13.27-19.39c-5.5,6.81-12.28,16.6-17.7,18-4.55-2.28-8.22-5.85-8.84-10.38V17.12l.34-11.44c0-2.24-.48-4.08-2.73-4.08h-3.74a2.72,2.72,0,0,0-2.72,2.72V51.45c-.62,4.53-4.29,8.1-8.85,10.38-5.41-1.43-12.19-11.22-17.69-18l13.27,19.4c-3.48,2.7-23.76,9.94-32,12.25l32.67-7.83c-8.67,7-14.38,17.06-18,20.08l-3.06,4.77S766.23,87,772,81.34l2.31,15.52c.31-5.33.32-16.08,2.1-19.64A55.57,55.57,0,0,1,784.49,71c1.58-1.31,3.34-2.38,4.89-3.72l6.94-6a15.62,15.62,0,0,0,3.07-3.58,15.7,15.7,0,0,0,3.27,3.92l7,6c1.55,1.34,3.31,2.41,4.88,3.72a55.07,55.07,0,0,1,8.09,6.23c1.78,3.56,1.78,14.31,2.09,19.64L827,81.68C832.75,87.3,837.6,92.8,837.6,92.8L834.54,88C830.89,85,825.17,75,816.51,68Z"/><path class="cls-3" d="M783.12,96.1a6.79,6.79,0,0,0,0-.78,8.16,8.16,0,0,0-.22-1.86,4.63,4.63,0,0,0,.22-1.45,7.83,7.83,0,0,0-12.94-3.6c-.21,0-.42,0-.64,0a5,5,0,0,0-5,5,5.12,5.12,0,0,0,.31,1.7A4.88,4.88,0,0,0,764,98a5,5,0,0,0,5,5,4.48,4.48,0,0,0,.64,0,4.92,4.92,0,0,0,4,2,5,5,0,0,0,3.65-1.61,5,5,0,0,0,1.65.28,5,5,0,0,0,5-5A4.86,4.86,0,0,0,783.12,96.1Z"/><path class="cls-3" d="M768.15,79.16c0-.12,0-.24,0-.37a3.58,3.58,0,0,0-.11-.87,2.26,2.26,0,0,0,.11-.69,2.34,2.34,0,0,0-2.34-2.34,2.29,2.29,0,0,1-1.88-.31,2.34,2.34,0,0,0-1.88,1l-.3,0a2.34,2.34,0,0,0-2.34,2.34,2.15,2.15,0,0,0,.15.8,2.27,2.27,0,0,0-.46,1.38,2.34,2.34,0,0,0,2.34,2.34l.3,0a2.34,2.34,0,0,0,3.6.2,2.55,2.55,0,0,0,.78.13,2.34,2.34,0,0,0,2.34-2.34A2.29,2.29,0,0,0,768.15,79.16Z"/><path class="cls-3" d="M773.93,46.18c0-.1,0-.2,0-.3a2.84,2.84,0,0,0-.09-.72,1.79,1.79,0,0,0,.09-.57A1.94,1.94,0,0,0,772,42.66a1.84,1.84,0,0,1-1.54-.25,1.93,1.93,0,0,0-1.56.79,1,1,0,0,0-.24,0,1.92,1.92,0,0,0-1.93,1.93,2.08,2.08,0,0,0,.11.66,1.93,1.93,0,0,0,1.56,3.07l.24,0a1.94,1.94,0,0,0,1.56.79,1.92,1.92,0,0,0,1.42-.63,1.92,1.92,0,0,0,2.29-2.8Z"/><path class="cls-3" d="M789.58,59c0-.1,0-.2,0-.3a3.36,3.36,0,0,0-.08-.71,2.1,2.1,0,0,0,.08-.56,1.92,1.92,0,0,0-1.92-1.92,1.84,1.84,0,0,0-.47.06,1.94,1.94,0,0,0-1.06-.31,1.89,1.89,0,0,0-1.54.78l-.25,0a1.92,1.92,0,0,0-1.91,1.92,1.75,1.75,0,0,0,.12.65,1.88,1.88,0,0,0-.38,1.13,1.92,1.92,0,0,0,1.92,1.92l.24,0a1.9,1.9,0,0,0,3,.16,1.85,1.85,0,0,0,.63.11A1.91,1.91,0,0,0,789.58,59Z"/><path class="cls-3" d="M803.57,50a.92.92,0,0,0,0-.16,1.58,1.58,0,0,0,0-.38.92.92,0,0,0,0-.29,1,1,0,0,0-1-1,1.07,1.07,0,0,0-.25,0,1,1,0,0,0-.55-.17,1,1,0,0,0-.81.42h-.13a1,1,0,0,0-1,1,1,1,0,0,0,.06.35,1,1,0,0,0-.19.6,1,1,0,0,0,1,1h.13a1,1,0,0,0,1.56.09.88.88,0,0,0,.33.06,1,1,0,0,0,1-1A1,1,0,0,0,803.57,50Z"/><path class="cls-3" d="M814.3,62.76s0-.1,0-.15a1.58,1.58,0,0,0,0-.38.94.94,0,0,0,0-.3,1,1,0,0,0-1.26-1,1,1,0,0,0-.56-.17,1,1,0,0,0-.81.41h-.13a1,1,0,0,0-1,1,1,1,0,0,0,.06.35.94.94,0,0,0-.2.59,1,1,0,0,0,1,1h.13a1,1,0,0,0,1.55.09,1.28,1.28,0,0,0,.33.06,1,1,0,0,0,.87-1.53Z"/><path class="cls-3" d="M827.07,79.62c0-.05,0-.11,0-.16a1.58,1.58,0,0,0-.05-.38.93.93,0,0,0,.05-.29,1,1,0,0,0-1.26-1,1,1,0,0,0-.56-.16,1,1,0,0,0-.81.41h-.13a1,1,0,0,0-1,1,1.28,1.28,0,0,0,.06.34,1,1,0,0,0,.82,1.61h.13a1,1,0,0,0,.81.41,1,1,0,0,0,.74-.33.92.92,0,0,0,.33.06,1,1,0,0,0,1-1A1,1,0,0,0,827.07,79.62Z"/><path class="cls-3" d="M831.15,45.4a.86.86,0,0,0,0-.16,1.64,1.64,0,0,0,0-.38.92.92,0,0,0,0-.29,1,1,0,0,0-1-1,1.07,1.07,0,0,0-.25,0,1,1,0,0,0-.55-.16,1,1,0,0,0-.81.41h-.13a1,1,0,0,0-1,1,.93.93,0,0,0,.06.34,1.05,1.05,0,0,0-.2.6,1,1,0,0,0,1,1h.13a1,1,0,0,0,.81.41,1,1,0,0,0,.74-.33,1,1,0,0,0,.34.06,1,1,0,0,0,.86-1.52Z"/><path class="cls-3" d="M799.47,43.55a.91.91,0,0,0,0-.17,2,2,0,0,0,0-.42,1.12,1.12,0,0,0,0-.32,1.11,1.11,0,0,0-1.1-1.11,1.26,1.26,0,0,0-.28,0,1.1,1.1,0,0,0-.61-.19,1.08,1.08,0,0,0-.89.46h-.15a1.1,1.1,0,0,0-1.1,1.11,1.21,1.21,0,0,0,.06.38,1.11,1.11,0,0,0,.9,1.76h.14a1.1,1.1,0,0,0,.89.45,1.13,1.13,0,0,0,.82-.36,1,1,0,0,0,.36.07,1.11,1.11,0,0,0,1-1.68Z"/><path class="cls-4" d="M774.32,148.93a3.16,3.16,0,0,1-1.23,2.65,5.35,5.35,0,0,1-3.34.95,8.39,8.39,0,0,1-3.51-.59V150.5A8.65,8.65,0,0,0,768,151a8.93,8.93,0,0,0,1.84.2,3.69,3.69,0,0,0,2.25-.57,1.85,1.85,0,0,0,.76-1.58,2,2,0,0,0-.27-1.09,2.6,2.6,0,0,0-.89-.79,13.1,13.1,0,0,0-1.92-.82,6,6,0,0,1-2.56-1.52,3.36,3.36,0,0,1-.77-2.29,2.83,2.83,0,0,1,1.12-2.36,4.61,4.61,0,0,1,3-.88,8.72,8.72,0,0,1,3.53.7l-.47,1.3a8.05,8.05,0,0,0-3.09-.67,3,3,0,0,0-1.86.51,1.7,1.7,0,0,0-.67,1.42,2.2,2.2,0,0,0,.25,1.09,2.17,2.17,0,0,0,.83.78,10.43,10.43,0,0,0,1.79.79,7.08,7.08,0,0,1,2.78,1.55A3,3,0,0,1,774.32,148.93Z"/><path class="cls-4" d="M780.9,152.35h-1.49V140.83h-4.07V139.5H785v1.33H780.9Z"/><path class="cls-4" d="M795,152.35l-1.6-4.09h-5.15l-1.58,4.09h-1.51l5.08-12.9h1.26l5,12.9Zm-2.06-5.43-1.5-4c-.19-.51-.39-1.12-.59-1.86a17.05,17.05,0,0,1-.56,1.86l-1.51,4Z"/><path class="cls-4" d="M804,145.62h4.37v6.25a14.63,14.63,0,0,1-2.08.49,15.81,15.81,0,0,1-2.44.17,5.89,5.89,0,0,1-4.54-1.74,6.82,6.82,0,0,1-1.63-4.86,7.39,7.39,0,0,1,.8-3.51,5.44,5.44,0,0,1,2.32-2.31,7.51,7.51,0,0,1,3.54-.79,9.73,9.73,0,0,1,3.83.75l-.58,1.32a8.57,8.57,0,0,0-3.34-.74,4.81,4.81,0,0,0-3.67,1.4,5.41,5.41,0,0,0-1.32,3.88,5.55,5.55,0,0,0,1.27,3.94,4.88,4.88,0,0,0,3.73,1.35,10.84,10.84,0,0,0,2.61-.31v-4H804Z"/><path class="cls-4" d="M818.57,152.35H811.4V139.5h7.17v1.33H812.9V145h5.32v1.32H812.9V151h5.67Z"/><path class="cls-4" d="M834.25,149.4h-1.9v2.95H831V149.4H824.7v-1.28l6.1-8.69h1.55v8.64h1.9Zm-3.3-1.33V143.8c0-.84,0-1.78.09-2.84H831a14.62,14.62,0,0,1-.79,1.4l-4,5.71Z"/><g id="trial4" class="cls-5"><circle class="cls-6" cx="723.91" cy="30.63" r="29.91"/><rect class="cls-7" x="713.85" y="38.88" width="14.94" height="1.83" rx="0.91"/><rect class="cls-7" x="720.4" y="31.22" width="4.8" height="1.66" transform="translate(62.66 -264.07) rotate(21.62)"/><rect class="cls-8" x="720.48" y="30.81" width="2.57" height="1.66" transform="translate(62.44 -263.71) rotate(21.62)"/><rect class="cls-7" x="727.78" y="12.81" width="4.8" height="2.33" transform="translate(56.52 -268.06) rotate(21.62)"/><rect class="cls-8" x="727.86" y="12.4" width="2.57" height="2.33" transform="translate(56.3 -267.7) rotate(21.62)"/><path class="cls-9" d="M737.64,33.22a10.08,10.08,0,0,0-7.17-9.6l2.91-7.34L726,13.36l-6.69,16.87,7.37,2.92,2.54-6.4a6.72,6.72,0,0,1-.2,13.06l-.18-.32a1.39,1.39,0,0,0-1.24-.76V40h0l0,3.35h0v3.8h2.93a1.52,1.52,0,0,0,1.24-2.28l-1.1-2A10.07,10.07,0,0,0,737.64,33.22Z"/><path class="cls-10" d="M727.61,38.73v8.39h-2.93a1.52,1.52,0,0,1-1.24-2.28l1.46-2.68,1.47-2.67A1.39,1.39,0,0,1,727.61,38.73Z"/><rect class="cls-10" x="715.5" y="20.5" width="18.15" height="4.11" transform="translate(436.64 687.84) rotate(-68.38)"/><rect class="cls-10" x="710.19" y="44.83" width="22.87" height="4.42" rx="2.21"/></g></g></g></g></svg>