<svg xmlns="http://www.w3.org/2000/svg" viewBox="0 0 217.61 218.31">
  <title>syringe</title>
  <g id="Layer_2" data-name="Layer 2">
    <g id="Layer_1-2" data-name="Layer 1">
      <g id="syringe">
        <rect x="79.78" y="12.53" width="63.36" height="200" rx="11.35" transform="translate(-46.92 111.77) rotate(-45)" style="fill: #43bfb3"/>
        <rect x="13.04" y="12.8" width="33" height="33.49" transform="translate(-12.24 29.54) rotate(-45)" style="fill: #b7b7b7"/>
        <rect x="-5.57" y="13.43" width="43" height="5" rx="2.5" transform="translate(-6.6 15.93) rotate(-45)" style="fill: #a5a5a5"/>
        <path d="M198.67,166.14l2.93,2.93a7.94,7.94,0,0,1,0,11.21l-22,22a8,8,0,0,1-11.22,0l-2.93-2.93" style="fill: #a5a5a5"/>
        <path d="M201.17,185.88h5a0,0,0,0,1,0,0v34.81a2.19,2.19,0,0,1-2.19,2.19h-.6a2.21,2.21,0,0,1-2.21-2.21V185.88a0,0,0,0,1,0,0Z" transform="translate(-84.86 203.88) rotate(-45)" style="fill: #a5a5a5"/>
        <path d="M46.91,91.73l21-21a3.36,3.36,0,0,1,4.72,0h0a3.36,3.36,0,0,1,0,4.73l-21,21Z" style="fill: #309e90"/>
        <path d="M66.06,110.35l21-21a3.34,3.34,0,0,1,4.72,0h0a3.34,3.34,0,0,1,0,4.72l-21,21Z" style="fill: #309e90"/>
        <path d="M57.14,101.43,70.81,87.76a2.42,2.42,0,0,1,3.38.3h0a2.42,2.42,0,0,1,.3,3.37L60.81,105.11Z" style="fill: #309e90"/>
        <path d="M75.76,120.58l21-21a3.34,3.34,0,0,1,4.72,0h0a3.34,3.34,0,0,1,0,4.72l-21,21Z" style="fill: #309e90"/>
        <path d="M94.91,139.21l21-21a3.34,3.34,0,0,1,4.72,0h0a3.34,3.34,0,0,1,0,4.72l-21,21Z" style="fill: #309e90"/>
        <path d="M86,130.29l13.68-13.68a2.42,2.42,0,0,1,3.37.3h0a2.42,2.42,0,0,1,.3,3.38L89.66,134Z" style="fill: #309e90"/>
        <path d="M104.62,149.44l21-21a3.34,3.34,0,0,1,4.72,0h0a3.34,3.34,0,0,1,0,4.72l-21,21Z" style="fill: #309e90"/>
        <path d="M123.77,168.06l21-21a3.34,3.34,0,0,1,4.72,0h0a3.34,3.34,0,0,1,0,4.72l-21,21Z" style="fill: #309e90"/>
        <path d="M114.85,159.14l13.67-13.67a2.42,2.42,0,0,1,3.38.3h0a2.42,2.42,0,0,1,.3,3.37l-13.68,13.68Z" style="fill: #309e90"/>
      </g>
    </g>
  </g>
</svg>
