<?xml version="1.0" encoding="utf-8"?>
<!-- Generator: Adobe Illustrator 24.0.2, SVG Export Plug-In . SVG Version: 6.00 Build 0)  -->
<svg version="1.1" id="Layer_1" xmlns="http://www.w3.org/2000/svg" xmlns:xlink="http://www.w3.org/1999/xlink" x="0px" y="0px"
	 viewBox="0 0 1280 1024" enable-background="new 0 0 1280 1024" xml:space="preserve">
<g>
	<g>
		<circle fill="#FFFFFF" cx="651" cy="533" r="193"/>
		<g>
			<path fill="#FF8383" d="M651,350c101.1,0,183,81.9,183,183s-81.9,183-183,183s-183-81.9-183-183S549.9,350,651,350 M651,330
				c-27.4,0-54,5.4-79,16c-24.2,10.2-45.9,24.9-64.5,43.5c-18.6,18.6-33.3,40.3-43.5,64.5c-10.6,25-16,51.6-16,79s5.4,54,16,79
				c10.2,24.2,24.9,45.9,43.5,64.5c18.6,18.6,40.3,33.3,64.5,43.5c25,10.6,51.6,16,79,16s54-5.4,79-16
				c24.2-10.2,45.9-24.9,64.5-43.5c18.6-18.6,33.3-40.3,43.5-64.5c10.6-25,16-51.6,16-79s-5.4-54-16-79
				c-10.2-24.2-24.9-45.9-43.5-64.5c-18.6-18.6-40.3-33.3-64.5-43.5C705,335.4,678.4,330,651,330L651,330z"/>
		</g>
	</g>
	<g id="syringe">
		<path fill="#43BFB3" d="M744.2,587.2l-28.8,28.8c-4.4,4.4-11.6,4.4-16,0L574,490.6c-4.4-4.4-4.4-11.6,0-16l28.8-28.8
			c4.4-4.4,11.6-4.4,16,0l125.4,125.4C748.6,575.6,748.6,582.8,744.2,587.2z"/>
		
			<rect x="560.7" y="431.1" transform="matrix(0.7071 -0.7071 0.7071 0.7071 -147.6404 539.3098)" fill="#B7B7B7" width="33" height="33.5"/>
		<path fill="#A5A5A5" d="M578.8,422.6l-26.9,26.9c-1,1-2.6,1-3.5,0l0,0c-1-1-1-2.6,0-3.5l26.9-26.9c1-1,2.6-1,3.5,0l0,0
			C579.8,420,579.8,421.6,578.8,422.6z"/>
		<path fill="#A5A5A5" d="M746.3,584.5l2.9,2.9c3.1,3.1,3.1,8.1,0,11.2l-22,22c-3.1,3.1-8.1,3.1-11.2,0l-2.9-2.9"/>
		<path fill="#A5A5A5" d="M764.6,635.6l-0.4,0.4c-0.9,0.9-2.3,0.9-3.1,0l-24.6-24.6l3.5-3.5l24.6,24.6
			C765.5,633.3,765.5,634.7,764.6,635.6z"/>
		<path fill="#309E90" d="M594.6,510.1l21-21c1.3-1.3,3.4-1.3,4.7,0l0,0c1.3,1.3,1.3,3.4,0,4.7l-21,21L594.6,510.1z"/>
		<path fill="#309E90" d="M613.7,528.7l21-21c1.3-1.3,3.4-1.3,4.7,0l0,0c1.3,1.3,1.3,3.4,0,4.7l-21,21L613.7,528.7z"/>
		<path fill="#309E90" d="M604.8,519.8l13.7-13.7c0.8-0.8,2.4-0.7,3.4,0.3l0,0c1,1,1.1,2.5,0.3,3.4l-13.7,13.7L604.8,519.8z"/>
		<path fill="#309E90" d="M623.4,538.9l21-21c1.3-1.3,3.4-1.3,4.7,0v0c1.3,1.3,1.3,3.4,0,4.7l-21,21L623.4,538.9z"/>
		<path fill="#309E90" d="M642.6,557.5l21-21c1.3-1.3,3.4-1.3,4.7,0l0,0c1.3,1.3,1.3,3.4,0,4.7l-21,21L642.6,557.5z"/>
		<path fill="#309E90" d="M633.6,548.6l13.7-13.7c0.8-0.8,2.4-0.7,3.4,0.3l0,0c1,1,1.1,2.5,0.3,3.4l-13.7,13.7L633.6,548.6z"/>
		<path fill="#309E90" d="M652.3,567.8l21-21c1.3-1.3,3.4-1.3,4.7,0l0,0c1.3,1.3,1.3,3.4,0,4.7l-21,21L652.3,567.8z"/>
		<path fill="#309E90" d="M671.4,586.4l21-21c1.3-1.3,3.4-1.3,4.7,0h0c1.3,1.3,1.3,3.4,0,4.7l-21,21L671.4,586.4z"/>
		<path fill="#309E90" d="M662.5,577.5l13.7-13.7c0.8-0.8,2.4-0.7,3.4,0.3l0,0c1,1,1.1,2.5,0.3,3.4l-13.7,13.7L662.5,577.5z"/>
	</g>
	<line fill="none" stroke="#FF8383" stroke-width="20" stroke-miterlimit="10" x1="520" y1="664" x2="782" y2="402"/>
</g>
</svg>
