<?xml version="1.0" encoding="utf-8"?>
<!-- Generator: Adobe Illustrator 24.0.2, SVG Export Plug-In . SVG Version: 6.00 Build 0)  -->
<svg version="1.1" id="Layer_1" xmlns="http://www.w3.org/2000/svg" xmlns:xlink="http://www.w3.org/1999/xlink" x="0px" y="0px"
	 viewBox="0 0 217.6 218.3" style="enable-background:new 0 0 217.6 218.3;" xml:space="preserve">
<style type="text/css">
	.st0{fill:#43BFB3;}
	.st1{fill:#309E90;}
	.st2{fill:#B7B7B7;}
	.st3{fill:#A5A5A5;}
</style>
<g id="syringe">
	<g id="liquid">
		<path class="st0 liquid" d="M26.4,56.2l28.8-28.8c4.4-4.4,11.6-4.4,16.1,0l125.4,125.4c4.4,4.4,4.4,11.6,0,16.1l-28.8,28.8
			c-4.4,4.4-11.6,4.4-16.1,0L26.4,72.2C21.9,67.8,21.9,60.6,26.4,56.2z"/>
		<path class="st1 liquid" d="M46.9,91.7l21-21c1.3-1.3,3.4-1.3,4.7,0l0,0c1.3,1.3,1.3,3.4,0,4.7l-21,21L46.9,91.7z"/>
		<path class="st1 liquid" d="M66.1,110.3l21-21c1.3-1.3,3.4-1.3,4.7,0l0,0c1.3,1.3,1.3,3.4,0,4.7l-21,21L66.1,110.3z"/>
		<path class="st1 liquid" d="M57.1,101.4l13.7-13.7c1-0.8,2.5-0.7,3.4,0.3l0,0c1,0.9,1.1,2.4,0.3,3.4l-13.7,13.7L57.1,101.4z"/>
		<path class="st1 liquid" d="M75.8,120.6l21-21c1.3-1.3,3.4-1.3,4.7,0l0,0c1.3,1.3,1.3,3.4,0,4.7l-21,21L75.8,120.6z"/>
		<path class="st1 liquid" d="M94.9,139.2l21-21c1.3-1.3,3.4-1.3,4.7,0l0,0c1.3,1.3,1.3,3.4,0,4.7l-21,21L94.9,139.2z"/>
		<path class="st1 liquid" d="M86,130.3l13.7-13.7c1-0.8,2.5-0.7,3.4,0.3l0,0c1,0.9,1.1,2.4,0.3,3.4L89.7,134L86,130.3z"/>
		<path class="st1 liquid" d="M104.6,149.4l21-21c1.3-1.3,3.4-1.3,4.7,0l0,0c1.3,1.3,1.3,3.4,0,4.7l-21,21L104.6,149.4z"/>
		<path class="st1 liquid" d="M123.8,168.1l21-21c1.3-1.3,3.4-1.3,4.7,0l0,0c1.3,1.3,1.3,3.4,0,4.7l-21,21L123.8,168.1z"/>
		<path class="st1 liquid" d="M114.8,159.1l13.7-13.7c1-0.8,2.5-0.7,3.4,0.3l0,0c1,0.9,1.1,2.4,0.3,3.4l-13.7,13.7L114.8,159.1z"/>
	</g>
	<rect x="13" y="12.8" transform="matrix(0.7071 -0.7071 0.7071 0.7071 -12.2385 29.5406)" class="st2" width="33" height="33.5"/>
	<path class="st3" d="M0.7,27.6L27.6,0.7c1-1,2.6-1,3.5,0l0,0c1,1,1,2.6,0,3.5L4.3,31.1c-1,1-2.6,1-3.5,0l0,0
		C-0.3,30.2-0.3,28.6,0.7,27.6z"/>
	<path class="st3" d="M198.7,166.1l2.9,2.9c3.1,3.1,3.1,8.1,0,11.2l-22,22c-3.1,3.1-8.1,3.1-11.2,0l-2.9-2.9"/>
	<path class="st3" d="M188.8,193.1l3.5-3.5l0,0l24.6,24.6c0.9,0.9,0.9,2.2,0,3.1l0,0l-0.4,0.4c-0.9,0.9-2.3,0.9-3.1,0l0,0
		L188.8,193.1L188.8,193.1L188.8,193.1z"/>
	<title>syringe</title>
</g>
</svg>
