<svg xmlns="http://www.w3.org/2000/svg" viewBox="0 0 322.6 947">
  <title>visitor</title>
  <g id="Layer_2" data-name="Layer 2">
    <g id="Layer_1-2" data-name="Layer 1">
      <g>
        <path d="M210.23,924.26c0,12.57-6.52,22.75-14.53,22.74s-14.49-10.21-14.47-22.77,6.52-22.75,14.53-22.74,14.49,10.21,14.47,22.77" style="fill: #adadad"/>
        <path d="M210.23,922.28c0,10.63-6.52,19.25-14.52,19.24s-14.49-8.64-14.48-19.28S187.75,903,195.76,903s14.49,8.64,14.47,19.28" style="fill: #fff"/>
        <path d="M131.23,924.26c0,12.57-6.52,22.75-14.53,22.74s-14.49-10.21-14.47-22.77,6.52-22.75,14.53-22.74,14.49,10.21,14.47,22.77" style="fill: #adadad"/>
        <path d="M131.23,922c0,10.49-6.51,19-14.52,19s-14.49-8.53-14.48-19,6.52-19,14.53-19,14.49,8.52,14.47,19" style="fill: #fff"/>
        <path d="M228.8,490.58c-5.75,6.17-11.62,13.73-2.75,20.19,9.85,7.18,19.39,1.06,27.94-5.41-6.11-3.79-12.41-7.34-18.63-11-2.16-1.27-4.27-2.63-6.56-3.76" style="fill: #c48d69"/>
        <path d="M105.5,518.64c-11.75,9.37-22.19-1.22-31.25-9.31,6.21-4.39,12.68-8.45,19-12.67,2.3-1.52,4.54-3.17,7-4.49,7.42,7.51,15.92,17.92,5.21,26.47" style="fill: #c48d69"/>
        <path d="M234.66,497.84c-.84,8.16,3.08,8.67,9.14,13.82L235.23,471c-3.18,4.9-5.72,8.4-9.29,13.42q5.22,3.88,10.48,7.75a15.61,15.61,0,0,0-1.76,5.67" style="fill: #2d60aa"/>
        <path d="M243.8,511.66c-.32,12.51-2.58,29.48-4.55,41.85C211.91,673.23,227.75,797.82,213.34,919l-1.48-.53c-19.77-7.21-13.1-8.9-30.67-2.6l-3.72,1.32c-6.16-116.68-20.2-233.5-10.89-350.34-3.76,1.09-7.54,2.19-11.31,3.32-4.37,119.62-6.65,226.09-22.11,345.44l-.84-.19c-12.45-2.77-19.29-4.64-31.07.24l-1.34.56c-13.72-103.1-.56-234-12.74-329.69a427.94,427.94,0,0,1,0-74.83l.06-.05V485l-.48-.58c0-.33,3.48-28.42,3.48-28.42l142.92-4.44c1.68,5,3.3,10,4.78,15.06-.62,1-1.24,1.94-1.87,2.91q-4.77,7.35-10.12,14.89,5.22,3.88,10.48,7.75a15.61,15.61,0,0,0-1.76,5.67c-.84,8.16,3.08,8.67,9.14,13.82" style="fill: #2d60aa"/>
        <path d="M275.8,236.56C266,247.17,257.07,256.82,251,270c38,78.69,36.07,130.94-14.4,203.33-3.61,5.18-8,9.71-11.78,14.71l4.09,2.43c2.16,1.27,4.32,2.56,6.48,3.84q9.34,5.49,18.7,10.94l6.61,3.87c52.48-58,100.77-223.2,15.12-272.59" style="fill: #ff7171"/>
        <path d="M104.82,488.91,100.18,492l-2.63,1.76L95,495.48l-1.76,1.17-14.34,9.42c-1.58,1-3.3,2.18-4.75,3.12s-2.16,1.4-3.66,2.43C4.36,430.44-35.28,343.42,43.9,254.31c9.15-10.3,32.15-26,49.13-26.09.3,0,.79-.31.84-.2s0,.1,0,.15c.67,15.08-5.32,29.93-8.34,44.78-16.8,20.59-34.16,42.78-39.33,68.84-8.68,43.73,9.92,78.53,32.88,114.28,3.7,5.76,10,13.65,14.34,19.62.21.29.55.63.82.95,3.46,4.09,7,8.22,10.55,12.27" style="fill: #ff7171"/>
        <path d="M236.44,471c-46.14.65-91.84-2.05-137.93-.14-3.39.14-6.78.32-10.19.51-1.38-7.17-3-14.22-4.72-21.16-9.76-39-24.19-74.79-32.3-112.15-5.83-26.92-8.37-54.66-3.5-85A217.5,217.5,0,0,1,78.59,228c.24-.11.48-.23.73-.33,24-10.69,53.1-18.8,53.1-18.8l60.91,1.74L209,212.32c12.7,2.3,73.76,21.25,75.08,31.64,9.88,78.28-18.4,154-47.63,227" style="fill: #ff7171"/>
        <path d="M255.9,135.9c-1.82,11.13-7.54,19.47-12.78,18.61s-8-10.58-6.19-21.71,7.54-19.47,12.78-18.61,8,10.58,6.19,21.71" style="fill: #c48d69"/>
        <path d="M251.33,135.15c-1.35,8.23-5.15,14.45-8.49,13.91s-5-7.66-3.61-15.89,5.14-14.45,8.48-13.9,5,7.66,3.62,15.88" style="fill: #bc8161"/>
        <path d="M82.13,134.77c.62,11.27,5.42,20.16,10.72,19.87s9.1-9.66,8.48-20.92-5.42-20.17-10.72-19.87-9.1,9.66-8.48,20.92" style="fill: #c48d69"/>
        <path d="M86.76,134.52c.46,8.32,3.57,14.91,6.95,14.73s5.75-7.08,5.29-15.41-3.57-14.91-7-14.73-5.75,7.09-5.29,15.41" style="fill: #bc8161"/>
        <path d="M195.3,34.74H138.06c-29.29,0-53,26.36-53,58.91v16.57a92.63,92.63,0,0,0,10,41.48c11.87,23.59,29.36,54.86,41.6,61.15,4.26,14.34,15.5,24.8,28.1,25.86,13,1.1,25.75-8,31.6-22,2.18-.52,4.38-1.12,6.58-1.8,22.06-6.75,43.61-69.51,45.74-75.85q.16-.5.3-1l.2-.85a12.12,12.12,0,0,0,.3-1.9c.34-3.8,1-6.6,1-10.62V96c0-33.82-24.69-61.24-55.14-61.24m-24,128.92c1.16,0,2.31,0,3.42.05a1.87,1.87,0,0,0-1,.77,2.78,2.78,0,0,1-4.82,0,1.74,1.74,0,0,0-1-.77c1.11,0,2.26-.05,3.42-.05" style="fill: #c48d69"/>
        <path d="M243,154.49C241.56,181.82,239.4,175,224.56,195c-18.72,25.33-29.32,26.51-56,26.51-23.32,0-32.79-6.33-50.83-24.94-20.88-21.55-19.22-12.35-21.94-43.72,10.12,22.24,32.89,31.85,46.59,38.11,17.36,7.93,36,10.28,56.36,2.71S243,154.49,243,154.49" style="fill: #160900"/>
        <path d="M142.25,118.17a7.85,7.85,0,1,1-7.84-7.56,7.71,7.71,0,0,1,7.84,7.56" style="fill: #00060d"/>
        <path d="M210.79,118a7.85,7.85,0,1,1-7.84-7.56,7.71,7.71,0,0,1,7.84,7.56" style="fill: #00060d"/>
        <path d="M169.57,142.21c-4.54,0-8.25-4.9-8.25-10.9v6.41c0,6,3.71,10.9,8.25,10.9s8.25-4.9,8.25-10.9v-6.41c0,6-3.71,10.9-8.25,10.9" style="fill: #bc8161"/>
        <path d="M253.14,77l-3.52-18.63a29.91,29.91,0,0,0-3.52-9.4l-12-20.81a43.2,43.2,0,0,0-6.27-8.41,14.71,14.71,0,0,0-4.38-3.33l-15-6.86A106.59,106.59,0,0,0,151.85.73l-5,.59A153.56,153.56,0,0,0,97,16c-9.92,4.9-15.78,14.75-15,25.12l2.59,31.83a37.54,37.54,0,0,1,.06,5.71c-.19,2.68-.11,8.83.16,15.88.06,9.24.1,18.81.42,23h0c1-6.22,4.92-17.46,6.88-23a39.68,39.68,0,0,1,5-9.65c4.09-5.81,8-12.19,12.89-16.45,2.75-2.38,5.14-2.86,7.19-3.75,1.48-.64,3-1.31,4.47-1.86l12.26-4.42a69.78,69.78,0,0,1,9.47-2.54L150,54.68a110.81,110.81,0,0,1,42.94.78,50.16,50.16,0,0,1,15,5.88c.1,0,.2.12.3.18,1.22.77,2.38,1.54,3.51,2.28a117.67,117.67,0,0,1,24.65,22.11l.82,1a6.16,6.16,0,0,0,.35.51c4.21,5.6,10.34,19.6,12.79,26.65l.12.31a6.21,6.21,0,0,1,.12-.85l1.15-14c.27-5.46,1-10.87,1.66-16.29a20.84,20.84,0,0,0-.22-6.25" style="fill: #160900"/>
        <path d="M125.21,102.85c-1.56,0-2.82,1.78-2.89,4h21.29c1.55,0,2.82-1.78,2.88-4Z" style="fill: #160900"/>
        <path d="M193.74,102.85c-1.55,0-2.82,1.78-2.88,4h21.29c1.55,0,2.82-1.78,2.88-4Z" style="fill: #160900"/>
        <path d="M212.24,177.43c1.47,19.48-24.5,24.31-40.66,24.45s-43.07-4-42.29-23.71,25.36-22.59,41.45-22.65,40,2.43,41.5,21.91" style="fill: #160900"/>
        <path d="M193.49,168.15v.07a1.6,1.6,0,0,1-.63,1c-.15.13-.34.25-.54.39-2.61,1.59-9.33,2.78-17.56,3.05-1.11,0-2.26,0-3.42,0s-2.31,0-3.42,0c-8.09-.27-14.74-1.43-17.44-3a5,5,0,0,1-.51-.33,1.73,1.73,0,0,1-.78-1.14v-.07A1.54,1.54,0,0,1,150,167v0l.29-.2h.05c2.53-1.58,9.07-2.77,17.13-3.07h.05a2,2,0,0,1,.43.05c1.11,0,2.26-.05,3.42-.05s2.31,0,3.42.05a2.7,2.7,0,0,1,.48-.05c8.07.3,14.6,1.49,17.13,3.07a.59.59,0,0,1,.19.11,1.69,1.69,0,0,1,.93,1.31" style="fill: #bc8161"/>
        <path d="M149.23,167c4.51,1.23,11.58,1.44,18.27,1.49,9.11.07,20.35.35,25.73-1.49" style="fill: none;stroke: #533520;stroke-miterlimit: 10;stroke-width: 0.5px"/>
      </g>
    </g>
  </g>
</svg>
