<?xml version="1.0" encoding="utf-8"?>
<!-- Generator: Adobe Illustrator 24.0.2, SVG Export Plug-In . SVG Version: 6.00 Build 0)  -->
<svg version="1.1" id="Layer_1" xmlns="http://www.w3.org/2000/svg" xmlns:xlink="http://www.w3.org/1999/xlink" x="0px" y="0px"
	 viewBox="0 0 1280 1024" style="enable-background:new 0 0 1280 1024;" xml:space="preserve">
<style type="text/css">
	.st0{fill:#F5B98C;}
	.st1{fill:#ADADAD;}
	.st2{fill:#FFFFFF;}
	.st3{fill:none;stroke:#999999;stroke-width:0.25;stroke-miterlimit:10;}
	.st4{fill:#2D60AA;}
	.st5{fill:#FFA63B;}
	.st6{fill:#E2A379;}
	.st7{fill:#160900;}
	.st8{fill:#00060D;}
	.st9{fill:none;stroke:#533520;stroke-width:0.5;stroke-miterlimit:10;}
</style>
<path id="rightHand" class="st0" d="M640.6,527.6c-5.8,6.2-11.6,13.7-2.8,20.2c9.9,7.2,19.4,1.1,27.9-5.4
	C657.4,537.3,649.1,532.3,640.6,527.6z"/>
<path id="leftHand" class="st0" d="M517.3,555.6c-11.7,9.4-22.2-1.2-31.3-9.3c8.6-5.9,17.2-11.7,26-17.2
	C519.5,536.7,528,547.1,517.3,555.6z"/>
<g id="leftFeet">
	<g>
		<path class="st1" d="M543,956.7c-0.4,10.8-6.8,19.3-14.5,19.3c-9.1-0.5-13.9-9.5-14.3-19c0,0.2,0,0.4,0,0.6
			c-0.1,11.3,4.7,22.8,14.4,23.4c8,0,14.5-10.3,14.5-23c0-0.3,0-0.6,0-0.8C543,957,543,956.9,543,956.7z"/>
		<path class="st2" d="M515.5,947.9C515.5,947.8,515.5,947.8,515.5,947.9c2.1-7.1,6.4-12.5,13-12.9c-6.6,0.3-10.9,5.2-13,11.4
			c0,0,0,0,0,0.1c-0.2,0.5-0.3,1.1-0.5,1.6c-0.7,2.8-1,5.7-0.9,8.7c0,0.1,0,0.2,0,0.3c0.1-2.6,0.4-5.2,1-7.7
			C515.2,948.9,515.3,948.4,515.5,947.9z"/>
		<path class="st2" d="M541.7,948.3c0.3,1,0.6,2.1,0.8,3.3c0.3,1.6,0.5,3.4,0.5,5.2c0-0.2,0-0.3,0-0.5c0-0.2,0-0.5,0-0.7
			c0-1.8-0.2-3.5-0.5-5.2c-0.2-1.2-0.5-2.4-0.9-3.5c-2.3-7-7.3-11.8-13.1-11.9C534.3,935,539.3,940.4,541.7,948.3z"/>
		<path class="st2" d="M528.5,976c7.7,0,14-8.5,14.5-19.3c-0.1-1.8-0.2-3.5-0.5-5.2c-0.2-1.1-0.5-2.2-0.8-3.3
			c-2.3-7.8-7.3-13.3-13.1-13.3c-6.6,0.4-11,5.8-13,12.8c0,0,0,0,0,0.1c-0.1,0.5-0.3,1-0.4,1.5c-0.6,2.5-0.9,5-1,7.7
			C514.6,966.5,519.4,975.5,528.5,976z"/>
	</g>
	<path class="st3" d="M538,972"/>
</g>
<path id="leftLeg" class="st4" d="M577.5,604.1c-3.5,1-7,2-10.4,3.1c-4.4,119.6-6.6,226.1-22.1,345.4c-0.3-0.1-0.5-0.1-0.8-0.2
	c-0.7-0.2-1.5-0.3-2.2-0.5c0,0-0.1,0-0.1,0c-10.2-2.3-17.2-3.5-26.6-0.1c0,0-0.1,0-0.2,0.1c-1.1,0.4-2.2,0.9-3.4,1.4
	c-13.7-103.1-0.6-234-12.7-329.7c-0.5-5.5-0.9-11.3-1.2-17.3c-0.9-19.1-0.4-39.8,1.2-57.6c0,0,0,0,0.1,0V522l1-16l71-1.9v100.2
	l2.4-0.1L577.5,604.1z"/>
<g id="rightFeet">
	<path class="st3" d="M617.5,973"/>
	<g>
		<path class="st1" d="M622,956.7c-0.4,10.8-6.8,19.3-14.5,19.3c-9.1-0.5-13.9-9.5-14.3-19c0,0.2,0,0.4,0,0.6
			c-0.1,11.3,4.7,22.8,14.4,23.4c8,0,14.5-10.3,14.5-23c0-0.3,0-0.6,0-0.8C622,957,622,956.9,622,956.7z"/>
		<path class="st2" d="M594.5,947.9C594.5,947.8,594.5,947.8,594.5,947.9c2.1-7.1,6.4-12.5,13-12.9c-6.6,0.3-10.9,5.2-13,11.4
			c0,0,0,0,0,0.1c-0.2,0.5-0.3,1.1-0.5,1.6c-0.7,2.8-1,5.7-0.9,8.7c0,0.1,0,0.2,0,0.3c0.1-2.6,0.4-5.2,1-7.7
			C594.2,948.9,594.3,948.4,594.5,947.9z"/>
		<path class="st2" d="M620.7,948.3c0.3,1,0.6,2.1,0.8,3.3c0.3,1.6,0.5,3.4,0.5,5.2c0-0.2,0-0.3,0-0.5c0-0.2,0-0.5,0-0.7
			c0-1.8-0.2-3.5-0.5-5.2c-0.2-1.2-0.5-2.4-0.9-3.5c-2.3-7-7.3-11.8-13.1-11.9C613.3,935,618.3,940.4,620.7,948.3z"/>
		<path class="st2" d="M607.5,976c7.7,0,14-8.5,14.5-19.3c-0.1-1.8-0.2-3.5-0.5-5.2c-0.2-1.1-0.5-2.2-0.8-3.3
			c-2.3-7.8-7.3-13.3-13.1-13.3c-6.6,0.4-11,5.8-13,12.8c0,0,0,0,0,0.1c-0.1,0.5-0.3,1-0.4,1.5c-0.6,2.5-0.9,5-1,7.7
			C593.6,966.5,598.4,975.5,607.5,976z"/>
	</g>
</g>
<path id="rightLeg" class="st4" d="M655.6,548.7c-0.3,12.5-2.6,29.5-4.5,41.9c-0.9,3.9-1.7,7.8-2.5,11.6
	C624.7,718.3,639,838.7,625.1,956c-1.3-0.5-2.5-0.9-3.6-1.4c0,0-0.1,0-0.1,0c-16.3-6.4-13.2-7.3-27.3-2.2c0,0-0.1,0-0.1,0
	c-1.4,0.5-3,1.1-4.8,1.7c-6.2-116.6-20.2-233.3-10.9-350.1c0-0.1,0-0.2,0-0.2c-0.3,0.1-0.6,0.2-0.9,0.3l-4,0.1l-2.4,0.1V504.1
	l77-2.1v4L655.6,548.7z"/>
<path id="rightArm" class="st5" d="M687.6,273.6c-9.8,10.6-18.7,20.3-24.8,33.5c42,82.4,32.7,146.9-26.2,218
	c11.9,7.1,23.9,14.1,35.9,21.1C724.9,488.1,773.2,322.9,687.6,273.6z"/>
<path id="leftArm" class="st5" d="M516.6,525.9c-11.4,7.7-22.9,15.1-34.3,22.7c-66.2-81.2-105.8-168.2-26.6-257.3
	c9.2-10.3,32.2-26,49.1-26.1c0.4,0,0.9-0.5,0.9,0c0.7,15.1-5.3,29.9-8.3,44.8c-16.8,20.6-34.2,42.8-39.3,68.8
	c-8.7,43.7,9.9,78.5,32.9,114.3C498.2,504,507.6,515.9,516.6,525.9z"/>
<path id="torso" class="st5" d="M648.2,508c-49.5,0.7-98.7-2.5-148.1,0.4c-14.5-75.2-53.5-139.9-40.5-218.3c8.7-8.6,19-17,30.8-25.1
	c23.4-10.6,54.1-19.2,53.8-19.1l60.9,1.7l15.7,1.7c12.7,2.3,73.8,21.2,75.1,31.6C705.7,359.2,677.4,435,648.2,508z"/>
<g id="head">
	<path class="st0" d="M667.4,172.5c-1.8,11-7.5,19.3-12.7,18.4c-12.4-2.9-6-41.1,6.6-39.9C666.5,151.9,669.3,161.5,667.4,172.5z"/>
	<path class="st6" d="M663.5,172c-1.3,8.3-5.1,14.5-8.5,14c-7.9-1.9-3.2-30.7,4.9-29.9C663.3,156.6,664.9,163.7,663.5,172z"/>
	<path class="st0" d="M494.1,172c0.6,11.3,5.3,20.3,10.5,20c12.4-1.5,10.3-40.8-2.2-41C497.2,151.3,493.5,160.7,494.1,172z"/>
	<path class="st6" d="M499.1,171.3c0.4,8.3,3.5,14.8,6.8,14.7c7.8-1,6.3-29.9-1.6-30C500.9,156.2,498.6,163.1,499.1,171.3z"/>
	<path id="face" class="st0" d="M607,72h-57.1c-29.2,0-52.9,26.4-52.9,58.9v16.6c0,14.4,3.5,28.6,10,41.5
		c11.8,23.6,29.3,54.9,41.5,61.2c9.8,32.2,46.1,35.1,59.6,3.9c27.8-1.9,49.1-69.7,52.5-78.7c2.3-8.9,1.3-32.6,1.5-42.1
		C662,99.4,637.4,72,607,72z M583.1,200.7c1.2,0,2.3,0,3.4,0.1c-0.4,0.1-0.8,0.4-1,0.8c-1.1,1.9-3.8,1.9-4.8,0
		c-0.2-0.4-0.6-0.7-1-0.8C580.8,200.7,582,200.7,583.1,200.7z"/>
	<path class="st7" d="M654.8,191.5c-1.5,27.3-3.6,20.5-18.5,40.5c-18.7,25.3-29.3,26.5-56,26.5c-23.3,0-32.8-6.3-50.8-24.9
		c-20.9-21.5-19.2-12.3-21.9-43.7c10.1,22.2,32.9,31.9,46.6,38.1C603.3,250,633.2,219.1,654.8,191.5L654.8,191.5z"/>
	<path class="st8" d="M554,155.5c0,4.1-3.6,7.5-8,7.5c-10.6-0.4-10.6-14.7,0-15C550.4,148,554,151.4,554,155.5z"/>
	<path class="st8" d="M623,154.5c0,4.1-3.6,7.5-8,7.5c-10.6-0.4-10.6-14.7,0-15C619.4,147,623,150.4,623,154.5z"/>
	<path class="st6" d="M581.5,179.3c-4.7,0-8.5-5.1-8.5-11.2v6.6c0,6.2,3.8,11.2,8.5,11.2c4.7,0,8.5-5.1,8.5-11.2v-6.6
		C590,174.2,586.2,179.3,581.5,179.3z"/>
	<path class="st7" d="M664.9,114l-3.5-18.6c-0.6-3.3-1.8-6.5-3.5-9.4c-4.1-6.5-12.9-24-18.3-29.2c-1.3-1.3-2.7-2.6-4.4-3.3l-15-6.9
		c-19-8.8-40.6-11.3-61.5-8.2c-17.5,2-34.4,7-49.9,14.7c-9.9,4.9-15.8,14.7-14.9,25.1c0.1,4.1,3.2,34.2,2.6,37.5
		c-0.2,2.7-0.1,8.8,0.2,15.9c0.1,9.2,0.1,18.8,0.4,23c0,0,0,0,0,0c-0.1,0,0,0,0,0c1-6.2,4.9-17.5,6.9-23c1.4-3.9,3.2-7.2,5-9.7
		c4.1-5.8,8-12.2,12.9-16.4c2.8-2.4,5.1-2.9,7.2-3.8c3.1-1.5,13.4-5,16.7-6.3c5.2-1.9,10.8-2.8,16.1-3.7c18.3-3,41.5-2.8,57.9,6.7
		c11.2,6.9,21.1,15.6,29.3,25.6c4.4,5.8,10.6,19.8,13.1,27.2l0.1,0.3c0.1-0.6,0-0.3,0.1-0.8l1.1-14c0.3-5.5,1-10.9,1.7-16.3
		C665.4,118.1,665.3,116,664.9,114z"/>
	<path class="st7" d="M537,140c-1.6,0-2.8,1.8-2.9,4h21.3c1.6,0,2.8-1.8,2.9-4H537z"/>
	<path class="st7" d="M605.5,140c-1.6,0-2.8,1.8-2.9,4h21.3c1.6,0,2.8-1.8,2.9-4H605.5z"/>
	<path class="st7" d="M624,214.4c1.5,19.5-24.5,24.3-40.7,24.4c-16.2,0.1-43.1-4-42.3-23.7c0.8-19.7,25.4-22.6,41.5-22.7
		C598.6,192.5,622.5,194.9,624,214.4z"/>
	<path class="st0" d="M605,205.5C605,205.5,605,205.5,605,205.5c0,0.6-0.6,1.2-1.2,1.5c-6.9,4.1-34.5,4.1-41.6,0.1
		c-0.6-0.3-1.3-0.9-1.3-1.5c0-0.5,0.2-0.9,0.8-1.3l0,0c0.1-0.1,0.2-0.1,0.3-0.2c0,0,0,0,0,0c2.5-1.6,9-2.8,17-3.1
		c0.2,0,0.3,0,0.5,0.1c2.2-0.1,4.6-0.1,6.8,0c0.2,0,0.3-0.1,0.5-0.1c8,0.3,14.5,1.5,17,3.1c0.1,0,0.1,0.1,0.2,0.1
		C604.7,204.6,605,205,605,205.5z"/>
	<path class="st9" d="M561,204c4.5,1.2,11.6,1.4,18.3,1.5c9.1,0.1,20.4,0.4,25.7-1.5"/>
</g>
</svg>
