<svg xmlns="http://www.w3.org/2000/svg" viewBox="0 0 322.6 943.98"><defs><style>.cls-1{fill:#f5b98c;}.cls-2{fill:#adadad;}.cls-3{fill:#fff;}.cls-4{fill:#2d60aa;}.cls-5{fill:#ffa63b;}.cls-6{fill:#e2a379;}.cls-7{fill:#160900;}.cls-8{fill:#00060d;}.cls-9{fill:none;stroke:#533520;stroke-miterlimit:10;stroke-width:0.5px;}</style></defs><title>Asset 9</title><g id="Layer_2" data-name="Layer 2"><g id="Layer_1-2" data-name="Layer 1"><path id="rightHand" class="cls-1" d="M228.8,490.55c-5.75,6.17-11.62,13.74-2.75,20.2,9.85,7.17,19.39,1.06,27.94-5.41C245.67,500.32,237.3,495.32,228.8,490.55Z"/><path id="leftHand" class="cls-1" d="M105.5,518.62c-11.75,9.37-22.19-1.22-31.25-9.31,8.57-5.86,17.21-11.66,26-17.16C107.71,499.66,116.21,510.07,105.5,518.62Z"/><g id="leftFeet"><path class="cls-2" d="M131.19,919.68c-.44,10.77-6.77,19.31-14.49,19.3-9.11-.5-13.88-9.51-14.35-19,0,.2,0,.4,0,.61C102.22,932,107,943.41,116.7,944c8,0,14.51-10.28,14.53-23,0-.28,0-.56,0-.84S131.2,919.84,131.19,919.68Z"/><path class="cls-3" d="M103.72,910.85a.14.14,0,0,0,0-.06c2.07-7,6.41-12.45,13-12.81-6.59.34-10.93,5.15-13,11.36a.14.14,0,0,1,0,.06c-.17.53-.33,1.08-.48,1.62a30.92,30.92,0,0,0-.91,8.67c0,.11,0,.22,0,.33a37.78,37.78,0,0,1,1-7.66C103.44,911.85,103.58,911.35,103.72,910.85Z"/><path class="cls-3" d="M129.88,911.26a29.83,29.83,0,0,1,.77,3.26,34.26,34.26,0,0,1,.54,5.16c0-.17,0-.33,0-.49s0-.46,0-.69a28.3,28.3,0,0,0-.47-5.19,23.81,23.81,0,0,0-.88-3.47c-2.3-7-7.31-11.85-13.12-11.86C122.58,898,127.58,903.42,129.88,911.26Z"/><path class="cls-3" d="M116.7,939c7.72,0,14-8.53,14.49-19.3a34.26,34.26,0,0,0-.54-5.16,29.83,29.83,0,0,0-.77-3.26c-2.3-7.84-7.3-13.27-13.12-13.28-6.61.36-11,5.8-13,12.81a.14.14,0,0,1,0,.06c-.14.5-.28,1-.4,1.51a37.78,37.78,0,0,0-1,7.66C102.82,929.47,107.59,938.48,116.7,939Z"/></g><path id="leftLeg" class="cls-4" d="M165.69,567.05c-3.48,1-6.95,2-10.42,3.06-4.37,119.62-6.65,226.09-22.11,345.44l-.84-.19-2.15-.5-.13,0c-10.19-2.33-17.2-3.48-26.56-.12l-.15.06c-1.1.39-2.24.86-3.42,1.39-13.72-103.1-.56-234-12.74-329.69-.53-5.51-.93-11.31-1.19-17.27a435.52,435.52,0,0,1,1.19-57.56l.06-.05V485l1-16,71-1.92V567.23l2.42-.07Z"/><g id="rightFeet"><path class="cls-2" d="M210.19,919.68c-.44,10.77-6.77,19.31-14.49,19.3-9.11-.5-13.88-9.51-14.35-19,0,.2,0,.4,0,.61C181.22,932,186,943.41,195.7,944c8,0,14.51-10.28,14.53-23,0-.28,0-.56,0-.84S210.2,919.84,210.19,919.68Z"/><path class="cls-3" d="M182.72,910.85a.14.14,0,0,0,0-.06c2.07-7,6.41-12.45,13-12.81-6.59.34-10.93,5.15-13,11.36a.14.14,0,0,1,0,.06c-.17.53-.33,1.08-.48,1.62a30.92,30.92,0,0,0-.91,8.67c0,.11,0,.22,0,.33a37.78,37.78,0,0,1,1-7.66C182.44,911.85,182.58,911.35,182.72,910.85Z"/><path class="cls-3" d="M208.88,911.26a29.83,29.83,0,0,1,.77,3.26,34.26,34.26,0,0,1,.54,5.16c0-.17,0-.33,0-.49s0-.46,0-.69a28.3,28.3,0,0,0-.47-5.19,23.81,23.81,0,0,0-.88-3.47c-2.3-7-7.31-11.85-13.12-11.86C201.58,898,206.58,903.42,208.88,911.26Z"/><path class="cls-3" d="M195.7,939c7.72,0,14.05-8.53,14.49-19.3a34.26,34.26,0,0,0-.54-5.16,29.83,29.83,0,0,0-.77-3.26c-2.3-7.84-7.3-13.27-13.12-13.28-6.61.36-10.95,5.8-13,12.81a.14.14,0,0,1,0,.06c-.14.5-.28,1-.4,1.51a37.78,37.78,0,0,0-1,7.66C181.82,929.47,186.59,938.48,195.7,939Z"/></g><path id="rightLeg" class="cls-4" d="M243.8,511.64c-.32,12.51-2.58,29.48-4.55,41.85q-1.32,5.81-2.52,11.64c-23.83,116.14-9.45,236.59-23.39,353.81-1.29-.48-2.48-.94-3.58-1.37l-.11-.05c-16.29-6.41-13.24-7.33-27.33-2.16a.13.13,0,0,1-.08,0l-4.77,1.74c-6.16-116.6-20.18-233.34-10.91-350.1,0-.08,0-.16,0-.24l-.89.26-4,.11-2.42.07V467.06l77-2.08v4Z"/><path id="rightArm" class="cls-5" d="M275.8,236.54C266,247.14,257.07,256.79,251,270c42,82.4,32.66,146.94-26.18,218,11.92,7.09,23.91,14.08,35.88,21.08C313.16,451.12,361.45,285.93,275.8,236.54Z"/><path id="leftArm" class="cls-5" d="M104.82,488.89c-11.36,7.73-22.89,15.13-34.29,22.7C4.36,430.41-35.28,343.4,43.9,254.29c9.15-10.31,32.15-26,49.13-26.1.37,0,.94-.46.87,0,.67,15.08-5.32,29.92-8.34,44.78-16.8,20.59-34.16,42.78-39.33,68.84C37.55,385.5,56.15,420.29,79.11,456A313.48,313.48,0,0,0,104.82,488.89Z"/><path id="torso" class="cls-5" d="M236.44,471c-49.53.69-98.67-2.47-148.12.37C73.82,396.16,34.78,331.45,47.8,253a217.53,217.53,0,0,1,30.79-25.08c23.37-10.56,54.11-19.23,53.83-19.12l60.91,1.74L209,212.3c12.7,2.29,73.76,21.25,75.08,31.64C294,322.22,265.67,398,236.44,471Z"/><g id="head"><path class="cls-1" d="M255.67,135.51c-1.81,11-7.5,19.25-12.72,18.41-12.36-2.89-6-41.09,6.56-39.88C254.73,114.88,257.49,124.5,255.67,135.51Z"/><path class="cls-6" d="M251.76,135c-1.34,8.27-5.13,14.52-8.46,14-7.86-1.87-3.2-30.67,4.86-29.93C251.49,119.56,253.1,126.7,251.76,135Z"/><path class="cls-1" d="M82.3,135c.6,11.32,5.32,20.25,10.53,20,12.42-1.53,10.33-40.83-2.2-41C85.42,114.28,81.69,123.69,82.3,135Z"/><path class="cls-6" d="M87.29,134.31c.44,8.28,3.46,14.85,6.75,14.66,7.81-1,6.27-29.86-1.61-30C89.14,119.17,86.84,126,87.29,134.31Z"/><path id="face" class="cls-1" d="M195.24,35h-57.1c-29.22,0-52.91,26.36-52.91,58.9v16.57a92.86,92.86,0,0,0,10,41.48c11.85,23.6,29.29,54.86,41.5,61.16,9.82,32.24,46.1,35.06,59.55,3.89,27.83-1.9,49.12-69.74,52.49-78.68,2.25-8.93,1.25-32.63,1.45-42.09C250.23,62.39,225.61,35,195.24,35Zm-23.9,128.66c1.16,0,2.31,0,3.42.05a1.87,1.87,0,0,0-1,.77,2.78,2.78,0,0,1-4.82,0,1.74,1.74,0,0,0-1-.77C169,163.65,170.18,163.64,171.34,163.64Z"/><path class="cls-7" d="M243,154.47c-1.47,27.32-3.63,20.45-18.47,40.54-18.72,25.33-29.32,26.51-56,26.51-23.32,0-32.79-6.33-50.83-25C96.87,175,98.53,184.23,95.81,152.85,105.93,175.1,128.7,184.71,142.4,191c49.18,22,79-8.89,100.63-36.5Z"/><path class="cls-8" d="M142.23,118.48a7.76,7.76,0,0,1-8,7.5c-10.59-.35-10.59-14.65,0-15A7.76,7.76,0,0,1,142.23,118.48Z"/><path class="cls-8" d="M211.23,117.48a7.76,7.76,0,0,1-8,7.5c-10.59-.35-10.59-14.65,0-15A7.76,7.76,0,0,1,211.23,117.48Z"/><path class="cls-6" d="M169.73,142.26c-4.67,0-8.5-5.06-8.5-11.23v6.6c0,6.18,3.83,11.23,8.5,11.23s8.5-5.05,8.5-11.23V131C178.23,137.2,174.41,142.26,169.73,142.26Z"/><path class="cls-7" d="M253.14,76.93,249.62,58.3a30,30,0,0,0-3.52-9.41c-4.1-6.52-12.87-24-18.31-29.21a14.91,14.91,0,0,0-4.38-3.34l-15-6.86c-19-8.78-40.64-11.34-61.53-8.19A153.33,153.33,0,0,0,97,16c-9.92,4.89-15.78,14.75-15,25.12.12,4.06,3.22,34.17,2.65,37.54-.19,2.67-.11,8.82.16,15.88.06,9.24.1,18.81.43,23h0c1-6.22,4.91-17.46,6.87-23a39.85,39.85,0,0,1,5-9.65c4.09-5.81,8-12.2,12.89-16.45,2.75-2.38,5.14-2.86,7.19-3.75,3.08-1.55,13.38-5,16.73-6.29A95.64,95.64,0,0,1,150,54.65c18.33-3,41.49-2.8,57.9,6.67a118.14,118.14,0,0,1,29.28,25.56c4.43,5.83,10.58,19.8,13.14,27.17l.12.3a5.86,5.86,0,0,1,.12-.84l1.15-14.05c.27-5.45,1-10.86,1.66-16.29A20.76,20.76,0,0,0,253.14,76.93Z"/><path class="cls-7" d="M125.19,103c-1.55,0-2.82,1.78-2.88,4h21.31c1.56,0,2.83-1.79,2.89-4Z"/><path class="cls-7" d="M193.73,103c-1.55,0-2.82,1.78-2.89,4h21.32c1.56,0,2.83-1.79,2.89-4Z"/><path class="cls-7" d="M212.24,177.4c1.47,19.48-24.5,24.32-40.66,24.45s-43.07-4-42.29-23.7,25.36-22.59,41.45-22.66S210.77,157.92,212.24,177.4Z"/><path class="cls-1" d="M193.23,168.47v.06c0,.55-.63,1.09-1.16,1.41-6.89,4.12-34.55,4.1-41.56.07-.57-.32-1.27-.93-1.28-1.48a1.5,1.5,0,0,1,.77-1.25v0l.29-.2s0,0,0,0c2.51-1.57,9-2.76,17-3.06a1.57,1.57,0,0,1,.49.05c2.19-.07,4.59-.07,6.79,0a1.91,1.91,0,0,1,.48-.05c8,.3,14.49,1.49,17,3.06a1.13,1.13,0,0,1,.18.12A1.7,1.7,0,0,1,193.23,168.47Z"/><path class="cls-9" d="M149.23,167c4.51,1.23,11.58,1.44,18.27,1.49,9.11.07,20.35.35,25.73-1.49"/></g></g></g></svg>