<?xml version="1.0" encoding="utf-8"?>
<!-- Generator: Adobe Illustrator 24.0.2, SVG Export Plug-In . SVG Version: 6.00 Build 0)  -->
<svg version="1.1" id="Layer_1" xmlns="http://www.w3.org/2000/svg" xmlns:xlink="http://www.w3.org/1999/xlink" x="0px" y="0px"
	 viewBox="0 0 322.6 944" style="enable-background:new 0 0 322.6 944;" xml:space="preserve">
<style type="text/css">
	.st0{fill:#F5B98C;}
	.st1{fill:#ADADAD;}
	.st2{fill:#FFFFFF;}
	.st3{fill:#2D60AA;}
	.st4{fill:#FFA63B;}
	.st5{fill:#E2A379;}
	.st6{fill:#160900;}
	.st7{fill:#00060D;}
</style>
<title>Asset 9</title>
<g id="Layer_2_1_">
	<g id="Layer_1-2">
		<path id="rightHand" class="st0" d="M228.8,490.5c-5.8,6.2-11.6,13.7-2.8,20.2c9.9,7.2,19.4,1.1,27.9-5.4
			C245.7,500.3,237.3,495.3,228.8,490.5z"/>
		<path id="leftHand" class="st0" d="M105.5,518.6c-11.8,9.4-22.2-1.2-31.3-9.3c8.6-5.9,17.2-11.7,26-17.2
			C107.7,499.7,116.2,510.1,105.5,518.6z"/>
		<g id="leftFeet">
			<path class="st1" d="M131.2,919.7c-0.4,10.8-6.8,19.3-14.5,19.3c-9.1-0.5-13.9-9.5-14.3-19c0,0.2,0,0.4,0,0.6
				c-0.1,11.4,4.6,22.8,14.3,23.4c8,0,14.5-10.3,14.5-23c0-0.3,0-0.6,0-0.8S131.2,919.8,131.2,919.7z"/>
			<path class="st2" d="M103.7,910.8C103.7,910.8,103.7,910.8,103.7,910.8c2.1-7.1,6.4-12.5,13-12.9c-6.6,0.3-10.9,5.2-13,11.4
				c0,0,0,0,0,0.1c-0.2,0.5-0.3,1.1-0.5,1.6c-0.7,2.8-1,5.8-0.9,8.7c0,0.1,0,0.2,0,0.3c0.1-2.6,0.4-5.1,1-7.7
				C103.4,911.8,103.6,911.3,103.7,910.8z"/>
			<path class="st2" d="M129.9,911.3c0.3,1.1,0.6,2.2,0.8,3.3c0.3,1.7,0.5,3.4,0.5,5.2c0-0.2,0-0.3,0-0.5s0-0.5,0-0.7
				c0-1.7-0.2-3.5-0.5-5.2c-0.2-1.2-0.5-2.3-0.9-3.5c-2.3-7-7.3-11.8-13.1-11.9C122.6,898,127.6,903.4,129.9,911.3z"/>
			<path class="st2" d="M116.7,939c7.7,0,14-8.5,14.5-19.3c0-1.7-0.2-3.5-0.5-5.2c-0.2-1.1-0.5-2.2-0.8-3.3
				c-2.3-7.8-7.3-13.3-13.1-13.3c-6.6,0.4-11,5.8-13,12.8c0,0,0,0,0,0.1c-0.1,0.5-0.3,1-0.4,1.5c-0.6,2.5-0.9,5.1-1,7.7
				C102.8,929.5,107.6,938.5,116.7,939z"/>
		</g>
		<path id="leftLeg" class="st3" d="M165.7,567c-3.5,1-6.9,2-10.4,3.1c-4.4,119.6-6.6,226.1-22.1,345.4l-0.8-0.2l-2.1-0.5H130
			c-10.2-2.3-17.2-3.5-26.6-0.1l-0.2,0.1c-1.1,0.4-2.2,0.9-3.4,1.4c-13.7-103.1-0.6-234-12.7-329.7c-0.5-5.5-0.9-11.3-1.2-17.3
			c-0.9-19.2-0.5-38.4,1.2-57.6l0.1,0V485l1-16l71-1.9v100.1l2.4-0.1L165.7,567z"/>
		<g id="rightFeet">
			<path class="st1" d="M210.2,919.7c-0.4,10.8-6.8,19.3-14.5,19.3c-9.1-0.5-13.9-9.5-14.4-19c0,0.2,0,0.4,0,0.6
				c-0.1,11.4,4.7,22.8,14.4,23.4c8,0,14.5-10.3,14.5-23c0-0.3,0-0.6,0-0.8S210.2,919.8,210.2,919.7z"/>
			<path class="st2" d="M182.7,910.8C182.7,910.8,182.7,910.8,182.7,910.8c2.1-7.1,6.4-12.5,13-12.9c-6.6,0.3-10.9,5.2-13,11.4
				c0,0,0,0,0,0.1c-0.2,0.5-0.3,1.1-0.5,1.6c-0.7,2.8-1,5.8-0.9,8.7c0,0.1,0,0.2,0,0.3c0.1-2.6,0.4-5.1,1-7.7
				C182.4,911.8,182.6,911.3,182.7,910.8z"/>
			<path class="st2" d="M208.9,911.3c0.3,1.1,0.6,2.2,0.8,3.3c0.3,1.7,0.5,3.4,0.5,5.2c0-0.2,0-0.3,0-0.5s0-0.5,0-0.7
				c0-1.7-0.2-3.5-0.5-5.2c-0.2-1.2-0.5-2.3-0.9-3.5c-2.3-7-7.3-11.8-13.1-11.9C201.6,898,206.6,903.4,208.9,911.3z"/>
			<path class="st2" d="M195.7,939c7.7,0,14.1-8.5,14.5-19.3c0-1.7-0.2-3.5-0.5-5.2c-0.2-1.1-0.5-2.2-0.8-3.3
				c-2.3-7.8-7.3-13.3-13.1-13.3c-6.6,0.4-10.9,5.8-13,12.8c0,0,0,0,0,0.1c-0.1,0.5-0.3,1-0.4,1.5c-0.6,2.5-0.9,5.1-1,7.7
				C181.8,929.5,186.6,938.5,195.7,939z"/>
		</g>
		<path id="rightLeg" class="st3" d="M243.8,511.6c-0.3,12.5-2.6,29.5-4.6,41.8c-0.9,3.9-1.7,7.8-2.5,11.6
			c-23.8,116.1-9.4,236.6-23.4,353.8c-1.3-0.5-2.5-0.9-3.6-1.4l-0.1,0c-16.3-6.4-13.2-7.3-27.3-2.2c0,0-0.1,0-0.1,0l-4.8,1.7
			c-6.2-116.6-20.2-233.3-10.9-350.1c0-0.1,0-0.2,0-0.2l-0.9,0.3l-4,0.1l-2.4,0.1V467.1l77-2.1v4L243.8,511.6z"/>
		<path id="rightArm" class="st4" d="M275.8,236.5c-9.8,10.6-18.7,20.3-24.8,33.5c42,82.4,32.7,146.9-26.2,218
			c11.9,7.1,23.9,14.1,35.9,21.1C313.2,451.1,361.5,285.9,275.8,236.5z"/>
		<path id="leftArm" class="st4" d="M104.8,488.9c-11.4,7.7-22.9,15.1-34.3,22.7C4.4,430.4-35.3,343.4,43.9,254.3
			c9.2-10.3,32.2-26,49.1-26.1c0.4,0,0.9-0.5,0.9,0c0.7,15.1-5.3,29.9-8.3,44.8c-16.8,20.6-34.2,42.8-39.3,68.8
			c-8.7,43.7,9.9,78.5,32.9,114.2C86.9,467.5,95.5,478.5,104.8,488.9z"/>
		<path id="torso" class="st4" d="M236.4,471c-49.5,0.7-98.7-2.5-148.1,0.4C73.8,396.2,34.8,331.5,47.8,253
			c9.5-9.3,19.8-17.7,30.8-25.1c23.4-10.6,54.1-19.2,53.8-19.1l60.9,1.7l15.7,1.8c12.7,2.3,73.8,21.3,75.1,31.6
			C294,322.2,265.7,398,236.4,471z"/>
		<g id="head">
			<path class="st0" d="M255.7,135.5c-1.8,11-7.5,19.3-12.7,18.4c-12.4-2.9-6-41.1,6.6-39.9C254.7,114.9,257.5,124.5,255.7,135.5z"
				/>
			<path class="st5" d="M251.8,135c-1.3,8.3-5.1,14.5-8.5,14c-7.9-1.9-3.2-30.7,4.9-29.9C251.5,119.6,253.1,126.7,251.8,135z"/>
			<path class="st0" d="M82.3,135c0.6,11.3,5.3,20.3,10.5,20c12.4-1.5,10.3-40.8-2.2-41C85.4,114.3,81.7,123.7,82.3,135z"/>
			<path class="st5" d="M87.3,134.3c0.4,8.3,3.5,14.9,6.8,14.7c7.8-1,6.3-29.9-1.6-30C89.1,119.2,86.8,126,87.3,134.3z"/>
			<path id="face" class="st0" d="M195.2,35h-57.1c-29.2,0-52.9,26.4-52.9,58.9v16.6c0.1,14.4,3.5,28.6,10,41.5
				c11.8,23.6,29.3,54.9,41.5,61.2c9.8,32.2,46.1,35.1,59.6,3.9c27.8-1.9,49.1-69.7,52.5-78.7c2.3-8.9,1.3-32.6,1.4-42.1
				C250.2,62.4,225.6,35,195.2,35z"/>
			<path class="st6" d="M243,154.5c-1.5,27.3-3.6,20.4-18.5,40.5c-18.7,25.3-29.3,26.5-56,26.5c-23.3,0-32.8-6.3-50.8-25
				c-20.8-21.5-19.2-12.3-21.9-43.7c10.1,22.3,32.9,31.9,46.6,38.1C191.6,213,221.4,182.1,243,154.5L243,154.5z"/>
			<g id="visEyes">
				<path class="st7" d="M142.2,118.5c-0.1,4.3-3.7,7.6-8,7.5c-10.6-0.3-10.6-14.7,0-15C138.5,110.8,142.1,114.2,142.2,118.5z"/>
				<path class="st7" d="M211.2,117.5c-0.1,4.3-3.7,7.6-8,7.5c-10.6-0.3-10.6-14.7,0-15C207.5,109.8,211.1,113.2,211.2,117.5z"/>
			</g>
			<path class="st5" d="M169.7,142.3c-4.7,0-8.5-5.1-8.5-11.2v6.6c0,6.2,3.8,11.2,8.5,11.2s8.5-5.1,8.5-11.2V131
				C178.2,137.2,174.4,142.3,169.7,142.3z"/>
			<path class="st6" d="M253.1,76.9l-3.5-18.6c-0.6-3.3-1.8-6.5-3.5-9.4c-4.1-6.5-12.9-24-18.3-29.2c-1.2-1.4-2.7-2.5-4.4-3.3
				l-15-6.9c-19-8.8-40.6-11.3-61.5-8.2c-17.3,2-34.2,7-49.9,14.7c-9.9,4.9-15.8,14.8-15,25.1c0.1,4.1,3.2,34.2,2.7,37.5
				c-0.2,2.7-0.1,8.8,0.2,15.9c0.1,9.2,0.1,18.8,0.4,23l0,0c1-6.2,4.9-17.5,6.9-23c1.2-3.4,2.9-6.7,5-9.7c4.1-5.8,8-12.2,12.9-16.4
				c2.8-2.4,5.1-2.9,7.2-3.8c3.1-1.5,13.4-5,16.7-6.3c5.2-1.7,10.6-3,16.1-3.8c18.3-3,41.5-2.8,57.9,6.7c11.1,6.8,21,15.5,29.3,25.6
				c4.4,5.8,10.6,19.8,13.1,27.2l0.1,0.3c0-0.3,0.1-0.6,0.1-0.8l1.1-14.1c0.3-5.4,1-10.9,1.7-16.3C253.6,81.1,253.5,79,253.1,76.9z"
				/>
			<path class="st6" d="M125.2,103c-1.6,0-2.8,1.8-2.9,4h21.3c1.6,0,2.8-1.8,2.9-4H125.2z"/>
			<path class="st6" d="M193.7,103c-1.6,0-2.8,1.8-2.9,4h21.3c1.6,0,2.8-1.8,2.9-4H193.7z"/>
			<path class="st6" d="M212.2,177.4c1.5,19.5-24.5,24.3-40.7,24.4s-43.1-4-42.3-23.7s25.4-22.6,41.4-22.7S210.8,157.9,212.2,177.4z
				"/>
			<path id="upperLip" class="st0" d="M192.3,166.3c-5.7,1.5-16.2,1.3-24.8,1.2c-6.3,0-12.9-0.2-17.4-1.3l0.2-0.1
				c1.3-0.8,3.5-1.5,6.4-2c2.9-0.5,6.6-0.9,10.6-1c0.2,0,0.3,0,0.5,0c2.2-0.1,4.6-0.1,6.8,0c0.2,0,0.3,0,0.5,0
				c8,0.3,14.5,1.5,17,3.1c0.1,0,0.1,0.1,0.2,0.1C192.3,166.2,192.3,166.2,192.3,166.3z"/>
			<path id="lowerLip" class="st0" d="M193.2,168.5L193.2,168.5c0,0.6-0.6,1.2-1.2,1.5c-6.9,4.1-34.5,4.1-41.6,0.1
				c-0.6-0.3-1.3-0.9-1.3-1.5c0-0.5,0.3-1,0.8-1.3l0.1-0.1c4.5,1,11.1,1.2,17.4,1.3c8.6,0.1,19.2,0.3,24.8-1.2
				C192.8,167.5,193.1,168,193.2,168.5z"/>
		</g>
	</g>
</g>
</svg>
