<svg xmlns="http://www.w3.org/2000/svg" viewBox="0 0 322.6 947" ><defs><style>.cls-1{fill:#f5b98c;}.cls-2{fill:#2d60aa;}.cls-3{fill:#adadad;}.cls-4{fill:#fff;}.cls-5{fill:#ffa63b;}.cls-6{fill:#e2a379;}.cls-7{fill:#160900;}.cls-8{fill:#00060d;}.cls-9{fill:none;stroke:#533520;stroke-miterlimit:10;stroke-width:0.5px;}</style></defs><title>visitor_3</title><g id="Layer_2" data-name="Layer 2"><g id="Layer_1-2" data-name="Layer 1"><path id="rightHand" class="cls-1" d="M228.8,490.58c-5.75,6.17-11.62,13.73-2.75,20.19,9.85,7.18,19.39,1.06,27.94-5.41-6.11-3.79-12.41-7.34-18.63-11C233.21,493.07,231.09,491.71,228.8,490.58Z"/><path id="leftHand" class="cls-1" d="M105.5,518.64c-11.75,9.37-22.19-1.22-31.25-9.31,6.21-4.39,12.67-8.45,19-12.67,2.3-1.52,4.54-3.17,7-4.49C107.71,499.68,116.21,510.09,105.5,518.64Z"/><path class="cls-2" d="M243.8,511.66c-6.06-5.15-10-5.66-9.14-13.82a15.61,15.61,0,0,1,1.76-5.67q-5.25-3.87-10.48-7.75c3.57-5,6.11-8.52,9.29-13.42Z"/><g id="legs"><path class="cls-2" d="M243.8,511.66c-.32,12.51-2.58,29.48-4.55,41.85q-1.32,5.81-2.52,11.64l-70.17,1.9c0-.08,0-.16,0-.24l-.89.26-4,.11-75.67,2a435.52,435.52,0,0,1,1.19-57.56l.06-.05V485l-.48-.58c0-.33,3.48-28.42,3.48-28.42l142.92-4.44c1.68,5,3.3,10,4.78,15.06-.62,1-1.24,1.94-1.87,2.91q-4.77,7.35-10.12,14.89,5.22,3.88,10.48,7.75a15.61,15.61,0,0,0-1.76,5.67C233.82,506,237.74,506.51,243.8,511.66Z"/><g id="leftLeg"><g id="leftFeet"><ellipse class="cls-3" cx="116.73" cy="924" rx="23" ry="14.5" transform="translate(-807.42 1039.56) rotate(-89.93)"/><ellipse class="cls-4" cx="116.73" cy="922" rx="19" ry="14.5" transform="translate(-805.42 1037.53) rotate(-89.93)"/></g><path class="cls-2" d="M165.69,567.07l-4.08,1.19c-2.11.61-4.23,1.24-6.34,1.87-4.37,119.62-6.65,226.09-22.11,345.44l-.84-.19c-12.45-2.77-19.29-4.64-31.07.24l-1.34.56c-13.72-103.1-.56-234-12.74-329.69-.53-5.51-.93-11.31-1.19-17.27l75.67-2Z"/></g><g id="rightLeg"><g id="rightFeet"><ellipse class="cls-3" cx="195.73" cy="924" rx="23" ry="14.5" transform="translate(-728.52 1118.56) rotate(-89.93)"/><ellipse class="cls-4" cx="195.73" cy="922.5" rx="19.5" ry="14.5" transform="translate(-727.01 1117.08) rotate(-89.93)"/></g><path class="cls-2" d="M236.73,565.15C212.9,681.29,227.28,801.74,213.34,919l-1.48-.53c-19.77-7.21-13.1-8.9-30.67-2.6l-3.72,1.32c-6.16-116.6-20.18-233.34-10.91-350.1Z"/></g></g><path id="rightArm" class="cls-5" d="M275.8,236.56C266,247.17,257.07,256.82,251,270c38,78.69,36.07,130.94-14.4,203.33-3.61,5.18-8,9.71-11.78,14.71l4.09,2.42,6.48,3.85q9.34,5.49,18.7,10.94l6.61,3.87C313.16,451.14,361.45,286,275.8,236.56Z"/><path id="leftArm" class="cls-5" d="M104.82,488.91,100.18,492l-2.63,1.76L95,495.48l-1.76,1.17-14.34,9.42c-1.58,1-3.3,2.18-4.75,3.12s-2.16,1.4-3.66,2.43C4.36,430.44-35.28,343.42,43.9,254.31c9.15-10.3,32.15-26,49.13-26.09.3,0,.79-.31.84-.2s0,.1,0,.15c.67,15.08-5.32,29.93-8.34,44.78-16.8,20.59-34.16,42.78-39.33,68.84-8.68,43.73,9.92,78.53,32.88,114.28,3.7,5.76,10,13.65,14.34,19.62.21.29.55.63.82.95C97.73,480.73,101.28,484.86,104.82,488.91Z"/><path id="torso" class="cls-5" d="M236.44,471c-46.14.65-91.84-2.05-137.93-.14-3.39.14-6.78.32-10.19.51-1.38-7.17-3-14.22-4.72-21.16-9.76-39-24.19-74.79-32.3-112.15-5.83-26.92-8.37-54.66-3.5-85A217.5,217.5,0,0,1,78.59,228c.24-.11.48-.23.73-.33,24-10.69,53.1-18.8,53.1-18.8l60.91,1.74L209,212.32c12.7,2.3,73.76,21.25,75.08,31.64C294,322.24,265.67,398,236.44,471Z"/><g id="head"><ellipse class="cls-1" cx="246.23" cy="134" rx="20.21" ry="9.57" transform="translate(73.9 355.11) rotate(-80.62)"/><ellipse class="cls-6" cx="245.73" cy="134" rx="15.16" ry="6.11" transform="translate(74.25 355.21) rotate(-80.82)"/><ellipse class="cls-1" cx="91.73" cy="134.5" rx="9.45" ry="20.52" transform="matrix(1, -0.05, 0.05, 1, -7.01, 5.06)"/><ellipse class="cls-6" cx="93.23" cy="134" rx="5.95" ry="15.02" transform="translate(-6.99 5.14) rotate(-3.04)"/><path id="face" class="cls-1" d="M195.24,35h-57.1c-29.22,0-52.91,26.36-52.91,58.9v16.58a92.85,92.85,0,0,0,10,41.47c11.85,23.6,29.29,54.87,41.5,61.16,4.25,14.34,15.46,24.8,28,25.86,13,1.09,25.69-8,31.52-22q3.27-.8,6.57-1.81c22-6.75,43.49-69.51,45.62-75.84.11-.34.21-.67.3-1l.2-.86a12,12,0,0,0,.3-1.89c.33-3.81.95-6.6.95-10.63V96.23C250.23,62.42,225.61,35,195.24,35Zm-23.9,128.66c1.16,0,2.31,0,3.42.05a1.87,1.87,0,0,0-1,.77,2.78,2.78,0,0,1-4.82,0,1.74,1.74,0,0,0-1-.77C169,163.68,170.18,163.66,171.34,163.66Z"/><path class="cls-7" d="M243,154.49C241.56,181.82,239.4,175,224.56,195c-18.72,25.33-29.32,26.51-56,26.51-23.32,0-32.79-6.33-50.83-24.94-20.88-21.55-19.22-12.35-21.94-43.72,10.12,22.24,32.89,31.85,46.59,38.11,17.36,7.93,36,10.28,56.36,2.71S243,154.49,243,154.49Z"/><ellipse class="cls-8" cx="134.23" cy="118.5" rx="8" ry="7.5"/><ellipse class="cls-8" cx="203.23" cy="117.5" rx="8" ry="7.5"/><path class="cls-6" d="M169.73,142.28c-4.67,0-8.5-5.05-8.5-11.23v6.61c0,6.17,3.83,11.22,8.5,11.22s8.5-5,8.5-11.22v-6.61C178.23,137.23,174.41,142.28,169.73,142.28Z"/><path class="cls-7" d="M253.14,77l-3.52-18.63a29.91,29.91,0,0,0-3.52-9.4l-12-20.81a43.2,43.2,0,0,0-6.27-8.41,14.71,14.71,0,0,0-4.38-3.33l-15-6.86A106.59,106.59,0,0,0,151.85.73l-5,.59A153.56,153.56,0,0,0,97,16c-9.92,4.9-15.78,14.75-15,25.12l2.59,31.83a37.54,37.54,0,0,1,.06,5.71c-.19,2.68-.11,8.83.16,15.88.06,9.24.1,18.81.43,23h0c1-6.22,4.91-17.46,6.87-23a40,40,0,0,1,5-9.65c4.09-5.81,8-12.19,12.89-16.45,2.75-2.38,5.14-2.86,7.19-3.75,1.48-.64,3-1.31,4.47-1.86l12.26-4.42a69.78,69.78,0,0,1,9.47-2.54L150,54.67a111,111,0,0,1,42.94.79,50.16,50.16,0,0,1,15,5.88c.1,0,.2.12.3.18,1.22.77,2.38,1.54,3.51,2.28a117.67,117.67,0,0,1,24.65,22.11l.82,1a4.58,4.58,0,0,0,.35.52c4.21,5.6,10.34,19.59,12.79,26.65l.12.31a6.21,6.21,0,0,1,.12-.85l1.15-14c.27-5.46,1-10.87,1.66-16.29A20.84,20.84,0,0,0,253.14,77Z"/><path class="cls-7" d="M125.19,103c-1.55,0-2.82,1.79-2.88,4h21.31c1.56,0,2.83-1.79,2.89-4Z"/><path class="cls-7" d="M193.73,103c-1.55,0-2.82,1.79-2.89,4h21.32c1.56,0,2.83-1.79,2.89-4Z"/><path class="cls-7" d="M212.24,177.43c1.47,19.48-24.5,24.31-40.66,24.45s-43.07-4-42.29-23.71,25.36-22.59,41.45-22.65S210.77,158,212.24,177.43Z"/><path class="cls-1" d="M193.23,168.49v.07a1.6,1.6,0,0,1-.63,1c-.15.13-.33.25-.53.39-2.6,1.59-9.27,2.78-17.44,3.05-1.1,0-2.25,0-3.4,0s-2.3,0-3.39,0c-8-.27-14.65-1.43-17.33-3-.18-.11-.35-.22-.5-.33a1.73,1.73,0,0,1-.78-1.14v-.07a1.56,1.56,0,0,1,.77-1.19v0l.29-.2h0c2.51-1.58,9-2.77,17-3.07h.05a2.12,2.12,0,0,1,.44.05c1.09,0,2.24-.05,3.39-.05s2.3,0,3.4.05a2.52,2.52,0,0,1,.48-.05c8,.3,14.49,1.49,17,3.07a.67.67,0,0,1,.18.11A1.72,1.72,0,0,1,193.23,168.49Z"/><path class="cls-9" d="M149.23,167c4.51,1.23,11.58,1.44,18.27,1.49,9.11.07,20.35.35,25.73-1.49"/></g></g></g></svg>
