<svg xmlns="http://www.w3.org/2000/svg" viewBox="0 0 41.69 122"><defs><style>.cls-1{fill:#f5b98c;}.cls-2{fill:#adadad;}.cls-3{fill:#fff;}.cls-4{fill:#2d60aa;}.cls-5{fill:#ffa63b;}.cls-6{fill:#e2a379;}.cls-7{fill:#160900;}.cls-8{fill:#00060d;}</style></defs><title>Asset 1</title><g id="Layer_2" data-name="Layer 2"><g id="Layer_1-2" data-name="Layer 1"><g id="visitor"><path id="rightHand" class="cls-1" d="M29.57,63.4c-.74.8-1.5,1.77-.36,2.61s2.51.14,3.62-.7C31.75,64.66,30.67,64,29.57,63.4Z"/><path id="leftHand" class="cls-1" d="M13.63,67c-1.51,1.21-2.86-.16-4-1.21,1.1-.75,2.22-1.5,3.36-2.21C13.92,64.58,15,65.92,13.63,67Z"/><g id="leftFeet"><path class="cls-2" d="M17,118.86c-.06,1.39-.88,2.5-1.88,2.49-1.18-.06-1.79-1.23-1.85-2.45V119c0,1.47.6,3,1.85,3,1,0,1.88-1.33,1.88-3v-.17Z"/><path class="cls-3" d="M13.4,117.72h0a2,2,0,0,1,1.68-1.66,1.93,1.93,0,0,0-1.68,1.47h0l-.06.21a3.81,3.81,0,0,0-.11,1.12v0a5.47,5.47,0,0,1,.12-1A1.33,1.33,0,0,0,13.4,117.72Z"/><path class="cls-3" d="M16.79,117.77c0,.14.07.28.1.42a4.9,4.9,0,0,1,.07.67v-.15a3.63,3.63,0,0,0-.06-.67c0-.16-.07-.31-.11-.45a2,2,0,0,0-1.7-1.54C15.84,116.06,16.49,116.76,16.79,117.77Z"/><path class="cls-3" d="M15.08,121.35c1,0,1.82-1.1,1.88-2.49a4.9,4.9,0,0,0-.07-.67c0-.14-.06-.28-.1-.42-.3-1-.95-1.71-1.7-1.72a2,2,0,0,0-1.68,1.66h0a1.33,1.33,0,0,1-.05.19,5.47,5.47,0,0,0-.12,1C13.29,120.12,13.9,121.29,15.08,121.35Z"/></g><path id="leftLeg" class="cls-4" d="M21.41,73.29l-1.34.39c-.57,15.46-.86,29.22-2.86,44.65l-.11,0-.28-.06h0a5.47,5.47,0,0,0-3.44,0h0l-.44.18c-1.77-13.32-.07-30.23-1.64-42.6-.07-.72-.12-1.47-.16-2.24a57.05,57.05,0,0,1,.16-7.44h0V62.68l.13-2.07,9.18-.25v13h.83Z"/><g id="rightFeet"><path class="cls-2" d="M27.17,118.86c-.06,1.39-.88,2.5-1.88,2.49-1.18-.06-1.79-1.23-1.85-2.45V119c0,1.47.6,3,1.85,3,1,0,1.88-1.33,1.88-3v-.17Z"/><path class="cls-3" d="M23.61,117.72h0a2,2,0,0,1,1.68-1.66,1.93,1.93,0,0,0-1.68,1.47h0l-.06.21a3.81,3.81,0,0,0-.11,1.12v0a5.47,5.47,0,0,1,.12-1A1.33,1.33,0,0,0,23.61,117.72Z"/><path class="cls-3" d="M27,117.77c0,.14.07.28.1.42a4.9,4.9,0,0,1,.07.67v-.15a3.63,3.63,0,0,0-.06-.67c0-.16-.07-.31-.11-.45a2,2,0,0,0-1.7-1.54C26.05,116.06,26.7,116.76,27,117.77Z"/><path class="cls-3" d="M25.29,121.35c1,0,1.82-1.1,1.88-2.49a4.9,4.9,0,0,0-.07-.67c0-.14-.06-.28-.1-.42-.3-1-.95-1.71-1.7-1.72a2,2,0,0,0-1.68,1.66h0a1.33,1.33,0,0,1-.05.19,5.47,5.47,0,0,0-.12,1C23.5,120.12,24.11,121.29,25.29,121.35Z"/></g><path id="rightLeg" class="cls-4" d="M31.38,66.12a44.74,44.74,0,0,1-.59,5.41c-.11.5-.22,1-.32,1.51-3.08,15-1.23,30.57-3,45.72l-.46-.17h0c-2.11-.83-1.72-1-3.54-.28h0l-.61.22C22,103.46,20.2,88.37,21.4,73.28v0l-.12,0h-.83v-13l10-.27v.52Z"/><path id="rightArm" class="cls-5" d="M35.64,30.57a16.32,16.32,0,0,0-3.2,4.33c5.43,10.65,4.22,19-3.39,28.18l4.64,2.72C40.47,58.3,46.71,37,35.64,30.57Z"/><path id="leftArm" class="cls-5" d="M13.55,63.18c-1.47,1-3,2-4.43,2.94C.56,55.63-4.56,44.38,5.67,32.86,6.86,31.53,9.83,29.5,12,29.49c.05,0,.12-.06.12,0,.08,1.94-.69,3.86-1.08,5.78C8.89,37.93,6.64,40.8,6,44.17c-1.12,5.65,1.29,10.15,4.25,14.77A40.54,40.54,0,0,0,13.55,63.18Z"/><path id="torso" class="cls-5" d="M30.56,60.87c-6.4.09-12.75-.32-19.15.05C9.54,51.2,4.49,42.84,6.18,32.7a27.93,27.93,0,0,1,4-3.24,56.31,56.31,0,0,1,7-2.47l7.88.22,2,.23c1.64.29,9.53,2.74,9.7,4.09C38,41.64,34.34,51.43,30.56,60.87Z"/><path class="cls-1" d="M33,17.51c-.23,1.43-1,2.49-1.64,2.38-1.6-.37-.78-5.31.85-5.15C32.92,14.85,33.28,16.09,33,17.51Z"/><path class="cls-6" d="M32.54,17.44c-.18,1.07-.66,1.88-1.1,1.81-1-.24-.41-4,.63-3.87C32.5,15.45,32.71,16.38,32.54,17.44Z"/><path class="cls-1" d="M10.39,17.57C10.61,19,11.33,20.1,12,20c1.58-.35.82-5.38-.79-5.24C10.53,14.86,10.17,16.12,10.39,17.57Z"/><path class="cls-6" d="M11,17.41c.16,1.06.63,1.87,1.05,1.81,1-.23.44-3.92-.58-3.84C11.07,15.44,10.86,16.35,11,17.41Z"/><path id="face" class="cls-1" d="M25.23,4.52H17.85C14.08,4.52,11,7.93,11,12.13v2.14a11.94,11.94,0,0,0,1.29,5.37c1.53,3.05,3.78,7.09,5.36,7.9,1.27,4.17,6,4.53,7.7.5,3.6-.24,6.35-9,6.78-10.17a37.65,37.65,0,0,0,.19-5.44C32.34,8.06,29.16,4.52,25.23,4.52Z"/><path class="cls-7" d="M31.41,19.83c-.19,3.54-.47,2.65-2.39,5.24-2.42,3.28-3.79,3.43-7.23,3.43-3,0-4.24-.82-6.57-3.22-2.7-2.79-2.49-1.6-2.84-5.65,1.31,2.87,4.25,4.11,6,4.92,6.36,2.85,10.22-1.15,13-4.72Z"/><path class="cls-8" d="M18.38,15.31a1,1,0,0,1-1,1,1,1,0,1,1,0-1.94A1,1,0,0,1,18.38,15.31Z"/><path class="cls-8" d="M27.3,15.18a1,1,0,0,1-1,1,1,1,0,1,1,0-1.94A1,1,0,0,1,27.3,15.18Z"/><path class="cls-6" d="M21.94,18.39c-.61,0-1.1-.66-1.1-1.46v.86a1.31,1.31,0,0,0,1.1,1.45c.6,0,1.09-.65,1.09-1.45v-.86C23,17.73,22.54,18.39,21.94,18.39Z"/><path class="cls-7" d="M32.72,9.94l-.46-2.41a3.85,3.85,0,0,0-.45-1.21,29,29,0,0,0-2.37-3.78,2,2,0,0,0-.57-.43l-1.93-.88A14,14,0,0,0,19,.17a19.75,19.75,0,0,0-6.45,1.89A3.36,3.36,0,0,0,10.6,5.31c0,.53.42,4.42.34,4.85s0,1.14,0,2.05c0,1.2,0,2.44.06,3h0a21.47,21.47,0,0,1,.89-3A4.62,4.62,0,0,1,12.55,11a12.07,12.07,0,0,1,1.66-2.13,2.75,2.75,0,0,1,.93-.48c.4-.2,1.73-.65,2.16-.82a13,13,0,0,1,2.08-.48c2.37-.39,5.37-.36,7.49.86a15.39,15.39,0,0,1,3.78,3.31,16.78,16.78,0,0,1,1.7,3.51l0,0c0-.07,0,0,0-.11l.15-1.82c0-.7.13-1.4.21-2.1A2.45,2.45,0,0,0,32.72,9.94Z"/><path class="cls-7" d="M16.18,13.31c-.2,0-.36.23-.37.52h2.75c.2,0,.37-.24.38-.52Z"/><path class="cls-7" d="M25,13.31c-.2,0-.37.23-.38.52h2.76c.2,0,.36-.24.37-.52Z"/><path class="cls-7" d="M27.43,22.93c.19,2.52-3.17,3.14-5.25,3.16s-5.57-.52-5.47-3.07S20,20.1,22.07,20.1,27.24,20.41,27.43,22.93Z"/><path id="lowerLip" class="cls-1" d="M25,22h0c0,.07-.08.14-.15.18a9.35,9.35,0,0,1-5.37,0c-.07,0-.16-.12-.16-.19a.15.15,0,0,1,.08-.15,14,14,0,0,0,2.26.14,17.41,17.41,0,0,0,3.27-.14A.19.19,0,0,1,25,22Z"/><path id="upperLip" class="cls-1" d="M24.9,21.76a17.41,17.41,0,0,1-3.27.14,14,14,0,0,1-2.26-.14h0l0,0h0a5.44,5.44,0,0,1,2.2-.4h1a5.44,5.44,0,0,1,2.2.4h0Z"/></g></g></g></svg>