<?xml version="1.0" encoding="utf-8"?>
<!-- Generator: Adobe Illustrator 24.0.2, SVG Export Plug-In . SVG Version: 6.00 Build 0)  -->
<svg version="1.1" id="Layer_1" xmlns="http://www.w3.org/2000/svg" xmlns:xlink="http://www.w3.org/1999/xlink" x="0px" y="0px"
	 viewBox="0 0 1280 1024" style="enable-background:new 0 0 1280 1024;" xml:space="preserve">
<style type="text/css">
	.st0{fill:#4C4C4C;}
	.st1{fill:#C48D69;}
	.st2{fill:#FF7171;}
	.st3{fill:none;stroke:#999999;stroke-width:0.25;stroke-miterlimit:10;}
	.st4{fill:#ADADAD;}
	.st5{fill:#FFFFFF;}
	.st6{fill:#2D60AA;}
	.st7{fill:#BC8161;}
	.st8{fill:#160900;}
	.st9{fill:#00060D;}
	.st10{fill:none;stroke:#533520;stroke-width:0.5;stroke-miterlimit:10;}
</style>
<rect class="st0" width="1287" height="1024"/>
<g id="rightArm">
	<path class="st1" d="M637.6,528c-5.8,6.2-11.6,13.9-2.8,20.4c9.9,7.2,19.4,1.1,27.9-5.5c-6.1-3.8-12.4-7.4-18.6-11.1
		C642,530.5,639.9,529.1,637.6,528z"/>
	<path class="st2" d="M684.6,271.6c-9.8,10.7-18.7,20.4-24.8,33.8c38,79.4,36.1,132.2-14.4,205.2c-3.6,5.2-8,9.8-11.8,14.9
		c1.4,0.8,2.7,1.6,4.1,2.4c2.2,1.3,4.3,2.6,6.5,3.9c6.2,3.7,12.5,7.4,18.7,11.1c2.2,1.3,4.4,2.6,6.6,3.9
		C721.9,488.1,770.2,321.4,684.6,271.6z"/>
</g>
<g id="leftArm">
	<path class="st1" d="M521.3,549.6c-11.7,9.4-22.2-1.2-31.3-9.3c6.2-4.4,12.7-8.5,19-12.7c2.3-1.5,4.5-3.2,7-4.5
		C523.5,530.7,532,541.1,521.3,549.6z"/>
	<g>
		<path class="st2" d="M520.6,519.9c-1.5,1-3.1,2.1-4.6,3.1c-0.9,0.6-1.8,1.2-2.6,1.8c-0.8,0.6-1.8,1.2-2.5,1.7
			c-0.7,0.5-1.2,0.8-1.8,1.2c-4.8,3.1-9.6,6.3-14.3,9.4c-1.6,1-3.3,2.2-4.8,3.1c-1.4,0.9-2.2,1.4-3.7,2.4
			c-66.2-81.2-105.8-168.2-26.6-257.3c9.2-10.3,32.2-26,49.1-26.1c0.3,0,0.8-0.3,0.8-0.2c0.1,0.1,0,0.1,0,0.2
			c0.7,15.1-5.3,29.9-8.3,44.8c-16.8,20.6-34.2,42.8-39.3,68.8c-8.7,43.7,9.9,78.5,32.9,114.3c3.7,5.8,10,13.7,14.3,19.6
			c0.2,0.3,0.6,0.6,0.8,0.9C513.5,511.7,517,515.9,520.6,519.9z"/>
	</g>
</g>
<path class="st3" d="M617.5,973"/>
<ellipse transform="matrix(1.299001e-03 -1 1 1.299001e-03 -433.4317 1488.495)" class="st4" cx="528.5" cy="961.2" rx="22.8" ry="14.5"/>
<ellipse transform="matrix(1.299625e-03 -1 1 1.299625e-03 -431.1846 1486.2543)" class="st5" cx="528.5" cy="959" rx="19" ry="14.5"/>
<ellipse transform="matrix(1.299001e-03 -1 1 1.299001e-03 -354.5343 1567.4949)" class="st4" cx="607.5" cy="961.2" rx="22.8" ry="14.5"/>
<ellipse transform="matrix(1.299630e-03 -1 1 1.299630e-03 -352.5464 1565.5123)" class="st5" cx="607.5" cy="959.3" rx="19.3" ry="14.5"/>
<path class="st3" d="M538,972"/>
<path id="legs" class="st6" d="M646.4,534.8c0.2-2.1,0.9-4,1.8-5.7c-3.5-2.6-7-5.2-10.5-7.7c4.3-6,8.3-12,12-17.8
	c-1.5-5-3.1-10.1-4.8-15.1c-47.2,9.2-96.5,8.9-144.4,5.5c0,0.4-0.1,0.8-0.1,1.2c3.2,5.6,6.6,11.2,10.1,16.9c-4,2.8-8,5.5-11.9,8.3
	c0,0.3-0.1,0.7-0.1,1c3.6,4.4,6.9,8.1,6.6,14.2c-0.3,8.1,0,8.2-6.2,13.1c-2.1,23.2-2.2,51.6,0,74.8c12.2,95.7-1,226.6,12.7,329.7
	c0.5-0.2,0.9-0.4,1.3-0.6c11.8-4.9,18.6-3,31.1-0.2c0.3,0.1,0.6,0.1,0.8,0.2c15.5-119.4,17.7-225.8,22.1-345.4
	c3.8-1.1,7.6-2.2,11.3-3.3c-9.3,116.8,4.7,233.7,10.9,350.3c1.4-0.5,2.6-0.9,3.7-1.3c17.6-6.3,10.9-4.6,30.7,2.6
	c0.5,0.2,1,0.4,1.5,0.5c14.4-121.1-1.4-245.7,25.9-365.5c2-12.4,4.2-29.3,4.5-41.9C649.5,543.5,645.6,543,646.4,534.8z"/>
<path id="torso" class="st2" d="M648.2,508c-46.1,0.6-91.8-2.1-137.9-0.1c-3.4,0.1-6.8,0.3-10.2,0.5c-1.4-7.2-3-14.2-4.7-21.2
	c-9.8-39-24.2-74.8-32.3-112.1c-5.8-26.9-8.4-54.7-3.5-85c8.7-8.6,19-17,30.8-25.1c0.2-0.1,0.5-0.2,0.7-0.3
	c24-10.7,53.1-18.8,53.1-18.8l60.9,1.7l15.7,1.7c12.7,2.3,73.8,21.2,75.1,31.6C705.7,359.2,677.4,435,648.2,508z"/>
<g id="earRight">
	
		<ellipse transform="matrix(0.1613 -0.9869 0.9869 0.1613 382.8856 793.2623)" class="st1" cx="658.2" cy="171.3" rx="20.4" ry="9.6"/>
	
		<ellipse transform="matrix(0.1613 -0.9869 0.9869 0.1613 382.1174 791.9876)" class="st7" cx="657" cy="171.2" rx="15.1" ry="6.1"/>
</g>
<g id="earLeft">
	
		<ellipse transform="matrix(0.9985 -5.492465e-02 5.492465e-02 0.9985 -8.6455 27.9131)" class="st1" cx="503.5" cy="171.2" rx="9.6" ry="20.4"/>
	
		<ellipse transform="matrix(0.9985 -5.492465e-02 5.492465e-02 0.9985 -8.6403 27.976)" class="st7" cx="504.6" cy="171.2" rx="6.1" ry="15.1"/>
</g>
<path id="face" class="st1" d="M607.1,71.7h-57.2c-29.3,0-53,26.4-53,58.9v16.6c0,14.4,3.6,28.6,10,41.5
	c11.9,23.6,29.4,54.9,41.6,61.2c4.3,14.3,15.5,24.8,28.1,25.9c13,1.1,25.8-8,31.6-22c2.2-0.5,4.4-1.1,6.6-1.8
	c22.1-6.8,43.6-69.5,45.7-75.8c0.1-0.3,0.2-0.7,0.3-1l0.2-0.9c0.2-0.6,0.3-1.3,0.3-1.9c0.3-3.8,1-6.6,1-10.6V133
	C662.2,99.2,637.5,71.7,607.1,71.7z M583.1,200.7c1.2,0,2.3,0,3.4,0.1c-0.4,0.1-0.8,0.4-1,0.8c-1.1,1.9-3.8,1.9-4.8,0
	c-0.2-0.4-0.6-0.7-1-0.8C580.8,200.7,582,200.7,583.1,200.7z"/>
<path class="st8" d="M654.8,191.5c-1.5,27.3-3.6,20.5-18.5,40.5c-18.7,25.3-29.3,26.5-56,26.5c-23.3,0-32.8-6.3-50.8-24.9
	c-20.9-21.5-19.2-12.3-21.9-43.7c8.8,22.9,32.8,31.9,46.6,38.1c17.4,7.8,36,10.3,56.4,2.7C630.9,223.2,654.8,191.5,654.8,191.5
	L654.8,191.5z"/>
<ellipse class="st9" cx="546.2" cy="155.2" rx="7.8" ry="7.6"/>
<ellipse class="st9" cx="614.7" cy="154.9" rx="7.8" ry="7.6"/>
<path class="st7" d="M581.3,179.2c-4.5,0-8.3-4.9-8.3-10.9v6.4c0,6,3.7,10.9,8.3,10.9c4.5,0,8.3-4.9,8.3-10.9v-6.4
	C589.6,174.3,585.9,179.2,581.3,179.2z"/>
<path class="st8" d="M664.9,114l-3.5-18.6c-0.6-3.3-1.8-6.5-3.5-9.4l-12-20.8c-1.7-3-3.8-5.9-6.3-8.4c-1.3-1.3-2.7-2.6-4.4-3.3
	l-15-6.9c-17.5-8-37.2-11-56.6-8.8l-5,0.6c-17.5,2-34.4,7-49.9,14.7c-9.9,4.9-15.8,14.7-14.9,25.1l2.6,31.8c0.2,1.9,0.2,3.8,0.1,5.7
	c-0.2,2.7-0.1,8.8,0.2,15.9c0.1,9.2,0.1,18.8,0.4,23c0,0,0,0,0,0c-0.1,0,0,0,0,0c1-6.2,4.9-17.5,6.9-23c1.4-3.9,3.2-7.2,5-9.7
	c4.1-5.8,8-12.2,12.9-16.4c2.8-2.4,5.1-2.9,7.2-3.8c1.5-0.6,2.9-1.3,4.5-1.9l12.3-4.4c3.5-1.1,6.2-2,9.5-2.5l6.6-1.2
	c14.2-2.5,28.8-2.3,42.9,0.8c5.3,1.2,10.4,3.1,15,5.9c0.1,0.1,0.2,0.1,0.3,0.2c1.2,0.8,2.4,1.5,3.5,2.3c9.3,6.2,17.6,13.7,24.6,22.1
	l0.8,1c0,0.1,0.2,0.3,0.4,0.5c4.2,5.6,10.3,19.6,12.8,26.6l0.1,0.3c0.1-0.6,0-0.3,0.1-0.8l1.1-14c0.3-5.5,1-10.9,1.7-16.3
	C665.4,118.1,665.3,116,664.9,114z"/>
<path class="st8" d="M537,139.9c-1.6,0-2.8,1.8-2.9,4h21.3c1.6,0,2.8-1.8,2.9-4H537z"/>
<path class="st8" d="M605.5,139.9c-1.6,0-2.8,1.8-2.9,4h21.3c1.6,0,2.8-1.8,2.9-4H605.5z"/>
<path class="st8" d="M624,214.4c1.5,19.5-24.5,24.3-40.7,24.4c-16.2,0.1-43.1-4-42.3-23.7c0.8-19.7,25.4-22.6,41.5-22.7
	C598.6,192.5,622.5,194.9,624,214.4z"/>
<g id="mouth">
	<path class="st7" d="M605.3,205.2C605.3,205.2,605.3,205.2,605.3,205.2C605.3,205.2,605.3,205.2,605.3,205.2c0,0.4-0.3,0.8-0.6,1.1
		c-0.2,0.1-0.3,0.3-0.5,0.4c-2.6,1.6-9.3,2.8-17.6,3c-1.1,0-2.3,0.1-3.4,0.1c-1.2,0-2.3,0-3.4-0.1c-8.1-0.3-14.7-1.4-17.4-3
		c-0.2-0.1-0.4-0.2-0.5-0.3c-0.5-0.4-0.8-0.8-0.8-1.1c0,0,0,0,0,0c0,0,0,0,0,0c0-0.4,0.3-0.8,0.8-1.2l0,0c0.1-0.1,0.2-0.1,0.3-0.2
		c0,0,0,0,0.1,0c2.5-1.6,9.1-2.8,17.1-3.1h0.1c0.2,0,0.3,0,0.4,0.1c1.1,0,2.3-0.1,3.4-0.1c1.2,0,2.3,0,3.4,0.1
		c0.2,0,0.3-0.1,0.5-0.1c8.1,0.3,14.6,1.5,17.1,3.1c0.1,0,0.1,0.1,0.2,0.1C604.9,204.2,605.3,204.7,605.3,205.2z"/>
	<path class="st10" d="M561,204c4.5,1.2,11.6,1.4,18.3,1.5c9.1,0.1,20.4,0.4,25.7-1.5"/>
</g>
</svg>
